<svg width="55" height="57" viewBox="0 0 55 57" fill="none" xmlns="http://www.w3.org/2000/svg">
<mask id="mask0_2059_12144" style="mask-type:luminance" maskUnits="userSpaceOnUse" x="14" y="0" width="41" height="41">
<path d="M50.6847 18.4762C50.2085 16.4706 49.4186 14.5882 48.3654 12.8796L49.8444 8.28011L46.7015 5.13726L42.1021 6.61624C40.3934 5.56302 38.511 4.77312 36.5054 4.29693L34.3038 0H29.8556L27.6539 4.29693C25.6483 4.77312 23.7659 5.56302 22.0573 6.61624L17.4578 5.13726L14.315 8.28011L15.794 12.8796C15.1161 13.9832 14.5559 15.1653 14.1133 16.3978C15.6203 15.5574 17.2505 14.9076 18.9704 14.4986L21.1721 10.2017H25.6203L27.822 14.4986C29.8276 14.9748 31.7099 15.7647 33.4186 16.8179L38.018 15.3389L41.1609 18.4818L39.6819 23.0812C40.7351 24.7899 41.525 26.6723 42.0012 28.6779L46.2981 30.8795V35.3277L42.0012 37.5294C41.8332 38.2409 41.6091 38.93 41.3682 39.6078C41.6147 39.4734 41.8668 39.3389 42.1021 39.1933L46.7015 40.6723L49.8444 37.5294L48.3654 32.93C49.4186 31.2213 50.2085 29.3389 50.6847 27.3333L54.9816 25.1317V20.6835L50.6847 18.4818V18.4762Z" fill="white"/>
</mask>
<g mask="url(#mask0_2059_12144)">
<path d="M50.6852 18.4762C50.209 16.4706 49.4191 14.5882 48.3659 12.8796L49.8449 8.28011L46.702 5.13726L42.1026 6.61624C40.3939 5.56302 38.5116 4.77312 36.5059 4.29693L34.3043 0H29.8561L27.6544 4.29693C25.6488 4.77312 23.7665 5.56302 22.0578 6.61624L17.4583 5.13726L14.3155 8.28011L15.7945 12.8796C14.7412 14.5882 13.9513 16.4706 13.4751 18.4762L9.17822 20.6779V25.126L13.4751 27.3277C13.9513 29.3333 14.7412 31.2157 15.7945 32.9244L14.3155 37.5238L17.4583 40.6667L22.0578 39.1877C23.7665 40.2409 25.6488 41.0308 27.6544 41.507L29.8561 45.8039H34.3043L36.5059 41.507C38.5116 41.0308 40.3939 40.2409 42.1026 39.1877L46.702 40.6667L49.8449 37.5238L48.3659 32.9244C49.4191 31.2157 50.209 29.3333 50.6852 27.3277L54.9821 25.126V20.6779L50.6852 18.4762Z" fill="url(#paint0_linear_2059_12144)"/>
</g>
<path d="M42.007 28.6722C41.5308 26.6666 40.7409 24.7843 39.6877 23.0756L41.1667 18.4762L38.0238 15.3333L33.4244 16.8123C31.7157 15.7591 29.8333 14.9691 27.8277 14.493L25.626 10.196H21.1779L18.9762 14.493C16.9706 14.9691 15.0882 15.7591 13.3796 16.8123L8.78011 15.3333L5.63725 18.4762L7.11625 23.0756C6.06302 24.7843 5.27311 26.6666 4.79692 28.6722L0.5 30.8739V35.3221L4.79692 37.5238C5.27311 39.5294 6.06302 41.4117 7.11625 43.1204L5.63725 47.7198L8.78011 50.8627L13.3796 49.3837C15.0882 50.4369 16.9706 51.2268 18.9762 51.703L21.1779 56H25.626L27.8277 51.703C29.8333 51.2268 31.7157 50.4369 33.4244 49.3837L38.0238 50.8627L41.1667 47.7198L39.6877 43.1204C40.7409 41.4117 41.5308 39.5294 42.007 37.5238L46.3039 35.3221V30.8739L42.007 28.6722Z" fill="url(#paint1_linear_2059_12144)" stroke="url(#paint2_linear_2059_12144)" stroke-width="0.678797" stroke-miterlimit="10"/>
<path d="M23.4024 43.1934C17.8393 43.1934 13.3071 38.6668 13.3071 33.0982C13.3071 27.5296 17.8337 23.0029 23.4024 23.0029C28.971 23.0029 33.4976 27.5296 33.4976 33.0982C33.4976 38.6668 28.971 43.1934 23.4024 43.1934ZM23.4024 24.0506C18.4108 24.0506 14.3491 28.1122 14.3491 33.1038C14.3491 38.0954 18.4108 42.157 23.4024 42.157C28.394 42.157 32.4556 38.0954 32.4556 33.1038C32.4556 28.1122 28.394 24.0506 23.4024 24.0506Z" fill="#AD55E6" fill-opacity="0.75"/>
<path style="mix-blend-mode:color-dodge" d="M12.4441 17.0644C12.629 17.5126 14.5282 17.154 16.685 16.2689C18.8419 15.3837 20.4385 14.2913 20.248 13.8431C20.0632 13.395 18.164 13.7535 16.0072 14.6386C13.8503 15.5294 12.2537 16.6162 12.4441 17.0644Z" fill="url(#paint3_radial_2059_12144)"/>
<path style="mix-blend-mode:color-dodge" d="M26.8201 52.1679C27.0049 52.6161 29.0441 52.2183 31.3747 51.2772C33.7052 50.336 35.4531 49.2043 35.2682 48.7506C35.0834 48.2968 33.0441 48.7001 30.7136 49.6413C28.3831 50.5825 26.6352 51.7141 26.8201 52.1679Z" fill="url(#paint4_radial_2059_12144)"/>
<defs>
<linearGradient id="paint0_linear_2059_12144" x1="54.9821" y1="22.902" x2="9.17822" y2="22.902" gradientUnits="userSpaceOnUse">
<stop stop-color="#D189FF"/>
<stop offset="1" stop-color="#9F37E2"/>
</linearGradient>
<linearGradient id="paint1_linear_2059_12144" x1="23.3983" y1="11.6276" x2="23.3983" y2="68.4815" gradientUnits="userSpaceOnUse">
<stop stop-color="#AD55E6" stop-opacity="0.1"/>
<stop offset="0.93" stop-color="#AD55E6" stop-opacity="0.5"/>
</linearGradient>
<linearGradient id="paint2_linear_2059_12144" x1="38.809" y1="12.3118" x2="15.836" y2="63.4228" gradientUnits="userSpaceOnUse">
<stop stop-color="white" stop-opacity="0.45"/>
<stop offset="0.02" stop-color="white" stop-opacity="0.42"/>
<stop offset="0.09" stop-color="white" stop-opacity="0.31"/>
<stop offset="0.17" stop-color="white" stop-opacity="0.23"/>
<stop offset="0.26" stop-color="white" stop-opacity="0.16"/>
<stop offset="0.38" stop-color="white" stop-opacity="0.11"/>
<stop offset="0.54" stop-color="white" stop-opacity="0.09"/>
<stop offset="1" stop-color="white" stop-opacity="0.08"/>
</linearGradient>
<radialGradient id="paint3_radial_2059_12144" cx="0" cy="0" r="1" gradientUnits="userSpaceOnUse" gradientTransform="translate(13.169 8.50196) rotate(157.56) scale(4.34101 0.880784)">
<stop stop-color="#B0B0AF"/>
<stop offset="0.14" stop-color="#989897" stop-opacity="0.82"/>
<stop offset="0.44" stop-color="#6A6A69" stop-opacity="0.47"/>
<stop offset="0.69" stop-color="#494948" stop-opacity="0.21"/>
<stop offset="0.89" stop-color="#343433" stop-opacity="0.06"/>
<stop offset="1" stop-color="#2D2D2C" stop-opacity="0"/>
</radialGradient>
<radialGradient id="paint4_radial_2059_12144" cx="0" cy="0" r="1" gradientUnits="userSpaceOnUse" gradientTransform="translate(27.9868 42.4242) rotate(157.99) scale(4.65557 0.880782)">
<stop stop-color="#B0B0AF"/>
<stop offset="0.14" stop-color="#989897" stop-opacity="0.82"/>
<stop offset="0.44" stop-color="#6A6A69" stop-opacity="0.47"/>
<stop offset="0.69" stop-color="#494948" stop-opacity="0.21"/>
<stop offset="0.89" stop-color="#343433" stop-opacity="0.06"/>
<stop offset="1" stop-color="#2D2D2C" stop-opacity="0"/>
</radialGradient>
</defs>
</svg>
