<svg width="57" height="56" viewBox="0 0 57 56" fill="none" xmlns="http://www.w3.org/2000/svg">
<rect x="12.8477" y="0.887939" width="39.6522" height="39.6522" rx="6.26087" fill="url(#paint0_linear_2068_17068)"/>
<rect x="4.5" y="9.23584" width="39.6522" height="39.6522" rx="6.26087" fill="#D9D9D9"/>
<rect x="4.5" y="9.23584" width="39.6522" height="39.6522" rx="6.26087" fill="url(#paint1_linear_2068_17068)"/>
<rect x="4.5" y="9.23584" width="39.6522" height="39.6522" rx="6.26087" fill="url(#paint2_linear_2068_17068)"/>
<mask id="path-3-inside-1_2068_17068" fill="white">
<path fill-rule="evenodd" clip-rule="evenodd" d="M31.3296 41.1118C31.3873 40.7559 31.4173 40.3907 31.4173 40.0184C31.4173 36.2725 28.3806 33.2358 24.6347 33.2358C20.8888 33.2358 17.8521 36.2725 17.8521 40.0184C17.8521 40.4078 17.8849 40.7894 17.9479 41.1608L10.7617 48.3469L16.6645 54.2497L24.1316 46.7827C24.2977 46.7949 24.4655 46.8011 24.6347 46.8011C24.8219 46.8011 25.0074 46.7935 25.1908 46.7786L32.6619 54.2497L38.5647 48.3469L31.3296 41.1118Z"/>
</mask>
<path d="M31.3296 41.1118L30.6292 40.9983L30.5711 41.3568L30.8279 41.6136L31.3296 41.1118ZM17.9479 41.1608L18.4496 41.6625L18.7087 41.4034L18.6474 41.0421L17.9479 41.1608ZM10.7617 48.3469L10.26 47.8452L9.75824 48.3469L10.26 48.8487L10.7617 48.3469ZM16.6645 54.2497L16.1628 54.7515L16.6645 55.2532L17.1663 54.7515L16.6645 54.2497ZM24.1316 46.7827L24.1835 46.075L23.8595 46.0513L23.6298 46.2809L24.1316 46.7827ZM25.1908 46.7786L25.6925 46.2768L25.4605 46.0448L25.1334 46.0713L25.1908 46.7786ZM32.6619 54.2497L32.1602 54.7515L32.6619 55.2532L33.1637 54.7515L32.6619 54.2497ZM38.5647 48.3469L39.0665 48.8487L39.5682 48.3469L39.0665 47.8452L38.5647 48.3469ZM30.7077 40.0184C30.7077 40.3525 30.6808 40.6798 30.6292 40.9983L32.0301 41.2253C32.0938 40.832 32.1269 40.4288 32.1269 40.0184H30.7077ZM24.6347 33.9454C27.9887 33.9454 30.7077 36.6644 30.7077 40.0184H32.1269C32.1269 35.8806 28.7725 32.5263 24.6347 32.5263V33.9454ZM18.5616 40.0184C18.5616 36.6644 21.2806 33.9454 24.6347 33.9454V32.5263C20.4969 32.5263 17.1425 35.8806 17.1425 40.0184H18.5616ZM18.6474 41.0421C18.5911 40.7098 18.5616 40.3678 18.5616 40.0184H17.1425C17.1425 40.4477 17.1787 40.869 17.2483 41.2794L18.6474 41.0421ZM17.4461 40.659L10.26 47.8452L11.2635 48.8487L18.4496 41.6625L17.4461 40.659ZM10.26 48.8487L16.1628 54.7515L17.1663 53.748L11.2635 47.8452L10.26 48.8487ZM17.1663 54.7515L24.6333 47.2844L23.6298 46.2809L16.1628 53.748L17.1663 54.7515ZM24.6347 46.0915C24.4828 46.0915 24.3323 46.0859 24.1835 46.075L24.0797 47.4903C24.263 47.5038 24.4481 47.5106 24.6347 47.5106V46.0915ZM25.1334 46.0713C24.9691 46.0847 24.8027 46.0915 24.6347 46.0915V47.5106C24.8411 47.5106 25.0457 47.5023 25.2482 47.4858L25.1334 46.0713ZM24.689 47.2803L32.1602 54.7515L33.1637 53.748L25.6925 46.2768L24.689 47.2803ZM33.1637 54.7515L39.0665 48.8487L38.063 47.8452L32.1602 53.748L33.1637 54.7515ZM39.0665 47.8452L31.8314 40.6101L30.8279 41.6136L38.063 48.8487L39.0665 47.8452Z" fill="white" mask="url(#path-3-inside-1_2068_17068)"/>
<path d="M31.3296 41.1118L30.6292 40.9983L30.5711 41.3568L30.8279 41.6136L31.3296 41.1118ZM17.9479 41.1608L18.4496 41.6625L18.7087 41.4034L18.6474 41.0421L17.9479 41.1608ZM10.7617 48.3469L10.26 47.8452L9.75824 48.3469L10.26 48.8487L10.7617 48.3469ZM16.6645 54.2497L16.1628 54.7515L16.6645 55.2532L17.1663 54.7515L16.6645 54.2497ZM24.1316 46.7827L24.1835 46.075L23.8595 46.0513L23.6298 46.2809L24.1316 46.7827ZM25.1908 46.7786L25.6925 46.2768L25.4605 46.0448L25.1334 46.0713L25.1908 46.7786ZM32.6619 54.2497L32.1602 54.7515L32.6619 55.2532L33.1637 54.7515L32.6619 54.2497ZM38.5647 48.3469L39.0665 48.8487L39.5682 48.3469L39.0665 47.8452L38.5647 48.3469ZM30.7077 40.0184C30.7077 40.3525 30.6808 40.6798 30.6292 40.9983L32.0301 41.2253C32.0938 40.832 32.1269 40.4288 32.1269 40.0184H30.7077ZM24.6347 33.9454C27.9887 33.9454 30.7077 36.6644 30.7077 40.0184H32.1269C32.1269 35.8806 28.7725 32.5263 24.6347 32.5263V33.9454ZM18.5616 40.0184C18.5616 36.6644 21.2806 33.9454 24.6347 33.9454V32.5263C20.4969 32.5263 17.1425 35.8806 17.1425 40.0184H18.5616ZM18.6474 41.0421C18.5911 40.7098 18.5616 40.3678 18.5616 40.0184H17.1425C17.1425 40.4477 17.1787 40.869 17.2483 41.2794L18.6474 41.0421ZM17.4461 40.659L10.26 47.8452L11.2635 48.8487L18.4496 41.6625L17.4461 40.659ZM10.26 48.8487L16.1628 54.7515L17.1663 53.748L11.2635 47.8452L10.26 48.8487ZM17.1663 54.7515L24.6333 47.2844L23.6298 46.2809L16.1628 53.748L17.1663 54.7515ZM24.6347 46.0915C24.4828 46.0915 24.3323 46.0859 24.1835 46.075L24.0797 47.4903C24.263 47.5038 24.4481 47.5106 24.6347 47.5106V46.0915ZM25.1334 46.0713C24.9691 46.0847 24.8027 46.0915 24.6347 46.0915V47.5106C24.8411 47.5106 25.0457 47.5023 25.2482 47.4858L25.1334 46.0713ZM24.689 47.2803L32.1602 54.7515L33.1637 53.748L25.6925 46.2768L24.689 47.2803ZM33.1637 54.7515L39.0665 48.8487L38.063 47.8452L32.1602 53.748L33.1637 54.7515ZM39.0665 47.8452L31.8314 40.6101L30.8279 41.6136L38.063 48.8487L39.0665 47.8452Z" fill="url(#paint3_linear_2068_17068)" mask="url(#path-3-inside-1_2068_17068)"/>
<circle cx="24.6342" cy="40.0184" r="6.42783" stroke="white" stroke-width="0.709565"/>
<circle cx="24.6342" cy="40.0184" r="6.42783" stroke="url(#paint4_linear_2068_17068)" stroke-width="0.709565"/>
<path d="M18.0645 17.5835H30.5862" stroke="white" stroke-width="0.709565" stroke-linecap="round"/>
<path d="M13.8906 24.8879H34.7602" stroke="white" stroke-width="0.709565" stroke-linecap="round"/>
<defs>
<linearGradient id="paint0_linear_2068_17068" x1="52.4998" y1="20.714" x2="12.8477" y2="20.714" gradientUnits="userSpaceOnUse">
<stop stop-color="#D189FF"/>
<stop offset="1" stop-color="#9F37E2"/>
</linearGradient>
<linearGradient id="paint1_linear_2068_17068" x1="44.1522" y1="29.0619" x2="4.5" y2="29.0619" gradientUnits="userSpaceOnUse">
<stop stop-color="#D189FF"/>
<stop offset="1" stop-color="#9F37E2"/>
</linearGradient>
<linearGradient id="paint2_linear_2068_17068" x1="24.3261" y1="9.23584" x2="24.3261" y2="48.888" gradientUnits="userSpaceOnUse">
<stop stop-color="#F3E9FB"/>
<stop offset="1" stop-color="#D9B2F3"/>
</linearGradient>
<linearGradient id="paint3_linear_2068_17068" x1="38.5647" y1="43.7428" x2="10.7617" y2="43.7428" gradientUnits="userSpaceOnUse">
<stop stop-color="#D189FF"/>
<stop offset="1" stop-color="#9F37E2"/>
</linearGradient>
<linearGradient id="paint4_linear_2068_17068" x1="31.4168" y1="40.0184" x2="17.8516" y2="40.0184" gradientUnits="userSpaceOnUse">
<stop stop-color="#D189FF"/>
<stop offset="1" stop-color="#9F37E2"/>
</linearGradient>
</defs>
</svg>
