<svg width="40" height="40" viewBox="0 0 40 40" fill="none" xmlns="http://www.w3.org/2000/svg">
<path d="M14.5 28H13C11.8954 28 11 27.1046 11 26V12C11 10.8954 11.8954 10 13 10H27C28.1046 10 29 10.8954 29 12V26C29 27.1046 28.1046 28 27 28H25.5M20 27C21.6569 27 23 25.6569 23 24C23 22.3431 21.6569 21 20 21C18.3431 21 17 22.3431 17 24C17 25.6569 18.3431 27 20 27ZM20 27L20.0214 26.9998L16.8287 30.1926L14.0002 27.3641L17.0197 24.3447M20 27L23.1928 30.1926L26.0212 27.3641L23.0018 24.3447M17 14H23M15 17.5H25" stroke="#946AD2" stroke-width="2" stroke-linecap="round" stroke-linejoin="round"/>
</svg>
