<svg width="57" height="57" viewBox="0 0 57 57" fill="none" xmlns="http://www.w3.org/2000/svg">
<path d="M34.3844 45.2308C46.8746 45.2308 56.9998 35.1055 56.9998 22.6154C56.9998 10.1253 46.8746 0 34.3844 0C21.8943 0 11.769 10.1253 11.769 22.6154C11.769 35.1055 21.8943 45.2308 34.3844 45.2308Z" fill="url(#paint0_linear_2059_14648)"/>
<path d="M23.6154 56.0001C36.1055 56.0001 46.2308 45.8748 46.2308 33.3847C46.2308 20.8945 36.1055 10.7693 23.6154 10.7693C11.1253 10.7693 1 20.8945 1 33.3847C1 45.8748 11.1253 56.0001 23.6154 56.0001Z" fill="url(#paint1_linear_2059_14648)" stroke="url(#paint2_linear_2059_14648)" stroke-width="0.678797" stroke-miterlimit="10"/>
<path d="M14.5 33.7846L21.2846 40.5692L28.0692 33.7846L34.8538 27" stroke="#BC75E9" stroke-width="1.2" stroke-linecap="round"/>
<defs>
<linearGradient id="paint0_linear_2059_14648" x1="56.9998" y1="22.6154" x2="11.769" y2="22.6154" gradientUnits="userSpaceOnUse">
<stop stop-color="#D189FF"/>
<stop offset="1" stop-color="#9F37E2"/>
</linearGradient>
<linearGradient id="paint1_linear_2059_14648" x1="23.6117" y1="12.1829" x2="23.6117" y2="56.0001" gradientUnits="userSpaceOnUse">
<stop stop-color="#EEE5F4"/>
<stop offset="1" stop-color="#D6B0EE"/>
</linearGradient>
<linearGradient id="paint2_linear_2059_14648" x1="38.8296" y1="12.8585" x2="16.1441" y2="63.33" gradientUnits="userSpaceOnUse">
<stop stop-color="white" stop-opacity="0.45"/>
<stop offset="0.02" stop-color="white" stop-opacity="0.42"/>
<stop offset="0.09" stop-color="white" stop-opacity="0.31"/>
<stop offset="0.17" stop-color="white" stop-opacity="0.23"/>
<stop offset="0.26" stop-color="white" stop-opacity="0.16"/>
<stop offset="0.38" stop-color="white" stop-opacity="0.11"/>
<stop offset="0.54" stop-color="white" stop-opacity="0.09"/>
<stop offset="1" stop-color="white" stop-opacity="0.08"/>
</linearGradient>
</defs>
</svg>
