<svg width="57" height="56" viewBox="0 0 57 56" fill="none" xmlns="http://www.w3.org/2000/svg">
<path d="M16.5 22H48.5V37.6C48.5 39.8402 48.5 40.9603 48.064 41.816C47.6805 42.5686 47.0686 43.1805 46.316 43.564C45.4603 44 44.3402 44 42.1 44H22.9C20.6598 44 19.5397 44 18.684 43.564C17.9314 43.1805 17.3195 42.5686 16.936 41.816C16.5 40.9603 16.5 39.8402 16.5 37.6V22Z" fill="url(#paint0_linear_2068_12872)" stroke="url(#paint1_linear_2068_12872)" stroke-linecap="round" stroke-linejoin="round"/>
<path d="M32.5 12H25.4286C24.3867 12 23.3874 11.5786 22.6507 10.8284C21.9139 10.0783 21.5 9.06087 21.5 8C21.5 6.93913 21.9139 5.92172 22.6507 5.17157C23.3874 4.42143 24.3867 4 25.4286 4C30.9286 4 32.5 12 32.5 12Z" fill="url(#paint2_linear_2068_12872)"/>
<path d="M32.5 12H39.5714C40.6133 12 41.6126 11.5786 42.3493 10.8284C43.0861 10.0783 43.5 9.06087 43.5 8C43.5 6.93913 43.0861 5.92172 42.3493 5.17157C41.6126 4.42143 40.6133 4 39.5714 4C34.0714 4 32.5 12 32.5 12Z" fill="url(#paint3_linear_2068_12872)"/>
<path d="M49.3 22C50.4201 22 50.9802 22 51.408 21.782C51.7843 21.5903 52.0903 21.2843 52.282 20.908C52.5 20.4802 52.5 19.9201 52.5 18.8V15.2C52.5 14.0799 52.5 13.5198 52.282 13.092C52.0903 12.7157 51.7843 12.4097 51.408 12.218C50.9802 12 50.4201 12 49.3 12L15.7 12C14.5799 12 14.0198 12 13.592 12.218C13.2157 12.4097 12.9097 12.7157 12.718 13.092C12.5 13.5198 12.5 14.0799 12.5 15.2L12.5 18.8C12.5 19.9201 12.5 20.4802 12.718 20.908C12.9097 21.2843 13.2157 21.5903 13.592 21.782C14.0198 22 14.5799 22 15.7 22L49.3 22Z" fill="url(#paint4_linear_2068_12872)"/>
<path d="M32.5 12V44M32.5 12H25.4286C24.3866 12 23.3874 11.5786 22.6507 10.8284C21.9139 10.0783 21.5 9.06087 21.5 8C21.5 6.93913 21.9139 5.92172 22.6507 5.17157C23.3874 4.42143 24.3866 4 25.4286 4C30.9286 4 32.5 12 32.5 12ZM32.5 12H39.5714C40.6134 12 41.6126 11.5786 42.3493 10.8284C43.0861 10.0783 43.5 9.06087 43.5 8C43.5 6.93913 43.0861 5.92172 42.3493 5.17157C41.6126 4.42143 40.6134 4 39.5714 4C34.0714 4 32.5 12 32.5 12ZM48.5 22V37.6C48.5 39.8402 48.5 40.9603 48.064 41.816C47.6805 42.5686 47.0686 43.1805 46.316 43.564C45.4603 44 44.3402 44 42.1 44L22.9 44C20.6598 44 19.5397 44 18.684 43.564C17.9314 43.1805 17.3195 42.5686 16.936 41.816C16.5 40.9603 16.5 39.8402 16.5 37.6V22M12.5 15.2L12.5 18.8C12.5 19.9201 12.5 20.4802 12.718 20.908C12.9097 21.2843 13.2157 21.5903 13.592 21.782C14.0198 22 14.5799 22 15.7 22L49.3 22C50.4201 22 50.9802 22 51.408 21.782C51.7843 21.5903 52.0903 21.2843 52.282 20.908C52.5 20.4802 52.5 19.9201 52.5 18.8V15.2C52.5 14.0799 52.5 13.5198 52.282 13.092C52.0903 12.7157 51.7843 12.4097 51.408 12.218C50.9802 12 50.4201 12 49.3 12L15.7 12C14.5799 12 14.0198 12 13.592 12.218C13.2157 12.4097 12.9097 12.7157 12.718 13.092C12.5 13.5198 12.5 14.0799 12.5 15.2Z" stroke="url(#paint5_linear_2068_12872)" stroke-linecap="round" stroke-linejoin="round"/>
<path d="M8.5 30H40.5V45.6C40.5 47.8402 40.5 48.9603 40.064 49.816C39.6805 50.5686 39.0686 51.1805 38.316 51.564C37.4603 52 36.3402 52 34.1 52H14.9C12.6598 52 11.5397 52 10.684 51.564C9.93139 51.1805 9.31947 50.5686 8.93597 49.816C8.5 48.9603 8.5 47.8402 8.5 45.6V30Z" fill="url(#paint6_linear_2068_12872)" stroke="url(#paint7_linear_2068_12872)" stroke-width="0.68" stroke-linecap="round" stroke-linejoin="round"/>
<path d="M24.5 20H17.4286C16.3867 20 15.3874 19.5786 14.6507 18.8284C13.9139 18.0783 13.5 17.0609 13.5 16C13.5 14.9391 13.9139 13.9217 14.6507 13.1716C15.3874 12.4214 16.3867 12 17.4286 12C22.9286 12 24.5 20 24.5 20Z" fill="url(#paint8_linear_2068_12872)"/>
<path d="M24.5 20H31.5714C32.6133 20 33.6126 19.5786 34.3493 18.8284C35.0861 18.0783 35.5 17.0609 35.5 16C35.5 14.9391 35.0861 13.9217 34.3493 13.1716C33.6126 12.4214 32.6133 12 31.5714 12C26.0714 12 24.5 20 24.5 20Z" fill="url(#paint9_linear_2068_12872)"/>
<path d="M41.3 30C42.4201 30 42.9802 30 43.408 29.782C43.7843 29.5903 44.0903 29.2843 44.282 28.908C44.5 28.4802 44.5 27.9201 44.5 26.8V23.2C44.5 22.0799 44.5 21.5198 44.282 21.092C44.0903 20.7157 43.7843 20.4097 43.408 20.218C42.9802 20 42.4201 20 41.3 20L7.7 20C6.5799 20 6.01984 20 5.59202 20.218C5.2157 20.4097 4.90973 20.7157 4.71799 21.092C4.5 21.5198 4.5 22.0799 4.5 23.2L4.5 26.8C4.5 27.9201 4.5 28.4802 4.71799 28.908C4.90973 29.2843 5.21569 29.5903 5.59202 29.782C6.01984 30 6.5799 30 7.7 30L41.3 30Z" fill="url(#paint10_linear_2068_12872)"/>
<path d="M24.5 20V52M24.5 20H17.4286C16.3866 20 15.3874 19.5786 14.6507 18.8284C13.9139 18.0783 13.5 17.0609 13.5 16C13.5 14.9391 13.9139 13.9217 14.6507 13.1716C15.3874 12.4214 16.3866 12 17.4286 12C22.9286 12 24.5 20 24.5 20ZM24.5 20H31.5714C32.6134 20 33.6126 19.5786 34.3493 18.8284C35.0861 18.0783 35.5 17.0609 35.5 16C35.5 14.9391 35.0861 13.9217 34.3493 13.1716C33.6126 12.4214 32.6134 12 31.5714 12C26.0714 12 24.5 20 24.5 20ZM40.5 30V45.6C40.5 47.8402 40.5 48.9603 40.064 49.816C39.6805 50.5686 39.0686 51.1805 38.316 51.564C37.4603 52 36.3402 52 34.1 52L14.9 52C12.6598 52 11.5397 52 10.684 51.564C9.93139 51.1805 9.31947 50.5686 8.93597 49.816C8.5 48.9603 8.5 47.8402 8.5 45.6V30M4.5 23.2L4.5 26.8C4.5 27.9201 4.5 28.4802 4.71799 28.908C4.90973 29.2843 5.21569 29.5903 5.59202 29.782C6.01984 30 6.5799 30 7.7 30L41.3 30C42.4201 30 42.9802 30 43.408 29.782C43.7843 29.5903 44.0903 29.2843 44.282 28.908C44.5 28.4802 44.5 27.9201 44.5 26.8V23.2C44.5 22.0799 44.5 21.5198 44.282 21.092C44.0903 20.7157 43.7843 20.4097 43.408 20.218C42.9802 20 42.4201 20 41.3 20L7.7 20C6.5799 20 6.01984 20 5.59202 20.218C5.2157 20.4097 4.90973 20.7157 4.71799 21.092C4.5 21.5198 4.5 22.0799 4.5 23.2Z" stroke="url(#paint11_linear_2068_12872)" stroke-width="0.68" stroke-linecap="round" stroke-linejoin="round"/>
<defs>
<linearGradient id="paint0_linear_2068_12872" x1="48.5" y1="33" x2="16.5" y2="33" gradientUnits="userSpaceOnUse">
<stop stop-color="#D189FF"/>
<stop offset="1" stop-color="#9F37E2"/>
</linearGradient>
<linearGradient id="paint1_linear_2068_12872" x1="48.5" y1="33" x2="16.5" y2="33" gradientUnits="userSpaceOnUse">
<stop stop-color="#D189FF"/>
<stop offset="1" stop-color="#9F37E2"/>
</linearGradient>
<linearGradient id="paint2_linear_2068_12872" x1="52.5" y1="24" x2="12.5" y2="24" gradientUnits="userSpaceOnUse">
<stop stop-color="#D189FF"/>
<stop offset="1" stop-color="#9F37E2"/>
</linearGradient>
<linearGradient id="paint3_linear_2068_12872" x1="52.5" y1="24" x2="12.5" y2="24" gradientUnits="userSpaceOnUse">
<stop stop-color="#D189FF"/>
<stop offset="1" stop-color="#9F37E2"/>
</linearGradient>
<linearGradient id="paint4_linear_2068_12872" x1="52.5" y1="24" x2="12.5" y2="24" gradientUnits="userSpaceOnUse">
<stop stop-color="#D189FF"/>
<stop offset="1" stop-color="#9F37E2"/>
</linearGradient>
<linearGradient id="paint5_linear_2068_12872" x1="52.5" y1="24" x2="12.5" y2="24" gradientUnits="userSpaceOnUse">
<stop stop-color="#D189FF"/>
<stop offset="1" stop-color="#9F37E2"/>
</linearGradient>
<linearGradient id="paint6_linear_2068_12872" x1="24.5" y1="30" x2="24.5" y2="52" gradientUnits="userSpaceOnUse">
<stop stop-color="#F3E9FB"/>
<stop offset="1" stop-color="#D9B2F3"/>
</linearGradient>
<linearGradient id="paint7_linear_2068_12872" x1="37.3" y1="31.375" x2="29.1398" y2="57.178" gradientUnits="userSpaceOnUse">
<stop stop-color="white"/>
<stop offset="0.441773" stop-color="#C372F7"/>
<stop offset="1" stop-color="#9F37E2"/>
</linearGradient>
<linearGradient id="paint8_linear_2068_12872" x1="24.5" y1="12" x2="24.5" y2="52" gradientUnits="userSpaceOnUse">
<stop stop-color="#F3E9FB"/>
<stop offset="1" stop-color="#D9B2F3"/>
</linearGradient>
<linearGradient id="paint9_linear_2068_12872" x1="24.5" y1="12" x2="24.5" y2="52" gradientUnits="userSpaceOnUse">
<stop stop-color="#F3E9FB"/>
<stop offset="1" stop-color="#D9B2F3"/>
</linearGradient>
<linearGradient id="paint10_linear_2068_12872" x1="24.5" y1="12" x2="24.5" y2="52" gradientUnits="userSpaceOnUse">
<stop stop-color="#F3E9FB"/>
<stop offset="1" stop-color="#D9B2F3"/>
</linearGradient>
<linearGradient id="paint11_linear_2068_12872" x1="40.5" y1="14.5" x2="20.9068" y2="57.0938" gradientUnits="userSpaceOnUse">
<stop stop-color="white"/>
<stop offset="0.441773" stop-color="#C372F7"/>
<stop offset="1" stop-color="#9F37E2"/>
</linearGradient>
</defs>
</svg>
