<svg width="57" height="56" viewBox="0 0 57 56" fill="none" xmlns="http://www.w3.org/2000/svg">
<path d="M28.9839 0.329638C28.6231 0.149263 28.4427 0.059075 28.2535 0.0235789C28.086 -0.00785963 27.914 -0.00785963 27.7465 0.0235789C27.5573 0.059075 27.3769 0.149263 27.0161 0.329638L0.5 13.5877L27.0161 26.8458C27.3769 27.0261 27.5573 27.1163 27.7465 27.1518C27.914 27.1833 28.086 27.1833 28.2535 27.1518C28.4427 27.1163 28.6231 27.0261 28.9839 26.8458L55.5 13.5877L28.9839 0.329638Z" fill="url(#paint0_linear_2068_18362)"/>
<path d="M28.9839 0.329638C28.6231 0.149263 28.4427 0.059075 28.2535 0.0235789C28.086 -0.00785963 27.914 -0.00785963 27.7465 0.0235789C27.5573 0.059075 27.3769 0.149263 27.0161 0.329638L0.5 13.5877L27.0161 26.8458C27.3769 27.0261 27.5573 27.1163 27.7465 27.1518C27.914 27.1833 28.086 27.1833 28.2535 27.1518C28.4427 27.1163 28.6231 27.0261 28.9839 26.8458L55.5 13.5877L28.9839 0.329638Z" fill="url(#paint1_linear_2068_18362)"/>
<path d="M28.9839 5.82964C28.6231 5.64926 28.4427 5.55908 28.2535 5.52358C28.086 5.49214 27.914 5.49214 27.7465 5.52358C27.5573 5.55908 27.3769 5.64926 27.0161 5.82964L0.5 19.0877L27.0161 32.3458C27.3769 32.5261 27.5573 32.6163 27.7465 32.6518C27.914 32.6833 28.086 32.6833 28.2535 32.6518C28.4427 32.6163 28.6231 32.5261 28.9839 32.3458L55.5 19.0877L28.9839 5.82964Z" fill="url(#paint2_linear_2068_18362)"/>
<path d="M41.75 35.5877V27.3224C41.75 26.8288 41.75 26.582 41.6748 26.3642C41.6084 26.1715 41.4999 25.996 41.3573 25.8504C41.1961 25.6857 40.9753 25.5754 40.5339 25.3546L28 19.0877M6 21.8377V40.5559C6 41.5787 6 42.09 6.15955 42.5378C6.3006 42.9336 6.53048 43.2918 6.83154 43.585C7.17209 43.9166 7.637 44.1297 8.56672 44.5558L26.1667 52.6225C26.8411 52.9315 27.1783 53.0861 27.5296 53.1471C27.8409 53.2011 28.1591 53.2011 28.4704 53.1471C28.8217 53.0861 29.1589 52.9315 29.8333 52.6225L47.4333 44.5558C48.363 44.1297 48.8279 43.9166 49.1685 43.585C49.4695 43.2918 49.6994 42.9336 49.8405 42.5378C50 42.09 50 41.5787 50 40.5559V21.8377M0.5 19.0877L27.0161 5.82964C27.3769 5.64926 27.5573 5.55908 27.7465 5.52358C27.914 5.49214 28.086 5.49214 28.2535 5.52358C28.4427 5.55908 28.6231 5.64926 28.9839 5.82964L55.5 19.0877L28.9839 32.3458C28.6231 32.5261 28.4427 32.6163 28.2535 32.6518C28.086 32.6833 27.914 32.6833 27.7465 32.6518C27.5573 32.6163 27.3769 32.5261 27.0161 32.3458L0.5 19.0877Z" stroke="white" stroke-width="0.68" stroke-linecap="round" stroke-linejoin="round"/>
<path d="M41.75 35.5877V27.3224C41.75 26.8288 41.75 26.582 41.6748 26.3642C41.6084 26.1715 41.4999 25.996 41.3573 25.8504C41.1961 25.6857 40.9753 25.5754 40.5339 25.3546L28 19.0877M6 21.8377V40.5559C6 41.5787 6 42.09 6.15955 42.5378C6.3006 42.9336 6.53048 43.2918 6.83154 43.585C7.17209 43.9166 7.637 44.1297 8.56672 44.5558L26.1667 52.6225C26.8411 52.9315 27.1783 53.0861 27.5296 53.1471C27.8409 53.2011 28.1591 53.2011 28.4704 53.1471C28.8217 53.0861 29.1589 52.9315 29.8333 52.6225L47.4333 44.5558C48.363 44.1297 48.8279 43.9166 49.1685 43.585C49.4695 43.2918 49.6994 42.9336 49.8405 42.5378C50 42.09 50 41.5787 50 40.5559V21.8377M0.5 19.0877L27.0161 5.82964C27.3769 5.64926 27.5573 5.55908 27.7465 5.52358C27.914 5.49214 28.086 5.49214 28.2535 5.52358C28.4427 5.55908 28.6231 5.64926 28.9839 5.82964L55.5 19.0877L28.9839 32.3458C28.6231 32.5261 28.4427 32.6163 28.2535 32.6518C28.086 32.6833 27.914 32.6833 27.7465 32.6518C27.5573 32.6163 27.3769 32.5261 27.0161 32.3458L0.5 19.0877Z" stroke="url(#paint3_linear_2068_18362)" stroke-width="0.68" stroke-linecap="round" stroke-linejoin="round"/>
<defs>
<linearGradient id="paint0_linear_2068_18362" x1="28" y1="0" x2="28" y2="47.6876" gradientUnits="userSpaceOnUse">
<stop stop-color="#F3E9FB"/>
<stop offset="1" stop-color="#D9B2F3"/>
</linearGradient>
<linearGradient id="paint1_linear_2068_18362" x1="55.5" y1="23.8438" x2="0.5" y2="23.8438" gradientUnits="userSpaceOnUse">
<stop stop-color="#D189FF"/>
<stop offset="1" stop-color="#9F37E2"/>
</linearGradient>
<linearGradient id="paint2_linear_2068_18362" x1="28" y1="5.5" x2="28" y2="53.1876" gradientUnits="userSpaceOnUse">
<stop stop-color="#F3E9FB"/>
<stop offset="1" stop-color="#D9B2F3"/>
</linearGradient>
<linearGradient id="paint3_linear_2068_18362" x1="55.5" y1="29.3438" x2="0.5" y2="29.3438" gradientUnits="userSpaceOnUse">
<stop stop-color="#D189FF"/>
<stop offset="1" stop-color="#9F37E2"/>
</linearGradient>
</defs>
</svg>
