<svg width="57" height="58" viewBox="0 0 57 58" fill="none" xmlns="http://www.w3.org/2000/svg">
<path d="M35.4999 1L39.5463 11.9781C40.2044 13.7634 40.5334 14.656 41.045 15.4068C41.4985 16.0723 42.0556 16.6537 42.6934 17.1269C43.4129 17.6607 44.2684 18.0041 45.9792 18.6907L56.4999 22.913L45.9792 27.1354C44.2684 27.822 43.4129 28.1653 42.6934 28.6992C42.0557 29.1724 41.4985 29.7538 41.045 30.4193C40.5334 31.1701 40.2044 32.0627 39.5463 33.848L35.4999 44.8261L31.4535 33.848C30.7955 32.0627 30.4665 31.1701 29.9549 30.4193C29.5014 29.7538 28.9442 29.1724 28.3065 28.6992C27.5869 28.1653 26.7315 27.822 25.0206 27.1354L14.5 22.913L25.0206 18.6907C26.7315 18.0041 27.5869 17.6607 28.3065 17.1269C28.9442 16.6537 29.5014 16.0723 29.9549 15.4068C30.4665 14.656 30.7955 13.7634 31.4535 11.9781L35.4999 1Z" fill="url(#paint0_linear_2068_12909)" stroke="white" stroke-width="0.68" stroke-linecap="round" stroke-linejoin="round"/>
<path d="M26.1666 10.7395L30.213 21.7176C30.871 23.5028 31.2 24.3955 31.7117 25.1463C32.1651 25.8117 32.7223 26.3931 33.36 26.8663C34.0796 27.4002 34.935 27.7435 36.6459 28.4302L47.1665 32.6525L36.6459 36.8749C34.935 37.5615 34.0796 37.9048 33.36 38.4387C32.7223 38.9119 32.1651 39.4933 31.7117 40.1587C31.2 40.9096 30.871 41.8022 30.213 43.5875L26.1666 54.5656L22.1202 43.5875C21.4622 41.8022 21.1331 40.9096 20.6215 40.1587C20.168 39.4933 19.6109 38.9119 18.9731 38.4387C18.2536 37.9048 17.3982 37.5615 15.6873 36.8749L5.16665 32.6525L15.6873 28.4302C17.3982 27.7435 18.2536 27.4002 18.9731 26.8663C19.6109 26.3931 20.168 25.8117 20.6215 25.1463C21.1331 24.3955 21.4622 23.5028 22.1202 21.7176L26.1666 10.7395Z" fill="url(#paint1_linear_2068_12909)"/>
<path d="M26.1666 10.7395L30.213 21.7176C30.871 23.5028 31.2 24.3955 31.7117 25.1463C32.1651 25.8117 32.7223 26.3931 33.36 26.8663C34.0796 27.4002 34.935 27.7435 36.6459 28.4302L47.1665 32.6525L36.6459 36.8749C34.935 37.5615 34.0796 37.9048 33.36 38.4387C32.7223 38.9119 32.1651 39.4933 31.7117 40.1587C31.2 40.9096 30.871 41.8022 30.213 43.5875L26.1666 54.5656L22.1202 43.5875C21.4622 41.8022 21.1331 40.9096 20.6215 40.1587C20.168 39.4933 19.6109 38.9119 18.9731 38.4387C18.2536 37.9048 17.3982 37.5615 15.6873 36.8749L5.16665 32.6525L15.6873 28.4302C17.3982 27.7435 18.2536 27.4002 18.9731 26.8663C19.6109 26.3931 20.168 25.8117 20.6215 25.1463C21.1331 24.3955 21.4622 23.5028 22.1202 21.7176L26.1666 10.7395Z" fill="url(#paint2_linear_2068_12909)"/>
<path d="M6.33331 57.0003V44.8264M6.33331 20.4786V8.30469M0.5 14.3916H12.1666M0.5 50.9134H12.1666M26.1666 10.7395L22.1202 21.7176C21.4622 23.5028 21.1331 24.3955 20.6215 25.1463C20.168 25.8117 19.6109 26.3931 18.9731 26.8663C18.2536 27.4002 17.3982 27.7435 15.6873 28.4302L5.16665 32.6525L15.6873 36.8749C17.3982 37.5615 18.2536 37.9048 18.9731 38.4387C19.6109 38.9119 20.168 39.4933 20.6215 40.1587C21.1331 40.9096 21.4622 41.8022 22.1202 43.5875L26.1666 54.5656L30.213 43.5875C30.871 41.8022 31.2 40.9096 31.7117 40.1587C32.1651 39.4933 32.7223 38.9119 33.36 38.4387C34.0796 37.9048 34.935 37.5615 36.6459 36.8749L47.1665 32.6525L36.6459 28.4302C34.935 27.7435 34.0796 27.4002 33.36 26.8663C32.7223 26.3931 32.1651 25.8117 31.7117 25.1463C31.2 24.3955 30.871 23.5028 30.213 21.7176L26.1666 10.7395Z" stroke="white" stroke-width="0.68" stroke-linecap="round" stroke-linejoin="round"/>
<defs>
<linearGradient id="paint0_linear_2068_12909" x1="56.4999" y1="22.913" x2="9.83335" y2="22.913" gradientUnits="userSpaceOnUse">
<stop stop-color="#D189FF"/>
<stop offset="1" stop-color="#9F37E2"/>
</linearGradient>
<linearGradient id="paint1_linear_2068_12909" x1="47.1665" y1="32.6525" x2="0.5" y2="32.6525" gradientUnits="userSpaceOnUse">
<stop stop-color="#D189FF"/>
<stop offset="1" stop-color="#9F37E2"/>
</linearGradient>
<linearGradient id="paint2_linear_2068_12909" x1="23.8333" y1="8.30469" x2="23.8333" y2="57.0003" gradientUnits="userSpaceOnUse">
<stop stop-color="#F3E9FB"/>
<stop offset="1" stop-color="#D9B2F3"/>
</linearGradient>
</defs>
</svg>
