<svg width="57" height="56" viewBox="0 0 57 56" fill="none" xmlns="http://www.w3.org/2000/svg">
<path fill-rule="evenodd" clip-rule="evenodd" d="M32.6727 13.2997C28.3616 8.23292 21.1726 6.86998 15.7711 11.5096C10.3695 16.1492 9.60909 23.9064 13.8509 29.3937C17.3777 33.956 28.0511 43.5783 31.5492 46.6927C31.9406 47.0411 32.1363 47.2153 32.3645 47.2838C32.5637 47.3435 32.7817 47.3435 32.9809 47.2838C33.2092 47.2153 33.4049 47.0411 33.7963 46.6927C37.2944 43.5783 47.9677 33.956 51.4945 29.3937C55.7364 23.9064 55.0688 16.1004 49.5744 11.5096C44.08 6.91879 36.9838 8.23292 32.6727 13.2997Z" fill="url(#paint0_linear_2068_9021)"/>
<path fill-rule="evenodd" clip-rule="evenodd" d="M24.0477 13.2997C19.7366 8.23292 12.5476 6.86998 7.14606 11.5096C1.74454 16.1492 0.984087 23.9064 5.22593 29.3937C8.75273 33.956 19.4261 43.5783 22.9242 46.6927C23.3156 47.0411 23.5113 47.2153 23.7395 47.2838C23.9387 47.3435 24.1567 47.3435 24.3559 47.2838C24.5842 47.2153 24.7799 47.0411 25.1713 46.6927C28.6694 43.5783 39.3427 33.956 42.8695 29.3937C47.1114 23.9064 46.4438 16.1004 40.9494 11.5096C35.455 6.91879 28.3588 8.23292 24.0477 13.2997Z" fill="url(#paint1_linear_2068_9021)" stroke="white" stroke-width="0.733125" stroke-linecap="round" stroke-linejoin="round"/>
<defs>
<linearGradient id="paint0_linear_2068_9021" x1="54.25" y1="27.9992" x2="11.125" y2="27.9992" gradientUnits="userSpaceOnUse">
<stop stop-color="#D189FF"/>
<stop offset="1" stop-color="#9F37E2"/>
</linearGradient>
<linearGradient id="paint1_linear_2068_9021" x1="24.0625" y1="8.66992" x2="24.0625" y2="47.3286" gradientUnits="userSpaceOnUse">
<stop stop-color="#F3E9FB"/>
<stop offset="1" stop-color="#D9B2F3"/>
</linearGradient>
</defs>
</svg>
