<svg width="136" height="40" viewBox="0 0 136 40" fill="none" xmlns="http://www.w3.org/2000/svg">
<g clip-path="url(#clip0_2008_45873)">
<path d="M135.096 35.2925C135.096 35.7965 134.996 36.2955 134.802 36.7611C134.608 37.2267 134.323 37.6496 133.964 38.0058C133.605 38.362 133.179 38.6444 132.71 38.8369C132.241 39.0293 131.739 39.1281 131.232 39.1276H4.76591C3.74092 39.1286 2.75747 38.7252 2.03184 38.0061C1.30621 37.287 0.89782 36.311 0.896484 35.2928V4.71091C0.897819 3.69224 1.30605 2.71573 2.03153 1.9958C2.75701 1.27587 3.74045 0.871358 4.76591 0.871094H131.231C131.738 0.871061 132.241 0.970364 132.71 1.16333C133.179 1.3563 133.605 1.63914 133.964 1.99572C134.323 2.3523 134.607 2.77561 134.802 3.24149C134.996 3.70737 135.096 4.20668 135.095 4.71091L135.096 35.2925Z" fill="white"/>
<path d="M131.232 40.0197H4.76651C3.50379 40.0195 2.29274 39.5216 1.39913 38.6353C0.505519 37.7491 0.00233526 36.5469 0 35.2925L0 4.71218C0.00180081 3.45719 0.504652 2.25416 1.39824 1.36701C2.29182 0.479861 3.50316 -0.0189607 4.76651 -0.0200195L131.231 -0.0200195C132.495 -0.0184324 133.706 0.480559 134.599 1.3676C135.493 2.25463 135.996 3.45736 135.998 4.71218V35.2925C136 37.9001 133.858 40.0197 131.232 40.0197Z" fill="#A6A6A6"/>
<path d="M135.096 35.2925C135.096 35.7965 134.996 36.2955 134.802 36.7611C134.608 37.2267 134.323 37.6496 133.964 38.0058C133.605 38.362 133.179 38.6444 132.71 38.8369C132.241 39.0293 131.739 39.1281 131.232 39.1276H4.76591C3.74092 39.1286 2.75747 38.7252 2.03184 38.0061C1.30621 37.287 0.89782 36.311 0.896484 35.2928V4.71091C0.897819 3.69224 1.30605 2.71573 2.03153 1.9958C2.75701 1.27587 3.74045 0.871358 4.76591 0.871094H131.231C131.738 0.871061 132.241 0.970364 132.71 1.16333C133.179 1.3563 133.605 1.63914 133.964 1.99572C134.323 2.3523 134.607 2.77561 134.802 3.24149C134.996 3.70737 135.096 4.20668 135.095 4.71091L135.096 35.2925Z" fill="black"/>
<path d="M30.3664 19.7893C30.3372 16.5621 33.0264 14.9921 33.1493 14.919C31.6264 12.7133 29.2658 12.412 28.4362 12.388C26.4536 12.1805 24.5305 13.5664 23.5203 13.5664C22.4903 13.5664 20.9351 12.4077 19.259 12.442C17.1019 12.4751 15.0839 13.7158 13.9772 15.6419C11.6932 19.5701 13.3967 25.3423 15.5848 28.5172C16.6796 30.0733 17.9585 31.8085 19.6328 31.7474C21.2708 31.6814 21.8825 30.7112 23.8591 30.7112C25.8174 30.7112 26.3922 31.7472 28.0995 31.7084C29.8574 31.6814 30.964 30.1463 32.0205 28.5773C33.2853 26.796 33.7935 25.04 33.8137 24.9497C33.7734 24.9357 30.4006 23.6561 30.3664 19.7893ZM27.1409 10.2991C28.0219 9.20481 28.6246 7.71583 28.4573 6.20508C27.1822 6.26113 25.5878 7.08095 24.6695 8.15151C23.857 9.0947 23.1315 10.6407 23.3188 12.0944C24.7511 12.2005 26.2217 11.3767 27.1409 10.2991Z" fill="white"/>
<path d="M131.233 -0.0195312H63.4941L90.0262 40.0202H131.233C132.496 40.0192 133.707 39.5206 134.601 38.634C135.494 37.7473 135.997 36.5448 136 35.2902V4.71247C135.997 3.45759 135.494 2.25477 134.601 1.36772C133.707 0.48067 132.496 -0.0182077 131.233 -0.0195312Z" fill="url(#paint0_linear_2008_45873)"/>
<path d="M54.0918 31.524H51.8027L50.5487 27.6102H46.1905L44.9959 31.524H42.7676L47.0866 18.1993H49.7536L54.0918 31.524ZM50.171 25.9683L49.0369 22.4888C48.917 22.1335 48.6911 21.2961 48.3607 19.9786H48.3204C48.1871 20.5454 47.9746 21.3825 47.6832 22.4886L46.5685 25.9683H50.171ZM65.1772 26.6019C65.1772 28.236 64.7307 29.5276 63.8366 30.4758C63.0362 31.3198 62.0414 31.7415 60.8549 31.7415C59.574 31.7415 58.6528 31.2878 58.0932 30.3787V35.4202H55.9444V25.0741C55.9444 24.0476 55.9172 22.9953 55.8648 21.916H57.7547L57.8745 23.439H57.9148C58.6316 22.2916 59.7191 21.7178 61.1788 21.7178C62.3197 21.7178 63.2722 22.1653 64.034 23.0616C64.7951 23.9595 65.1772 25.1392 65.1772 26.6019ZM62.9879 26.68C62.9879 25.7448 62.7763 24.9738 62.3507 24.3662C61.8863 23.7343 61.2622 23.4178 60.4802 23.4178C59.9498 23.4178 59.468 23.5942 59.0378 23.9415C58.6064 24.2919 58.3241 24.7498 58.1921 25.3164C58.1331 25.5283 58.0996 25.7465 58.0921 25.9663V27.5691C58.0921 28.2673 58.308 28.8569 58.7394 29.3394C59.1708 29.8199 59.7312 30.0613 60.4205 30.0613C61.2299 30.0613 61.8601 29.75 62.3106 29.1322C62.7619 28.5123 62.9879 27.6952 62.9879 26.68ZM76.3019 26.6019C76.3019 28.236 75.8554 29.5276 74.9613 30.4758C74.1599 31.3198 73.1661 31.7415 71.9787 31.7415C70.6977 31.7415 69.7765 31.2878 69.2169 30.3787V35.4202H67.0681V25.0741C67.0681 24.0476 67.0409 22.9953 66.9885 21.916H68.8784L68.9983 23.439H69.0386C69.7541 22.2916 70.8418 21.7178 72.3023 21.7178C73.4422 21.7178 74.3946 22.1653 75.1588 23.0616C75.9188 23.9595 76.3019 25.1392 76.3019 26.6019ZM74.1116 26.68C74.1116 25.7448 73.8988 24.9738 73.4734 24.3662C73.0087 23.7343 72.3869 23.4178 71.6047 23.4178C71.0745 23.4178 70.5927 23.5942 70.1603 23.9415C69.7289 24.2919 69.4476 24.7498 69.3158 25.3164C69.2504 25.5807 69.2151 25.7959 69.2151 25.9663V27.5691C69.2151 28.2673 69.4317 28.8569 69.8611 29.3394C70.2925 29.8191 70.8529 30.0613 71.5442 30.0613C72.3547 30.0613 72.9848 29.75 73.4341 29.1322C73.8857 28.5123 74.1116 27.6952 74.1116 26.68ZM88.7398 27.7866C88.7398 28.921 88.3406 29.8431 87.5475 30.5551C86.6746 31.3319 85.4559 31.7212 83.8937 31.7212C82.4503 31.7212 81.2931 31.4452 80.4202 30.8914L80.9171 29.1122C81.8595 29.667 82.8948 29.943 84.0216 29.943C84.8321 29.943 85.4622 29.761 85.9115 29.3994C86.3623 29.0371 86.59 28.5523 86.59 27.9478C86.59 27.406 86.4013 26.9525 86.0314 26.5829C85.6596 26.2145 85.0446 25.8709 84.1808 25.5556C81.8323 24.6855 80.6571 23.413 80.6571 21.7388C80.6571 20.6453 81.0725 19.7504 81.901 19.0504C82.7296 18.3515 83.8282 18.0019 85.195 18.0019C86.4154 18.0019 87.4324 18.2133 88.2398 18.635L87.7006 20.375C86.9406 19.9666 86.0828 19.7624 85.1232 19.7624C84.3651 19.7624 83.7708 19.9476 83.3451 20.3159C82.9875 20.6455 82.8062 21.0469 82.8062 21.5236C82.8062 22.0491 83.0127 22.4858 83.424 22.8282C83.7808 23.1435 84.4319 23.4871 85.3733 23.8554C86.5283 24.3181 87.377 24.8567 87.9203 25.4755C88.4678 26.0944 88.7398 26.8664 88.7398 27.7866ZM95.8628 23.5181H93.4942V28.183C93.4942 29.3694 93.9115 29.9612 94.7482 29.9612C95.1322 29.9612 95.4508 29.9292 95.7027 29.8621L95.7621 31.4833C95.339 31.6404 94.7814 31.7195 94.0911 31.7195C93.2423 31.7195 92.579 31.4622 92.1002 30.9475C91.6235 30.4327 91.3837 29.5709 91.3837 28.3574V23.5138H89.9726V21.912H91.3837V20.1528L93.4942 19.5199V21.9123H95.8628V23.5181ZM106.529 26.6412C106.529 28.1177 106.104 29.3304 105.255 30.2786C104.367 31.2548 103.186 31.7415 101.713 31.7415C100.292 31.7415 99.1618 31.2738 98.3194 30.3396C97.4767 29.4037 97.0554 28.224 97.0554 26.8011C97.0554 25.3121 97.4908 24.0927 98.3587 23.1445C99.2286 22.1953 100.4 21.7206 101.872 21.7206C103.291 21.7206 104.432 22.1893 105.294 23.1245C106.119 24.0316 106.529 25.2035 106.529 26.6412ZM104.302 26.69C104.302 25.8099 104.11 25.0551 103.726 24.4233C103.275 23.6602 102.63 23.2789 101.795 23.2789C100.934 23.2789 100.273 23.6602 99.8242 24.4233C99.4391 25.0551 99.2475 25.8229 99.2475 26.73C99.2475 27.6112 99.4391 28.3682 99.8242 28.998C100.289 29.761 100.937 30.1424 101.777 30.1424C102.598 30.1424 103.242 29.753 103.708 28.9788C104.103 28.3321 104.302 27.5724 104.302 26.69ZM113.517 23.7934C113.293 23.7533 113.067 23.7335 112.84 23.7343C112.084 23.7343 111.499 24.0166 111.088 24.5854C110.731 25.0859 110.551 25.719 110.551 26.4828V31.5243H108.403V24.9418C108.405 23.9332 108.384 22.9247 108.34 21.917H110.212L110.291 23.7553H110.35C110.578 23.1235 110.935 22.614 111.425 22.2323C111.873 21.8991 112.418 21.7186 112.978 21.7178C113.177 21.7178 113.356 21.7318 113.515 21.7569L113.517 23.7934ZM123.128 26.2656C123.133 26.5901 123.107 26.9143 123.049 27.2338H116.602C116.627 28.183 116.939 28.91 117.538 29.4104C118.081 29.8571 118.784 30.0814 119.646 30.0814C120.601 30.0814 121.472 29.9312 122.255 29.6279L122.592 31.1086C121.676 31.5053 120.596 31.7025 119.349 31.7025C117.849 31.7025 116.672 31.2638 115.815 30.3887C114.96 29.5128 114.532 28.3351 114.532 26.8602C114.532 25.4125 114.93 24.206 115.728 23.2438C116.562 22.2163 117.69 21.7028 119.109 21.7028C120.503 21.7028 121.558 22.2163 122.275 23.2438C122.843 24.0576 123.128 25.0671 123.128 26.2656H123.128ZM121.079 25.7118C121.094 25.0781 120.953 24.5324 120.661 24.0707C120.29 23.4761 119.717 23.1798 118.95 23.1798C118.247 23.1798 117.675 23.4691 117.239 24.0496C116.882 24.5113 116.669 25.0661 116.603 25.7098L121.079 25.7118ZM45.5707 13.4884C44.9728 13.4884 44.4557 13.4594 44.0253 13.4103V6.96818C44.6273 6.87582 45.2356 6.8303 45.8447 6.83204C48.3093 6.83204 49.4441 8.03649 49.4441 9.99994C49.4441 12.2647 48.1035 13.4884 45.5707 13.4884ZM45.9313 7.65786C45.5989 7.65786 45.3155 7.67788 45.0808 7.72618V12.6233C45.2078 12.6433 45.4515 12.6523 45.7943 12.6523C47.4092 12.6523 48.3284 11.7389 48.3284 10.029C48.3284 8.50395 47.4968 7.65786 45.9313 7.65786ZM52.9811 13.5374C51.5921 13.5374 50.6918 12.5072 50.6918 11.1083C50.6918 9.65059 51.611 8.61106 53.0597 8.61106C54.4285 8.61106 55.3487 9.59253 55.3487 11.0312C55.3487 12.5072 54.4003 13.5374 52.9811 13.5374ZM53.0214 9.37832C52.2583 9.37832 51.7695 10.087 51.7695 11.0783C51.7695 12.0505 52.2684 12.7594 53.0111 12.7594C53.7538 12.7594 54.2529 12.0014 54.2529 11.0582C54.2529 10.0973 53.7644 9.37832 53.0214 9.37832ZM63.2692 8.7084L61.7823 13.4303H60.8136L60.1979 11.3798C60.0447 10.8782 59.9172 10.3692 59.8158 9.85479H59.7957C59.7181 10.3693 59.571 10.8851 59.4146 11.3798L58.7595 13.4303H57.7809L56.3818 8.70815H57.4673L58.0055 10.9531C58.1327 11.4879 58.2395 11.9924 58.3281 12.4691H58.3483C58.4258 12.0715 58.5528 11.575 58.7394 10.9631L59.4146 8.70941H60.2754L60.9217 10.9151C61.0715 11.4277 61.1989 11.9466 61.3035 12.4701H61.3317C61.4004 11.9847 61.508 11.4689 61.6543 10.9151L62.2318 8.70941L63.2692 8.7084ZM68.7421 13.4303H67.6859V10.7189C67.6859 9.88382 67.3635 9.46516 66.7273 9.46516C66.1015 9.46516 65.6711 9.99994 65.6711 10.6218V13.4303H64.6146V10.0577C64.6146 9.64033 64.6045 9.19264 64.5753 8.70715H65.5046L65.554 9.43588H65.5834C65.8675 8.93138 66.444 8.61081 67.0902 8.61081C68.0881 8.61081 68.7431 9.36906 68.7431 10.6025L68.7421 13.4303ZM71.6553 13.4303H70.5978V6.5415H71.6553V13.4303ZM75.5066 13.5374C74.1186 13.5374 73.2172 12.5072 73.2172 11.1083C73.2172 9.65059 74.1365 8.61106 75.5841 8.61106C76.9539 8.61106 77.8732 9.59253 77.8732 11.0312C77.8742 12.5072 76.9247 13.5374 75.5066 13.5374ZM75.5459 9.37832C74.7827 9.37832 74.2942 10.087 74.2942 11.0783C74.2942 12.0505 74.7938 12.7594 75.5348 12.7594C76.2785 12.7594 76.7764 12.0014 76.7764 11.0582C76.7776 10.0973 76.2896 9.37832 75.5459 9.37832ZM82.038 13.4303L81.9615 12.8866H81.9333C81.6107 13.3242 81.1399 13.5372 80.5431 13.5372C79.6916 13.5372 79.0866 12.9446 79.0866 12.1476C79.0866 10.9822 80.1038 10.3793 81.8645 10.3793V10.2922C81.8645 9.67061 81.5331 9.35905 80.8778 9.35905C80.4093 9.35905 79.9978 9.47617 79.6362 9.7094L79.4213 9.01971C79.8608 8.74744 80.4091 8.61106 81.0533 8.61106C82.2949 8.61106 82.922 9.26195 82.922 10.5647V12.304C82.922 12.7804 82.9432 13.1498 82.9905 13.4313L82.038 13.4303ZM81.8927 11.0783C80.7196 11.0783 80.131 11.3608 80.131 12.0305C80.131 12.5259 80.4343 12.7684 80.8556 12.7684C81.3928 12.7684 81.8927 12.361 81.8927 11.8072V11.0783ZM88.0515 13.4303L88.0021 12.6721H87.9729C87.6694 13.2452 87.1594 13.5374 86.4467 13.5374C85.3008 13.5374 84.452 12.5362 84.452 11.1276C84.452 9.65059 85.332 8.61006 86.5333 8.61006C87.1695 8.61006 87.62 8.82352 87.8739 9.25194H87.8951V6.54175H88.9526V12.1573C88.9526 12.614 88.9637 13.0415 88.9919 13.4301L88.0515 13.4303ZM87.8953 10.6518C87.8953 9.99093 87.4546 9.42712 86.7824 9.42712C85.9991 9.42712 85.5206 10.1171 85.5206 11.0883C85.5206 12.0405 86.0173 12.6924 86.7612 12.6924C87.4254 12.6924 87.8951 12.1185 87.8951 11.4386L87.8953 10.6518ZM95.6563 13.5372C94.2684 13.5372 93.3683 12.5072 93.3683 11.1083C93.3683 9.65059 94.2875 8.61106 95.7349 8.61106C97.105 8.61106 98.0242 9.59253 98.0242 11.0312C98.025 12.5072 97.0765 13.5372 95.6563 13.5372ZM95.6956 9.37807C94.9335 9.37807 94.4447 10.087 94.4447 11.0783C94.4447 12.0505 94.9436 12.7594 95.6855 12.7594C96.4295 12.7594 96.9272 12.0014 96.9272 11.0582C96.9294 10.0973 96.4406 9.37807 95.6956 9.37807ZM103.705 13.4303H102.647V10.7189C102.647 9.88382 102.325 9.46516 101.689 9.46516C101.063 9.46516 100.634 9.99994 100.634 10.6218V13.4303H99.5761V10.0577C99.5761 9.64033 99.566 9.19264 99.5368 8.70715H100.466L100.516 9.43588H100.545C100.828 8.93138 101.406 8.61006 102.051 8.61006C103.049 8.61006 103.705 9.36781 103.705 10.6015V13.4303ZM110.812 9.49519H109.65V11.7882C109.65 12.372 109.853 12.6633 110.264 12.6633C110.451 12.6633 110.607 12.6433 110.733 12.6143L110.762 13.4113C110.558 13.4894 110.284 13.5284 109.943 13.5284C109.11 13.5284 108.612 13.0717 108.612 11.8763V9.49519H107.919V8.7084H108.612V7.84305L109.65 7.53149V8.70715H110.812L110.812 9.49519ZM116.404 13.4303H115.348V10.7389C115.348 9.89383 115.027 9.46616 114.39 9.46616C113.843 9.46616 113.333 9.83577 113.333 10.5838V13.4303H112.277V6.5415H113.333V9.37807H113.354C113.686 8.86356 114.168 8.61006 114.783 8.61006C115.789 8.61006 116.404 9.38708 116.404 10.6218V13.4303ZM122.133 11.3215H118.963C118.983 12.2156 119.579 12.7204 120.461 12.7204C120.929 12.7204 121.361 12.6423 121.742 12.4972L121.906 13.2261C121.457 13.4203 120.927 13.5174 120.312 13.5174C118.825 13.5174 117.945 12.584 117.945 11.1376C117.945 9.68963 118.846 8.60105 120.193 8.60105C121.407 8.60105 122.169 9.49519 122.169 10.8458C122.176 11.0052 122.164 11.1649 122.133 11.3215ZM121.164 10.5738C121.164 9.84478 120.794 9.33002 120.119 9.33002C119.512 9.33002 119.033 9.85479 118.964 10.5738H121.164Z" fill="white"/>
</g>
<defs>
<linearGradient id="paint0_linear_2008_45873" x1="99.7457" y1="40.1265" x2="99.7457" y2="-104.276" gradientUnits="userSpaceOnUse">
<stop stop-color="#1A1A1A" stop-opacity="0.1"/>
<stop offset="0.123" stop-color="#212121" stop-opacity="0.151"/>
<stop offset="0.308" stop-color="#353535" stop-opacity="0.227"/>
<stop offset="0.532" stop-color="#575757" stop-opacity="0.318"/>
<stop offset="0.783" stop-color="#858585" stop-opacity="0.421"/>
<stop offset="1" stop-color="#B3B3B3" stop-opacity="0.51"/>
</linearGradient>
<clipPath id="clip0_2008_45873">
<rect width="136" height="40" fill="white"/>
</clipPath>
</defs>
</svg>
