<svg width="276" height="140" viewBox="0 0 276 140" fill="none" xmlns="http://www.w3.org/2000/svg">
<g clip-path="url(#clip0_2232_21518)">
<mask id="mask0_2232_21518" style="mask-type:luminance" maskUnits="userSpaceOnUse" x="-155" y="-2" width="423" height="288">
<path d="M-154.514 -1.25537H267.506V285.599H-154.514V-1.25537Z" fill="white"/>
</mask>
<g mask="url(#mask0_2232_21518)">
<path d="M85.6316 88.9567C86.358 89.0603 87.0858 89.1133 87.7951 89.1133C92.5878 89.1133 96.3775 86.7342 97.4492 83.0536C98.6262 79.0144 96.8843 75.3531 92.7909 73.2583C91.0038 72.3437 89.3596 71.5987 87.6077 70.8046C87.0868 70.5685 86.558 70.3285 86.0161 70.0798C83.635 68.9869 81.2224 66.9611 81.5943 64.5526C82.0034 61.9085 84.6466 60.3752 88.0227 60.8267C91.2103 61.2527 92.7227 62.5832 93.9383 63.652L93.9924 63.6997L94.0165 63.718C94.3659 64.0013 94.8025 64.1454 95.2632 64.1223C95.7439 64.0992 96.189 63.8963 96.5168 63.5513C96.8437 63.2077 97.0106 62.7595 96.9855 62.2892C96.9615 61.8208 96.7504 61.3895 96.3915 61.0744C94.9729 59.8268 92.829 57.9417 88.5225 57.3663C83.1343 56.6488 78.7075 59.4548 77.9992 64.0394C77.4453 67.6299 79.9171 71.153 84.4506 73.2328C84.9604 73.4665 85.4582 73.6925 85.9499 73.9156L86.0743 73.972C87.7746 74.743 89.3807 75.4711 91.0835 76.3424C94.3533 78.0155 94.4476 80.4032 93.9498 82.1115C93.1969 84.6973 90.0664 86.0591 86.1655 85.5011C83.3263 85.0953 80.861 83.6526 79.7316 81.7352C79.493 81.3289 79.104 81.0369 78.6358 80.9126C78.1671 80.7868 77.6779 80.8461 77.2558 81.0759C76.8332 81.3058 76.5294 81.6797 76.3996 82.1298C76.2698 82.5794 76.3304 83.0502 76.5695 83.4564C78.2634 86.3323 81.6515 88.3885 85.6316 88.9567Z" fill="#732384"/>
</g>
<mask id="mask1_2232_21518" style="mask-type:luminance" maskUnits="userSpaceOnUse" x="-155" y="-2" width="423" height="288">
<path d="M-154.455 -1.23291H267.565V285.621H-154.455V-1.23291Z" fill="white"/>
</mask>
<g mask="url(#mask1_2232_21518)">
<path d="M104.119 80.3625C104.119 77.0202 106.489 74.6864 109.883 74.6864C113.224 74.6864 115.648 77.0737 115.648 80.3625C115.648 83.5603 113.17 85.9717 109.883 85.9717C106.489 85.9717 104.119 83.6654 104.119 80.3625ZM102.459 94.6885C103.39 94.6885 104.119 94.0172 104.119 93.1609V87.0072C105.463 88.2447 107.665 89.0263 109.883 89.0263C115.105 89.0263 118.896 85.3823 118.896 80.3625C118.896 75.3852 115.021 71.6318 109.883 71.6318C107.609 71.6318 105.651 72.3088 103.909 73.6995C103.71 73.1102 103.144 72.7093 102.459 72.7093C101.584 72.7093 100.871 73.394 100.871 74.2354L100.801 93.1609C100.801 94.0172 101.53 94.6885 102.459 94.6885Z" fill="#732384"/>
</g>
<mask id="mask2_2232_21518" style="mask-type:luminance" maskUnits="userSpaceOnUse" x="-155" y="-2" width="423" height="288">
<path d="M-154.352 -1.23974H267.667V285.614H-154.352V-1.23974Z" fill="white"/>
</mask>
<g mask="url(#mask2_2232_21518)">
<path d="M150.759 89.0781C153.905 89.0781 156.832 87.7086 158.583 85.4182C158.85 85.0891 158.963 84.6645 158.894 84.254C158.827 83.8608 158.598 83.5128 158.274 83.3061C157.935 83.0526 157.522 82.9442 157.112 83.0045C156.71 83.0623 156.342 83.2753 156.077 83.603C154.843 85.1194 152.805 86.061 150.759 86.061C147.238 86.061 144.373 83.4863 144.373 80.3213C144.373 77.1404 147.178 74.6481 150.759 74.6481C152.818 74.6481 154.991 75.8037 155.927 77.3948C156.114 77.7124 156.427 77.9346 156.808 78.0223C157.247 78.1235 157.743 78.0358 158.14 77.7808C158.839 77.258 159.002 76.3482 158.529 75.6167C157.007 73.2646 153.812 71.5983 150.761 71.565C148.141 71.5404 145.694 72.4816 143.859 74.226C142.122 75.8769 141.165 78.0415 141.165 80.3213C141.165 85.1498 145.469 89.0781 150.759 89.0781Z" fill="#732384"/>
</g>
<mask id="mask3_2232_21518" style="mask-type:luminance" maskUnits="userSpaceOnUse" x="-155" y="-2" width="423" height="288">
<path d="M-154.298 -1.23486H267.722V285.619H-154.298V-1.23486Z" fill="white"/>
</mask>
<g mask="url(#mask3_2232_21518)">
<path d="M164.555 78.1683C165.355 75.9435 167.546 74.5479 170.093 74.6732C172.002 74.7672 174.442 75.4563 175.377 78.1683H164.555ZM170.448 89.082C173.59 89.082 176.512 87.7144 178.261 85.4274C178.527 85.0988 178.64 84.6752 178.57 84.2651C178.504 83.8724 178.275 83.5249 177.952 83.3187C177.614 83.0657 177.201 82.9573 176.792 83.0175C176.39 83.0749 176.023 83.2879 175.758 83.6151C174.507 85.1518 172.522 86.0693 170.448 86.0693C167.337 86.0693 164.678 83.9818 164.171 81.1801C166.309 81.1815 168.447 81.1974 170.584 81.2138C172.795 81.2302 175.006 81.2471 177.217 81.2471C178.066 81.2471 178.784 80.5271 178.784 79.6742V79.6077C178.784 79.4352 178.762 77.8806 178.019 76.3058C177.997 76.1801 177.891 75.9878 177.686 75.6437C177.643 75.5714 177.607 75.5112 177.582 75.4645C175.995 72.9688 173.462 71.5945 170.448 71.5945C164.987 71.5945 160.868 75.3536 160.868 80.3382C160.868 85.4048 164.898 89.082 170.448 89.082Z" fill="#732384"/>
</g>
<mask id="mask4_2232_21518" style="mask-type:luminance" maskUnits="userSpaceOnUse" x="-155" y="-2" width="423" height="288">
<path d="M-154.406 -1.23388H267.614V285.62H-154.406V-1.23388Z" fill="white"/>
</mask>
<g mask="url(#mask4_2232_21518)">
<path d="M129.962 85.8985C126.671 85.8985 124.189 83.4838 124.189 80.2817C124.189 77.0025 126.671 74.5299 129.962 74.5299C133.253 74.5299 135.735 77.0025 135.735 80.2817C135.735 83.5363 133.307 85.8985 129.962 85.8985ZM139.057 86.483L139.057 86.4344V82.4651C139.057 82.388 139.044 82.3138 139.033 82.2396L138.987 74.0784C138.986 73.2356 138.273 72.5498 137.396 72.5498C136.728 72.5498 136.155 72.9782 135.949 73.5893C134.421 72.2463 132.358 71.5388 129.962 71.5388C126.559 71.5388 123.762 73.0549 122.084 75.8103C120.59 78.3402 120.59 82.1552 122.083 84.6851C123.63 87.3201 126.649 88.957 129.962 88.957C131.82 88.957 134.338 88.2463 135.79 86.8835C135.792 86.8912 135.796 86.8979 135.798 86.9057V87.3683C135.798 88.2332 136.528 88.9344 137.427 88.9344C138.327 88.9344 139.057 88.2332 139.057 87.3683V86.4854C139.057 86.4845 139.057 86.484 139.057 86.483Z" fill="#732384"/>
</g>
<mask id="mask5_2232_21518" style="mask-type:luminance" maskUnits="userSpaceOnUse" x="-155" y="-2" width="423" height="288">
<path d="M-154.259 -1.23779H267.761V285.616H-154.259V-1.23779Z" fill="white"/>
</mask>
<g mask="url(#mask5_2232_21518)">
<path d="M187.834 80.1551C187.717 80.9999 186.909 81.5935 186.03 81.4803C185.151 81.3675 184.534 80.5907 184.651 79.7455C184.77 78.9008 185.577 78.3076 186.456 78.4203C187.335 78.5336 187.952 79.3104 187.834 80.1551Z" fill="#211D1D"/>
</g>
<mask id="mask6_2232_21518" style="mask-type:luminance" maskUnits="userSpaceOnUse" x="-155" y="-2" width="423" height="288">
<path d="M-154.23 -1.27295H267.79V285.581H-154.23V-1.27295Z" fill="white"/>
</mask>
<g mask="url(#mask6_2232_21518)">
<path d="M199.807 67.1912C199.69 68.036 198.882 68.6297 198.002 68.5164C197.124 68.4037 196.507 67.6269 196.624 66.7816C196.742 65.9369 197.55 65.3437 198.428 65.4565C199.308 65.5697 199.925 66.3465 199.807 67.1912Z" fill="#211D1D"/>
</g>
<mask id="mask7_2232_21518" style="mask-type:luminance" maskUnits="userSpaceOnUse" x="-155" y="-2" width="423" height="288">
<path d="M-154.244 -1.27685H267.775V285.577H-154.244V-1.27685Z" fill="white"/>
</mask>
<g mask="url(#mask7_2232_21518)">
<path d="M185.947 80.1504L185.587 79.8155L198.558 66.9236L192.001 47.6372L192.478 47.4873L199.129 67.0494L185.947 80.1504Z" fill="#211D1D"/>
</g>
<mask id="mask8_2232_21518" style="mask-type:luminance" maskUnits="userSpaceOnUse" x="-155" y="-2" width="423" height="288">
<path d="M-154.283 -1.30127H267.736V285.553H-154.283V-1.30127Z" fill="white"/>
</mask>
<g mask="url(#mask8_2232_21518)">
<path d="M161.998 61.457C161.712 61.457 161.439 61.2995 161.313 61.033C161.141 60.6696 161.308 60.2412 161.686 60.076L191.89 46.8786C192.268 46.7128 192.714 46.8738 192.885 47.2376C193.057 47.6009 192.89 48.0293 192.512 48.1946L162.308 61.392C162.208 61.4363 162.101 61.457 161.998 61.457Z" fill="#4182CC"/>
</g>
<mask id="mask9_2232_21518" style="mask-type:luminance" maskUnits="userSpaceOnUse" x="-155" y="-2" width="423" height="288">
<path d="M-154.288 -1.27783H267.731V285.576H-154.288V-1.27783Z" fill="white"/>
</mask>
<g mask="url(#mask9_2232_21518)">
<path d="M186.279 71.1807C186.181 71.1807 186.083 71.1624 185.991 71.1252L161.704 61.4264C161.32 61.2731 161.139 60.85 161.298 60.4814C161.457 60.1132 161.897 59.9369 162.281 60.0911L185.526 69.3746L185.518 57.2147C185.517 56.8152 185.854 56.4919 186.269 56.4914C186.685 56.4914 187.021 56.8147 187.022 57.2137L187.031 70.4574C187.031 70.6988 186.906 70.9248 186.696 71.0592C186.571 71.1397 186.425 71.1807 186.279 71.1807Z" fill="#4182CC"/>
</g>
<mask id="mask10_2232_21518" style="mask-type:luminance" maskUnits="userSpaceOnUse" x="-155" y="-2" width="423" height="288">
<path d="M-154.254 -1.31884H267.765V285.535H-154.254V-1.31884Z" fill="white"/>
</mask>
<g mask="url(#mask10_2232_21518)">
<path d="M194.262 48.0576C194.078 49.3832 192.81 50.3142 191.431 50.1364C190.052 49.9591 189.084 48.7404 189.268 47.4152C189.453 46.0896 190.721 45.1586 192.1 45.3364C193.479 45.5137 194.447 46.7319 194.262 48.0576Z" fill="#4182CC"/>
</g>
<mask id="mask11_2232_21518" style="mask-type:luminance" maskUnits="userSpaceOnUse" x="-155" y="-2" width="423" height="288">
<path d="M-154.269 -1.26611H267.751V285.588H-154.269V-1.26611Z" fill="white"/>
</mask>
<g mask="url(#mask11_2232_21518)">
<path d="M188.577 69.5986C188.392 70.9243 187.125 71.8553 185.746 71.6774C184.367 71.5001 183.399 70.2814 183.583 68.9563C183.768 67.6306 185.035 66.6996 186.414 66.8774C187.793 67.0547 188.761 68.2729 188.577 69.5986Z" fill="#4182CC"/>
</g>
<mask id="mask12_2232_21518" style="mask-type:luminance" maskUnits="userSpaceOnUse" x="-155" y="-2" width="423" height="288">
<path d="M-154.259 -1.29345H267.761V285.561H-154.259V-1.29345Z" fill="white"/>
</mask>
<g mask="url(#mask12_2232_21518)">
<path d="M187.976 57.2967C187.859 58.1415 187.05 58.7351 186.172 58.6219C185.292 58.5087 184.675 57.7323 184.793 56.8871C184.911 56.0424 185.719 55.4492 186.598 55.5619C187.477 55.6752 188.094 56.452 187.976 57.2967Z" fill="#211D1D"/>
</g>
<mask id="mask13_2232_21518" style="mask-type:luminance" maskUnits="userSpaceOnUse" x="-155" y="-2" width="423" height="288">
<path d="M-154.318 -1.28271H267.702V285.571H-154.318V-1.28271Z" fill="white"/>
</mask>
<g mask="url(#mask13_2232_21518)">
<path d="M164.252 61.0185C164.134 61.8632 163.326 62.4564 162.447 62.3437C161.568 62.2304 160.951 61.4536 161.069 60.6089C161.186 59.7637 161.994 59.1709 162.873 59.2837C163.752 59.397 164.369 60.1737 164.252 61.0185Z" fill="#211D1D"/>
</g>
</g>
<defs>
<clipPath id="clip0_2232_21518">
<rect width="124" height="50" fill="white" transform="translate(76 45)"/>
</clipPath>
</defs>
</svg>
