<svg width="379" height="131" viewBox="0 0 379 131" fill="none" xmlns="http://www.w3.org/2000/svg">
<g clip-path="url(#clip0_2008_30153)">
<rect width="379" height="131" fill="#0B1D38"/>
<path d="M263.718 -55.2324H0V156.605H73.4009V87.6867H214.051L278.219 156.605H360.41L289.646 87.3692C311.622 84.827 327.446 78.7922 337.116 69.2648C346.786 59.7375 351.619 44.4928 351.619 24.1659V8.28626C351.619 -3.78328 349.862 -13.3107 346.786 -20.6155C343.707 -27.9203 338.434 -34.2726 330.962 -39.9878C323.049 -45.3875 314.261 -49.1997 303.713 -51.7398C293.164 -53.9624 279.982 -55.2324 263.718 -55.2324ZM251.851 40.9981H73.398V-8.54595H251.854C261.963 -8.54595 268.994 -7.2759 272.512 -5.05332C276.022 -2.83074 278.219 1.29895 278.219 7.33372V25.1185C278.219 31.4707 276.022 35.6004 272.506 37.823C268.991 40.0456 261.958 40.9981 251.851 40.9981Z" fill="white" fill-opacity="0.06"/>
</g>
<defs>
<clipPath id="clip0_2008_30153">
<rect width="379" height="131" fill="white"/>
</clipPath>
</defs>
</svg>
