<svg width="379" height="131" viewBox="0 0 379 131" fill="none" xmlns="http://www.w3.org/2000/svg">
<g clip-path="url(#clip0_2008_30154)">
<rect width="379" height="131" fill="url(#paint0_linear_2008_30154)"/>
<path d="M77.5988 91.929L-12.9699 71.0333C-12.9699 71.0333 -23.7938 67.9237 -20.3085 60.8723C-19.5911 59.4183 -18.1437 58.181 -13.8142 56.0546C6.25345 46.1499 357.621 -43.2777 357.621 -43.2777C357.621 -43.2777 367.542 -45.6449 373.393 -44.0704C374.84 -43.7531 376.143 -43.1693 377.167 -42.3786C378.191 -41.5879 378.9 -40.6187 379.222 -39.5702C379.854 -37.7184 380.119 -35.8131 380.008 -33.9094C379.98 -32.2627 379.698 -30.7363 379.485 -28.3428C377.345 -3.89296 313.304 178.584 313.304 178.584C313.304 178.584 309.473 189.262 295.745 189.628C292.371 189.705 289.01 189.3 285.862 188.438C282.714 187.576 279.843 186.273 277.421 184.609C250.482 168.2 157.371 123.89 136.797 114.145C136.332 113.921 135.942 113.629 135.65 113.289C135.359 112.949 135.174 112.569 135.108 112.174C134.82 111.147 136.398 109.875 136.398 109.875C136.398 109.875 298.528 7.82721 302.842 -2.88562C303.176 -3.71558 301.914 -4.12507 300.22 -3.76155C289.451 -0.956332 102.778 82.5192 82.1758 91.7319C80.6927 92.0496 79.1252 92.1171 77.5988 91.929Z" fill="white" fill-opacity="0.16"/>
</g>
<defs>
<linearGradient id="paint0_linear_2008_30154" x1="189.5" y1="131" x2="189.5" y2="0" gradientUnits="userSpaceOnUse">
<stop stop-color="#1D93D2"/>
<stop offset="1" stop-color="#38B0E3"/>
</linearGradient>
<clipPath id="clip0_2008_30154">
<rect width="379" height="131" fill="white"/>
</clipPath>
</defs>
</svg>
