<svg width="379" height="131" viewBox="0 0 379 131" fill="none" xmlns="http://www.w3.org/2000/svg">
<g clip-path="url(#clip0_2008_30155)" filter="url(#filter0_b_2008_30155)">
<rect width="379" height="131" fill="black"/>
<g clip-path="url(#clip1_2008_30155)">
<path d="M-1.17383 -1.26154C8.22746 -1.25065 17.6287 -1.26154 27.0193 -1.25065C26.9765 15.9579 27.1371 33.1665 26.9444 50.386C31.2917 44.5519 37.7055 40.3286 44.8154 39.0225C55.0947 37.3462 66.6589 39.3381 74.1757 47.175C80.9322 53.6296 83.427 63.3278 83.5341 72.4818C83.5877 91.9 83.5448 111.307 83.5555 130.725C74.1542 130.736 64.753 130.736 55.3517 130.725C55.3517 114.91 55.3517 99.0947 55.3517 83.2902C55.2446 78.4357 54.6878 73.0043 51.1436 69.4014C45.6399 63.4911 35.0822 64.4163 30.253 70.7511C27.6511 74.354 26.9979 78.9581 27.03 83.3229V130.725C17.6287 130.736 8.22746 130.725 -1.16312 130.736C-1.17383 86.7407 -1.17383 42.7341 -1.17383 -1.26154ZM210.848 -1.26154C220.228 -1.26154 229.607 -1.26154 238.998 -1.25065C238.998 15.6967 239.052 32.6441 238.955 49.5914C243.763 43.9641 250.402 39.6755 257.801 38.881C269.729 36.9979 282.267 41.3082 290.716 50.0377C309.422 69.5865 308.962 105.005 288.821 123.346C279.848 131.89 266.666 134.829 254.781 132.304C248.067 130.758 242.146 126.622 237.863 121.201C237.927 124.38 237.917 127.547 237.917 130.725C228.89 130.736 219.863 130.725 210.848 130.736C210.826 86.7407 210.826 42.745 210.848 -1.26154ZM251.858 67.1374C243.056 69.4123 236.482 78.5445 237.82 87.84C238.452 97.462 247.339 105.462 256.837 104.831C267.769 105.299 277.149 94.2728 275.265 83.3447C274.29 72.2423 262.362 64.0353 251.858 67.1374ZM104.896 58.3862C111.877 46.3696 125.24 38.1735 139.107 38.5109C148.872 37.9775 158.188 42.9953 164.355 50.4949C164.334 47.3057 164.334 44.1165 164.355 40.9273H191.424C191.424 70.8709 191.445 100.804 191.403 130.736C182.387 130.725 173.371 130.736 164.355 130.725C164.344 127.482 164.334 124.238 164.398 121.005C159.74 126.459 153.68 131.128 146.506 132.304C131.868 135.928 116.032 128.962 107.294 116.793C95.4517 100.031 94.7343 76.139 104.907 58.3862H104.896ZM139.481 67.5293C131.975 69.9674 126.268 77.5214 126.493 85.6195C126.215 94.4905 132.736 102.97 141.377 104.526C153.027 107.606 165.565 96.8525 164.205 84.5855C163.905 72.5253 150.617 63.2299 139.481 67.5293ZM346.213 51.1806C350.486 44.8131 357.167 39.5232 364.92 38.7939C369.599 38.1626 374.364 38.4238 378.957 39.534C379.096 49.1778 378.957 58.8216 377.801 68.4109C371.869 66.7129 365.691 65.3741 359.512 66.1687C352.852 66.9633 347.359 73.3743 347.402 80.1663C347.498 97.0266 347.445 113.876 347.445 130.736C338.033 130.736 328.621 130.715 319.219 130.736C319.155 100.793 319.219 70.86 319.187 40.9164H346.256C346.256 44.3342 346.278 47.7519 346.213 51.1697V51.1806Z" fill="white" fill-opacity="0.06"/>
</g>
</g>
<defs>
<filter id="filter0_b_2008_30155" x="-91.1" y="-91.1" width="561.2" height="313.2" filterUnits="userSpaceOnUse" color-interpolation-filters="sRGB">
<feFlood flood-opacity="0" result="BackgroundImageFix"/>
<feGaussianBlur in="BackgroundImageFix" stdDeviation="45.55"/>
<feComposite in2="SourceAlpha" operator="in" result="effect1_backgroundBlur_2008_30155"/>
<feBlend mode="normal" in="SourceGraphic" in2="effect1_backgroundBlur_2008_30155" result="shape"/>
</filter>
<clipPath id="clip0_2008_30155">
<rect width="379" height="131" fill="white"/>
</clipPath>
<clipPath id="clip1_2008_30155">
<rect width="380.174" height="134.523" fill="white" transform="translate(-1.17383 -1.26154)"/>
</clipPath>
</defs>
</svg>
