<svg width="129" height="36" viewBox="0 0 129 36" fill="none" xmlns="http://www.w3.org/2000/svg">
<g clip-path="url(#clip0_2008_33571)">
<path d="M21.2095 13.8234H8.85547V28.0002H12.294V23.388H18.8828L21.8888 28.0002H25.7391L22.4241 23.3667C23.4536 23.1966 24.1949 22.7927 24.6479 22.1551C25.1009 21.5175 25.3273 20.4973 25.3273 19.137V18.0743C25.3273 17.2665 25.245 16.6289 25.1009 16.1401C24.9566 15.6512 24.7096 15.2261 24.3596 14.8436C23.9889 14.4822 23.5772 14.2271 23.0831 14.0571C22.5889 13.9084 21.9711 13.8234 21.2092 13.8234H21.2095ZM20.6536 20.2634H12.2938V16.9478H20.6537C21.1273 16.9478 21.4566 17.0328 21.6215 17.1815C21.7859 17.3303 21.8888 17.6066 21.8888 18.0105V19.2007C21.8888 19.6258 21.7859 19.9022 21.6212 20.0509C21.4565 20.1997 21.127 20.2634 20.6536 20.2634ZM30.3861 23.813V13.8232H26.9476V23.728C26.9476 24.5357 27.0094 25.1946 27.1535 25.6834C27.2975 26.1935 27.5447 26.6186 27.9153 26.98C28.2653 27.3625 28.6771 27.6176 29.1712 27.7664C29.6654 27.9365 30.2832 28.0002 31.0655 28.0002H39.3015C40.0634 28.0002 40.6811 27.9365 41.1752 27.7664C41.6694 27.6176 42.0812 27.3625 42.4518 26.98C42.8018 26.6186 43.0489 26.1935 43.193 25.6834C43.3371 25.1946 43.4196 24.5357 43.4196 23.728V13.8232H39.9809V23.813C39.9809 24.2381 39.878 24.5144 39.7133 24.6632C39.5487 24.8119 39.2192 24.8758 38.7456 24.8758H31.6214C31.1273 24.8758 30.7979 24.8119 30.6331 24.6632C30.4685 24.5144 30.3861 24.2381 30.3861 23.813ZM55.0512 28.0002V16.9478H61.7018V13.8234H44.9621V16.9477H51.6127V28.0002H55.0512ZM66.6817 23.813V13.8232H63.2432V23.728C63.2432 24.5357 63.3049 25.1946 63.4492 25.6834C63.5933 26.1935 63.8403 26.6186 64.2109 26.98C64.561 27.3625 64.9728 27.6176 65.467 27.7664C65.9611 27.9365 66.5788 28.0002 67.3612 28.0002H75.5972C76.359 28.0002 76.9766 27.9365 77.4708 27.7664C77.965 27.6176 78.3768 27.3625 78.7474 26.98C79.0975 26.6186 79.3445 26.1935 79.4887 25.6834C79.6328 25.1946 79.7151 24.5357 79.7151 23.728V13.8232H76.2766V23.813C76.2766 24.2381 76.1737 24.5144 76.0089 24.6632C75.8442 24.8119 75.5147 24.8758 75.0412 24.8758H67.9171C67.423 24.8758 67.0935 24.8119 66.9288 24.6632C66.764 24.5144 66.6817 24.2381 66.6817 23.813ZM97.1409 17.9468V17.6704C97.1409 16.3527 96.8115 15.375 96.1526 14.7586C95.4937 14.1421 94.4437 13.8234 93.0435 13.8234H81.3691V28.0002H93.723C95.1231 28.0002 96.1732 27.7026 96.8321 27.0863C97.491 26.4699 97.8204 25.4922 97.8204 24.1743V23.8768C97.8204 22.559 97.491 21.6238 96.8321 21.0712C96.7085 20.9862 96.585 20.9224 96.4615 20.8587C96.2874 20.7706 96.1087 20.6925 95.9261 20.6248C96.3791 20.3698 96.6879 20.0297 96.8733 19.6471C97.038 19.2646 97.1409 18.6906 97.1409 17.9468ZM84.8076 19.4983V16.9478H92.4876C92.9818 16.9478 93.3111 17.0328 93.476 17.1815C93.6406 17.3303 93.723 17.6066 93.723 18.0105V18.4355C93.723 18.8607 93.6406 19.137 93.476 19.2857C93.3111 19.4346 92.9818 19.4982 92.4876 19.4982L84.8076 19.4983ZM84.8076 24.8758V22.3251H93.1876C93.6612 22.3251 93.9907 22.4103 94.1554 22.559C94.3202 22.7077 94.4231 22.9841 94.4231 23.388V23.813C94.4231 24.2381 94.3202 24.5144 94.1554 24.6632C93.9907 24.8119 93.6612 24.8758 93.1876 24.8758H84.8076ZM102.484 16.9478H113.726V13.8234H99.0458V28.0002H114.282V24.8758H102.484V22.474H113.459L113.726 19.3496H102.484V16.9478Z" fill="#D9D7DA"/>
<path d="M118.359 12.9673C119.688 12.9673 120.765 11.8553 120.765 10.4837C120.765 9.11197 119.688 8 118.359 8C117.03 8 115.953 9.11197 115.953 10.4837C115.953 11.8553 117.03 12.9673 118.359 12.9673Z" fill="#D9D7DA"/>
</g>
<defs>
<clipPath id="clip0_2008_33571">
<rect width="112.381" height="20" fill="white" transform="translate(8.61914 8)"/>
</clipPath>
</defs>
</svg>
