<svg width="40" height="36" viewBox="0 0 40 36" fill="none" xmlns="http://www.w3.org/2000/svg">
<g clip-path="url(#clip0_2008_33553)">
<path d="M20 28C25.5228 28 30 23.5228 30 18C30 12.4772 25.5228 8 20 8C14.4772 8 10 12.4772 10 18C10 23.5228 14.4772 28 20 28Z" fill="#D9D7DA"/>
<path d="M16.7637 18.7318L17.9501 22.0156C17.9501 22.0156 18.0984 22.3228 18.2573 22.3228C18.4161 22.3228 20.7785 19.8652 20.7785 19.8652L23.4056 14.791L16.806 17.8841L16.7637 18.7318Z" fill="white" fill-opacity="0.32"/>
<path d="M18.3411 19.5732L18.1134 21.9937C18.1134 21.9937 18.018 22.7354 18.7595 21.9937C19.501 21.2521 20.2108 20.6802 20.2108 20.6802" fill="white"/>
<path d="M16.7916 18.8478L14.3511 18.0526C14.3511 18.0526 14.0595 17.9343 14.1534 17.6659C14.1727 17.6106 14.2117 17.5635 14.3284 17.4826C14.8691 17.1057 24.3372 13.7026 24.3372 13.7026C24.3372 13.7026 24.6046 13.6125 24.7622 13.6724C24.8012 13.6845 24.8363 13.7067 24.8639 13.7368C24.8915 13.7669 24.9106 13.8038 24.9193 13.8437C24.9364 13.9141 24.9435 13.9866 24.9405 14.0591C24.9397 14.1218 24.9321 14.1798 24.9264 14.2709C24.8687 15.2013 23.1431 22.1453 23.1431 22.1453C23.1431 22.1453 23.0398 22.5517 22.6699 22.5656C22.579 22.5685 22.4884 22.5531 22.4036 22.5203C22.3188 22.4875 22.2414 22.4379 22.1761 22.3746C21.4502 21.7502 18.9412 20.064 18.3868 19.6932C18.3743 19.6846 18.3638 19.6735 18.3559 19.6606C18.3481 19.6477 18.3431 19.6332 18.3413 19.6182C18.3336 19.5791 18.3761 19.5307 18.3761 19.5307C18.3761 19.5307 22.7449 15.6473 22.8611 15.2397C22.8701 15.2081 22.8361 15.1925 22.7905 15.2063C22.5003 15.3131 17.4701 18.4897 16.915 18.8403C16.875 18.8523 16.8328 18.8549 16.7916 18.8478Z" fill="white"/>
</g>
<defs>
<clipPath id="clip0_2008_33553">
<rect width="20" height="20" fill="white" transform="translate(10 8)"/>
</clipPath>
</defs>
</svg>
