<svg width="37" height="36" viewBox="0 0 37 36" fill="none" xmlns="http://www.w3.org/2000/svg">
<g clip-path="url(#clip0_2008_33564)">
<path d="M8.95898 17.6C8.95898 13.0745 8.95898 10.8118 10.3649 9.40589C11.7708 8 14.0335 8 18.559 8H19.359C23.8845 8 26.1472 8 27.5531 9.40589C28.959 10.8118 28.959 13.0745 28.959 17.6V18.4C28.959 22.9255 28.959 25.1882 27.5531 26.5941C26.1472 28 23.8845 28 19.359 28H18.559C14.0335 28 11.7708 28 10.3649 26.5941C8.95898 25.1882 8.95898 22.9255 8.95898 18.4V17.6Z" fill="#D9D7DA"/>
<path d="M19.6006 22.408C15.0423 22.408 12.4423 19.283 12.334 14.083H14.6173C14.6923 17.8997 16.3756 19.5163 17.7089 19.8497V14.083H19.859V17.3747C21.1757 17.233 22.5589 15.733 23.0255 14.083H25.1756C24.8172 16.1163 23.3172 17.6163 22.2506 18.233C23.3172 18.733 25.0256 20.0413 25.6756 22.408H23.3089C22.8006 20.8247 21.534 19.5997 19.859 19.433V22.408H19.6006Z" fill="white"/>
</g>
<defs>
<clipPath id="clip0_2008_33564">
<rect width="20" height="20" fill="white" transform="translate(8.95898 8)"/>
</clipPath>
</defs>
</svg>
