<svg width="46" height="36" viewBox="0 0 46 36" fill="none" xmlns="http://www.w3.org/2000/svg">
<g clip-path="url(#clip0_2008_33559)">
<rect x="18.0098" y="13.7983" width="9.11145" height="9.93976" fill="white"/>
<path d="M23.2646 27.9916L17.2946 27.883C15.3616 27.8452 13.4238 27.9207 11.5288 27.5287C8.64595 26.9431 8.44173 24.0716 8.228 21.6629C7.93354 18.2766 8.04753 14.8288 8.60321 11.4708C8.91666 9.58641 10.1515 8.46235 12.0608 8.33956C18.5057 7.8956 24.9933 7.94756 31.424 8.15536C32.1032 8.17426 32.7871 8.27816 33.4568 8.39623C36.7623 8.97243 36.8431 12.2265 37.0568 14.9658C37.2705 17.7334 37.1803 20.5152 36.7718 23.264C36.4441 25.5404 35.8172 27.4484 33.1718 27.6326C29.8567 27.8735 26.6176 28.0671 23.2931 28.0058C23.2931 27.9916 23.2741 27.9916 23.2646 27.9916ZM19.7548 22.2296C22.2529 20.8033 24.7036 19.4006 27.1876 17.9837C24.6846 16.5574 22.2387 15.1547 19.7548 13.7378V22.2296Z" fill="#D9D7DA"/>
</g>
<defs>
<clipPath id="clip0_2008_33559">
<rect width="29.8193" height="20" fill="white" transform="translate(8.07031 8)"/>
</clipPath>
</defs>
</svg>
