<svg width="73" height="36" viewBox="0 0 73 36" fill="none" xmlns="http://www.w3.org/2000/svg">
<g clip-path="url(#clip0_2008_33568)">
<path d="M8.02734 8C9.42506 8.00162 10.8228 8 12.2189 8.00162C12.2125 10.5601 12.2364 13.1185 12.2078 15.6786C12.8541 14.8112 13.8077 14.1833 14.8647 13.9892C16.393 13.7399 18.1123 14.0361 19.2298 15.2012C20.2343 16.1609 20.6052 17.6027 20.6212 18.9637C20.6291 21.8506 20.6228 24.736 20.6243 27.6229C19.2266 27.6246 17.8289 27.6246 16.4312 27.6229C16.4312 25.2716 16.4312 22.9203 16.4312 20.5706C16.4153 19.8489 16.3325 19.0413 15.8056 18.5057C14.9873 17.627 13.4176 17.7645 12.6997 18.7064C12.3128 19.242 12.2157 19.9265 12.2205 20.5755V27.6229C10.8228 27.6246 9.42506 27.6229 8.02894 27.6246C8.02734 21.0836 8.02734 14.541 8.02734 8ZM39.5493 8C40.9438 8 42.3384 8 43.7345 8.00162C43.7345 10.5212 43.7425 13.0409 43.7281 15.5605C44.4429 14.7238 45.4299 14.0863 46.5299 13.9681C48.3034 13.6882 50.1675 14.329 51.4236 15.6268C54.2047 18.5332 54.1362 23.799 51.1418 26.5258C49.8077 27.7961 47.8481 28.233 46.081 27.8576C45.0829 27.6278 44.2025 27.0129 43.5658 26.207C43.5753 26.6795 43.5737 27.1504 43.5737 27.6229C42.2317 27.6246 40.8897 27.6229 39.5493 27.6246C39.5461 21.0836 39.5461 14.5426 39.5493 8ZM45.6464 18.1691C44.3378 18.5073 43.3604 19.865 43.5594 21.247C43.6533 22.6776 44.9746 23.867 46.3867 23.7731C48.012 23.8427 49.4066 22.2034 49.1264 20.5787C48.9815 18.9281 47.2081 17.7079 45.6464 18.1691ZM23.7971 16.868C24.835 15.0815 26.8218 13.8629 28.8833 13.9131C30.3352 13.8338 31.7201 14.5798 32.6371 15.6948C32.6339 15.2206 32.6339 14.7465 32.6371 14.2724H36.6615C36.6615 18.7242 36.6647 23.1744 36.6583 27.6246C35.3179 27.6229 33.9775 27.6246 32.6371 27.6229C32.6355 27.1407 32.6339 26.6585 32.6435 26.1778C31.951 26.9886 31.0499 27.6828 29.9833 27.8576C27.8072 28.3965 25.4527 27.3608 24.1537 25.5516C22.393 23.0595 22.2863 19.5074 23.7987 16.868H23.7971ZM28.939 18.2274C27.8231 18.5899 26.9746 19.7129 27.008 20.9169C26.9666 22.2358 27.9361 23.4964 29.2208 23.7278C30.9528 24.1858 32.817 22.5869 32.6148 20.7632C32.5702 18.9701 30.5946 17.5882 28.939 18.2274ZM59.6746 15.7967C60.3097 14.8501 61.3031 14.0636 62.4557 13.9552C63.1514 13.8613 63.8598 13.9002 64.5427 14.0652C64.5634 15.499 64.5427 16.9328 64.3708 18.3584C63.4888 18.106 62.5703 17.9069 61.6518 18.0251C60.6616 18.1432 59.8449 19.0964 59.8513 20.1062C59.8656 22.6128 59.8576 25.1179 59.8576 27.6246C58.4583 27.6246 57.059 27.6213 55.6613 27.6246C55.6517 23.1727 55.6613 18.7226 55.6565 14.2707H59.6809C59.6809 14.7789 59.6841 15.287 59.6746 15.7951V15.7967Z" fill="#D9D7DA"/>
</g>
<defs>
<clipPath id="clip0_2008_33568">
<rect width="56.5217" height="20" fill="white" transform="translate(8.02734 8)"/>
</clipPath>
</defs>
</svg>
