<svg width="99" height="40" viewBox="0 0 99 40" fill="none" xmlns="http://www.w3.org/2000/svg">
<g clip-path="url(#clip0_2008_30343)">
<mask id="mask0_2008_30343" style="mask-type:luminance" maskUnits="userSpaceOnUse" x="-185" y="-38" width="338" height="231">
<path d="M-184.039 -37.0037H152.896V192.479H-184.039V-37.0037Z" fill="white"/>
</mask>
<g mask="url(#mask0_2008_30343)">
<path d="M7.68972 35.1657C8.26962 35.2486 8.85073 35.291 9.41704 35.291C13.2435 35.291 16.2691 33.3878 17.1247 30.4433C18.0644 27.2119 16.6737 24.2829 13.4056 22.6071C11.9788 21.8754 10.6661 21.2794 9.26735 20.6441C8.85153 20.4552 8.42931 20.2632 7.99668 20.0642C6.09567 19.1899 4.16945 17.5692 4.4664 15.6425C4.79298 13.5272 6.9033 12.3005 9.59873 12.6617C12.1437 13.0025 13.3511 14.0669 14.3216 14.922L14.3649 14.9601L14.3841 14.9748C14.663 15.2015 15.0116 15.3167 15.3794 15.2982C15.7632 15.2797 16.1186 15.1174 16.3803 14.8414C16.6413 14.5665 16.7745 14.208 16.7545 13.8318C16.7353 13.457 16.5668 13.112 16.2803 12.8599C15.1477 11.8618 13.436 10.3537 9.99774 9.89341C5.69586 9.31939 2.16158 11.5642 1.59608 15.2319C1.15384 18.1043 3.12729 20.9228 6.74682 22.5866C7.15383 22.7736 7.55124 22.9544 7.94385 23.1329L8.0431 23.178C9.40063 23.7948 10.6829 24.3773 12.0424 25.0743C14.653 26.4128 14.7283 28.323 14.3308 29.6896C13.7297 31.7582 11.2304 32.8477 8.11594 32.4013C5.84914 32.0767 3.88089 30.9224 2.97921 29.3885C2.78871 29.0635 2.47815 28.8299 2.10435 28.7305C1.73015 28.6298 1.33954 28.6773 1.00256 28.8611C0.665182 29.045 0.422653 29.3442 0.318998 29.7042C0.215343 30.0639 0.263769 30.4406 0.454671 30.7655C1.80699 33.0663 4.51203 34.7112 7.68972 35.1657Z" fill="white"/>
</g>
<mask id="mask1_2008_30343" style="mask-type:luminance" maskUnits="userSpaceOnUse" x="-184" y="-37" width="337" height="230">
<path d="M-183.992 -36.9861H152.943V192.497H-183.992V-36.9861Z" fill="white"/>
</mask>
<g mask="url(#mask1_2008_30343)">
<path d="M22.4494 28.2902C22.4494 25.6164 24.342 23.7493 27.0518 23.7493C29.7189 23.7493 31.6543 25.6591 31.6543 28.2902C31.6543 30.8485 29.6756 32.7775 27.0518 32.7775C24.342 32.7775 22.4494 30.9325 22.4494 28.2902ZM21.1247 39.751C21.8675 39.751 22.4494 39.214 22.4494 38.5289V33.606C23.5228 34.596 25.2809 35.2213 27.0518 35.2213C31.2209 35.2213 34.2473 32.3061 34.2473 28.2902C34.2473 24.3083 31.1536 21.3056 27.0518 21.3056C25.2361 21.3056 23.6732 21.8472 22.2817 22.9598C22.1228 22.4883 21.6714 22.1676 21.1247 22.1676C20.4255 22.1676 19.8564 22.7154 19.8564 23.3885L19.8008 38.5289C19.8008 39.214 20.3823 39.751 21.1247 39.751Z" fill="white"/>
</g>
<mask id="mask2_2008_30343" style="mask-type:luminance" maskUnits="userSpaceOnUse" x="-184" y="-37" width="338" height="230">
<path d="M-183.91 -36.991H153.025V192.492H-183.91V-36.991Z" fill="white"/>
</mask>
<g mask="url(#mask2_2008_30343)">
<path d="M59.6866 35.2627C62.1988 35.2627 64.5352 34.1671 65.9335 32.3348C66.1465 32.0715 66.2365 31.7318 66.1817 31.4034C66.1284 31.0888 65.9451 30.8105 65.687 30.6451C65.4161 30.4423 65.0867 30.3556 64.7593 30.4038C64.4383 30.45 64.1446 30.6204 63.9325 30.8826C62.9472 32.0958 61.3203 32.849 59.6866 32.849C56.8755 32.849 54.5883 30.7893 54.5883 28.2573C54.5883 25.7125 56.8275 23.7187 59.6866 23.7187C61.3307 23.7187 63.066 24.6431 63.8132 25.9161C63.9621 26.1701 64.2118 26.3478 64.5164 26.418C64.867 26.499 65.2624 26.4288 65.5797 26.2249C66.1376 25.8066 66.2681 25.0788 65.8903 24.4936C64.6749 22.6119 62.1243 21.2788 59.6886 21.2522C57.5967 21.2325 55.6429 21.9854 54.1777 23.381C52.7914 24.7017 52.0273 26.4334 52.0273 28.2573C52.0273 32.12 55.4636 35.2627 59.6866 35.2627Z" fill="white"/>
</g>
<mask id="mask3_2008_30343" style="mask-type:luminance" maskUnits="userSpaceOnUse" x="-184" y="-37" width="338" height="230">
<path d="M-183.867 -36.9871H153.068V192.496H-183.867V-36.9871Z" fill="white"/>
</mask>
<g mask="url(#mask3_2008_30343)">
<path d="M70.701 26.5356C71.3401 24.7557 73.0894 23.6393 75.1225 23.7395C76.6469 23.8147 78.5948 24.366 79.3412 26.5356H70.701ZM75.4059 35.2666C77.9144 35.2666 80.2477 34.1725 81.644 32.3429C81.8561 32.08 81.9466 31.7411 81.8909 31.4131C81.8381 31.0989 81.6548 30.8209 81.3975 30.6559C81.1269 30.4535 80.7975 30.3668 80.471 30.415C80.15 30.4609 79.857 30.6313 79.6457 30.893C78.6468 32.1224 77.062 32.8564 75.4059 32.8564C72.9226 32.8564 70.799 31.1864 70.3948 28.9451C72.1017 28.9462 73.8086 28.9589 75.5147 28.972C77.2801 28.9851 79.0454 28.9986 80.8104 28.9986C81.4883 28.9986 82.061 28.4227 82.061 27.7403V27.6871C82.061 27.5491 82.0438 26.3055 81.4507 25.0456C81.4327 24.945 81.3486 24.7912 81.1849 24.516C81.1505 24.4581 81.1217 24.4099 81.1017 24.3726C79.835 22.376 77.8124 21.2765 75.4059 21.2765C71.046 21.2765 67.7578 24.2839 67.7578 28.2716C67.7578 32.3248 70.9747 35.2666 75.4059 35.2666Z" fill="white"/>
</g>
<mask id="mask4_2008_30343" style="mask-type:luminance" maskUnits="userSpaceOnUse" x="-184" y="-37" width="337" height="230">
<path d="M-183.953 -36.9871H152.982V192.496H-183.953V-36.9871Z" fill="white"/>
</mask>
<g mask="url(#mask4_2008_30343)">
<path d="M43.0824 32.7192C40.455 32.7192 38.4736 30.7874 38.4736 28.2257C38.4736 25.6024 40.455 23.6243 43.0824 23.6243C45.7098 23.6243 47.6917 25.6024 47.6917 28.2257C47.6917 30.8294 45.7534 32.7192 43.0824 32.7192ZM50.3439 33.1868L50.3435 33.1479V29.9725C50.3435 29.9108 50.3335 29.8514 50.3247 29.792L50.2878 23.2631C50.2874 22.5888 49.7175 22.0403 49.0176 22.0403C48.4845 22.0403 48.027 22.383 47.8625 22.8718C46.6423 21.7974 44.9958 21.2315 43.0824 21.2315C40.3654 21.2315 38.1322 22.4443 36.7927 24.6486C35.6004 26.6725 35.6004 29.7246 36.7923 31.7485C38.0269 33.8564 40.4374 35.166 43.0824 35.166C44.5656 35.166 46.5763 34.5974 47.7353 33.5072C47.7373 33.5133 47.7405 33.5187 47.7421 33.5249V33.895C47.7421 34.587 48.3244 35.1479 49.0428 35.1479C49.7608 35.1479 50.3435 34.587 50.3435 33.895V33.1887C50.3435 33.188 50.3439 33.1876 50.3439 33.1868Z" fill="white"/>
</g>
<mask id="mask5_2008_30343" style="mask-type:luminance" maskUnits="userSpaceOnUse" x="-184" y="-37" width="338" height="230">
<path d="M-183.836 -36.99H153.099V192.493H-183.836V-36.99Z" fill="white"/>
</mask>
<g mask="url(#mask5_2008_30343)">
<path d="M89.2871 28.1241C89.1935 28.7999 88.5484 29.2748 87.8464 29.1842C87.1448 29.094 86.6521 28.4726 86.7458 27.7964C86.8402 27.1206 87.485 26.6461 88.1866 26.7363C88.8885 26.8269 89.3812 27.4483 89.2871 28.1241Z" fill="white"/>
</g>
<mask id="mask6_2008_30343" style="mask-type:luminance" maskUnits="userSpaceOnUse" x="-184" y="-38" width="338" height="231">
<path d="M-183.812 -37.0184H153.123V192.465H-183.812V-37.0184Z" fill="white"/>
</mask>
<g mask="url(#mask6_2008_30343)">
<path d="M98.8457 17.753C98.7521 18.4288 98.1069 18.9037 97.405 18.8131C96.7034 18.7229 96.2107 18.1015 96.3044 17.4253C96.3988 16.7495 97.0436 16.275 97.7452 16.3652C98.4471 16.4558 98.9398 17.0772 98.8457 17.753Z" fill="white"/>
</g>
<mask id="mask7_2008_30343" style="mask-type:luminance" maskUnits="userSpaceOnUse" x="-184" y="-38" width="338" height="231">
<path d="M-183.824 -37.0213H153.111V192.462H-183.824V-37.0213Z" fill="white"/>
</mask>
<g mask="url(#mask7_2008_30343)">
<path d="M87.7799 28.1201L87.4922 27.8522L97.8481 17.5387L92.6133 2.10956L92.9939 1.98967L98.3039 17.6393L87.7799 28.1201Z" fill="white"/>
</g>
<mask id="mask8_2008_30343" style="mask-type:luminance" maskUnits="userSpaceOnUse" x="-184" y="-38" width="338" height="231">
<path d="M-183.855 -37.0408H153.08V192.442H-183.855V-37.0408Z" fill="white"/>
</mask>
<g mask="url(#mask8_2008_30343)">
<path d="M68.6593 13.166C68.4312 13.166 68.2131 13.04 68.1126 12.8268C67.9754 12.5361 68.1086 12.1934 68.4104 12.0612L92.5248 1.50326C92.827 1.37065 93.1828 1.49941 93.3196 1.79047C93.4569 2.08114 93.3236 2.42386 93.0219 2.55609L68.9075 13.114C68.827 13.1494 68.7422 13.166 68.6593 13.166Z" fill="white"/>
</g>
<mask id="mask9_2008_30343" style="mask-type:luminance" maskUnits="userSpaceOnUse" x="-184" y="-38" width="338" height="231">
<path d="M-183.859 -37.0223H153.076V192.461H-183.859V-37.0223Z" fill="white"/>
</mask>
<g mask="url(#mask9_2008_30343)">
<path d="M88.0451 20.9453C87.967 20.9453 87.8886 20.9307 87.8149 20.901L68.425 13.1419C68.1185 13.0193 67.9736 12.6808 68.1008 12.3859C68.2273 12.0914 68.5787 11.9503 68.8853 12.0736L87.4443 19.5004L87.4375 9.77254C87.4371 9.45296 87.7061 9.19428 88.0374 9.1939C88.3692 9.1939 88.6378 9.45257 88.6382 9.77177L88.6454 20.3667C88.6454 20.5598 88.5453 20.7406 88.3784 20.8482C88.2784 20.9125 88.1619 20.9453 88.0451 20.9453Z" fill="white"/>
</g>
<mask id="mask10_2008_30343" style="mask-type:luminance" maskUnits="userSpaceOnUse" x="-184" y="-38" width="338" height="231">
<path d="M-183.832 -37.0545H153.103V192.429H-183.832V-37.0545Z" fill="white"/>
</mask>
<g mask="url(#mask10_2008_30343)">
<path d="M94.419 2.44646C94.2717 3.50699 93.26 4.25179 92.159 4.10954C91.058 3.96767 90.2848 2.99272 90.4321 1.93258C90.5793 0.872048 91.5919 0.127248 92.6925 0.2695C93.7934 0.411367 94.5662 1.38593 94.419 2.44646Z" fill="white"/>
</g>
<mask id="mask11_2008_30343" style="mask-type:luminance" maskUnits="userSpaceOnUse" x="-184" y="-38" width="338" height="231">
<path d="M-183.844 -37.0125H153.091V192.471H-183.844V-37.0125Z" fill="white"/>
</mask>
<g mask="url(#mask11_2008_30343)">
<path d="M89.8799 19.6789C89.7326 20.7394 88.7209 21.4842 87.6199 21.342C86.5189 21.2001 85.7457 20.2251 85.893 19.165C86.0403 18.1045 87.0524 17.3597 88.1534 17.5019C89.2544 17.6438 90.0272 18.6184 89.8799 19.6789Z" fill="white"/>
</g>
<mask id="mask12_2008_30343" style="mask-type:luminance" maskUnits="userSpaceOnUse" x="-184" y="-38" width="338" height="231">
<path d="M-183.836 -37.035H153.099V192.448H-183.836V-37.035Z" fill="white"/>
</mask>
<g mask="url(#mask12_2008_30343)">
<path d="M89.4005 9.83698C89.3065 10.5128 88.6613 10.9877 87.9598 10.8971C87.2578 10.8065 86.7651 10.1855 86.8592 9.5093C86.9532 8.8335 87.598 8.35894 88.2999 8.44915C89.0015 8.53975 89.4942 9.16118 89.4005 9.83698Z" fill="white"/>
</g>
<mask id="mask13_2008_30343" style="mask-type:luminance" maskUnits="userSpaceOnUse" x="-184" y="-38" width="338" height="231">
<path d="M-183.883 -37.0262H153.052V192.457H-183.883V-37.0262Z" fill="white"/>
</mask>
<g mask="url(#mask13_2008_30343)">
<path d="M70.459 12.8146C70.3654 13.4904 69.7198 13.965 69.0183 13.8747C68.3163 13.7841 67.824 13.1627 67.9177 12.4869C68.0117 11.8107 68.6569 11.3366 69.3584 11.4268C70.0604 11.5174 70.5527 12.1388 70.459 12.8146Z" fill="white"/>
</g>
</g>
<defs>
<clipPath id="clip0_2008_30343">
<rect width="99" height="40" fill="white"/>
</clipPath>
</defs>
</svg>
