<svg width="99" height="40" viewBox="0 0 99 40" fill="none" xmlns="http://www.w3.org/2000/svg">
<g clip-path="url(#clip0_2003_5219)">
<mask id="mask0_2003_5219" style="mask-type:luminance" maskUnits="userSpaceOnUse" x="-185" y="-38" width="338" height="231">
<path d="M-184.039 -37.0047H152.896V192.479H-184.039V-37.0047Z" fill="white"/>
</mask>
<g mask="url(#mask0_2003_5219)">
<path d="M7.68972 35.1638C8.26962 35.2467 8.85073 35.2891 9.41704 35.2891C13.2435 35.2891 16.2691 33.3858 17.1247 30.4413C18.0644 27.21 16.6737 24.2809 13.4056 22.6051C11.9788 21.8734 10.6661 21.2774 9.26735 20.6421C8.85153 20.4532 8.42931 20.2612 7.99668 20.0623C6.09567 19.188 4.16945 17.5673 4.4664 15.6405C4.79298 13.5252 6.9033 12.2986 9.59873 12.6598C12.1437 13.0006 13.3511 14.065 14.3216 14.92L14.3649 14.9582L14.3841 14.9728C14.663 15.1995 15.0116 15.3148 15.3794 15.2963C15.7632 15.2778 16.1186 15.1155 16.3803 14.8394C16.6413 14.5646 16.7745 14.2061 16.7545 13.8298C16.7353 13.4551 16.5668 13.1101 16.2803 12.8579C15.1477 11.8599 13.436 10.3518 9.99774 9.89146C5.69586 9.31744 2.16158 11.5622 1.59608 15.23C1.15384 18.1024 3.12729 20.9208 6.74682 22.5847C7.15383 22.7716 7.55124 22.9524 7.94385 23.1309L8.0431 23.176C9.40063 23.7929 10.6829 24.3754 12.0424 25.0723C14.653 26.4108 14.7283 28.321 14.3308 29.6876C13.7297 31.7563 11.2304 32.8457 8.11594 32.3993C5.84914 32.0747 3.88089 30.9205 2.97921 29.3866C2.78871 29.0616 2.47815 28.828 2.10435 28.7285C1.73015 28.6279 1.33954 28.6753 1.00256 28.8592C0.665182 29.0431 0.422653 29.3422 0.318998 29.7023C0.215343 30.062 0.263769 30.4386 0.454671 30.7636C1.80699 33.0643 4.51203 34.7093 7.68972 35.1638Z" fill="#732384"/>
</g>
<mask id="mask1_2003_5219" style="mask-type:luminance" maskUnits="userSpaceOnUse" x="-184" y="-37" width="337" height="230">
<path d="M-183.992 -36.9852H152.943V192.498H-183.992V-36.9852Z" fill="white"/>
</mask>
<g mask="url(#mask1_2003_5219)">
<path d="M22.4494 28.2912C22.4494 25.6173 24.342 23.7503 27.0518 23.7503C29.7189 23.7503 31.6543 25.6601 31.6543 28.2912C31.6543 30.8494 29.6756 32.7785 27.0518 32.7785C24.342 32.7785 22.4494 30.9335 22.4494 28.2912ZM21.1247 39.752C21.8675 39.752 22.4494 39.2149 22.4494 38.5299V33.607C23.5228 34.597 25.2809 35.2222 27.0518 35.2222C31.2209 35.2222 34.2473 32.307 34.2473 28.2912C34.2473 24.3093 31.1536 21.3066 27.0518 21.3066C25.2361 21.3066 23.6732 21.8482 22.2817 22.9608C22.1228 22.4893 21.6714 22.1686 21.1247 22.1686C20.4255 22.1686 19.8564 22.7164 19.8564 23.3895L19.8008 38.5299C19.8008 39.2149 20.3823 39.752 21.1247 39.752Z" fill="#732384"/>
</g>
<mask id="mask2_2003_5219" style="mask-type:luminance" maskUnits="userSpaceOnUse" x="-184" y="-37" width="338" height="230">
<path d="M-183.91 -36.991H153.025V192.492H-183.91V-36.991Z" fill="white"/>
</mask>
<g mask="url(#mask2_2003_5219)">
<path d="M59.6866 35.2637C62.1988 35.2637 64.5352 34.1681 65.9335 32.3357C66.1465 32.0724 66.2365 31.7328 66.1817 31.4044C66.1284 31.0898 65.9451 30.8114 65.687 30.6461C65.4161 30.4433 65.0867 30.3566 64.7593 30.4047C64.4383 30.451 64.1446 30.6214 63.9325 30.8835C62.9472 32.0967 61.3203 32.85 59.6866 32.85C56.8755 32.85 54.5883 30.7902 54.5883 28.2582C54.5883 25.7135 56.8275 23.7197 59.6866 23.7197C61.3307 23.7197 63.066 24.6441 63.8132 25.917C63.9621 26.1711 64.2118 26.3488 64.5164 26.419C64.867 26.4999 65.2624 26.4298 65.5797 26.2258C66.1376 25.8076 66.2681 25.0797 65.8903 24.4945C64.6749 22.6129 62.1243 21.2798 59.6886 21.2532C57.5967 21.2335 55.6429 21.9864 54.1777 23.382C52.7914 24.7027 52.0273 26.4344 52.0273 28.2582C52.0273 32.121 55.4636 35.2637 59.6866 35.2637Z" fill="#732384"/>
</g>
<mask id="mask3_2003_5219" style="mask-type:luminance" maskUnits="userSpaceOnUse" x="-184" y="-37" width="338" height="230">
<path d="M-183.867 -36.9871H153.068V192.496H-183.867V-36.9871Z" fill="white"/>
</mask>
<g mask="url(#mask3_2003_5219)">
<path d="M70.701 26.5347C71.3401 24.7548 73.0894 23.6383 75.1225 23.7386C76.6469 23.8137 78.5948 24.365 79.3412 26.5347H70.701ZM75.4059 35.2656C77.9144 35.2656 80.2477 34.1716 81.644 32.3419C81.8561 32.079 81.9466 31.7402 81.8909 31.4121C81.8381 31.0979 81.6548 30.82 81.3975 30.655C81.1269 30.4526 80.7975 30.3658 80.471 30.414C80.15 30.4599 79.857 30.6303 79.6457 30.892C78.6468 32.1214 77.062 32.8554 75.4059 32.8554C72.9226 32.8554 70.799 31.1854 70.3948 28.9441C72.1017 28.9452 73.8086 28.958 75.5147 28.9711C77.2801 28.9842 79.0454 28.9977 80.8104 28.9977C81.4883 28.9977 82.061 28.4217 82.061 27.7394V27.6862C82.061 27.5482 82.0438 26.3045 81.4507 25.0447C81.4327 24.9441 81.3486 24.7902 81.1849 24.515C81.1505 24.4572 81.1217 24.409 81.1017 24.3716C79.835 22.375 77.8124 21.2756 75.4059 21.2756C71.046 21.2756 67.7578 24.2829 67.7578 28.2706C67.7578 32.3238 70.9747 35.2656 75.4059 35.2656Z" fill="#732384"/>
</g>
<mask id="mask4_2003_5219" style="mask-type:luminance" maskUnits="userSpaceOnUse" x="-184" y="-37" width="337" height="230">
<path d="M-183.953 -36.9871H152.982V192.496H-183.953V-36.9871Z" fill="white"/>
</mask>
<g mask="url(#mask4_2003_5219)">
<path d="M43.0824 32.7192C40.455 32.7192 38.4736 30.7874 38.4736 28.2257C38.4736 25.6024 40.455 23.6243 43.0824 23.6243C45.7098 23.6243 47.6917 25.6024 47.6917 28.2257C47.6917 30.8294 45.7534 32.7192 43.0824 32.7192ZM50.3439 33.1868L50.3435 33.1479V29.9725C50.3435 29.9108 50.3335 29.8514 50.3247 29.792L50.2878 23.2631C50.2874 22.5888 49.7175 22.0403 49.0176 22.0403C48.4845 22.0403 48.027 22.383 47.8625 22.8718C46.6423 21.7974 44.9958 21.2315 43.0824 21.2315C40.3654 21.2315 38.1322 22.4443 36.7927 24.6486C35.6004 26.6725 35.6004 29.7246 36.7923 31.7485C38.0269 33.8564 40.4374 35.166 43.0824 35.166C44.5656 35.166 46.5763 34.5974 47.7353 33.5072C47.7373 33.5133 47.7405 33.5187 47.7421 33.5249V33.895C47.7421 34.587 48.3244 35.1479 49.0428 35.1479C49.7608 35.1479 50.3435 34.587 50.3435 33.895V33.1887C50.3435 33.188 50.3439 33.1876 50.3439 33.1868Z" fill="#732384"/>
</g>
<mask id="mask5_2003_5219" style="mask-type:luminance" maskUnits="userSpaceOnUse" x="-184" y="-37" width="338" height="230">
<path d="M-183.836 -36.991H153.099V192.492H-183.836V-36.991Z" fill="white"/>
</mask>
<g mask="url(#mask5_2003_5219)">
<path d="M89.2871 28.1241C89.1935 28.7999 88.5484 29.2748 87.8464 29.1842C87.1448 29.094 86.6521 28.4726 86.7458 27.7964C86.8402 27.1206 87.485 26.6461 88.1866 26.7363C88.8885 26.8269 89.3812 27.4483 89.2871 28.1241Z" fill="#211D1D"/>
</g>
<mask id="mask6_2003_5219" style="mask-type:luminance" maskUnits="userSpaceOnUse" x="-184" y="-38" width="338" height="231">
<path d="M-183.812 -37.0184H153.123V192.465H-183.812V-37.0184Z" fill="white"/>
</mask>
<g mask="url(#mask6_2003_5219)">
<path d="M98.8457 17.753C98.7521 18.4288 98.1069 18.9037 97.405 18.8131C96.7034 18.7229 96.2107 18.1015 96.3044 17.4253C96.3988 16.7495 97.0436 16.275 97.7452 16.3652C98.4471 16.4558 98.9398 17.0772 98.8457 17.753Z" fill="#211D1D"/>
</g>
<mask id="mask7_2003_5219" style="mask-type:luminance" maskUnits="userSpaceOnUse" x="-184" y="-38" width="338" height="231">
<path d="M-183.824 -37.0223H153.111V192.461H-183.824V-37.0223Z" fill="white"/>
</mask>
<g mask="url(#mask7_2003_5219)">
<path d="M87.7799 28.1191L87.4922 27.8512L97.8481 17.5377L92.6133 2.10858L92.9939 1.98869L98.3039 17.6384L87.7799 28.1191Z" fill="#211D1D"/>
</g>
<mask id="mask8_2003_5219" style="mask-type:luminance" maskUnits="userSpaceOnUse" x="-184" y="-38" width="338" height="231">
<path d="M-183.855 -37.0418H153.08V192.441H-183.855V-37.0418Z" fill="white"/>
</mask>
<g mask="url(#mask8_2003_5219)">
<path d="M68.6593 13.166C68.4312 13.166 68.2131 13.04 68.1126 12.8268C67.9754 12.5361 68.1086 12.1934 68.4104 12.0612L92.5248 1.50326C92.827 1.37065 93.1828 1.49941 93.3196 1.79047C93.4569 2.08114 93.3236 2.42386 93.0219 2.55609L68.9075 13.114C68.827 13.1494 68.7422 13.166 68.6593 13.166Z" fill="#4182CC"/>
</g>
<mask id="mask9_2003_5219" style="mask-type:luminance" maskUnits="userSpaceOnUse" x="-184" y="-38" width="338" height="231">
<path d="M-183.859 -37.0223H153.076V192.461H-183.859V-37.0223Z" fill="white"/>
</mask>
<g mask="url(#mask9_2003_5219)">
<path d="M88.0451 20.9453C87.967 20.9453 87.8886 20.9307 87.8149 20.901L68.425 13.1419C68.1185 13.0193 67.9736 12.6808 68.1008 12.3859C68.2273 12.0914 68.5787 11.9503 68.8853 12.0736L87.4443 19.5004L87.4375 9.77254C87.4371 9.45296 87.7061 9.19428 88.0374 9.1939C88.3692 9.1939 88.6378 9.45257 88.6382 9.77177L88.6454 20.3667C88.6454 20.5598 88.5453 20.7406 88.3784 20.8482C88.2784 20.9125 88.1619 20.9453 88.0451 20.9453Z" fill="#4182CC"/>
</g>
<mask id="mask10_2003_5219" style="mask-type:luminance" maskUnits="userSpaceOnUse" x="-184" y="-38" width="338" height="231">
<path d="M-183.832 -37.0535H153.103V192.43H-183.832V-37.0535Z" fill="white"/>
</mask>
<g mask="url(#mask10_2003_5219)">
<path d="M94.419 2.44841C94.2717 3.50894 93.26 4.25374 92.159 4.11149C91.058 3.96962 90.2848 2.99468 90.4321 1.93453C90.5793 0.874001 91.5919 0.129201 92.6925 0.271453C93.7934 0.41332 94.5662 1.38788 94.419 2.44841Z" fill="#4182CC"/>
</g>
<mask id="mask11_2003_5219" style="mask-type:luminance" maskUnits="userSpaceOnUse" x="-184" y="-38" width="338" height="231">
<path d="M-183.844 -37.0125H153.091V192.471H-183.844V-37.0125Z" fill="white"/>
</mask>
<g mask="url(#mask11_2003_5219)">
<path d="M89.8799 19.6789C89.7326 20.7394 88.7209 21.4842 87.6199 21.342C86.5189 21.2001 85.7457 20.2251 85.893 19.165C86.0403 18.1045 87.0524 17.3597 88.1534 17.5019C89.2544 17.6438 90.0272 18.6184 89.8799 19.6789Z" fill="#4182CC"/>
</g>
<mask id="mask12_2003_5219" style="mask-type:luminance" maskUnits="userSpaceOnUse" x="-184" y="-38" width="338" height="231">
<path d="M-183.836 -37.034H153.099V192.449H-183.836V-37.034Z" fill="white"/>
</mask>
<g mask="url(#mask12_2003_5219)">
<path d="M89.4005 9.83893C89.3065 10.5147 88.6613 10.9897 87.9598 10.8991C87.2578 10.8085 86.7651 10.1874 86.8592 9.51125C86.9532 8.83546 87.598 8.3609 88.2999 8.45111C89.0015 8.5417 89.4942 9.16314 89.4005 9.83893Z" fill="#211D1D"/>
</g>
<mask id="mask13_2003_5219" style="mask-type:luminance" maskUnits="userSpaceOnUse" x="-184" y="-38" width="338" height="231">
<path d="M-183.883 -37.0262H153.052V192.457H-183.883V-37.0262Z" fill="white"/>
</mask>
<g mask="url(#mask13_2003_5219)">
<path d="M70.459 12.8136C70.3654 13.4894 69.7198 13.964 69.0183 13.8738C68.3163 13.7832 67.824 13.1617 67.9177 12.4859C68.0117 11.8098 68.6569 11.3356 69.3584 11.4258C70.0604 11.5164 70.5527 12.1378 70.459 12.8136Z" fill="#211D1D"/>
</g>
</g>
<defs>
<clipPath id="clip0_2003_5219">
<rect width="99" height="40" fill="white"/>
</clipPath>
</defs>
</svg>
