<svg width="41" height="40" viewBox="0 0 41 40" fill="none" xmlns="http://www.w3.org/2000/svg">
<path d="M17.8333 16.9653C17.8333 16.488 17.8333 16.2494 17.933 16.1162C18.0199 16.0001 18.153 15.9274 18.2976 15.9171C18.4636 15.9052 18.6644 16.0343 19.0659 16.2924L23.7865 19.3271C24.1348 19.551 24.309 19.663 24.3692 19.8054C24.4218 19.9298 24.4218 20.0702 24.3692 20.1946C24.309 20.337 24.1348 20.449 23.7865 20.6729L19.0659 23.7076C18.6644 23.9657 18.4636 24.0948 18.2976 24.0829C18.153 24.0726 18.0199 23.9999 17.933 23.8838C17.8333 23.7506 17.8333 23.512 17.8333 23.0347V16.9653Z" stroke="#946AD2" stroke-width="2" stroke-linecap="round" stroke-linejoin="round"/>
<path d="M11.3333 15.8C11.3333 14.1198 11.3333 13.2798 11.6602 12.638C11.9479 12.0735 12.4068 11.6146 12.9713 11.327C13.613 11 14.4531 11 16.1333 11H24.5333C26.2134 11 27.0535 11 27.6952 11.327C28.2597 11.6146 28.7187 12.0735 29.0063 12.638C29.3333 13.2798 29.3333 14.1198 29.3333 15.8V24.2C29.3333 25.8802 29.3333 26.7202 29.0063 27.362C28.7187 27.9265 28.2597 28.3854 27.6952 28.673C27.0535 29 26.2134 29 24.5333 29H16.1333C14.4531 29 13.613 29 12.9713 28.673C12.4068 28.3854 11.9479 27.9265 11.6602 27.362C11.3333 26.7202 11.3333 25.8802 11.3333 24.2V15.8Z" stroke="#946AD2" stroke-width="2" stroke-linecap="round" stroke-linejoin="round"/>
</svg>
