<svg width="111" height="46" viewBox="0 0 111 46" fill="none" xmlns="http://www.w3.org/2000/svg">
<g clip-path="url(#clip0_2059_10121)">
<path d="M94.1819 22.0887C94.1493 25.1332 93.0016 27.5035 90.7386 29.1998C88.4757 30.8961 85.3071 31.7598 81.2326 31.791C78.5583 31.8013 76.1525 31.4184 74.0154 30.6421C71.903 29.8853 70.0081 28.6217 68.4965 26.9621C68.2661 26.6905 68.0837 26.3816 67.957 26.0487C67.8349 25.7256 67.7718 25.3831 67.7705 25.0376C67.7603 24.6531 67.8289 24.2705 67.9721 23.9135C68.1152 23.5566 68.33 23.2328 68.603 22.9621C69.1782 22.4323 69.9374 22.1484 70.7187 22.171C71.0155 22.1697 71.3094 22.2295 71.5823 22.3465C71.9751 22.5215 72.3331 22.7662 72.639 23.0687C73.816 24.2189 75.183 25.1564 76.6794 25.8398C78.1169 26.4582 79.6681 26.7679 81.2326 26.7487C83.352 26.7147 85.0162 26.2776 86.2254 25.4376C87.4346 24.5976 88.0517 23.5524 88.0769 22.3021C88.0944 21.846 88.0063 21.3921 87.8195 20.9757C87.6328 20.5594 87.3523 20.1919 87.0002 19.9021C86.2602 19.2428 84.9504 18.731 83.0708 18.3665C82.2005 18.2184 81.1838 18.0561 80.0205 17.8798C78.8572 17.7035 77.7687 17.5087 76.7549 17.2954C73.8437 16.6169 71.7162 15.5458 70.3724 14.0821C69.0356 12.6465 68.3177 10.7415 68.3744 8.77984C68.4158 6.17392 69.5672 4.08577 71.8287 2.5154C74.0901 0.94503 77.1981 0.139845 81.1527 0.099845C83.0689 0.0906977 84.9771 0.34797 86.8226 0.864289C88.4514 1.30717 89.9902 2.03219 91.3691 3.00651C91.8541 3.32959 92.2533 3.76582 92.5324 4.27762C92.7493 4.68853 92.8629 5.1462 92.8632 5.61096C92.8621 5.94588 92.7936 6.27714 92.6616 6.58491C92.5296 6.89268 92.3369 7.17061 92.0951 7.40207C91.6144 7.87088 90.9702 8.1339 90.2991 8.1354C89.926 8.14247 89.556 8.06657 89.2157 7.91318C88.8035 7.70974 88.4092 7.47186 88.0369 7.20207C87.1345 6.58161 86.1555 6.08113 85.1243 5.71318C83.9313 5.28706 82.6746 5.06689 81.408 5.06207C78.8535 5.11096 77.0383 5.5154 75.9623 6.2754C74.8864 7.0354 74.3639 7.85762 74.395 8.74207C74.3873 9.12042 74.4605 9.49605 74.6098 9.84371C74.7592 10.1914 74.9811 10.503 75.2608 10.7576C75.8528 11.3265 76.8045 11.7532 78.1157 12.0376C78.6841 12.1561 79.4729 12.3043 80.4823 12.4821L83.446 12.9776L85.5572 13.3287C88.4032 13.8191 90.5492 14.7947 91.9952 16.2554C93.4411 17.7161 94.17 19.6606 94.1819 22.0887Z" fill="#939598"/>
<path d="M61.771 3.5134C62.0501 3.74822 62.3162 3.99823 62.568 4.26229C62.7478 4.45118 62.9143 4.65118 63.0897 4.86452C63.4852 5.32073 63.7573 5.87083 63.88 6.46229C63.9345 6.80919 63.9186 7.16354 63.8331 7.50413C63.7477 7.84472 63.5945 8.16456 63.3827 8.44452C62.984 8.96895 62.3958 9.31601 61.7443 9.41118C60.843 9.506 60.1289 9.30007 59.602 8.7934C59.3623 8.57118 59.1003 8.32896 58.8117 8.07118C58.4632 7.75563 58.0791 7.40452 57.6573 7.04674C57.0811 6.58486 56.44 6.21047 55.7548 5.93563C54.6403 5.47785 53.2588 5.246 51.61 5.24007C48.7581 5.30229 46.4545 6.32748 44.6992 8.31563C42.9439 10.3038 42.0411 12.8408 41.9908 15.9267C41.973 17.8283 42.3986 19.7077 43.234 21.4156C43.9997 22.9836 45.1681 24.3196 46.6195 25.2867C48.101 26.2546 49.8343 26.7647 51.6034 26.7534C52.7277 26.7515 53.844 26.563 54.9067 26.1956C55.8281 25.7869 56.6947 25.2644 57.4864 24.6401C58.2693 23.9956 58.8924 23.4408 59.3556 22.9756C59.6519 22.7004 59.9987 22.4853 60.3768 22.3423C60.7553 22.2055 61.161 22.1613 61.5601 22.2134C61.9077 22.2506 62.2442 22.3573 62.5499 22.5271C62.8555 22.697 63.1239 22.9265 63.3392 23.2022C63.5546 23.4778 63.7124 23.7939 63.8034 24.1318C63.8944 24.4696 63.9166 24.8223 63.8689 25.169C63.8312 25.4844 63.7528 25.7936 63.6358 26.089C63.5085 26.4162 63.3227 26.7174 63.0874 26.9778C61.4968 28.7739 59.4785 30.1383 57.22 30.9445C56.2555 31.2918 55.2579 31.539 54.243 31.6823C53.3994 31.7667 52.5202 31.8334 51.6123 31.8401C48.8338 31.8436 46.1061 31.095 43.7179 29.6734C41.3912 28.2847 39.4595 26.3213 38.108 23.9712C36.7106 21.5233 35.9746 18.7531 35.9727 15.9338C35.9707 13.1144 36.7029 10.3432 38.0969 7.8934C39.4452 5.55275 41.3735 3.59954 43.6957 2.22229C46.0913 0.801315 48.8255 0.0535621 51.61 0.0578495C53.1196 0.013405 54.8542 0.25859 56.8137 0.793405C58.2073 1.18265 59.5205 1.81698 60.6921 2.66674C60.6921 2.66674 61.3159 3.12896 61.771 3.50896V3.5134Z" fill="#939598"/>
<path d="M24.3981 8.37329C26.1504 10.36 27.0532 12.8933 27.1065 15.9733C27.0532 19.0533 26.1504 21.5851 24.3981 23.5688C23.0017 25.1511 21.5942 26.0444 19.3787 26.6444C18.7048 26.7758 18.1107 27.1698 17.7271 27.7397C17.3434 28.3096 17.2016 29.0088 17.3329 29.6833C17.4642 30.3578 17.8579 30.9525 18.4272 31.3365C18.9965 31.7206 19.6949 31.8625 20.3688 31.7311C22.3002 31.3866 23.7632 30.6577 25.4104 29.6711C27.7298 28.2932 29.6551 26.3399 31.0004 24C32.3941 21.5577 33.1272 18.7937 33.1272 15.9811C33.1272 13.1684 32.3941 10.4044 31.0004 7.96218C29.6539 5.61644 27.7245 3.65902 25.3993 2.27996C23.7521 1.28662 22.2891 0.557734 20.3688 0.222179C20.2224 0.194443 20.0738 0.179572 19.9248 0.177734C19.2856 0.177657 18.6689 0.414338 18.1936 0.842193C17.7183 1.27005 17.418 1.85881 17.3505 2.49509C17.2829 3.13138 17.453 3.77017 17.8278 4.28844C18.2027 4.80671 18.7559 5.16781 19.3809 5.30218C21.6009 5.90218 23.0039 6.79329 24.4003 8.37329H24.3981Z" fill="#F15922"/>
<path d="M8.23128 8.37341C6.47748 10.3601 5.57394 12.8934 5.52066 15.9734C5.57394 19.0534 6.47748 21.5853 8.23128 23.569C9.62544 25.1512 11.0351 26.0445 13.2485 26.6445C13.8642 26.7868 14.4066 27.1499 14.7732 27.6652C15.1398 28.1804 15.3052 28.8122 15.2383 29.4412C15.1714 30.0703 14.8767 30.653 14.4099 31.0794C13.9431 31.5058 13.3365 31.7463 12.7046 31.7556C12.5596 31.757 12.4148 31.7459 12.2717 31.7223C10.3403 31.3778 8.8773 30.649 7.22784 29.6623C4.90594 28.2878 2.97693 26.3377 1.62678 24.0001C0.233068 21.5578 -0.5 18.7938 -0.5 15.9812C-0.5 13.1685 0.233068 10.4046 1.62678 7.9623C2.97257 5.61373 4.90201 3.65328 7.22784 2.27118C8.8773 1.28674 10.3358 0.557851 12.2717 0.211185C12.4148 0.187604 12.5596 0.176452 12.7046 0.177851C13.3438 0.177774 13.9605 0.414455 14.4358 0.84231C14.9111 1.27016 15.2114 1.85893 15.2789 2.49521C15.3465 3.13149 15.1764 3.77029 14.8015 4.28856C14.4267 4.80683 13.8735 5.16792 13.2485 5.3023C11.0285 5.9023 9.62544 6.79341 8.23128 8.37341Z" fill="#939598"/>
<path fill-rule="evenodd" clip-rule="evenodd" d="M18.1172 45.7778V37.5978H20.9299C21.4801 37.5945 22.028 37.6693 22.5572 37.82C23.0467 37.956 23.5011 38.1963 23.8892 38.5244C24.2808 38.8689 24.5851 39.3015 24.7772 39.7866C25.0094 40.387 25.1203 41.0275 25.1035 41.6711C25.1215 42.3197 25.0082 42.9652 24.7705 43.5689C24.5714 44.0573 24.2613 44.4925 23.8648 44.84C23.4717 45.1732 23.0113 45.4174 22.515 45.5555C21.9756 45.708 21.4172 45.7828 20.8567 45.7778H18.1172ZM20.2018 39.3333V44.0444H20.6924C21.4294 44.0444 21.9933 43.8533 22.3818 43.4666C22.7703 43.08 22.9657 42.4911 22.9657 41.6889C22.9657 40.8866 22.7703 40.3022 22.3818 39.9111C21.9933 39.52 21.4161 39.3333 20.6546 39.3333H20.2018Z" fill="#F15922"/>
<path d="M27.5371 37.5938H29.6239V45.7738H27.5371V37.5938Z" fill="#F15922"/>
<path d="M35.2052 37.4526C35.7695 37.4501 36.3303 37.5432 36.8635 37.7281C37.37 37.9012 37.8387 38.1697 38.2444 38.5192L37.1344 40.0037C36.8208 39.7358 36.4613 39.5272 36.0732 39.3881C35.7609 39.2763 35.4325 39.2162 35.1009 39.2103C34.8512 39.1856 34.6016 39.258 34.4038 39.4126C34.3401 39.4681 34.2886 39.5363 34.2527 39.6128C34.2168 39.6893 34.1971 39.7725 34.1951 39.857C34.1905 39.9625 34.2262 40.0658 34.295 40.1459C34.3764 40.2321 34.4726 40.3029 34.5792 40.3548C34.7146 40.4233 34.8557 40.4798 35.001 40.5237C35.1586 40.5748 35.3295 40.6237 35.5138 40.6748C35.8246 40.7592 36.1531 40.857 36.5017 40.9703C36.8414 41.0797 37.1642 41.2361 37.4607 41.4348C37.7541 41.6315 38.0048 41.8854 38.1978 42.1815C38.4056 42.5308 38.5074 42.933 38.4908 43.3392C38.5021 43.7377 38.4135 44.1327 38.2333 44.4881C38.0651 44.809 37.825 45.0867 37.5318 45.2992C37.2137 45.5268 36.8549 45.6912 36.475 45.7837C36.0505 45.8907 35.6141 45.9438 35.1763 45.9415C34.5404 45.9432 33.9091 45.8326 33.3115 45.6148C32.7524 45.4217 32.2403 45.1128 31.8086 44.7081L32.9785 43.2637C33.3118 43.5575 33.6964 43.7873 34.113 43.9415C34.4603 44.0769 34.8282 44.1521 35.2008 44.1637C35.5014 44.1848 35.8015 44.1152 36.0621 43.9637C36.1499 43.9066 36.2219 43.8281 36.2712 43.7356C36.3205 43.6431 36.3456 43.5396 36.3441 43.4348C36.3459 43.3406 36.3221 43.2476 36.2752 43.1659C36.22 43.0752 36.1439 42.999 36.0532 42.9437C35.9171 42.8617 35.7718 42.796 35.6203 42.7481C35.4361 42.6859 35.2052 42.617 34.9299 42.5415C34.5268 42.4369 34.1302 42.3085 33.7422 42.157C33.4242 42.0348 33.1252 41.868 32.8542 41.6615C32.6138 41.4762 32.4199 41.2372 32.2881 40.9637C32.1513 40.6532 32.0854 40.3162 32.095 39.977C32.0839 39.5906 32.1726 39.2079 32.3525 38.8659C32.5217 38.5546 32.7574 38.2844 33.0429 38.0748C33.3442 37.8561 33.6827 37.6942 34.0419 37.597C34.4267 37.4919 34.8241 37.4396 35.223 37.4415L35.2052 37.4526Z" fill="#F15922"/>
<path d="M44.4968 45.7682H42.4233V39.3193H40.0879V37.5859H46.8345V39.3193H44.4968V45.7682Z" fill="#F15922"/>
<path fill-rule="evenodd" clip-rule="evenodd" d="M55.4283 40.2333C55.4507 40.7648 55.3105 41.2904 55.0265 41.74C54.7592 42.1342 54.3782 42.4373 53.9342 42.6089L55.4039 45.7622H53.2549L52.0361 42.8733H50.8063V45.7622H48.7461V37.5822H52.5201C52.9137 37.5783 53.3058 37.633 53.6834 37.7445C54.0195 37.8432 54.3317 38.0104 54.6002 38.2356C54.8606 38.4603 55.0663 38.7415 55.2019 39.0578C55.357 39.4298 55.4326 39.8303 55.4239 40.2333H55.4283ZM50.8063 39.3156V41.1622H52.2137C52.4948 41.1804 52.7736 41.102 53.0041 40.94C53.1043 40.8522 53.1827 40.7422 53.2332 40.6188C53.2837 40.4954 53.3048 40.3619 53.2949 40.2289C53.3049 40.0981 53.2819 39.9668 53.228 39.8472C53.1741 39.7276 53.091 39.6235 52.9863 39.5445C52.763 39.3919 52.4972 39.3141 52.2271 39.3222L50.8063 39.3156Z" fill="#F15922"/>
<path d="M57.8535 37.5762H59.9381V45.7562H57.8535V37.5762Z" fill="#F15922"/>
<path fill-rule="evenodd" clip-rule="evenodd" d="M67.9107 41.315C68.1019 41.3769 68.2834 41.4651 68.4502 41.5773C68.6265 41.6956 68.7838 41.8402 68.9164 42.0061C69.0505 42.1748 69.1583 42.3629 69.2361 42.5639C69.3179 42.7765 69.3586 43.0028 69.356 43.2306C69.3752 43.5778 69.3169 43.9249 69.1851 44.2467C69.0534 44.5685 68.8516 44.8568 68.5945 45.0906C68.0883 45.535 67.3624 45.7572 66.4167 45.7572H62.6094V37.5684H66.4522C67.2492 37.5684 67.8797 37.7439 68.3436 38.0906C68.5766 38.2708 68.762 38.5053 68.8835 38.7738C69.005 39.0423 69.059 39.3364 69.0407 39.6306C69.0477 40.0029 68.9279 40.3666 68.7011 40.6617C68.4995 40.9361 68.226 41.1491 67.9107 41.2772V41.315ZM64.6829 39.315V40.6217H66.077C66.2985 40.6342 66.5183 40.5767 66.7053 40.4572C66.7801 40.4008 66.8396 40.3264 66.8784 40.2411C66.9171 40.1557 66.934 40.0619 66.9273 39.9684C66.9273 39.5328 66.6594 39.315 66.1236 39.315H64.6829ZM64.6829 42.2684V44.0261H66.1414C66.4198 44.0395 66.695 43.9615 66.9251 43.8039C67.0252 43.7201 67.1035 43.6132 67.1534 43.4925C67.2033 43.3718 67.2232 43.2407 67.2114 43.1106C67.2239 42.9801 67.2 42.8488 67.1424 42.7311C67.0848 42.6134 66.9957 42.514 66.8851 42.4439C66.6565 42.3121 66.3963 42.2453 66.1325 42.2506L64.6829 42.2684Z" fill="#F15922"/>
<path d="M75.167 45.8569C74.6783 45.8647 74.1919 45.7895 73.7284 45.6347C73.315 45.495 72.9391 45.2624 72.6295 44.9547C72.3163 44.6353 72.0762 44.2517 71.9258 43.8302C71.7481 43.3244 71.6631 42.7907 71.6749 42.2547V37.5547H73.7484V42.1458C73.7157 42.6426 73.8459 43.1365 74.1191 43.5525C74.253 43.7047 74.4175 43.8269 74.6017 43.9112C74.786 43.9954 74.9859 44.0399 75.1885 44.0415C75.3911 44.0432 75.5918 44.0021 75.7774 43.9209C75.963 43.8397 76.1295 43.7202 76.2659 43.5702C76.5056 43.2569 76.6233 42.7991 76.6233 42.1969V37.5547H78.7079V42.2569C78.719 42.7954 78.6325 43.3315 78.4526 43.8391C78.2974 44.2649 78.0503 44.6511 77.7288 44.9702C77.4136 45.2731 77.0342 45.501 76.6188 45.6369C76.1524 45.789 75.6642 45.8641 75.1736 45.8591L75.167 45.8569Z" fill="#F15922"/>
<path d="M85.0535 45.7445H82.98V39.2978H80.6445V37.5645H87.3889V39.2978H85.0535V45.7445Z" fill="#F15922"/>
<path d="M89.4414 37.5586H91.5282V45.7408H89.4414V37.5586Z" fill="#F15922"/>
<path fill-rule="evenodd" clip-rule="evenodd" d="M97.588 45.929C97.0301 45.9413 96.4759 45.8369 95.9607 45.6223C95.5106 45.4275 95.1122 45.13 94.7974 44.7535C94.4772 44.3612 94.2407 43.9074 94.1026 43.4201C93.9419 42.8672 93.8634 42.2937 93.8695 41.7179C93.8634 41.1334 93.9419 40.551 94.1026 39.989C94.2414 39.4953 94.4802 39.0354 94.8041 38.6379C95.1226 38.2596 95.5247 37.9606 95.9785 37.7646C96.4962 37.5507 97.0525 37.4463 97.6124 37.4579C98.1608 37.4474 98.7056 37.5495 99.213 37.7579C99.6648 37.9491 100.065 38.2445 100.381 38.6201C100.707 39.0116 100.951 39.4651 101.098 39.9535C101.423 41.0928 101.423 42.3008 101.098 43.4401C100.953 43.9303 100.708 44.3846 100.376 44.7735C100.053 45.1405 99.652 45.4299 99.2019 45.6201C98.6904 45.8308 98.141 45.9337 97.588 45.9223V45.929ZM97.588 39.2823C97.3382 39.2749 97.0915 39.3397 96.8776 39.469C96.6777 39.6003 96.51 39.775 96.387 39.9801C96.2497 40.2135 96.1522 40.4681 96.0984 40.7335C95.9697 41.364 95.9697 42.014 96.0984 42.6446C96.1562 42.9164 96.2582 43.1769 96.4003 43.4157C96.5237 43.6236 96.6959 43.7983 96.902 43.9246C97.1152 44.0494 97.3588 44.1125 97.6057 44.1068C97.8534 44.1125 98.0974 44.0453 98.3072 43.9135C98.5133 43.78 98.684 43.5986 98.8045 43.3846C98.942 43.1442 99.0395 42.883 99.0931 42.6112C99.1584 42.306 99.1904 41.9945 99.1886 41.6823C99.1913 41.3613 99.1593 41.0409 99.0931 40.7268C99.0406 40.4582 98.9415 40.201 98.8001 39.9668C98.6744 39.7617 98.5016 39.5895 98.2962 39.4646C98.0793 39.3388 97.8318 39.2757 97.5813 39.2823H97.588Z" fill="#F15922"/>
<path d="M106.667 42.8036L105.399 40.8702H105.362V45.7325H103.328V37.5547H105.235L107.011 40.1458C107.071 40.228 107.167 40.368 107.295 40.5658C107.424 40.7636 107.564 40.9725 107.71 41.1947C107.857 41.4169 107.995 41.628 108.123 41.828C108.252 42.028 108.345 42.1725 108.407 42.2569H108.443V37.5547H110.499V45.7325H108.689L106.667 42.8036Z" fill="#F15922"/>
</g>
<defs>
<clipPath id="clip0_2059_10121">
<rect width="111" height="46" fill="white"/>
</clipPath>
</defs>
</svg>
