<svg width="41" height="40" viewBox="0 0 41 40" fill="none" xmlns="http://www.w3.org/2000/svg">
<path d="M17.3333 17V14C17.3333 12.3431 15.9901 11 14.3333 11C12.6764 11 11.3333 12.3431 11.3333 14C11.3333 15.6569 12.6764 17 14.3333 17H17.3333ZM17.3333 17V23M17.3333 17H23.3333M17.3333 23V26C17.3333 27.6569 15.9901 29 14.3333 29C12.6764 29 11.3333 27.6569 11.3333 26C11.3333 24.3431 12.6764 23 14.3333 23H17.3333ZM17.3333 23H23.3333M23.3333 23H26.3333C27.9901 23 29.3333 24.3431 29.3333 26C29.3333 27.6569 27.9901 29 26.3333 29C24.6764 29 23.3333 27.6569 23.3333 26V23ZM23.3333 23V17M23.3333 17V14C23.3333 12.3431 24.6764 11 26.3333 11C27.9901 11 29.3333 12.3431 29.3333 14C29.3333 15.6569 27.9901 17 26.3333 17H23.3333Z" stroke="#946AD2" stroke-width="2" stroke-linecap="round" stroke-linejoin="round"/>
</svg>
