<svg width="151" height="44" viewBox="0 0 151 44" fill="none" xmlns="http://www.w3.org/2000/svg">
<g clip-path="url(#clip0_2059_13743)">
<path d="M11.7001 39.2075V42.7999H10.4368V40.3512H0.763301V42.7999H-0.5V39.2075H0.380053L5.09969 28.9004H6.0791L10.7845 39.2075H11.7001ZM1.76401 39.2075H9.43608L5.5894 30.6545L1.76401 39.2075Z" fill="#004584"/>
<path d="M13.5312 40.3521V31.9324H14.7946V38.5068L20.082 31.9043H21.2175V40.324H19.9187V33.7636L14.6526 40.3521H13.5312Z" fill="#004584"/>
<path d="M23.1563 36.12C23.1535 35.5388 23.2675 34.9628 23.4918 34.4255C23.7161 33.8883 24.0462 33.4005 24.4629 32.9905C24.8796 32.5805 25.3746 32.2565 25.9191 32.0373C26.4636 31.8181 27.0468 31.7081 27.6346 31.7136C28.6552 31.6953 29.6533 32.011 30.4735 32.6118L29.927 33.552C29.2634 33.0932 28.4728 32.8481 27.663 32.8503C26.7896 32.8503 25.952 33.1933 25.3344 33.8039C24.7169 34.4144 24.3699 35.2425 24.3699 36.1059C24.3699 36.9694 24.7169 37.7975 25.3344 38.408C25.952 39.0186 26.7896 39.3616 27.663 39.3616C28.4733 39.3674 29.2651 39.1221 29.927 38.6599L30.4735 39.6001C29.6542 40.2033 28.656 40.5216 27.6346 40.5052C27.0491 40.5089 26.4685 40.3983 25.9263 40.1798C25.384 39.9612 24.8907 39.639 24.4747 39.2316C24.0587 38.8242 23.728 38.3397 23.5018 37.8057C23.2756 37.2717 23.1582 36.6989 23.1563 36.12Z" fill="#004584"/>
<path d="M34.8722 40.3521V33.048H31.9766V31.9043H39.0312V33.048H36.1355V40.3521H34.8722Z" fill="#004584"/>
<path d="M42.0841 39.0894V44.0009H40.8066V31.9046H41.3744L42.0841 33.1184C42.426 32.6759 42.8678 32.3185 43.3743 32.0749C43.8808 31.8312 44.4379 31.708 45.0011 31.7151C45.5689 31.7249 46.1291 31.8469 46.6485 32.074C47.168 32.301 47.6362 32.6285 48.0258 33.0371C48.4153 33.4457 48.7182 33.9272 48.9166 34.4533C49.1151 34.9794 49.2051 35.5394 49.1813 36.1004C49.211 36.666 49.1249 37.2317 48.9282 37.7636C48.7315 38.2955 48.4283 38.7828 48.0367 39.1961C47.6451 39.6095 47.1731 39.9405 46.6491 40.1693C46.1251 40.3981 45.5597 40.52 44.9869 40.5278C44.4238 40.5243 43.8692 40.3927 43.3658 40.1433C42.8625 39.8939 42.4239 39.5333 42.0841 39.0894ZM47.9677 36.1004C47.9976 35.6936 47.9436 35.2851 47.809 34.8996C47.6743 34.5141 47.4618 34.1596 47.1844 33.8578C46.9069 33.556 46.5703 33.313 46.195 33.1437C45.8197 32.9744 45.4135 32.8822 45.0011 32.8728C44.5921 32.8908 44.1907 32.9888 43.8203 33.1612C43.4499 33.3335 43.1177 33.5769 42.8431 33.8771C42.5685 34.1773 42.3569 34.5284 42.2205 34.91C42.0841 35.2917 42.0257 35.6963 42.0487 36.1004C42.0058 36.9214 42.2915 37.7261 42.844 38.3406C43.3965 38.955 44.1713 39.3299 45.0011 39.3841C46.6334 39.3841 47.9535 38.0299 47.9535 36.1004H47.9677Z" fill="#004584"/>
<path d="M51.125 40.3513V31.9316H52.3883V38.506L57.6402 31.9316H58.7758V40.3513H57.5125V33.7629L52.2464 40.3513H51.125Z" fill="#004584"/>
<path d="M61.2461 35.783V34.3095C61.2461 30.2681 62.2113 28.8087 66.4412 27.9246C67.1495 27.7873 67.8469 27.5997 68.5278 27.3633L69.0885 28.3456C68.2953 28.6797 67.4634 28.9154 66.6116 29.0472C63.6308 29.6506 62.5023 30.64 62.5023 33.7342C62.867 33.2058 63.3574 32.7741 63.9303 32.4768C64.5033 32.1795 65.1413 32.0258 65.7883 32.0292C66.3511 32.0292 66.9083 32.1394 67.4278 32.3536C67.9472 32.5678 68.4186 32.8817 68.8145 33.2771C69.2105 33.6725 69.5233 34.1416 69.7348 34.6572C69.9463 35.1728 70.0522 35.7248 70.0466 36.2812C70.0393 36.8505 69.9178 37.4128 69.6893 37.9355C69.4608 38.4582 69.1297 38.9309 68.7152 39.3262C68.3008 39.7216 67.8111 40.0319 67.2746 40.239C66.7381 40.4462 66.1654 40.5461 65.5896 40.5331C62.9778 40.5261 61.2461 38.5896 61.2461 35.783ZM68.7762 36.2882C68.7762 35.6749 68.5926 35.0754 68.2487 34.565C67.9048 34.0546 67.4158 33.6563 66.8434 33.42C66.271 33.1838 65.6406 33.1202 65.0317 33.2373C64.4228 33.3544 63.8626 33.647 63.4215 34.0782C62.9804 34.5094 62.6782 35.0599 62.5529 35.6606C62.4276 36.2612 62.4848 36.885 62.7174 37.4536C62.9499 38.0221 63.3474 38.5099 63.8597 38.8556C64.3721 39.2014 64.9764 39.3895 65.5967 39.3965C66.4376 39.3965 67.2446 39.0687 67.8425 38.4841C68.4405 37.8996 68.7811 37.1054 68.7904 36.2741L68.7762 36.2882Z" fill="#004584"/>
<path d="M74.0213 40.0574L70.4727 31.9043H71.8921L74.731 38.6892L77.6266 31.9043H79.0461L73.7445 44.0006H72.325L74.0213 40.0574Z" fill="#004584"/>
<path d="M80.7266 40.3521V31.9324H81.9899V39.2084H86.1843V31.9043H87.4476V39.2084H88.6754V42.5552H87.4121V40.3521H80.7266Z" fill="#004584"/>
<path d="M90.6484 40.3513V31.9316H91.9188V38.506L97.1637 31.9316H98.3063V40.3513H97.043V33.7629L91.7627 40.3513H90.6484Z" fill="#004584"/>
<path d="M102.558 37.0894C101.986 36.9661 101.474 36.6531 101.108 36.2025C100.741 35.752 100.541 35.1909 100.542 34.6126C100.542 32.9638 101.734 31.9043 103.558 31.9043H106.858V40.324H105.595V37.2368H103.892L101.543 40.324H100.066L102.558 37.0894ZM105.595 36.1562V33.048H103.65C102.579 33.048 101.805 33.6023 101.805 34.5916C101.813 34.8186 101.869 35.0414 101.969 35.2459C102.069 35.4504 102.211 35.632 102.386 35.7792C102.561 35.9264 102.765 36.036 102.985 36.1009C103.205 36.1658 103.437 36.1847 103.665 36.1562H105.595Z" fill="#004584"/>
<path d="M107.967 20.5292H126.27V17.014H111.53V12.1656H124.702V8.66443H111.53V3.85818H126.27V0.335938H107.967V20.5292Z" fill="#004584"/>
<path d="M77.5119 6.97427C77.51 5.2151 76.8018 3.52862 75.5429 2.28536C74.284 1.0421 72.5773 0.343749 70.7979 0.34375H56.6035V20.53H60.1521V13.6118H69.3075L73.3316 20.53H77.4764L73.2181 13.1628C74.4818 12.68 75.5682 11.8305 76.3345 10.726C77.1009 9.6215 77.5113 8.31364 77.5119 6.97427ZM70.9044 10.0755H60.1876V3.88003H70.9044C71.3128 3.87279 71.7185 3.94864 72.096 4.10286C72.4736 4.25709 72.8151 4.4864 73.0993 4.77656C73.3835 5.06672 73.6043 5.41153 73.748 5.78959C73.8918 6.16765 73.9554 6.57089 73.9349 6.97427C73.9585 7.37872 73.8971 7.78363 73.7546 8.16347C73.6121 8.54331 73.3915 8.88983 73.1068 9.1812C72.8221 9.47257 72.4794 9.70247 72.1003 9.85639C71.7213 10.0103 71.3141 10.0849 70.9044 10.0755Z" fill="#004584"/>
<path d="M135.114 17.014V0.335938H131.559V20.5292H150.501V17.014H135.114Z" fill="#004584"/>
<path d="M12.0051 13.2883L4.48202 0.335938H0.195312V20.5292H3.87876V6.41918L12.1186 20.5292L20.4649 6.22973V20.5292H24.1484V0.335938H19.6274L12.0051 13.2883Z" fill="#004584"/>
<path d="M95.922 0.34375H93.9348L94.9284 2.04874L95.922 3.75373L96.9227 5.45872L96.8163 5.64115L95.922 7.17073L93.9277 10.5807L93.6296 11.0999L91.9334 13.9977L90.2443 11.0999L89.9462 10.5807L87.9519 7.17073L86.7453 5.11492L85.9575 3.75373L84.7865 1.75405L83.9632 0.34375H79.9746L80.7979 1.75405L81.9689 3.75373L82.7638 5.11492L83.9632 7.17073L85.9575 10.5807L86.5466 11.5981L87.9519 13.9977L89.9462 17.4077L91.9334 20.8247L93.9277 17.4077L95.922 13.9977L97.6182 11.0999L97.9163 10.5807L99.9106 7.17073L100.805 5.64115L101.905 3.75373L103.899 0.34375H99.9106H95.922Z" fill="#004584"/>
<path d="M28.3494 20.5301H32.6077L34.453 17.2885H46.3408L48.186 20.5301H52.3024L40.3365 0L28.3494 20.5301ZM36.3195 13.9837L40.3152 6.96731L44.4032 13.9837H36.3195Z" fill="#004584"/>
</g>
<defs>
<clipPath id="clip0_2059_13743">
<rect width="151" height="44" fill="white"/>
</clipPath>
</defs>
</svg>
