<svg width="41" height="40" viewBox="0 0 41 40" fill="none" xmlns="http://www.w3.org/2000/svg">
<path d="M24.3333 15C24.3333 14.07 24.3333 13.605 24.231 13.2235C23.9536 12.1883 23.145 11.3796 22.1097 11.1022C21.7282 11 21.2632 11 20.3333 11C19.4033 11 18.9383 11 18.5568 11.1022C17.5215 11.3796 16.7129 12.1883 16.4355 13.2235C16.3333 13.605 16.3333 14.07 16.3333 15M13.5333 29H27.1333C28.2534 29 28.8134 29 29.2412 28.782C29.6176 28.5903 29.9235 28.2843 30.1153 27.908C30.3333 27.4802 30.3333 26.9201 30.3333 25.8V18.2C30.3333 17.0799 30.3333 16.5198 30.1153 16.092C29.9235 15.7157 29.6176 15.4097 29.2412 15.218C28.8134 15 28.2534 15 27.1333 15H13.5333C12.4131 15 11.8531 15 11.4253 15.218C11.0489 15.4097 10.743 15.7157 10.5512 16.092C10.3333 16.5198 10.3333 17.0799 10.3333 18.2V25.8C10.3333 26.9201 10.3333 27.4802 10.5512 27.908C10.743 28.2843 11.0489 28.5903 11.4253 28.782C11.8531 29 12.4131 29 13.5333 29Z" stroke="#946AD2" stroke-width="2" stroke-linecap="round" stroke-linejoin="round"/>
</svg>
