<svg width="41" height="40" viewBox="0 0 41 40" fill="none" xmlns="http://www.w3.org/2000/svg">
<path d="M28.6665 20.5V14.8C28.6665 13.1198 28.6665 12.2798 28.3395 11.638C28.0519 11.0735 27.593 10.6146 27.0285 10.327C26.3867 10 25.5467 10 23.8665 10H17.4665C15.7863 10 14.9463 10 14.3045 10.327C13.74 10.6146 13.2811 11.0735 12.9935 11.638C12.6665 12.2798 12.6665 13.1198 12.6665 14.8V25.2C12.6665 26.8802 12.6665 27.7202 12.9935 28.362C13.2811 28.9265 13.74 29.3854 14.3045 29.673C14.9463 30 15.7863 30 17.4665 30H20.6665M22.6665 19H16.6665M18.6665 23H16.6665M24.6665 15H16.6665M23.1665 27L25.1665 29L29.6665 24.5" stroke="#946AD2" stroke-width="2" stroke-linecap="round" stroke-linejoin="round"/>
</svg>
