<svg width="165" height="29" viewBox="0 0 165 29" fill="none" xmlns="http://www.w3.org/2000/svg">
<g clip-path="url(#clip0_2059_13792)">
<path fill-rule="evenodd" clip-rule="evenodd" d="M92.7947 0.9375H163.016V28.2149H92.7891L92.7947 0.9375ZM96.1886 5.91435V7.72395H103.204V23.5494H106.073V7.72395H113.153V5.91435H96.1886ZM131.716 5.96242V7.71992H118.92V13.5424H130.957V15.4134H118.92V21.7028H131.716V23.5536H116.454V5.96242H131.716ZM138.922 5.96749L136.464 5.96751V23.5711H138.941V17.589L142.668 14.5974L150.406 23.5522H154.095L144.556 13.159L153.247 5.96744L149.951 5.96751L143.177 11.4618L138.922 14.8385V5.96749Z" fill="#CC0001"/>
<path d="M48.6816 5.5332V23.5001H53.3879V10.6085L56.8654 23.5001H61.4319L64.6223 10.6085V23.5001H69.5484V5.53322L61.8841 5.5332L59.1712 16.0356L56.2775 5.5332H48.6816Z" fill="black"/>
<path d="M24.4904 12.0193H18.8486C18.8486 12.0193 18.3621 9.53451 15.7351 9.53451C13.4232 9.53451 12.0992 11.2129 12.0992 14.4763C12.0992 18.3076 13.4968 19.6367 15.7351 19.6367C17.7071 19.6367 18.8486 17.6869 18.8486 17.6869H24.4904C24.4904 19.725 22.5911 23.9688 15.7351 23.9688C10.1098 23.9688 6.22363 21.7023 6.22363 14.4763C6.10536 10.5484 7.45267 5.20703 15.7351 5.20703C22.4227 5.20703 24.4904 9.53451 24.4904 12.0193Z" fill="black"/>
<path fill-rule="evenodd" clip-rule="evenodd" d="M36.017 5.27148C43.7724 5.27148 45.6217 9.68059 45.6217 14.6336C45.6217 20.8465 42.5793 23.8527 36.017 23.8527C30.3794 23.8527 26.293 21.0755 26.293 14.6336C26.293 8.62124 29.6039 5.27148 36.017 5.27148ZM36.017 9.62337C38.791 9.62337 39.9245 11.4557 39.9245 14.3474C39.9245 16.1225 39.656 19.7014 36.017 19.7014C33.064 19.7014 32.2288 17.325 32.2288 14.3474C32.2288 12.2288 32.9447 9.62337 36.017 9.62337Z" fill="black"/>
<path fill-rule="evenodd" clip-rule="evenodd" d="M79.115 16.9865V23.4988H73.0968C73.0968 23.4288 73.0961 22.9079 73.0954 22.0723C73.0925 18.6898 73.084 10.1519 73.084 5.50982C73.1579 5.50982 73.3912 5.50981 73.7454 5.50981C75.591 5.50978 80.7181 5.50972 83.6561 5.50982C84.6859 5.50985 88.9275 6.32913 88.9275 11.21C88.9275 16.091 84.9505 16.9865 83.6561 16.9865H79.115ZM79.0382 9.37052V13.3074H80.7629C82.718 13.3074 83.3311 12.2772 83.3311 11.2837C83.3311 10.0696 82.718 9.37052 80.7629 9.37052H79.0382Z" fill="black"/>
<path d="M-0.578125 0.779297H163.328" stroke="#808080" stroke-width="0.5"/>
<path d="M-0.445312 28.4476L163.298 28.3398" stroke="#808080" stroke-width="0.5"/>
<path d="M163.156 0.625V28.5176" stroke="#808080" stroke-width="0.5"/>
<path d="M92.6367 0.685547V28.5561" stroke="#808080" stroke-width="0.5"/>
</g>
<defs>
<clipPath id="clip0_2059_13792">
<rect width="165" height="29" fill="white"/>
</clipPath>
</defs>
</svg>
