<svg width="41" height="40" viewBox="0 0 41 40" fill="none" xmlns="http://www.w3.org/2000/svg">
<path d="M30.3333 15.9999V19.9999M18.5832 13.4999H15.1333C13.4531 13.4999 12.613 13.4999 11.9713 13.8269C11.4068 14.1145 10.9479 14.5735 10.6602 15.1379C10.3333 15.7797 10.3333 16.6198 10.3333 18.2999L10.3333 19.4999C10.3333 20.4318 10.3333 20.8977 10.4855 21.2653C10.6885 21.7553 11.0778 22.1447 11.5679 22.3477C11.9354 22.4999 12.4014 22.4999 13.3333 22.4999V26.7499C13.3333 26.9821 13.3333 27.0982 13.3429 27.1959C13.4364 28.1455 14.1877 28.8968 15.1372 28.9903C15.235 28.9999 15.3511 28.9999 15.5833 28.9999C15.8154 28.9999 15.9315 28.9999 16.0293 28.9903C16.9788 28.8968 17.7301 28.1455 17.8236 27.1959C17.8333 27.0982 17.8333 26.9821 17.8333 26.7499V22.4999H18.5833C20.3497 22.4999 22.5105 23.4468 24.1775 24.3556C25.1501 24.8857 25.6363 25.1508 25.9548 25.1118C26.2502 25.0756 26.4735 24.943 26.6466 24.701C26.8333 24.4401 26.8333 23.9179 26.8333 22.8736V13.1262C26.8333 12.0819 26.8333 11.5598 26.6466 11.2988C26.4735 11.0568 26.2502 10.9242 25.9548 10.888C25.6363 10.849 25.1501 11.1141 24.1775 11.6443C22.5105 12.553 20.3497 13.4999 18.5832 13.4999Z" stroke="#946AD2" stroke-width="2" stroke-linecap="round" stroke-linejoin="round"/>
</svg>
