<svg width="159" height="35" viewBox="0 0 159 35" fill="none" xmlns="http://www.w3.org/2000/svg">
<g clip-path="url(#clip0_2059_18428)">
<path d="M59.388 21.861C56.6198 21.861 53.8515 20.876 51.1753 19.9213C48.5482 18.9846 45.8291 18.0117 43.1652 18.0117C41.2378 18.0117 39.5007 18.5133 37.8496 19.5406V23.9216C39.5069 22.9668 41.2501 22.4955 43.1713 22.4955C45.9457 22.4955 48.714 23.4805 51.3963 24.4413C54.0234 25.3779 56.7364 26.3448 59.4003 26.3448C61.61 26.3448 63.5926 25.6801 65.4585 24.3083V19.9635C63.5864 21.2386 61.5977 21.855 59.4003 21.855L59.388 21.861Z" fill="#EE2E24"/>
<path d="M51.1756 11.2689C48.5485 10.3323 45.8293 9.35938 43.1654 9.35938C41.2381 9.35938 39.501 9.86093 37.8438 10.8882V15.2753C39.501 14.3145 41.2442 13.8492 43.1654 13.8492C45.9398 13.8492 48.7081 14.8342 51.3904 15.795C54.0175 16.7316 56.7305 17.6985 59.3944 17.6985C61.598 17.6985 63.5867 17.0338 65.4527 15.6681V11.3172C63.5806 12.5923 61.5919 13.2087 59.3944 13.2087C56.6262 13.2087 53.8579 12.2237 51.1817 11.2689H51.1756Z" fill="#EE2E24"/>
<path d="M51.3904 33.0899C54.0175 34.0265 56.7305 34.9934 59.3944 34.9934C61.6041 34.9934 63.5867 34.3287 65.4527 32.957V28.6122C63.5806 29.8872 61.5919 30.5036 59.3944 30.5036C56.6262 30.5036 53.8579 29.5186 51.1817 28.5638C48.5546 27.6272 45.8355 26.6543 43.1654 26.6543C41.2381 26.6543 39.501 27.1558 37.8438 28.1831V32.5642C39.501 31.6094 41.2442 31.1381 43.1654 31.1381C45.9398 31.1381 48.7081 32.123 51.3904 33.0839V33.0899Z" fill="#EE2E24"/>
<path d="M130.296 13.3123C128.411 11.6022 125.925 10.7743 122.703 10.7743C119.48 10.7743 116.988 11.6022 115.11 13.3123C112.152 15.9953 111.808 19.6512 111.808 22.1711C111.808 24.691 112.152 28.3529 115.11 31.0359C116.995 32.746 119.474 33.5739 122.703 33.5739C125.932 33.5739 128.411 32.74 130.296 31.0359C133.248 28.3529 133.592 24.691 133.592 22.1711C133.592 19.6512 133.248 15.9953 130.296 13.3123ZM127.343 23.9296C127.343 25.0173 127.343 26.8422 126.011 28.1112C125.232 28.8363 124.041 29.2835 122.912 29.2835C121.782 29.2835 120.585 28.8363 119.806 28.1172C118.468 26.8482 118.468 25.0293 118.474 23.9416V20.0138C118.474 18.9261 118.474 17.1072 119.806 15.8382C120.585 15.1191 121.776 14.672 122.912 14.672C124.047 14.672 125.238 15.1191 126.011 15.8382C127.349 17.1133 127.349 18.9321 127.349 20.0199V23.9296H127.343ZM101.048 32.8306V15.7113L98.6356 11.1127H107.137V32.8306H101.048ZM145.954 15.4273C145.408 15.7174 144.738 16.1887 144.303 16.5392L144.186 16.6298V32.8306H138.097V15.4334L135.697 11.1127H143.044V13.4513L143.56 12.9739C144.364 12.2307 145.119 11.7291 146.009 11.3545C147.255 10.7864 148.323 10.5749 149.962 10.5749C152.712 10.5749 154.756 11.2396 156.223 12.6174C158.512 14.7445 158.512 17.4637 158.512 19.0832V32.8306H152.423V18.5394C152.423 17.5846 152.423 16.509 151.447 15.6086C150.784 15.0043 149.796 14.672 148.673 14.672C147.55 14.672 146.629 15.0768 145.954 15.4273ZM24.5985 14.6236C23.1069 14.6236 21.8977 15.4817 21.0077 16.231L20.8972 16.3216V32.8367H14.8083V17.9955C14.8083 17.5 14.8083 16.3337 13.949 15.4877C13.4211 14.9197 12.6416 14.6236 11.7024 14.6236C10.217 14.6236 9.0017 15.4817 8.11168 16.231L8.0012 16.3216V32.8367H1.90611V15.4334L-0.5 11.1127H6.8411V13.3969L7.84774 12.5811C9.50502 11.2336 11.4508 10.5749 13.8017 10.5749C16.1525 10.5749 17.8343 11.3303 19.2093 12.9498L19.4425 13.2277L19.6758 12.9558C21.0507 11.3545 22.8798 10.581 25.2737 10.581C29.1529 10.581 33.781 11.995 33.781 18.7267V32.8367H27.6921V17.9955C27.6921 17.4517 27.6921 16.3277 26.8327 15.4877C26.2987 14.9197 25.5192 14.6236 24.5862 14.6236H24.5985ZM86.5314 14.823L81.9401 16.9199C81.4245 15.9289 80.424 15.3488 79.2148 15.3488C78.1836 15.3488 77.2138 15.7718 76.6798 16.4485C76.0537 17.1979 75.7407 18.4004 75.7407 20.0319V32.8306H69.6579V11.1127H74.734V14.4967L75.7898 13.0706C76.2072 12.4845 77.8154 10.581 81.044 10.581C81.6762 10.581 83.5912 10.581 84.8925 11.5539C85.5002 12.0192 86.5007 13.0585 86.5252 14.8291L86.5314 14.823ZM107.131 4.64693C107.131 6.65918 105.529 8.23032 103.485 8.23032C101.441 8.23032 99.8448 6.65314 99.8448 4.64693C99.8448 2.64071 101.447 1.06354 103.485 1.06354C105.522 1.06354 107.131 2.64071 107.131 4.64693ZM94.6029 0V32.8306H88.514V0H94.6029Z" fill="#343233"/>
</g>
<defs>
<clipPath id="clip0_2059_18428">
<rect width="159" height="35" fill="white"/>
</clipPath>
</defs>
</svg>
