<svg width="41" height="40" viewBox="0 0 41 40" fill="none" xmlns="http://www.w3.org/2000/svg">
<path d="M19.8895 10.4318C20.1731 10.2742 20.3149 10.1954 20.4651 10.1645C20.598 10.1372 20.735 10.1372 20.868 10.1645C21.0181 10.1954 21.1599 10.2742 21.4435 10.4318L28.8435 14.5429C29.1431 14.7093 29.2928 14.7925 29.4019 14.9108C29.4983 15.0155 29.5714 15.1396 29.616 15.2748C29.6665 15.4276 29.6665 15.5989 29.6665 15.9415V24.0586C29.6665 24.4013 29.6665 24.5726 29.616 24.7254C29.5714 24.8606 29.4983 24.9847 29.4019 25.0893C29.2928 25.2077 29.1431 25.2909 28.8435 25.4573L21.4435 29.5684C21.1599 29.726 21.0181 29.8047 20.868 29.8356C20.735 29.863 20.598 29.863 20.4651 29.8356C20.3149 29.8047 20.1731 29.726 19.8895 29.5684L12.4895 25.4573C12.19 25.2909 12.0402 25.2077 11.9311 25.0893C11.8347 24.9847 11.7617 24.8606 11.717 24.7254C11.6665 24.5726 11.6665 24.4013 11.6665 24.0586V15.9415C11.6665 15.5989 11.6665 15.4276 11.717 15.2748C11.7617 15.1396 11.8347 15.0155 11.9311 14.9108C12.0402 14.7925 12.19 14.7093 12.4895 14.5429L19.8895 10.4318Z" stroke="#946AD2" stroke-width="2" stroke-linecap="round" stroke-linejoin="round"/>
<path fill-rule="evenodd" clip-rule="evenodd" d="M20.6631 17.068C19.6634 15.8993 17.9964 15.5849 16.7439 16.6551C15.4913 17.7253 15.315 19.5146 16.2986 20.7803C16.9286 21.591 18.5421 23.0943 19.6207 24.0704C19.9792 24.3948 20.1584 24.557 20.3731 24.6221C20.5576 24.678 20.7685 24.678 20.9531 24.6221C21.1677 24.557 21.347 24.3948 21.7054 24.0704C22.7841 23.0943 24.3975 21.591 25.0276 20.7803C26.0112 19.5146 25.8564 17.714 24.5823 16.6551C23.3083 15.5962 21.6628 15.8993 20.6631 17.068Z" stroke="#946AD2" stroke-width="2" stroke-linecap="round" stroke-linejoin="round"/>
</svg>
