<svg width="41" height="40" viewBox="0 0 41 40" fill="none" xmlns="http://www.w3.org/2000/svg">
<path d="M25.8333 14.5L14.8333 25.5M16.8333 18.5V14.5M14.8333 16.5H18.8333M21.8333 23.5H25.8333M16.1333 29H24.5333C26.2134 29 27.0535 29 27.6952 28.673C28.2597 28.3854 28.7187 27.9265 29.0063 27.362C29.3333 26.7202 29.3333 25.8802 29.3333 24.2V15.8C29.3333 14.1198 29.3333 13.2798 29.0063 12.638C28.7187 12.0735 28.2597 11.6146 27.6952 11.327C27.0535 11 26.2134 11 24.5333 11H16.1333C14.4531 11 13.613 11 12.9713 11.327C12.4068 11.6146 11.9479 12.0735 11.6602 12.638C11.3333 13.2798 11.3333 14.1198 11.3333 15.8V24.2C11.3333 25.8802 11.3333 26.7202 11.6602 27.362C11.9479 27.9265 12.4068 28.3854 12.9713 28.673C13.613 29 14.4531 29 16.1333 29Z" stroke="#946AD2" stroke-width="2" stroke-linecap="round" stroke-linejoin="round"/>
</svg>
