<svg width="40" height="40" viewBox="0 0 40 40" fill="none" xmlns="http://www.w3.org/2000/svg">
<path d="M15.5 12.5C15.5 11.1193 16.6193 10 18 10C19.3807 10 20.5 11.1193 20.5 12.5V14H21.5C22.8978 14 23.5967 14 24.1481 14.2284C24.8831 14.5328 25.4672 15.1169 25.7716 15.8519C26 16.4033 26 17.1022 26 18.5H27.5C28.8807 18.5 30 19.6193 30 21C30 22.3807 28.8807 23.5 27.5 23.5H26V25.2C26 26.8802 26 27.7202 25.673 28.362C25.3854 28.9265 24.9265 29.3854 24.362 29.673C23.7202 30 22.8802 30 21.2 30H20.5V28.25C20.5 27.0074 19.4926 26 18.25 26C17.0074 26 16 27.0074 16 28.25V30H14.8C13.1198 30 12.2798 30 11.638 29.673C11.0735 29.3854 10.6146 28.9265 10.327 28.362C10 27.7202 10 26.8802 10 25.2V23.5H11.5C12.8807 23.5 14 22.3807 14 21C14 19.6193 12.8807 18.5 11.5 18.5H10C10 17.1022 10 16.4033 10.2284 15.8519C10.5328 15.1169 11.1169 14.5328 11.8519 14.2284C12.4033 14 13.1022 14 14.5 14H15.5V12.5Z" stroke="#946AD2" stroke-width="2" stroke-linecap="round" stroke-linejoin="round"/>
</svg>
