<svg width="58" height="57" viewBox="0 0 58 57" fill="none" xmlns="http://www.w3.org/2000/svg">
<g opacity="0.4">
<path d="M9.75098 8.06667C9.75098 5.5931 9.75098 4.35632 10.2324 3.41154C10.6558 2.58049 11.3315 1.90483 12.1625 1.48139C13.1073 1 14.3441 1 16.8176 1H46.851C49.3245 1 50.5613 1 51.5061 1.48139C52.3372 1.90483 53.0128 2.58049 53.4363 3.41154C53.9176 4.35632 53.9176 5.5931 53.9176 8.06667V11.6C53.9176 14.0736 53.9176 15.3104 53.4363 16.2551C53.0128 17.0862 52.3372 17.7618 51.5061 18.1853C50.5613 18.6667 49.3245 18.6667 46.851 18.6667H16.8176C14.3441 18.6667 13.1073 18.6667 12.1625 18.1853C11.3315 17.7618 10.6558 17.0862 10.2324 16.2551C9.75098 15.3104 9.75098 14.0736 9.75098 11.6V8.06667Z" fill="url(#paint0_linear_2044_13259)"/>
<path d="M9.75098 8.06667C9.75098 5.5931 9.75098 4.35632 10.2324 3.41154C10.6558 2.58049 11.3315 1.90483 12.1625 1.48139C13.1073 1 14.3441 1 16.8176 1H46.851C49.3245 1 50.5613 1 51.5061 1.48139C52.3372 1.90483 53.0128 2.58049 53.4363 3.41154C53.9176 4.35632 53.9176 5.5931 53.9176 8.06667V11.6C53.9176 14.0736 53.9176 15.3104 53.4363 16.2551C53.0128 17.0862 52.3372 17.7618 51.5061 18.1853C50.5613 18.6667 49.3245 18.6667 46.851 18.6667H16.8176C14.3441 18.6667 13.1073 18.6667 12.1625 18.1853C11.3315 17.7618 10.6558 17.0862 10.2324 16.2551C9.75098 15.3104 9.75098 14.0736 9.75098 11.6V8.06667Z" fill="url(#paint1_linear_2044_13259)"/>
<path d="M18.5843 9.83333H18.6064M16.8176 18.6667H46.851C49.3245 18.6667 50.5613 18.6667 51.5061 18.1853C52.3372 17.7618 53.0128 17.0862 53.4363 16.2551C53.9176 15.3104 53.9176 14.0736 53.9176 11.6V8.06667C53.9176 5.5931 53.9176 4.35632 53.4363 3.41154C53.0128 2.58049 52.3372 1.90483 51.5061 1.48139C50.5613 1 49.3245 1 46.851 1H16.8176C14.3441 1 13.1073 1 12.1625 1.48139C11.3315 1.90483 10.6558 2.58049 10.2324 3.41154C9.75098 4.35632 9.75098 5.5931 9.75098 8.06667V11.6C9.75098 14.0736 9.75098 15.3104 10.2324 16.2551C10.6558 17.0862 11.3315 17.7618 12.1625 18.1853C13.1073 18.6667 14.3441 18.6667 16.8176 18.6667Z" stroke="black" stroke-width="0.86" stroke-linecap="round" stroke-linejoin="round"/>
<path d="M18.5843 9.83333H18.6064M16.8176 18.6667H46.851C49.3245 18.6667 50.5613 18.6667 51.5061 18.1853C52.3372 17.7618 53.0128 17.0862 53.4363 16.2551C53.9176 15.3104 53.9176 14.0736 53.9176 11.6V8.06667C53.9176 5.5931 53.9176 4.35632 53.4363 3.41154C53.0128 2.58049 52.3372 1.90483 51.5061 1.48139C50.5613 1 49.3245 1 46.851 1H16.8176C14.3441 1 13.1073 1 12.1625 1.48139C11.3315 1.90483 10.6558 2.58049 10.2324 3.41154C9.75098 4.35632 9.75098 5.5931 9.75098 8.06667V11.6C9.75098 14.0736 9.75098 15.3104 10.2324 16.2551C10.6558 17.0862 11.3315 17.7618 12.1625 18.1853C13.1073 18.6667 14.3441 18.6667 16.8176 18.6667Z" stroke="url(#paint2_linear_2044_13259)" stroke-width="0.86" stroke-linecap="round" stroke-linejoin="round"/>
<path d="M9.75098 30.1497C9.75098 27.6761 9.75098 26.4393 10.2324 25.4946C10.6558 24.6635 11.3315 23.9878 12.1625 23.5644C13.1073 23.083 14.3441 23.083 16.8176 23.083H46.851C49.3245 23.083 50.5613 23.083 51.5061 23.5644C52.3372 23.9878 53.0128 24.6635 53.4363 25.4946C53.9176 26.4393 53.9176 27.6761 53.9176 30.1497V33.683C53.9176 36.1566 53.9176 37.3934 53.4363 38.3381C53.0128 39.1692 52.3372 39.8448 51.5061 40.2683C50.5613 40.7497 49.3245 40.7497 46.851 40.7497H16.8176C14.3441 40.7497 13.1073 40.7497 12.1625 40.2683C11.3315 39.8448 10.6558 39.1692 10.2324 38.3381C9.75098 37.3934 9.75098 36.1566 9.75098 33.683V30.1497Z" fill="url(#paint3_linear_2044_13259)"/>
<path d="M9.75098 30.1497C9.75098 27.6761 9.75098 26.4393 10.2324 25.4946C10.6558 24.6635 11.3315 23.9878 12.1625 23.5644C13.1073 23.083 14.3441 23.083 16.8176 23.083H46.851C49.3245 23.083 50.5613 23.083 51.5061 23.5644C52.3372 23.9878 53.0128 24.6635 53.4363 25.4946C53.9176 26.4393 53.9176 27.6761 53.9176 30.1497V33.683C53.9176 36.1566 53.9176 37.3934 53.4363 38.3381C53.0128 39.1692 52.3372 39.8448 51.5061 40.2683C50.5613 40.7497 49.3245 40.7497 46.851 40.7497H16.8176C14.3441 40.7497 13.1073 40.7497 12.1625 40.2683C11.3315 39.8448 10.6558 39.1692 10.2324 38.3381C9.75098 37.3934 9.75098 36.1566 9.75098 33.683V30.1497Z" fill="url(#paint4_linear_2044_13259)"/>
<path d="M18.5843 31.9163H18.6064M16.8176 40.7497H46.851C49.3245 40.7497 50.5613 40.7497 51.5061 40.2683C52.3372 39.8448 53.0128 39.1692 53.4363 38.3381C53.9176 37.3934 53.9176 36.1566 53.9176 33.683V30.1497C53.9176 27.6761 53.9176 26.4393 53.4363 25.4946C53.0128 24.6635 52.3372 23.9878 51.5061 23.5644C50.5613 23.083 49.3245 23.083 46.851 23.083H16.8176C14.3441 23.083 13.1073 23.083 12.1625 23.5644C11.3315 23.9878 10.6558 24.6635 10.2324 25.4946C9.75098 26.4393 9.75098 27.6761 9.75098 30.1497V33.683C9.75098 36.1566 9.75098 37.3934 10.2324 38.3381C10.6558 39.1692 11.3315 39.8448 12.1625 40.2683C13.1073 40.7497 14.3441 40.7497 16.8176 40.7497Z" stroke="black" stroke-width="0.86" stroke-linecap="round" stroke-linejoin="round"/>
<path d="M18.5843 31.9163H18.6064M16.8176 40.7497H46.851C49.3245 40.7497 50.5613 40.7497 51.5061 40.2683C52.3372 39.8448 53.0128 39.1692 53.4363 38.3381C53.9176 37.3934 53.9176 36.1566 53.9176 33.683V30.1497C53.9176 27.6761 53.9176 26.4393 53.4363 25.4946C53.0128 24.6635 52.3372 23.9878 51.5061 23.5644C50.5613 23.083 49.3245 23.083 46.851 23.083H16.8176C14.3441 23.083 13.1073 23.083 12.1625 23.5644C11.3315 23.9878 10.6558 24.6635 10.2324 25.4946C9.75098 26.4393 9.75098 27.6761 9.75098 30.1497V33.683C9.75098 36.1566 9.75098 37.3934 10.2324 38.3381C10.6558 39.1692 11.3315 39.8448 12.1625 40.2683C13.1073 40.7497 14.3441 40.7497 16.8176 40.7497Z" stroke="url(#paint5_linear_2044_13259)" stroke-width="0.86" stroke-linecap="round" stroke-linejoin="round"/>
<path d="M0.916992 16.8998C0.916992 14.4262 0.916992 13.1894 1.39838 12.2447C1.82182 11.4136 2.49748 10.738 3.32853 10.3145C4.27331 9.83313 5.51009 9.83313 7.98366 9.83313H38.017C40.4906 9.83313 41.7273 9.83313 42.6721 10.3145C43.5032 10.738 44.1788 11.4136 44.6023 12.2447C45.0837 13.1894 45.0837 14.4262 45.0837 16.8998V20.4331C45.0837 22.9067 45.0837 24.1435 44.6023 25.0883C44.1788 25.9193 43.5032 26.595 42.6721 27.0184C41.7273 27.4998 40.4906 27.4998 38.017 27.4998H7.98366C5.51009 27.4998 4.27331 27.4998 3.32853 27.0184C2.49748 26.595 1.82182 25.9193 1.39838 25.0883C0.916992 24.1435 0.916992 22.9067 0.916992 20.4331V16.8998Z" fill="url(#paint6_linear_2044_13259)"/>
<path d="M9.75033 18.6665H9.77241M7.98366 27.4998H38.017C40.4906 27.4998 41.7273 27.4998 42.6721 27.0184C43.5032 26.595 44.1788 25.9193 44.6023 25.0883C45.0837 24.1435 45.0837 22.9067 45.0837 20.4331V16.8998C45.0837 14.4262 45.0837 13.1894 44.6023 12.2447C44.1788 11.4136 43.5032 10.738 42.6721 10.3145C41.7273 9.83313 40.4906 9.83313 38.017 9.83313H7.98366C5.51009 9.83313 4.27331 9.83313 3.32853 10.3145C2.49748 10.738 1.82182 11.4136 1.39838 12.2447C0.916992 13.1894 0.916992 14.4262 0.916992 16.8998V20.4331C0.916992 22.9067 0.916992 24.1435 1.39838 25.0883C1.82182 25.9193 2.49748 26.595 3.32853 27.0184C4.27331 27.4998 5.51009 27.4998 7.98366 27.4998Z" stroke="black" stroke-width="0.86" stroke-linecap="round" stroke-linejoin="round"/>
<path d="M9.75033 18.6665H9.77241M7.98366 27.4998H38.017C40.4906 27.4998 41.7273 27.4998 42.6721 27.0184C43.5032 26.595 44.1788 25.9193 44.6023 25.0883C45.0837 24.1435 45.0837 22.9067 45.0837 20.4331V16.8998C45.0837 14.4262 45.0837 13.1894 44.6023 12.2447C44.1788 11.4136 43.5032 10.738 42.6721 10.3145C41.7273 9.83313 40.4906 9.83313 38.017 9.83313H7.98366C5.51009 9.83313 4.27331 9.83313 3.32853 10.3145C2.49748 10.738 1.82182 11.4136 1.39838 12.2447C0.916992 13.1894 0.916992 14.4262 0.916992 16.8998V20.4331C0.916992 22.9067 0.916992 24.1435 1.39838 25.0883C1.82182 25.9193 2.49748 26.595 3.32853 27.0184C4.27331 27.4998 5.51009 27.4998 7.98366 27.4998Z" stroke="url(#paint7_linear_2044_13259)" stroke-width="0.86" stroke-linecap="round" stroke-linejoin="round"/>
<path d="M0.916992 38.9835C0.916992 36.51 0.916992 35.2732 1.39838 34.3284C1.82182 33.4974 2.49748 32.8217 3.32853 32.3983C4.27331 31.9169 5.51009 31.9169 7.98366 31.9169H38.017C40.4906 31.9169 41.7273 31.9169 42.6721 32.3983C43.5032 32.8217 44.1788 33.4974 44.6023 34.3284C45.0837 35.2732 45.0837 36.51 45.0837 38.9835V42.5169C45.0837 44.9904 45.0837 46.2272 44.6023 47.172C44.1788 48.003 43.5032 48.6787 42.6721 49.1021C41.7273 49.5835 40.4906 49.5835 38.017 49.5835H7.98366C5.51009 49.5835 4.27331 49.5835 3.32853 49.1021C2.49748 48.6787 1.82182 48.003 1.39838 47.172C0.916992 46.2272 0.916992 44.9904 0.916992 42.5169V38.9835Z" fill="url(#paint8_linear_2044_13259)"/>
<path d="M9.75033 40.7502H9.77241M7.98366 49.5835H38.017C40.4906 49.5835 41.7273 49.5835 42.6721 49.1021C43.5032 48.6787 44.1788 48.003 44.6023 47.172C45.0837 46.2272 45.0837 44.9904 45.0837 42.5169V38.9835C45.0837 36.51 45.0837 35.2732 44.6023 34.3284C44.1788 33.4974 43.5032 32.8217 42.6721 32.3983C41.7273 31.9169 40.4906 31.9169 38.017 31.9169H7.98366C5.51009 31.9169 4.27331 31.9169 3.32853 32.3983C2.49748 32.8217 1.82182 33.4974 1.39838 34.3284C0.916992 35.2732 0.916992 36.51 0.916992 38.9835V42.5169C0.916992 44.9904 0.916992 46.2272 1.39838 47.172C1.82182 48.003 2.49748 48.6787 3.32853 49.1021C4.27331 49.5835 5.51009 49.5835 7.98366 49.5835Z" stroke="black" stroke-width="0.86" stroke-linecap="round" stroke-linejoin="round"/>
<path d="M9.75033 40.7502H9.77241M7.98366 49.5835H38.017C40.4906 49.5835 41.7273 49.5835 42.6721 49.1021C43.5032 48.6787 44.1788 48.003 44.6023 47.172C45.0837 46.2272 45.0837 44.9904 45.0837 42.5169V38.9835C45.0837 36.51 45.0837 35.2732 44.6023 34.3284C44.1788 33.4974 43.5032 32.8217 42.6721 32.3983C41.7273 31.9169 40.4906 31.9169 38.017 31.9169H7.98366C5.51009 31.9169 4.27331 31.9169 3.32853 32.3983C2.49748 32.8217 1.82182 33.4974 1.39838 34.3284C0.916992 35.2732 0.916992 36.51 0.916992 38.9835V42.5169C0.916992 44.9904 0.916992 46.2272 1.39838 47.172C1.82182 48.003 2.49748 48.6787 3.32853 49.1021C4.27331 49.5835 5.51009 49.5835 7.98366 49.5835Z" stroke="url(#paint9_linear_2044_13259)" stroke-width="0.86" stroke-linecap="round" stroke-linejoin="round"/>
</g>
<defs>
<linearGradient id="paint0_linear_2044_13259" x1="31.8343" y1="1" x2="31.8343" y2="18.6667" gradientUnits="userSpaceOnUse">
<stop stop-color="#F3E9FB"/>
<stop offset="1" stop-color="#D9B2F3"/>
</linearGradient>
<linearGradient id="paint1_linear_2044_13259" x1="53.9176" y1="9.83333" x2="9.75098" y2="9.83333" gradientUnits="userSpaceOnUse">
<stop stop-color="#D189FF"/>
<stop offset="1" stop-color="#9F37E2"/>
</linearGradient>
<linearGradient id="paint2_linear_2044_13259" x1="52.8135" y1="-24.5784" x2="8.36943" y2="-6.88747" gradientUnits="userSpaceOnUse">
<stop stop-color="white"/>
<stop offset="0.84654" stop-color="#CA7DFB"/>
<stop offset="1" stop-color="#9F37E2"/>
</linearGradient>
<linearGradient id="paint3_linear_2044_13259" x1="31.8343" y1="23.083" x2="31.8343" y2="40.7497" gradientUnits="userSpaceOnUse">
<stop stop-color="#F3E9FB"/>
<stop offset="1" stop-color="#D9B2F3"/>
</linearGradient>
<linearGradient id="paint4_linear_2044_13259" x1="53.9176" y1="31.9163" x2="9.75098" y2="31.9163" gradientUnits="userSpaceOnUse">
<stop stop-color="#D189FF"/>
<stop offset="1" stop-color="#9F37E2"/>
</linearGradient>
<linearGradient id="paint5_linear_2044_13259" x1="52.8135" y1="-2.49536" x2="8.36943" y2="15.1955" gradientUnits="userSpaceOnUse">
<stop stop-color="white"/>
<stop offset="0.84654" stop-color="#CA7DFB"/>
<stop offset="1" stop-color="#9F37E2"/>
</linearGradient>
<linearGradient id="paint6_linear_2044_13259" x1="23.0003" y1="9.83313" x2="23.0003" y2="27.4998" gradientUnits="userSpaceOnUse">
<stop stop-color="#F3E9FB"/>
<stop offset="1" stop-color="#D9B2F3"/>
</linearGradient>
<linearGradient id="paint7_linear_2044_13259" x1="43.9795" y1="-15.7452" x2="-0.464557" y2="1.94566" gradientUnits="userSpaceOnUse">
<stop stop-color="white"/>
<stop offset="0.84654" stop-color="#CA7DFB"/>
<stop offset="1" stop-color="#9F37E2"/>
</linearGradient>
<linearGradient id="paint8_linear_2044_13259" x1="23.0003" y1="31.9169" x2="23.0003" y2="49.5835" gradientUnits="userSpaceOnUse">
<stop stop-color="#F3E9FB"/>
<stop offset="1" stop-color="#D9B2F3"/>
</linearGradient>
<linearGradient id="paint9_linear_2044_13259" x1="43.9795" y1="6.33851" x2="-0.464557" y2="24.0294" gradientUnits="userSpaceOnUse">
<stop stop-color="white"/>
<stop offset="0.84654" stop-color="#CA7DFB"/>
<stop offset="1" stop-color="#9F37E2"/>
</linearGradient>
</defs>
</svg>
