<svg width="50" height="57" viewBox="0 0 50 57" fill="none" xmlns="http://www.w3.org/2000/svg">
<g opacity="0.4">
<path d="M12.666 14.6C12.666 11.2397 12.666 9.55953 13.32 8.27606C13.8952 7.14708 14.8131 6.2292 15.9421 5.65396C17.2255 5 18.9057 5 22.266 5H35.066C38.4263 5 40.1065 5 41.39 5.65396C42.5189 6.2292 43.4368 7.14708 44.0121 8.27606C44.666 9.55953 44.666 11.2397 44.666 14.6V27.4C44.666 30.7603 44.666 32.4405 44.0121 33.7239C43.4368 34.8529 42.5189 35.7708 41.39 36.346C40.1065 37 38.4263 37 35.066 37H22.266C18.9057 37 17.2255 37 15.9421 36.346C14.8131 35.7708 13.8952 34.8529 13.32 33.7239C12.666 32.4405 12.666 30.7603 12.666 27.4V14.6Z" fill="url(#paint0_linear_2044_7672)"/>
<path d="M22.666 18.2C22.666 17.0799 22.666 16.5198 22.884 16.092C23.0757 15.7157 23.3817 15.4097 23.758 15.218C24.1859 15 24.7459 15 25.866 15H31.466C32.5861 15 33.1462 15 33.574 15.218C33.9503 15.4097 34.2563 15.7157 34.448 16.092C34.666 16.5198 34.666 17.0799 34.666 18.2V23.8C34.666 24.9201 34.666 25.4802 34.448 25.908C34.2563 26.2843 33.9503 26.5903 33.574 26.782C33.1462 27 32.5861 27 31.466 27H25.866C24.7459 27 24.1859 27 23.758 26.782C23.3817 26.5903 23.0757 26.2843 22.884 25.908C22.666 25.4802 22.666 24.9201 22.666 23.8V18.2Z" fill="url(#paint1_linear_2044_7672)"/>
<path d="M22.666 1V5M34.666 1V5M22.666 37V41M34.666 37V41M44.666 15H48.666M44.666 25H48.666M8.66602 15H12.666M8.66602 25H12.666M22.266 37H35.066C38.4263 37 40.1065 37 41.39 36.346C42.5189 35.7708 43.4368 34.8529 44.0121 33.7239C44.666 32.4405 44.666 30.7603 44.666 27.4V14.6C44.666 11.2397 44.666 9.55953 44.0121 8.27606C43.4368 7.14708 42.5189 6.2292 41.39 5.65396C40.1065 5 38.4263 5 35.066 5H22.266C18.9057 5 17.2255 5 15.9421 5.65396C14.8131 6.2292 13.8952 7.14708 13.32 8.27606C12.666 9.55953 12.666 11.2397 12.666 14.6V27.4C12.666 30.7603 12.666 32.4405 13.32 33.7239C13.8952 34.8529 14.8131 35.7708 15.9421 36.346C17.2255 37 18.9057 37 22.266 37ZM25.866 27H31.466C32.5861 27 33.1462 27 33.574 26.782C33.9503 26.5903 34.2563 26.2843 34.448 25.908C34.666 25.4802 34.666 24.9201 34.666 23.8V18.2C34.666 17.0799 34.666 16.5198 34.448 16.092C34.2563 15.7157 33.9503 15.4097 33.574 15.218C33.1462 15 32.5861 15 31.466 15H25.866C24.7459 15 24.1859 15 23.758 15.218C23.3817 15.4097 23.0757 15.7157 22.884 16.092C22.666 16.5198 22.666 17.0799 22.666 18.2V23.8C22.666 24.9201 22.666 25.4802 22.884 25.908C23.0757 26.2843 23.3817 26.5903 23.758 26.782C24.1859 27 24.7459 27 25.866 27Z" stroke="url(#paint2_linear_2044_7672)" stroke-width="0.86" stroke-linecap="round" stroke-linejoin="round"/>
<path d="M4.66602 22.6C4.66602 19.2397 4.66602 17.5595 5.31998 16.2761C5.89522 15.1471 6.8131 14.2292 7.94207 13.654C9.22554 13 10.9057 13 14.266 13H27.066C30.4263 13 32.1065 13 33.39 13.654C34.5189 14.2292 35.4368 15.1471 36.0121 16.2761C36.666 17.5595 36.666 19.2397 36.666 22.6V35.4C36.666 38.7603 36.666 40.4405 36.0121 41.7239C35.4368 42.8529 34.5189 43.7708 33.39 44.346C32.1065 45 30.4263 45 27.066 45H14.266C10.9057 45 9.22554 45 7.94207 44.346C6.8131 43.7708 5.89522 42.8529 5.31998 41.7239C4.66602 40.4405 4.66602 38.7603 4.66602 35.4V22.6Z" fill="url(#paint3_linear_2044_7672)"/>
<path d="M14.666 26.2C14.666 25.0799 14.666 24.5198 14.884 24.092C15.0757 23.7157 15.3817 23.4097 15.758 23.218C16.1859 23 16.7459 23 17.866 23H23.466C24.5861 23 25.1462 23 25.574 23.218C25.9503 23.4097 26.2563 23.7157 26.448 24.092C26.666 24.5198 26.666 25.0799 26.666 26.2V31.8C26.666 32.9201 26.666 33.4802 26.448 33.908C26.2563 34.2843 25.9503 34.5903 25.574 34.782C25.1462 35 24.5861 35 23.466 35H17.866C16.7459 35 16.1859 35 15.758 34.782C15.3817 34.5903 15.0757 34.2843 14.884 33.908C14.666 33.4802 14.666 32.9201 14.666 31.8V26.2Z" fill="url(#paint4_linear_2044_7672)"/>
<path d="M14.666 9V13M26.666 9V13M14.666 45V49M26.666 45V49M36.666 23H40.666M36.666 33H40.666M0.666016 23H4.66602M0.666016 33H4.66602M14.266 45H27.066C30.4263 45 32.1065 45 33.39 44.346C34.5189 43.7708 35.4368 42.8529 36.0121 41.7239C36.666 40.4405 36.666 38.7603 36.666 35.4V22.6C36.666 19.2397 36.666 17.5595 36.0121 16.2761C35.4368 15.1471 34.5189 14.2292 33.39 13.654C32.1065 13 30.4263 13 27.066 13H14.266C10.9057 13 9.22554 13 7.94207 13.654C6.8131 14.2292 5.89522 15.1471 5.31998 16.2761C4.66602 17.5595 4.66602 19.2397 4.66602 22.6V35.4C4.66602 38.7603 4.66602 40.4405 5.31998 41.7239C5.89522 42.8529 6.8131 43.7708 7.94207 44.346C9.22554 45 10.9057 45 14.266 45ZM17.866 35H23.466C24.5861 35 25.1462 35 25.574 34.782C25.9503 34.5903 26.2563 34.2843 26.448 33.908C26.666 33.4802 26.666 32.9201 26.666 31.8V26.2C26.666 25.0799 26.666 24.5198 26.448 24.092C26.2563 23.7157 25.9503 23.4097 25.574 23.218C25.1462 23 24.5861 23 23.466 23H17.866C16.7459 23 16.1859 23 15.758 23.218C15.3817 23.4097 15.0757 23.7157 14.884 24.092C14.666 24.5198 14.666 25.0799 14.666 26.2V31.8C14.666 32.9201 14.666 33.4802 14.884 33.908C15.0757 34.2843 15.3817 34.5903 15.758 34.782C16.1859 35 16.7459 35 17.866 35Z" stroke="black" stroke-width="0.86" stroke-linecap="round" stroke-linejoin="round"/>
<path d="M14.666 9V13M26.666 9V13M14.666 45V49M26.666 45V49M36.666 23H40.666M36.666 33H40.666M0.666016 23H4.66602M0.666016 33H4.66602M14.266 45H27.066C30.4263 45 32.1065 45 33.39 44.346C34.5189 43.7708 35.4368 42.8529 36.0121 41.7239C36.666 40.4405 36.666 38.7603 36.666 35.4V22.6C36.666 19.2397 36.666 17.5595 36.0121 16.2761C35.4368 15.1471 34.5189 14.2292 33.39 13.654C32.1065 13 30.4263 13 27.066 13H14.266C10.9057 13 9.22554 13 7.94207 13.654C6.8131 14.2292 5.89522 15.1471 5.31998 16.2761C4.66602 17.5595 4.66602 19.2397 4.66602 22.6V35.4C4.66602 38.7603 4.66602 40.4405 5.31998 41.7239C5.89522 42.8529 6.8131 43.7708 7.94207 44.346C9.22554 45 10.9057 45 14.266 45ZM17.866 35H23.466C24.5861 35 25.1462 35 25.574 34.782C25.9503 34.5903 26.2563 34.2843 26.448 33.908C26.666 33.4802 26.666 32.9201 26.666 31.8V26.2C26.666 25.0799 26.666 24.5198 26.448 24.092C26.2563 23.7157 25.9503 23.4097 25.574 23.218C25.1462 23 24.5861 23 23.466 23H17.866C16.7459 23 16.1859 23 15.758 23.218C15.3817 23.4097 15.0757 23.7157 14.884 24.092C14.666 24.5198 14.666 25.0799 14.666 26.2V31.8C14.666 32.9201 14.666 33.4802 14.884 33.908C15.0757 34.2843 15.3817 34.5903 15.758 34.782C16.1859 35 16.7459 35 17.866 35Z" stroke="url(#paint5_linear_2044_7672)" stroke-width="0.86" stroke-linecap="round" stroke-linejoin="round"/>
</g>
<defs>
<linearGradient id="paint0_linear_2044_7672" x1="48.666" y1="21" x2="8.66602" y2="21" gradientUnits="userSpaceOnUse">
<stop stop-color="#D189FF"/>
<stop offset="1" stop-color="#9F37E2"/>
</linearGradient>
<linearGradient id="paint1_linear_2044_7672" x1="48.666" y1="21" x2="8.66602" y2="21" gradientUnits="userSpaceOnUse">
<stop stop-color="#D189FF"/>
<stop offset="1" stop-color="#9F37E2"/>
</linearGradient>
<linearGradient id="paint2_linear_2044_7672" x1="48.666" y1="21" x2="8.66602" y2="21" gradientUnits="userSpaceOnUse">
<stop stop-color="#D189FF"/>
<stop offset="1" stop-color="#9F37E2"/>
</linearGradient>
<linearGradient id="paint3_linear_2044_7672" x1="20.666" y1="9" x2="20.666" y2="49" gradientUnits="userSpaceOnUse">
<stop stop-color="#F3E9FB"/>
<stop offset="1" stop-color="#D9B2F3"/>
</linearGradient>
<linearGradient id="paint4_linear_2044_7672" x1="20.666" y1="9" x2="20.666" y2="49" gradientUnits="userSpaceOnUse">
<stop stop-color="#F3E9FB"/>
<stop offset="1" stop-color="#D9B2F3"/>
</linearGradient>
<linearGradient id="paint5_linear_2044_7672" x1="40.666" y1="8.5" x2="0.666016" y2="49" gradientUnits="userSpaceOnUse">
<stop stop-color="white"/>
<stop offset="0.551428" stop-color="#CB7FFB"/>
<stop offset="1" stop-color="#9F37E2"/>
</linearGradient>
</defs>
</svg>
