<svg width="57" height="56" viewBox="0 0 57 56" fill="none" xmlns="http://www.w3.org/2000/svg">
<rect x="0.666504" width="56" height="56" rx="12" fill="white"/>
<path d="M37.6665 32V23.2C37.6665 22.0799 37.6665 21.5198 37.4485 21.092C37.2568 20.7157 36.9508 20.4097 36.5745 20.218C36.1467 20 35.5866 20 34.4665 20H22.8665C21.7464 20 21.1863 20 20.7585 20.218C20.3822 20.4097 20.0762 20.7157 19.8845 21.092C19.6665 21.5198 19.6665 22.0799 19.6665 23.2V32M21.3332 36H35.9998C36.6198 36 36.9298 36 37.1841 35.9319C37.8743 35.7469 38.4134 35.2078 38.5984 34.5176C38.6665 34.2633 38.6665 33.9533 38.6665 33.3333C38.6665 33.0233 38.6665 32.8683 38.6324 32.7412C38.54 32.3961 38.2704 32.1265 37.9253 32.0341C37.7982 32 37.6432 32 37.3332 32H19.9998C19.6898 32 19.5349 32 19.4077 32.0341C19.0626 32.1265 18.793 32.3961 18.7006 32.7412C18.6665 32.8683 18.6665 33.0233 18.6665 33.3333C18.6665 33.9533 18.6665 34.2633 18.7347 34.5176C18.9196 35.2078 19.4587 35.7469 20.1489 35.9319C20.4032 36 20.7132 36 21.3332 36Z" stroke="#946AD2" stroke-width="2" stroke-linecap="round" stroke-linejoin="round"/>
</svg>
