<svg width="56" height="57" viewBox="0 0 56 57" fill="none" xmlns="http://www.w3.org/2000/svg">
<g opacity="0.4">
<rect x="2.03613" y="26.0144" width="8" height="30" rx="2" fill="url(#paint0_linear_2008_37223)"/>
<rect x="17.0361" y="3.073" width="8" height="52.9415" rx="2" transform="rotate(-0.103098 17.0361 3.073)" fill="url(#paint1_linear_2008_37223)"/>
<rect x="32.1318" y="31.0144" width="8" height="25" rx="2" fill="url(#paint2_linear_2008_37223)"/>
<rect x="47.1318" y="18.0144" width="8" height="38" rx="2" fill="url(#paint3_linear_2008_37223)"/>
<rect y="24" width="8" height="32" rx="2" fill="url(#paint4_linear_2008_37223)"/>
<rect x="15" width="8" height="56" rx="2" fill="url(#paint5_linear_2008_37223)"/>
<rect x="30" y="29" width="8" height="27" rx="2" fill="url(#paint6_linear_2008_37223)"/>
<rect x="45" y="16" width="8" height="40" rx="2" fill="url(#paint7_linear_2008_37223)"/>
</g>
<defs>
<linearGradient id="paint0_linear_2008_37223" x1="6.03613" y1="26.0144" x2="6.03613" y2="56.0144" gradientUnits="userSpaceOnUse">
<stop stop-color="#F3E9FB"/>
<stop offset="1" stop-color="#D9B2F3"/>
</linearGradient>
<linearGradient id="paint1_linear_2008_37223" x1="21.0361" y1="3.073" x2="21.0361" y2="56.0145" gradientUnits="userSpaceOnUse">
<stop stop-color="#F3E9FB"/>
<stop offset="1" stop-color="#D9B2F3"/>
</linearGradient>
<linearGradient id="paint2_linear_2008_37223" x1="36.1318" y1="31.0144" x2="36.1318" y2="56.0144" gradientUnits="userSpaceOnUse">
<stop stop-color="#F3E9FB"/>
<stop offset="1" stop-color="#D9B2F3"/>
</linearGradient>
<linearGradient id="paint3_linear_2008_37223" x1="51.1318" y1="18.0144" x2="51.1318" y2="56.0144" gradientUnits="userSpaceOnUse">
<stop stop-color="#F3E9FB"/>
<stop offset="1" stop-color="#D9B2F3"/>
</linearGradient>
<linearGradient id="paint4_linear_2008_37223" x1="8" y1="40" x2="0" y2="40" gradientUnits="userSpaceOnUse">
<stop stop-color="#D189FF"/>
<stop offset="1" stop-color="#9F37E2"/>
</linearGradient>
<linearGradient id="paint5_linear_2008_37223" x1="23" y1="28" x2="15" y2="28" gradientUnits="userSpaceOnUse">
<stop stop-color="#D189FF"/>
<stop offset="1" stop-color="#9F37E2"/>
</linearGradient>
<linearGradient id="paint6_linear_2008_37223" x1="38" y1="42.5" x2="30" y2="42.5" gradientUnits="userSpaceOnUse">
<stop stop-color="#D189FF"/>
<stop offset="1" stop-color="#9F37E2"/>
</linearGradient>
<linearGradient id="paint7_linear_2008_37223" x1="53" y1="36" x2="45" y2="36" gradientUnits="userSpaceOnUse">
<stop stop-color="#D189FF"/>
<stop offset="1" stop-color="#9F37E2"/>
</linearGradient>
</defs>
</svg>
