<svg width="58" height="56" viewBox="0 0 58 56" fill="none" xmlns="http://www.w3.org/2000/svg">
<g opacity="0.4">
<path d="M9.95215 9.34422C9.95215 6.07343 9.95215 4.43804 10.5887 3.18877C11.1486 2.08988 12.042 1.19645 13.1409 0.636537C14.3902 0 16.0256 0 19.2964 0H41.4889C44.7597 0 46.3951 0 47.6443 0.636537C48.7432 1.19645 49.6367 2.08988 50.1966 3.18877C50.8331 4.43804 50.8331 6.07343 50.8331 9.34422V31.5367C50.8331 34.8075 50.8331 36.4429 50.1966 37.6922C49.6367 38.7911 48.7432 39.6845 47.6443 40.2444C46.3951 40.881 44.7597 40.881 41.4889 40.881H19.2964C16.0256 40.881 14.3902 40.881 13.1409 40.2444C12.042 39.6845 11.1486 38.7911 10.5887 37.6922C9.95215 36.4429 9.95215 34.8075 9.95215 31.5367V9.34422Z" fill="url(#paint0_linear_2044_1012)"/>
<path d="M0.333008 18.9634C0.333008 15.6926 0.333008 14.0572 0.969545 12.8079C1.52946 11.709 2.42289 10.8156 3.52178 10.2557C4.77105 9.61914 6.40644 9.61914 9.67722 9.61914H31.8697C35.1405 9.61914 36.7759 9.61914 38.0252 10.2557C39.1241 10.8156 40.0175 11.709 40.5774 12.8079C41.214 14.0572 41.214 15.6926 41.214 18.9634V41.1559C41.214 44.4267 41.214 46.062 40.5774 47.3113C40.0175 48.4102 39.1241 49.3036 38.0252 49.8636C36.7759 50.5001 35.1405 50.5001 31.8697 50.5001H9.67722C6.40644 50.5001 4.77105 50.5001 3.52178 49.8636C2.42289 49.3036 1.52946 48.4102 0.969545 47.3113C0.333008 46.062 0.333008 44.4267 0.333008 41.1559V18.9634Z" fill="url(#paint1_linear_2044_1012)"/>
<mask id="mask0_2044_1012" style="mask-type:alpha" maskUnits="userSpaceOnUse" x="0" y="9" width="42" height="42">
<path d="M0.333008 18.9634C0.333008 15.6926 0.333008 14.0572 0.969545 12.8079C1.52946 11.709 2.42289 10.8156 3.52178 10.2557C4.77105 9.61914 6.40644 9.61914 9.67722 9.61914H31.8697C35.1405 9.61914 36.7759 9.61914 38.0252 10.2557C39.1241 10.8156 40.0175 11.709 40.5774 12.8079C41.214 14.0572 41.214 15.6926 41.214 18.9634V41.1559C41.214 44.4267 41.214 46.062 40.5774 47.3113C40.0175 48.4102 39.1241 49.3036 38.0252 49.8636C36.7759 50.5001 35.1405 50.5001 31.8697 50.5001H9.67722C6.40644 50.5001 4.77105 50.5001 3.52178 49.8636C2.42289 49.3036 1.52946 48.4102 0.969545 47.3113C0.333008 46.062 0.333008 44.4267 0.333008 41.1559V18.9634Z" fill="url(#paint2_linear_2044_1012)"/>
</mask>
<g mask="url(#mask0_2044_1012)">
<path d="M33.2931 24.7542L9.25496 48.7924C8.62499 49.4224 9.07116 50.4995 9.96207 50.4995H58.0384C58.9293 50.4995 59.3755 49.4224 58.7455 48.7924L34.7073 24.7542C34.3168 24.3637 33.6837 24.3637 33.2931 24.7542Z" fill="url(#paint3_linear_2044_1012)"/>
<circle cx="12.3574" cy="21.6428" r="4.80952" fill="#D9D9D9"/>
<circle cx="12.3574" cy="21.6428" r="4.80952" fill="url(#paint4_linear_2044_1012)"/>
</g>
</g>
<defs>
<linearGradient id="paint0_linear_2044_1012" x1="30.3926" y1="0" x2="30.3926" y2="40.881" gradientUnits="userSpaceOnUse">
<stop stop-color="#F3E9FB"/>
<stop offset="1" stop-color="#D9B2F3"/>
</linearGradient>
<linearGradient id="paint1_linear_2044_1012" x1="41.214" y1="30.0596" x2="0.333008" y2="30.0596" gradientUnits="userSpaceOnUse">
<stop stop-color="#D189FF"/>
<stop offset="1" stop-color="#9F37E2"/>
</linearGradient>
<linearGradient id="paint2_linear_2044_1012" x1="41.214" y1="30.0596" x2="0.333008" y2="30.0596" gradientUnits="userSpaceOnUse">
<stop stop-color="#D189FF"/>
<stop offset="1" stop-color="#9F37E2"/>
</linearGradient>
<linearGradient id="paint3_linear_2044_1012" x1="34.0002" y1="24.0471" x2="34.0002" y2="50.4995" gradientUnits="userSpaceOnUse">
<stop stop-color="#F3E9FB"/>
<stop offset="1" stop-color="#D9B2F3"/>
</linearGradient>
<linearGradient id="paint4_linear_2044_1012" x1="12.3574" y1="16.8333" x2="12.3574" y2="26.4523" gradientUnits="userSpaceOnUse">
<stop stop-color="#F3E9FB"/>
<stop offset="1" stop-color="#D9B2F3"/>
</linearGradient>
</defs>
</svg>
