<svg width="68" height="57" viewBox="0 0 68 57" fill="none" xmlns="http://www.w3.org/2000/svg">
<g opacity="0.4">
<path d="M34.8474 0.388161C34.4145 0.175762 34.198 0.0695629 33.971 0.027765C33.7699 -0.00925499 33.5636 -0.00925499 33.3625 0.027765C33.1355 0.0695629 32.919 0.175762 32.4861 0.388161L0.666748 16L32.4861 31.6118C32.919 31.8242 33.1355 31.9304 33.3625 31.9722C33.5636 32.0093 33.7699 32.0093 33.971 31.9722C34.198 31.9304 34.4145 31.8242 34.8474 31.6118L66.6667 16L34.8474 0.388161Z" fill="url(#paint0_linear_2008_45918)"/>
<path d="M34.8474 0.388161C34.4145 0.175762 34.198 0.0695629 33.971 0.027765C33.7699 -0.00925499 33.5636 -0.00925499 33.3625 0.027765C33.1355 0.0695629 32.919 0.175762 32.4861 0.388161L0.666748 16L32.4861 31.6118C32.919 31.8242 33.1355 31.9304 33.3625 31.9722C33.5636 32.0093 33.7699 32.0093 33.971 31.9722C34.198 31.9304 34.4145 31.8242 34.8474 31.6118L66.6667 16L34.8474 0.388161Z" fill="url(#paint1_linear_2008_45918)"/>
<path d="M34.8474 12.3882C34.4145 12.1758 34.198 12.0696 33.971 12.0278C33.7699 11.9907 33.5636 11.9907 33.3625 12.0278C33.1355 12.0696 32.919 12.1758 32.4861 12.3882L0.666748 28L32.4861 43.6118C32.919 43.8242 33.1355 43.9304 33.3625 43.9722C33.5636 44.0093 33.7699 44.0093 33.971 43.9722C34.198 43.9304 34.4145 43.8242 34.8474 43.6118L66.6667 28L34.8474 12.3882Z" fill="url(#paint2_linear_2008_45918)" stroke="white" stroke-width="0.86" stroke-linecap="round" stroke-linejoin="round"/>
<path d="M34.8474 24.3882C34.4145 24.1758 34.198 24.0696 33.971 24.0278C33.7699 23.9907 33.5636 23.9907 33.3625 24.0278C33.1355 24.0696 32.919 24.1758 32.4861 24.3882L0.666748 40L32.4861 55.6118C32.919 55.8242 33.1355 55.9304 33.3625 55.9722C33.5636 56.0093 33.7699 56.0093 33.971 55.9722C34.198 55.9304 34.4145 55.8242 34.8474 55.6118L66.6667 40L34.8474 24.3882Z" fill="url(#paint3_linear_2008_45918)" stroke="white" stroke-width="0.86" stroke-linecap="round" stroke-linejoin="round"/>
</g>
<defs>
<linearGradient id="paint0_linear_2008_45918" x1="33.6667" y1="0" x2="33.6667" y2="32" gradientUnits="userSpaceOnUse">
<stop stop-color="#F3E9FB"/>
<stop offset="1" stop-color="#D9B2F3"/>
</linearGradient>
<linearGradient id="paint1_linear_2008_45918" x1="66.6667" y1="16" x2="0.666748" y2="16" gradientUnits="userSpaceOnUse">
<stop stop-color="#D189FF"/>
<stop offset="1" stop-color="#9F37E2"/>
</linearGradient>
<linearGradient id="paint2_linear_2008_45918" x1="33.6667" y1="12" x2="33.6667" y2="44" gradientUnits="userSpaceOnUse">
<stop stop-color="#F3E9FB"/>
<stop offset="1" stop-color="#D9B2F3"/>
</linearGradient>
<linearGradient id="paint3_linear_2008_45918" x1="33.6667" y1="24" x2="33.6667" y2="56" gradientUnits="userSpaceOnUse">
<stop stop-color="#F3E9FB"/>
<stop offset="1" stop-color="#D9B2F3"/>
</linearGradient>
</defs>
</svg>
