<svg width="65" height="65" viewBox="0 0 65 65" fill="none" xmlns="http://www.w3.org/2000/svg">
<g opacity="0.4">
<path d="M37.0003 37.3333V49V37.3333Z" fill="url(#paint0_linear_2008_45935)"/>
<path d="M16.0003 7H58.0003V26.1333C58.0003 30.0537 58.0003 32.0139 57.2374 33.5113C56.5663 34.8284 55.4954 35.8993 54.1783 36.5704C52.6809 37.3333 50.7207 37.3333 46.8003 37.3333H27.2003C23.28 37.3333 21.3198 37.3333 19.8224 36.5704C18.5053 35.8993 17.4344 34.8284 16.7633 33.5113C16.0003 32.0139 16.0003 30.0537 16.0003 26.1333V7Z" fill="url(#paint1_linear_2008_45935)"/>
<path d="M27.667 25.6667V28V25.6667Z" fill="url(#paint2_linear_2008_45935)"/>
<path d="M37.0003 21V28V21Z" fill="url(#paint3_linear_2008_45935)"/>
<path d="M46.3337 16.3333V28V16.3333Z" fill="url(#paint4_linear_2008_45935)"/>
<path d="M37.0003 37.3333V49M51.0003 49L41.7804 41.3167C40.0799 39.8996 39.2296 39.1911 38.2805 38.9203C37.4438 38.6816 36.5569 38.6816 35.7201 38.9203C34.771 39.1911 33.9208 39.8996 32.2203 41.3167L23.0003 49M27.667 25.6667V28M37.0003 21V28M46.3337 16.3333V28M60.3337 7H13.667M16.0003 7H58.0003V26.1333C58.0003 30.0537 58.0003 32.0139 57.2374 33.5113C56.5663 34.8284 55.4954 35.8993 54.1783 36.5704C52.6809 37.3333 50.7207 37.3333 46.8003 37.3333H27.2003C23.28 37.3333 21.3198 37.3333 19.8224 36.5704C18.5053 35.8993 17.4344 34.8284 16.7633 33.5113C16.0003 32.0139 16.0003 30.0537 16.0003 26.1333V7Z" stroke="url(#paint5_linear_2008_45935)" stroke-linecap="round" stroke-linejoin="round"/>
<path d="M28.3336 46.3333V58V46.3333Z" fill="url(#paint6_linear_2008_45935)"/>
<path d="M7.33358 16H49.3336V35.1333C49.3336 39.0537 49.3336 41.0139 48.5706 42.5113C47.8995 43.8284 46.8286 44.8993 45.5115 45.5704C44.0141 46.3333 42.0539 46.3333 38.1336 46.3333H18.5336C14.6132 46.3333 12.653 46.3333 11.1556 45.5704C9.83851 44.8993 8.76765 43.8284 8.09653 42.5113C7.33358 41.0139 7.33358 39.0537 7.33358 35.1333V16Z" fill="url(#paint7_linear_2008_45935)"/>
<path d="M19.0002 34.6667V37V34.6667Z" fill="url(#paint8_linear_2008_45935)"/>
<path d="M28.3336 30V37V30Z" fill="url(#paint9_linear_2008_45935)"/>
<path d="M37.6669 25.3333V37V25.3333Z" fill="url(#paint10_linear_2008_45935)"/>
<path d="M28.3336 46.3333V58M42.3336 58L33.1136 50.3167C31.4131 48.8996 30.5629 48.1911 29.6138 47.9203C28.777 47.6816 27.8901 47.6816 27.0534 47.9203C26.1043 48.1911 25.254 48.8996 23.5535 50.3167L14.3336 58M19.0002 34.6667V37M28.3336 30V37M37.6669 25.3333V37M51.6669 16H5.00024M7.33358 16H49.3336V35.1333C49.3336 39.0537 49.3336 41.0139 48.5706 42.5113C47.8995 43.8284 46.8286 44.8993 45.5115 45.5704C44.0141 46.3333 42.0539 46.3333 38.1336 46.3333H18.5336C14.6132 46.3333 12.653 46.3333 11.1556 45.5704C9.83851 44.8993 8.76765 43.8284 8.09653 42.5113C7.33358 41.0139 7.33358 39.0537 7.33358 35.1333V16Z" stroke="black" stroke-linecap="round" stroke-linejoin="round"/>
<path d="M28.3336 46.3333V58M42.3336 58L33.1136 50.3167C31.4131 48.8996 30.5629 48.1911 29.6138 47.9203C28.777 47.6816 27.8901 47.6816 27.0534 47.9203C26.1043 48.1911 25.254 48.8996 23.5535 50.3167L14.3336 58M19.0002 34.6667V37M28.3336 30V37M37.6669 25.3333V37M51.6669 16H5.00024M7.33358 16H49.3336V35.1333C49.3336 39.0537 49.3336 41.0139 48.5706 42.5113C47.8995 43.8284 46.8286 44.8993 45.5115 45.5704C44.0141 46.3333 42.0539 46.3333 38.1336 46.3333H18.5336C14.6132 46.3333 12.653 46.3333 11.1556 45.5704C9.83851 44.8993 8.76765 43.8284 8.09653 42.5113C7.33358 41.0139 7.33358 39.0537 7.33358 35.1333V16Z" stroke="url(#paint11_linear_2008_45935)" stroke-linecap="round" stroke-linejoin="round"/>
</g>
<defs>
<linearGradient id="paint0_linear_2008_45935" x1="60.3337" y1="28" x2="13.667" y2="28" gradientUnits="userSpaceOnUse">
<stop stop-color="#D189FF"/>
<stop offset="1" stop-color="#9F37E2"/>
</linearGradient>
<linearGradient id="paint1_linear_2008_45935" x1="60.3337" y1="28" x2="13.667" y2="28" gradientUnits="userSpaceOnUse">
<stop stop-color="#D189FF"/>
<stop offset="1" stop-color="#9F37E2"/>
</linearGradient>
<linearGradient id="paint2_linear_2008_45935" x1="60.3337" y1="28" x2="13.667" y2="28" gradientUnits="userSpaceOnUse">
<stop stop-color="#D189FF"/>
<stop offset="1" stop-color="#9F37E2"/>
</linearGradient>
<linearGradient id="paint3_linear_2008_45935" x1="60.3337" y1="28" x2="13.667" y2="28" gradientUnits="userSpaceOnUse">
<stop stop-color="#D189FF"/>
<stop offset="1" stop-color="#9F37E2"/>
</linearGradient>
<linearGradient id="paint4_linear_2008_45935" x1="60.3337" y1="28" x2="13.667" y2="28" gradientUnits="userSpaceOnUse">
<stop stop-color="#D189FF"/>
<stop offset="1" stop-color="#9F37E2"/>
</linearGradient>
<linearGradient id="paint5_linear_2008_45935" x1="60.3337" y1="28" x2="13.667" y2="28" gradientUnits="userSpaceOnUse">
<stop stop-color="#D189FF"/>
<stop offset="1" stop-color="#9F37E2"/>
</linearGradient>
<linearGradient id="paint6_linear_2008_45935" x1="28.3336" y1="16" x2="28.3336" y2="58" gradientUnits="userSpaceOnUse">
<stop stop-color="#F3E9FB"/>
<stop offset="1" stop-color="#D9B2F3"/>
</linearGradient>
<linearGradient id="paint7_linear_2008_45935" x1="28.3336" y1="16" x2="28.3336" y2="58" gradientUnits="userSpaceOnUse">
<stop stop-color="#F3E9FB"/>
<stop offset="1" stop-color="#D9B2F3"/>
</linearGradient>
<linearGradient id="paint8_linear_2008_45935" x1="28.3336" y1="16" x2="28.3336" y2="58" gradientUnits="userSpaceOnUse">
<stop stop-color="#F3E9FB"/>
<stop offset="1" stop-color="#D9B2F3"/>
</linearGradient>
<linearGradient id="paint9_linear_2008_45935" x1="28.3336" y1="16" x2="28.3336" y2="58" gradientUnits="userSpaceOnUse">
<stop stop-color="#F3E9FB"/>
<stop offset="1" stop-color="#D9B2F3"/>
</linearGradient>
<linearGradient id="paint10_linear_2008_45935" x1="28.3336" y1="16" x2="28.3336" y2="58" gradientUnits="userSpaceOnUse">
<stop stop-color="#F3E9FB"/>
<stop offset="1" stop-color="#D9B2F3"/>
</linearGradient>
<linearGradient id="paint11_linear_2008_45935" x1="51.6669" y1="37" x2="5.00024" y2="37" gradientUnits="userSpaceOnUse">
<stop stop-color="#D189FF"/>
<stop offset="1" stop-color="#9F37E2"/>
</linearGradient>
</defs>
</svg>
