<svg width="48" height="57" viewBox="0 0 48 57" fill="none" xmlns="http://www.w3.org/2000/svg">
<g opacity="0.4">
<path d="M9.45312 35.9711C9.45312 33.931 9.45312 32.9109 9.85017 32.1316C10.1994 31.4462 10.7567 30.8889 11.4422 30.5396C12.2214 30.1426 13.2415 30.1426 15.2817 30.1426H40.0531C42.0933 30.1426 43.1134 30.1426 43.8927 30.5396C44.5781 30.8889 45.1354 31.4462 45.4846 32.1316C45.8817 32.9109 45.8817 33.931 45.8817 35.9711V38.8854C45.8817 40.9256 45.8817 41.9457 45.4846 42.725C45.1354 43.4104 44.5781 43.9677 43.8927 44.317C43.1134 44.714 42.0933 44.714 40.0531 44.714H15.2817C13.2415 44.714 12.2214 44.714 11.4422 44.317C10.7567 43.9677 10.1994 43.4104 9.85017 42.725C9.45312 41.9457 9.45312 40.9256 9.45312 38.8854V35.9711Z" fill="url(#paint0_linear_2044_1970)"/>
<path d="M9.45312 35.9711C9.45312 33.931 9.45312 32.9109 9.85017 32.1316C10.1994 31.4462 10.7567 30.8889 11.4422 30.5396C12.2214 30.1426 13.2415 30.1426 15.2817 30.1426H40.0531C42.0933 30.1426 43.1134 30.1426 43.8927 30.5396C44.5781 30.8889 45.1354 31.4462 45.4846 32.1316C45.8817 32.9109 45.8817 33.931 45.8817 35.9711V38.8854C45.8817 40.9256 45.8817 41.9457 45.4846 42.725C45.1354 43.4104 44.5781 43.9677 43.8927 44.317C43.1134 44.714 42.0933 44.714 40.0531 44.714H15.2817C13.2415 44.714 12.2214 44.714 11.4422 44.317C10.7567 43.9677 10.1994 43.4104 9.85017 42.725C9.45312 41.9457 9.45312 40.9256 9.45312 38.8854V35.9711Z" fill="url(#paint1_linear_2044_1970)"/>
<path d="M16.7388 37.4283H16.7571M15.2817 44.714H40.0531C42.0933 44.714 43.1134 44.714 43.8927 44.317C44.5781 43.9677 45.1354 43.4104 45.4846 42.725C45.8817 41.9457 45.8817 40.9256 45.8817 38.8854V35.9711C45.8817 33.931 45.8817 32.9109 45.4846 32.1316C45.1354 31.4462 44.5781 30.8889 43.8927 30.5396C43.1134 30.1426 42.0933 30.1426 40.0531 30.1426H15.2817C13.2415 30.1426 12.2214 30.1426 11.4422 30.5396C10.7567 30.8889 10.1994 31.4462 9.85017 32.1316C9.45312 32.9109 9.45312 33.931 9.45312 35.9711V38.8854C9.45312 40.9256 9.45312 41.9457 9.85017 42.725C10.1994 43.4104 10.7567 43.9677 11.4422 44.317C12.2214 44.714 13.2415 44.714 15.2817 44.714Z" stroke="black" stroke-width="0.86" stroke-linecap="round" stroke-linejoin="round"/>
<path d="M16.7388 37.4283H16.7571M15.2817 44.714H40.0531C42.0933 44.714 43.1134 44.714 43.8927 44.317C44.5781 43.9677 45.1354 43.4104 45.4846 42.725C45.8817 41.9457 45.8817 40.9256 45.8817 38.8854V35.9711C45.8817 33.931 45.8817 32.9109 45.4846 32.1316C45.1354 31.4462 44.5781 30.8889 43.8927 30.5396C43.1134 30.1426 42.0933 30.1426 40.0531 30.1426H15.2817C13.2415 30.1426 12.2214 30.1426 11.4422 30.5396C10.7567 30.8889 10.1994 31.4462 9.85017 32.1316C9.45312 32.9109 9.45312 33.931 9.45312 35.9711V38.8854C9.45312 40.9256 9.45312 41.9457 9.85017 42.725C10.1994 43.4104 10.7567 43.9677 11.4422 44.317C12.2214 44.714 13.2415 44.714 15.2817 44.714Z" stroke="url(#paint2_linear_2044_1970)" stroke-width="0.86" stroke-linecap="round" stroke-linejoin="round"/>
<path d="M9.45312 21.4001C9.45312 19.3599 9.45312 18.3398 9.85017 17.5606C10.1994 16.8751 10.7567 16.3178 11.4422 15.9686C12.2214 15.5715 13.2415 15.5715 15.2817 15.5715H40.0531C42.0933 15.5715 43.1134 15.5715 43.8927 15.9686C44.5781 16.3178 45.1354 16.8751 45.4846 17.5606C45.8817 18.3398 45.8817 19.3599 45.8817 21.4001V24.3144C45.8817 26.3546 45.8817 27.3747 45.4846 28.1539C45.1354 28.8394 44.5781 29.3967 43.8927 29.7459C43.1134 30.143 42.0933 30.143 40.0531 30.143H15.2817C13.2415 30.143 12.2214 30.143 11.4422 29.7459C10.7567 29.3967 10.1994 28.8394 9.85017 28.1539C9.45312 27.3747 9.45312 26.3546 9.45312 24.3144V21.4001Z" fill="url(#paint3_linear_2044_1970)"/>
<path d="M9.45312 21.4001C9.45312 19.3599 9.45312 18.3398 9.85017 17.5606C10.1994 16.8751 10.7567 16.3178 11.4422 15.9686C12.2214 15.5715 13.2415 15.5715 15.2817 15.5715H40.0531C42.0933 15.5715 43.1134 15.5715 43.8927 15.9686C44.5781 16.3178 45.1354 16.8751 45.4846 17.5606C45.8817 18.3398 45.8817 19.3599 45.8817 21.4001V24.3144C45.8817 26.3546 45.8817 27.3747 45.4846 28.1539C45.1354 28.8394 44.5781 29.3967 43.8927 29.7459C43.1134 30.143 42.0933 30.143 40.0531 30.143H15.2817C13.2415 30.143 12.2214 30.143 11.4422 29.7459C10.7567 29.3967 10.1994 28.8394 9.85017 28.1539C9.45312 27.3747 9.45312 26.3546 9.45312 24.3144V21.4001Z" fill="url(#paint4_linear_2044_1970)"/>
<path d="M16.7388 22.8572H16.7571M15.2817 30.143H40.0531C42.0933 30.143 43.1134 30.143 43.8927 29.7459C44.5781 29.3967 45.1354 28.8394 45.4846 28.1539C45.8817 27.3747 45.8817 26.3546 45.8817 24.3144V21.4001C45.8817 19.3599 45.8817 18.3398 45.4846 17.5606C45.1354 16.8751 44.5781 16.3178 43.8927 15.9686C43.1134 15.5715 42.0933 15.5715 40.0531 15.5715H15.2817C13.2415 15.5715 12.2214 15.5715 11.4422 15.9686C10.7567 16.3178 10.1994 16.8751 9.85017 17.5606C9.45312 18.3398 9.45312 19.3599 9.45312 21.4001V24.3144C9.45312 26.3546 9.45312 27.3747 9.85017 28.1539C10.1994 28.8394 10.7567 29.3967 11.4422 29.7459C12.2214 30.143 13.2415 30.143 15.2817 30.143Z" stroke="black" stroke-width="0.86" stroke-linecap="round" stroke-linejoin="round"/>
<path d="M16.7388 22.8572H16.7571M15.2817 30.143H40.0531C42.0933 30.143 43.1134 30.143 43.8927 29.7459C44.5781 29.3967 45.1354 28.8394 45.4846 28.1539C45.8817 27.3747 45.8817 26.3546 45.8817 24.3144V21.4001C45.8817 19.3599 45.8817 18.3398 45.4846 17.5606C45.1354 16.8751 44.5781 16.3178 43.8927 15.9686C43.1134 15.5715 42.0933 15.5715 40.0531 15.5715H15.2817C13.2415 15.5715 12.2214 15.5715 11.4422 15.9686C10.7567 16.3178 10.1994 16.8751 9.85017 17.5606C9.45312 18.3398 9.45312 19.3599 9.45312 21.4001V24.3144C9.45312 26.3546 9.45312 27.3747 9.85017 28.1539C10.1994 28.8394 10.7567 29.3967 11.4422 29.7459C12.2214 30.143 13.2415 30.143 15.2817 30.143Z" stroke="url(#paint5_linear_2044_1970)" stroke-width="0.86" stroke-linecap="round" stroke-linejoin="round"/>
<path d="M9.45312 6.82857C9.45312 4.78838 9.45312 3.76828 9.85017 2.98903C10.1994 2.30359 10.7567 1.7463 11.4422 1.39705C12.2214 1 13.2415 1 15.2817 1H40.0531C42.0933 1 43.1134 1 43.8927 1.39705C44.5781 1.7463 45.1354 2.30359 45.4846 2.98903C45.8817 3.76828 45.8817 4.78838 45.8817 6.82857V9.74286C45.8817 11.783 45.8817 12.8031 45.4846 13.5824C45.1354 14.2678 44.5781 14.8251 43.8927 15.1744C43.1134 15.5714 42.0933 15.5714 40.0531 15.5714H15.2817C13.2415 15.5714 12.2214 15.5714 11.4422 15.1744C10.7567 14.8251 10.1994 14.2678 9.85017 13.5824C9.45312 12.8031 9.45312 11.783 9.45312 9.74286V6.82857Z" fill="url(#paint6_linear_2044_1970)"/>
<path d="M9.45312 6.82857C9.45312 4.78838 9.45312 3.76828 9.85017 2.98903C10.1994 2.30359 10.7567 1.7463 11.4422 1.39705C12.2214 1 13.2415 1 15.2817 1H40.0531C42.0933 1 43.1134 1 43.8927 1.39705C44.5781 1.7463 45.1354 2.30359 45.4846 2.98903C45.8817 3.76828 45.8817 4.78838 45.8817 6.82857V9.74286C45.8817 11.783 45.8817 12.8031 45.4846 13.5824C45.1354 14.2678 44.5781 14.8251 43.8927 15.1744C43.1134 15.5714 42.0933 15.5714 40.0531 15.5714H15.2817C13.2415 15.5714 12.2214 15.5714 11.4422 15.1744C10.7567 14.8251 10.1994 14.2678 9.85017 13.5824C9.45312 12.8031 9.45312 11.783 9.45312 9.74286V6.82857Z" fill="url(#paint7_linear_2044_1970)"/>
<path d="M16.7388 8.28571H16.7571M15.2817 15.5714H40.0531C42.0933 15.5714 43.1134 15.5714 43.8927 15.1744C44.5781 14.8251 45.1354 14.2678 45.4846 13.5824C45.8817 12.8031 45.8817 11.783 45.8817 9.74286V6.82857C45.8817 4.78838 45.8817 3.76828 45.4846 2.98903C45.1354 2.30359 44.5781 1.7463 43.8927 1.39705C43.1134 1 42.0933 1 40.0531 1H15.2817C13.2415 1 12.2214 1 11.4422 1.39705C10.7567 1.7463 10.1994 2.30359 9.85017 2.98903C9.45312 3.76828 9.45312 4.78838 9.45312 6.82857V9.74286C9.45312 11.783 9.45312 12.8031 9.85017 13.5824C10.1994 14.2678 10.7567 14.8251 11.4422 15.1744C12.2214 15.5714 13.2415 15.5714 15.2817 15.5714Z" stroke="black" stroke-width="0.86" stroke-linecap="round" stroke-linejoin="round"/>
<path d="M16.7388 8.28571H16.7571M15.2817 15.5714H40.0531C42.0933 15.5714 43.1134 15.5714 43.8927 15.1744C44.5781 14.8251 45.1354 14.2678 45.4846 13.5824C45.8817 12.8031 45.8817 11.783 45.8817 9.74286V6.82857C45.8817 4.78838 45.8817 3.76828 45.4846 2.98903C45.1354 2.30359 44.5781 1.7463 43.8927 1.39705C43.1134 1 42.0933 1 40.0531 1H15.2817C13.2415 1 12.2214 1 11.4422 1.39705C10.7567 1.7463 10.1994 2.30359 9.85017 2.98903C9.45312 3.76828 9.45312 4.78838 9.45312 6.82857V9.74286C9.45312 11.783 9.45312 12.8031 9.85017 13.5824C10.1994 14.2678 10.7567 14.8251 11.4422 15.1744C12.2214 15.5714 13.2415 15.5714 15.2817 15.5714Z" stroke="url(#paint8_linear_2044_1970)" stroke-width="0.86" stroke-linecap="round" stroke-linejoin="round"/>
<path d="M2.16699 43.2563C2.16699 41.2161 2.16699 40.196 2.56404 39.4168C2.91329 38.7313 3.47058 38.174 4.15603 37.8248C4.93528 37.4277 5.95537 37.4277 7.99556 37.4277H32.767C34.8072 37.4277 35.8273 37.4277 36.6065 37.8248C37.292 38.174 37.8493 38.7313 38.1985 39.4168C38.5956 40.196 38.5956 41.2161 38.5956 43.2563V46.1706C38.5956 48.2108 38.5956 49.2309 38.1985 50.0101C37.8493 50.6956 37.292 51.2529 36.6065 51.6021C35.8273 51.9992 34.8072 51.9992 32.767 51.9992H7.99556C5.95537 51.9992 4.93528 51.9992 4.15603 51.6021C3.47058 51.2529 2.91329 50.6956 2.56404 50.0101C2.16699 49.2309 2.16699 48.2108 2.16699 46.1706V43.2563Z" fill="url(#paint9_linear_2044_1970)"/>
<path d="M9.45271 44.7134H9.47092M7.99556 51.9992H32.767C34.8072 51.9992 35.8273 51.9992 36.6065 51.6021C37.292 51.2529 37.8493 50.6956 38.1985 50.0101C38.5956 49.2309 38.5956 48.2108 38.5956 46.1706V43.2563C38.5956 41.2161 38.5956 40.196 38.1985 39.4168C37.8493 38.7313 37.292 38.174 36.6065 37.8248C35.8273 37.4277 34.8072 37.4277 32.767 37.4277H7.99556C5.95537 37.4277 4.93528 37.4277 4.15603 37.8248C3.47058 38.174 2.91329 38.7313 2.56404 39.4168C2.16699 40.196 2.16699 41.2161 2.16699 43.2563V46.1706C2.16699 48.2108 2.16699 49.2309 2.56404 50.0101C2.91329 50.6956 3.47058 51.2529 4.15603 51.6021C4.93528 51.9992 5.95537 51.9992 7.99556 51.9992Z" stroke="black" stroke-width="0.86" stroke-linecap="round" stroke-linejoin="round"/>
<path d="M9.45271 44.7134H9.47092M7.99556 51.9992H32.767C34.8072 51.9992 35.8273 51.9992 36.6065 51.6021C37.292 51.2529 37.8493 50.6956 38.1985 50.0101C38.5956 49.2309 38.5956 48.2108 38.5956 46.1706V43.2563C38.5956 41.2161 38.5956 40.196 38.1985 39.4168C37.8493 38.7313 37.292 38.174 36.6065 37.8248C35.8273 37.4277 34.8072 37.4277 32.767 37.4277H7.99556C5.95537 37.4277 4.93528 37.4277 4.15603 37.8248C3.47058 38.174 2.91329 38.7313 2.56404 39.4168C2.16699 40.196 2.16699 41.2161 2.16699 43.2563V46.1706C2.16699 48.2108 2.16699 49.2309 2.56404 50.0101C2.91329 50.6956 3.47058 51.2529 4.15603 51.6021C4.93528 51.9992 5.95537 51.9992 7.99556 51.9992Z" stroke="url(#paint10_linear_2044_1970)" stroke-width="0.86" stroke-linecap="round" stroke-linejoin="round"/>
<path d="M2.16699 28.6853C2.16699 26.6451 2.16699 25.625 2.56404 24.8457C2.91329 24.1603 3.47058 23.603 4.15603 23.2537C4.93528 22.8567 5.95537 22.8567 7.99556 22.8567H32.767C34.8072 22.8567 35.8273 22.8567 36.6065 23.2537C37.292 23.603 37.8493 24.1603 38.1985 24.8457C38.5956 25.625 38.5956 26.6451 38.5956 28.6853V31.5995C38.5956 33.6397 38.5956 34.6598 38.1985 35.4391C37.8493 36.1245 37.292 36.6818 36.6065 37.0311C35.8273 37.4281 34.8072 37.4281 32.767 37.4281H7.99556C5.95537 37.4281 4.93528 37.4281 4.15603 37.0311C3.47058 36.6818 2.91329 36.1245 2.56404 35.4391C2.16699 34.6598 2.16699 33.6397 2.16699 31.5995V28.6853Z" fill="url(#paint11_linear_2044_1970)"/>
<path d="M9.45271 30.1424H9.47092M7.99556 37.4281H32.767C34.8072 37.4281 35.8273 37.4281 36.6065 37.0311C37.292 36.6818 37.8493 36.1245 38.1985 35.4391C38.5956 34.6598 38.5956 33.6397 38.5956 31.5995V28.6853C38.5956 26.6451 38.5956 25.625 38.1985 24.8457C37.8493 24.1603 37.292 23.603 36.6065 23.2537C35.8273 22.8567 34.8072 22.8567 32.767 22.8567H7.99556C5.95537 22.8567 4.93528 22.8567 4.15603 23.2537C3.47058 23.603 2.91329 24.1603 2.56404 24.8457C2.16699 25.625 2.16699 26.6451 2.16699 28.6853V31.5995C2.16699 33.6397 2.16699 34.6598 2.56404 35.4391C2.91329 36.1245 3.47058 36.6818 4.15603 37.0311C4.93528 37.4281 5.95537 37.4281 7.99556 37.4281Z" stroke="black" stroke-width="0.86" stroke-linecap="round" stroke-linejoin="round"/>
<path d="M9.45271 30.1424H9.47092M7.99556 37.4281H32.767C34.8072 37.4281 35.8273 37.4281 36.6065 37.0311C37.292 36.6818 37.8493 36.1245 38.1985 35.4391C38.5956 34.6598 38.5956 33.6397 38.5956 31.5995V28.6853C38.5956 26.6451 38.5956 25.625 38.1985 24.8457C37.8493 24.1603 37.292 23.603 36.6065 23.2537C35.8273 22.8567 34.8072 22.8567 32.767 22.8567H7.99556C5.95537 22.8567 4.93528 22.8567 4.15603 23.2537C3.47058 23.603 2.91329 24.1603 2.56404 24.8457C2.16699 25.625 2.16699 26.6451 2.16699 28.6853V31.5995C2.16699 33.6397 2.16699 34.6598 2.56404 35.4391C2.91329 36.1245 3.47058 36.6818 4.15603 37.0311C4.93528 37.4281 5.95537 37.4281 7.99556 37.4281Z" stroke="url(#paint12_linear_2044_1970)" stroke-width="0.86" stroke-linecap="round" stroke-linejoin="round"/>
<path d="M2.16699 14.1137C2.16699 12.0735 2.16699 11.0534 2.56404 10.2742C2.91329 9.58874 3.47058 9.03146 4.15603 8.6822C4.93528 8.28516 5.95537 8.28516 7.99556 8.28516H32.767C34.8072 8.28516 35.8273 8.28516 36.6065 8.6822C37.292 9.03146 37.8493 9.58874 38.1985 10.2742C38.5956 11.0534 38.5956 12.0735 38.5956 14.1137V17.028C38.5956 19.0682 38.5956 20.0883 38.1985 20.8676C37.8493 21.553 37.292 22.1103 36.6065 22.4595C35.8273 22.8566 34.8072 22.8566 32.767 22.8566H7.99556C5.95537 22.8566 4.93528 22.8566 4.15603 22.4595C3.47058 22.1103 2.91329 21.553 2.56404 20.8676C2.16699 20.0883 2.16699 19.0682 2.16699 17.028V14.1137Z" fill="url(#paint13_linear_2044_1970)"/>
<path d="M9.45271 15.5709H9.47092M7.99556 22.8566H32.767C34.8072 22.8566 35.8273 22.8566 36.6065 22.4595C37.292 22.1103 37.8493 21.553 38.1985 20.8676C38.5956 20.0883 38.5956 19.0682 38.5956 17.028V14.1137C38.5956 12.0735 38.5956 11.0534 38.1985 10.2742C37.8493 9.58874 37.292 9.03146 36.6065 8.6822C35.8273 8.28516 34.8072 8.28516 32.767 8.28516H7.99556C5.95537 8.28516 4.93528 8.28516 4.15603 8.6822C3.47058 9.03146 2.91329 9.58874 2.56404 10.2742C2.16699 11.0534 2.16699 12.0735 2.16699 14.1137V17.028C2.16699 19.0682 2.16699 20.0883 2.56404 20.8676C2.91329 21.553 3.47058 22.1103 4.15603 22.4595C4.93528 22.8566 5.95537 22.8566 7.99556 22.8566Z" stroke="black" stroke-width="0.86" stroke-linecap="round" stroke-linejoin="round"/>
<path d="M9.45271 15.5709H9.47092M7.99556 22.8566H32.767C34.8072 22.8566 35.8273 22.8566 36.6065 22.4595C37.292 22.1103 37.8493 21.553 38.1985 20.8676C38.5956 20.0883 38.5956 19.0682 38.5956 17.028V14.1137C38.5956 12.0735 38.5956 11.0534 38.1985 10.2742C37.8493 9.58874 37.292 9.03146 36.6065 8.6822C35.8273 8.28516 34.8072 8.28516 32.767 8.28516H7.99556C5.95537 8.28516 4.93528 8.28516 4.15603 8.6822C3.47058 9.03146 2.91329 9.58874 2.56404 10.2742C2.16699 11.0534 2.16699 12.0735 2.16699 14.1137V17.028C2.16699 19.0682 2.16699 20.0883 2.56404 20.8676C2.91329 21.553 3.47058 22.1103 4.15603 22.4595C4.93528 22.8566 5.95537 22.8566 7.99556 22.8566Z" stroke="url(#paint14_linear_2044_1970)" stroke-width="0.86" stroke-linecap="round" stroke-linejoin="round"/>
</g>
<defs>
<linearGradient id="paint0_linear_2044_1970" x1="27.6674" y1="30.1426" x2="27.6674" y2="44.714" gradientUnits="userSpaceOnUse">
<stop stop-color="#F3E9FB"/>
<stop offset="1" stop-color="#D9B2F3"/>
</linearGradient>
<linearGradient id="paint1_linear_2044_1970" x1="45.8817" y1="37.4283" x2="9.45313" y2="37.4283" gradientUnits="userSpaceOnUse">
<stop stop-color="#D189FF"/>
<stop offset="1" stop-color="#9F37E2"/>
</linearGradient>
<linearGradient id="paint2_linear_2044_1970" x1="44.971" y1="9.0456" x2="8.31363" y2="23.637" gradientUnits="userSpaceOnUse">
<stop stop-color="white"/>
<stop offset="0.84654" stop-color="#CA7DFB"/>
<stop offset="1" stop-color="#9F37E2"/>
</linearGradient>
<linearGradient id="paint3_linear_2044_1970" x1="27.6674" y1="15.5715" x2="27.6674" y2="30.143" gradientUnits="userSpaceOnUse">
<stop stop-color="#F3E9FB"/>
<stop offset="1" stop-color="#D9B2F3"/>
</linearGradient>
<linearGradient id="paint4_linear_2044_1970" x1="45.8817" y1="22.8572" x2="9.45313" y2="22.8572" gradientUnits="userSpaceOnUse">
<stop stop-color="#D189FF"/>
<stop offset="1" stop-color="#9F37E2"/>
</linearGradient>
<linearGradient id="paint5_linear_2044_1970" x1="44.971" y1="-5.52544" x2="8.31363" y2="9.06597" gradientUnits="userSpaceOnUse">
<stop stop-color="white"/>
<stop offset="0.84654" stop-color="#CA7DFB"/>
<stop offset="1" stop-color="#9F37E2"/>
</linearGradient>
<linearGradient id="paint6_linear_2044_1970" x1="27.6674" y1="1" x2="27.6674" y2="15.5714" gradientUnits="userSpaceOnUse">
<stop stop-color="#F3E9FB"/>
<stop offset="1" stop-color="#D9B2F3"/>
</linearGradient>
<linearGradient id="paint7_linear_2044_1970" x1="45.8817" y1="8.28571" x2="9.45313" y2="8.28571" gradientUnits="userSpaceOnUse">
<stop stop-color="#D189FF"/>
<stop offset="1" stop-color="#9F37E2"/>
</linearGradient>
<linearGradient id="paint8_linear_2044_1970" x1="44.971" y1="-20.097" x2="8.31363" y2="-5.50556" gradientUnits="userSpaceOnUse">
<stop stop-color="white"/>
<stop offset="0.84654" stop-color="#CA7DFB"/>
<stop offset="1" stop-color="#9F37E2"/>
</linearGradient>
<linearGradient id="paint9_linear_2044_1970" x1="20.3813" y1="37.4277" x2="20.3813" y2="51.9992" gradientUnits="userSpaceOnUse">
<stop stop-color="#F3E9FB"/>
<stop offset="1" stop-color="#D9B2F3"/>
</linearGradient>
<linearGradient id="paint10_linear_2044_1970" x1="37.6848" y1="16.3308" x2="1.02749" y2="30.9222" gradientUnits="userSpaceOnUse">
<stop stop-color="white"/>
<stop offset="0.84654" stop-color="#CA7DFB"/>
<stop offset="1" stop-color="#9F37E2"/>
</linearGradient>
<linearGradient id="paint11_linear_2044_1970" x1="20.3813" y1="22.8567" x2="20.3813" y2="37.4281" gradientUnits="userSpaceOnUse">
<stop stop-color="#F3E9FB"/>
<stop offset="1" stop-color="#D9B2F3"/>
</linearGradient>
<linearGradient id="paint12_linear_2044_1970" x1="37.6848" y1="1.75971" x2="1.02749" y2="16.3511" gradientUnits="userSpaceOnUse">
<stop stop-color="white"/>
<stop offset="0.84654" stop-color="#CA7DFB"/>
<stop offset="1" stop-color="#9F37E2"/>
</linearGradient>
<linearGradient id="paint13_linear_2044_1970" x1="20.3813" y1="8.28516" x2="20.3813" y2="22.8566" gradientUnits="userSpaceOnUse">
<stop stop-color="#F3E9FB"/>
<stop offset="1" stop-color="#D9B2F3"/>
</linearGradient>
<linearGradient id="paint14_linear_2044_1970" x1="37.6848" y1="-12.8118" x2="1.02749" y2="1.77959" gradientUnits="userSpaceOnUse">
<stop stop-color="white"/>
<stop offset="0.84654" stop-color="#CA7DFB"/>
<stop offset="1" stop-color="#9F37E2"/>
</linearGradient>
</defs>
</svg>
