<svg width="57" height="56" viewBox="0 0 57 56" fill="none" xmlns="http://www.w3.org/2000/svg">
<g opacity="0.4">
<path d="M32.666 16C42.6071 16 50.666 13.3137 50.666 10C50.666 6.68629 42.6071 4 32.666 4C22.7249 4 14.666 6.68629 14.666 10C14.666 13.3137 22.7249 16 32.666 16Z" fill="url(#paint0_linear_2044_964)"/>
<path d="M50.666 24C50.666 27.32 42.666 30 32.666 30C22.666 30 14.666 27.32 14.666 24" fill="url(#paint1_linear_2044_964)"/>
<path d="M14.666 10V38C14.666 41.32 22.666 44 32.666 44C42.666 44 50.666 41.32 50.666 38V10" fill="url(#paint2_linear_2044_964)"/>
<path d="M24.666 24C34.6071 24 42.666 21.3137 42.666 18C42.666 14.6863 34.6071 12 24.666 12C14.7249 12 6.66602 14.6863 6.66602 18C6.66602 21.3137 14.7249 24 24.666 24Z" fill="url(#paint3_linear_2044_964)"/>
<path d="M42.666 32C42.666 35.32 34.666 38 24.666 38C14.666 38 6.66602 35.32 6.66602 32" fill="url(#paint4_linear_2044_964)"/>
<path d="M6.66602 18V46C6.66602 49.32 14.666 52 24.666 52C34.666 52 42.666 49.32 42.666 46V18" fill="url(#paint5_linear_2044_964)"/>
<path d="M42.666 18C42.666 21.3137 34.6071 24 24.666 24C14.7249 24 6.66602 21.3137 6.66602 18M42.666 18C42.666 14.6863 34.6071 12 24.666 12C14.7249 12 6.66602 14.6863 6.66602 18M42.666 18V46C42.666 49.32 34.666 52 24.666 52C14.666 52 6.66602 49.32 6.66602 46V18M42.666 32C42.666 35.32 34.666 38 24.666 38C14.666 38 6.66602 35.32 6.66602 32" stroke="white" stroke-width="0.68" stroke-linecap="round" stroke-linejoin="round"/>
</g>
<defs>
<linearGradient id="paint0_linear_2044_964" x1="50.666" y1="24" x2="14.666" y2="24" gradientUnits="userSpaceOnUse">
<stop stop-color="#D189FF"/>
<stop offset="1" stop-color="#9F37E2"/>
</linearGradient>
<linearGradient id="paint1_linear_2044_964" x1="50.666" y1="24" x2="14.666" y2="24" gradientUnits="userSpaceOnUse">
<stop stop-color="#D189FF"/>
<stop offset="1" stop-color="#9F37E2"/>
</linearGradient>
<linearGradient id="paint2_linear_2044_964" x1="50.666" y1="24" x2="14.666" y2="24" gradientUnits="userSpaceOnUse">
<stop stop-color="#D189FF"/>
<stop offset="1" stop-color="#9F37E2"/>
</linearGradient>
<linearGradient id="paint3_linear_2044_964" x1="24.666" y1="12" x2="24.666" y2="52" gradientUnits="userSpaceOnUse">
<stop stop-color="#F3E9FB"/>
<stop offset="1" stop-color="#D9B2F3"/>
</linearGradient>
<linearGradient id="paint4_linear_2044_964" x1="24.666" y1="12" x2="24.666" y2="52" gradientUnits="userSpaceOnUse">
<stop stop-color="#F3E9FB"/>
<stop offset="1" stop-color="#D9B2F3"/>
</linearGradient>
<linearGradient id="paint5_linear_2044_964" x1="24.666" y1="12" x2="24.666" y2="52" gradientUnits="userSpaceOnUse">
<stop stop-color="#F3E9FB"/>
<stop offset="1" stop-color="#D9B2F3"/>
</linearGradient>
</defs>
</svg>
