<svg width="56" height="56" viewBox="0 0 56 56" fill="none" xmlns="http://www.w3.org/2000/svg">
<g opacity="0.4">
<path d="M30.1872 1.67429C30.8489 1.30665 31.1798 1.12283 31.5302 1.05077C31.8403 0.986984 32.1602 0.986984 32.4703 1.05077C32.8207 1.12283 33.1516 1.30665 33.8133 1.67429L51.08 11.2669C51.7789 11.6551 52.1283 11.8493 52.3828 12.1254C52.6079 12.3697 52.7782 12.6592 52.8824 12.9746C53.0002 13.3311 53.0002 13.7309 53.0002 14.5304V33.4703C53.0002 34.2698 53.0002 34.6696 52.8824 35.0261C52.7782 35.3415 52.6079 35.631 52.3828 35.8753C52.1283 36.1514 51.7789 36.3456 51.08 36.7338L33.8133 46.3264C33.1516 46.6941 32.8207 46.8779 32.4703 46.9499C32.1602 47.0137 31.8403 47.0137 31.5302 46.9499C31.1798 46.8779 30.8489 46.6941 30.1872 46.3264L12.9205 36.7338C12.2216 36.3456 11.8722 36.1514 11.6177 35.8753C11.3926 35.631 11.2223 35.3415 11.118 35.0261C11.0002 34.6696 11.0002 34.2698 11.0002 33.4703V14.5304C11.0002 13.7309 11.0002 13.3312 11.118 12.9746C11.2223 12.6592 11.3926 12.3697 11.6177 12.1254C11.8722 11.8493 12.2216 11.6552 12.9205 11.2669L30.1872 1.67429Z" fill="url(#paint0_linear_2008_45908)"/>
<path d="M51.8335 12.9818L32.0002 24.0003M32.0002 24.0003L12.1668 12.9818M32.0002 24.0003L32.0002 46.167M53.0002 33.4703V14.5304C53.0002 13.7309 53.0002 13.3311 52.8824 12.9746C52.7782 12.6592 52.6079 12.3697 52.3828 12.1254C52.1283 11.8493 51.7789 11.6551 51.08 11.2669L33.8133 1.67429C33.1516 1.30665 32.8207 1.12283 32.4703 1.05077C32.1602 0.986984 31.8403 0.986984 31.5302 1.05077C31.1798 1.12283 30.8489 1.30665 30.1872 1.67429L12.9205 11.2669C12.2216 11.6552 11.8722 11.8493 11.6177 12.1254C11.3926 12.3697 11.2223 12.6592 11.118 12.9746C11.0002 13.3312 11.0002 13.7309 11.0002 14.5304V33.4703C11.0002 34.2698 11.0002 34.6696 11.118 35.0261C11.2223 35.3415 11.3926 35.631 11.6177 35.8753C11.8722 36.1514 12.2216 36.3456 12.9205 36.7338L30.1872 46.3264C30.8489 46.6941 31.1798 46.8779 31.5302 46.9499C31.8403 47.0137 32.1602 47.0137 32.4703 46.9499C32.8207 46.8779 33.1516 46.6941 33.8133 46.3264L51.08 36.7338C51.7789 36.3456 52.1283 36.1514 52.3828 35.8753C52.6079 35.631 52.7782 35.3415 52.8824 35.0261C53.0002 34.6696 53.0002 34.2698 53.0002 33.4703Z" stroke="white" stroke-width="0.68" stroke-linecap="round" stroke-linejoin="round"/>
<path d="M22.1872 9.67429C22.8489 9.30665 23.1798 9.12283 23.5302 9.05077C23.8403 8.98698 24.1602 8.98698 24.4703 9.05077C24.8207 9.12283 25.1516 9.30665 25.8133 9.67429L43.08 19.2669C43.7789 19.6551 44.1283 19.8493 44.3828 20.1254C44.6079 20.3697 44.7782 20.6592 44.8824 20.9746C45.0002 21.3311 45.0002 21.7309 45.0002 22.5304V41.4703C45.0002 42.2698 45.0002 42.6696 44.8824 43.0261C44.7782 43.3415 44.6079 43.631 44.3828 43.8753C44.1283 44.1514 43.7789 44.3456 43.08 44.7338L25.8133 54.3264C25.1516 54.6941 24.8207 54.8779 24.4703 54.9499C24.1602 55.0137 23.8403 55.0137 23.5302 54.9499C23.1798 54.8779 22.8489 54.6941 22.1872 54.3264L4.92051 44.7338C4.22162 44.3456 3.87218 44.1514 3.61772 43.8753C3.39261 43.631 3.22225 43.3415 3.11804 43.0261C3.00024 42.6696 3.00024 42.2698 3.00024 41.4703V22.5304C3.00024 21.7309 3.00024 21.3312 3.11804 20.9746C3.22225 20.6592 3.39261 20.3697 3.61772 20.1254C3.87218 19.8493 4.22162 19.6552 4.92051 19.2669L22.1872 9.67429Z" fill="url(#paint1_linear_2008_45908)"/>
<path d="M43.8335 20.9818L24.0002 32.0003M24.0002 32.0003L4.16683 20.9818M24.0002 32.0003L24.0002 54.167M45.0002 41.4703V22.5304C45.0002 21.7309 45.0002 21.3311 44.8824 20.9746C44.7782 20.6592 44.6079 20.3697 44.3828 20.1254C44.1283 19.8493 43.7789 19.6551 43.08 19.2669L25.8133 9.67429C25.1516 9.30665 24.8207 9.12283 24.4703 9.05077C24.1602 8.98698 23.8403 8.98698 23.5302 9.05077C23.1798 9.12283 22.8489 9.30665 22.1872 9.67429L4.92051 19.2669C4.22162 19.6552 3.87218 19.8493 3.61772 20.1254C3.39261 20.3697 3.22225 20.6592 3.11804 20.9746C3.00024 21.3312 3.00024 21.7309 3.00024 22.5304V41.4703C3.00024 42.2698 3.00024 42.6696 3.11804 43.0261C3.22225 43.3415 3.39261 43.631 3.61772 43.8753C3.87218 44.1514 4.22162 44.3456 4.92051 44.7338L22.1872 54.3264C22.8489 54.6941 23.1798 54.8779 23.5302 54.9499C23.8403 55.0137 24.1602 55.0137 24.4703 54.9499C24.8207 54.8779 25.1516 54.6941 25.8133 54.3264L43.08 44.7338C43.7789 44.3456 44.1283 44.1514 44.3828 43.8753C44.6079 43.631 44.7782 43.3415 44.8824 43.0261C45.0002 42.6696 45.0002 42.2698 45.0002 41.4703Z" stroke="white" stroke-width="0.68" stroke-linecap="round" stroke-linejoin="round"/>
</g>
<defs>
<linearGradient id="paint0_linear_2008_45908" x1="32.0002" y1="1.00293" x2="32.0002" y2="46.9978" gradientUnits="userSpaceOnUse">
<stop stop-color="#F3E9FB"/>
<stop offset="1" stop-color="#D9B2F3"/>
</linearGradient>
<linearGradient id="paint1_linear_2008_45908" x1="45.0002" y1="32.0004" x2="3.00024" y2="32.0004" gradientUnits="userSpaceOnUse">
<stop stop-color="#D189FF"/>
<stop offset="1" stop-color="#9F37E2"/>
</linearGradient>
</defs>
</svg>
