<svg width="57" height="56" viewBox="0 0 57 56" fill="none" xmlns="http://www.w3.org/2000/svg">
<g opacity="0.4">
<path d="M12.3335 20.2666C12.3335 18.7732 12.3335 18.0264 12.6241 17.456C12.8798 16.9542 13.2878 16.5463 13.7895 16.2906C14.36 16 15.1067 16 16.6002 16H21.2329C21.8851 16 22.2112 16 22.5181 15.9263C22.7902 15.861 23.0503 15.7532 23.2889 15.607C23.558 15.4421 23.7886 15.2115 24.2498 14.7503L32.6917 6.30846C33.834 5.16612 34.4052 4.59496 34.8956 4.55636C35.321 4.52288 35.7369 4.69511 36.014 5.01966C36.3335 5.39369 36.3335 6.20145 36.3335 7.81696V40.183C36.3335 41.7985 36.3335 42.6062 36.014 42.9803C35.7369 43.3048 35.321 43.4771 34.8956 43.4436C34.4052 43.405 33.834 42.8338 32.6917 41.6915L24.2498 33.2496C23.7886 32.7884 23.558 32.5578 23.2889 32.3929C23.0503 32.2467 22.7902 32.139 22.5181 32.0737C22.2112 32 21.8851 32 21.2329 32H16.6002C15.1067 32 14.36 32 13.7895 31.7093C13.2878 31.4537 12.8798 31.0457 12.6241 30.5439C12.3335 29.9735 12.3335 29.2268 12.3335 27.7333V20.2666Z" fill="url(#paint0_linear_2008_45901)"/>
<path d="M48.9871 13.3333C51.0961 16.3569 52.333 20.034 52.333 24C52.333 27.966 51.0961 31.6431 48.9871 34.6666M32.6917 6.30846L24.2498 14.7503C23.7886 15.2115 23.558 15.4421 23.2889 15.607C23.0503 15.7532 22.7902 15.861 22.5181 15.9263C22.2112 16 21.8851 16 21.2329 16H16.6002C15.1067 16 14.36 16 13.7895 16.2906C13.2878 16.5463 12.8798 16.9542 12.6241 17.456C12.3335 18.0264 12.3335 18.7732 12.3335 20.2666V27.7333C12.3335 29.2268 12.3335 29.9735 12.6241 30.5439C12.8798 31.0457 13.2878 31.4537 13.7895 31.7093C14.36 32 15.1067 32 16.6002 32H21.2329C21.8851 32 22.2112 32 22.5181 32.0736C22.7902 32.139 23.0503 32.2467 23.2889 32.3929C23.558 32.5578 23.7886 32.7884 24.2498 33.2496L32.6917 41.6915C33.834 42.8338 34.4052 43.405 34.8956 43.4436C35.321 43.4771 35.7369 43.3048 36.014 42.9803C36.3335 42.6062 36.3335 41.7985 36.3335 40.183V7.81696C36.3335 6.20145 36.3335 5.39369 36.014 5.01966C35.7369 4.69511 35.321 4.52288 34.8956 4.55636C34.4052 4.59496 33.834 5.16612 32.6917 6.30846Z" stroke="white" stroke-width="0.68" stroke-linecap="round" stroke-linejoin="round"/>
<path d="M4.3335 28.2666C4.3335 26.7732 4.3335 26.0264 4.62415 25.456C4.87981 24.9542 5.28776 24.5463 5.78952 24.2906C6.35995 24 7.10669 24 8.60016 24H13.2329C13.8851 24 14.2112 24 14.5181 23.9263C14.7902 23.861 15.0503 23.7532 15.2889 23.607C15.558 23.4421 15.7886 23.2115 16.2498 22.7503L24.6917 14.3085C25.834 13.1661 26.4052 12.595 26.8956 12.5564C27.321 12.5229 27.7369 12.6951 28.014 13.0197C28.3335 13.3937 28.3335 14.2014 28.3335 15.817V48.183C28.3335 49.7985 28.3335 50.6062 28.014 50.9803C27.7369 51.3048 27.321 51.4771 26.8956 51.4436C26.4052 51.405 25.834 50.8338 24.6917 49.6915L16.2498 41.2496C15.7886 40.7884 15.558 40.5578 15.2889 40.3929C15.0503 40.2467 14.7902 40.139 14.5181 40.0737C14.2112 40 13.8851 40 13.2329 40H8.60016C7.10669 40 6.35995 40 5.78952 39.7093C5.28776 39.4537 4.87981 39.0457 4.62415 38.5439C4.3335 37.9735 4.3335 37.2268 4.3335 35.7333V28.2666Z" fill="url(#paint1_linear_2008_45901)"/>
<path d="M4.3335 28.2666C4.3335 26.7732 4.3335 26.0264 4.62415 25.456C4.87981 24.9542 5.28776 24.5463 5.78952 24.2906C6.35995 24 7.10669 24 8.60016 24H13.2329C13.8851 24 14.2112 24 14.5181 23.9263C14.7902 23.861 15.0503 23.7532 15.2889 23.607C15.558 23.4421 15.7886 23.2115 16.2498 22.7503L24.6917 14.3085C25.834 13.1661 26.4052 12.595 26.8956 12.5564C27.321 12.5229 27.7369 12.6951 28.014 13.0197C28.3335 13.3937 28.3335 14.2014 28.3335 15.817V48.183C28.3335 49.7985 28.3335 50.6062 28.014 50.9803C27.7369 51.3048 27.321 51.4771 26.8956 51.4436C26.4052 51.405 25.834 50.8338 24.6917 49.6915L16.2498 41.2496C15.7886 40.7884 15.558 40.5578 15.2889 40.3929C15.0503 40.2467 14.7902 40.139 14.5181 40.0737C14.2112 40 13.8851 40 13.2329 40H8.60016C7.10669 40 6.35995 40 5.78952 39.7093C5.28776 39.4537 4.87981 39.0457 4.62415 38.5439C4.3335 37.9735 4.3335 37.2268 4.3335 35.7333V28.2666Z" fill="url(#paint2_linear_2008_45901)"/>
<path d="M40.9871 21.3333C43.0961 24.3569 44.333 28.034 44.333 32C44.333 35.966 43.0961 39.6431 40.9871 42.6666M24.6917 14.3085L16.2498 22.7503C15.7886 23.2115 15.558 23.4421 15.2889 23.607C15.0503 23.7532 14.7902 23.861 14.5181 23.9263C14.2112 24 13.8851 24 13.2329 24H8.60016C7.10669 24 6.35995 24 5.78952 24.2906C5.28776 24.5463 4.87981 24.9542 4.62415 25.456C4.3335 26.0264 4.3335 26.7732 4.3335 28.2666V35.7333C4.3335 37.2268 4.3335 37.9735 4.62415 38.5439C4.87981 39.0457 5.28776 39.4537 5.78952 39.7093C6.35995 40 7.10669 40 8.60016 40H13.2329C13.8851 40 14.2112 40 14.5181 40.0736C14.7902 40.139 15.0503 40.2467 15.2889 40.3929C15.558 40.5578 15.7886 40.7884 16.2498 41.2496L24.6917 49.6915C25.834 50.8338 26.4052 51.405 26.8956 51.4436C27.321 51.4771 27.7369 51.3048 28.014 50.9803C28.3335 50.6062 28.3335 49.7985 28.3335 48.183V15.817C28.3335 14.2014 28.3335 13.3937 28.014 13.0197C27.7369 12.6951 27.321 12.5229 26.8956 12.5564C26.4052 12.595 25.834 13.1661 24.6917 14.3085Z" stroke="white" stroke-width="0.68" stroke-linecap="round" stroke-linejoin="round"/>
</g>
<defs>
<linearGradient id="paint0_linear_2008_45901" x1="32.3332" y1="4.55225" x2="32.3332" y2="43.4477" gradientUnits="userSpaceOnUse">
<stop stop-color="#F3E9FB"/>
<stop offset="1" stop-color="#D9B2F3"/>
</linearGradient>
<linearGradient id="paint1_linear_2008_45901" x1="24.3332" y1="12.5522" x2="24.3332" y2="51.4477" gradientUnits="userSpaceOnUse">
<stop stop-color="#F3E9FB"/>
<stop offset="1" stop-color="#D9B2F3"/>
</linearGradient>
<linearGradient id="paint2_linear_2008_45901" x1="44.333" y1="32" x2="4.3335" y2="32" gradientUnits="userSpaceOnUse">
<stop stop-color="#D189FF"/>
<stop offset="1" stop-color="#9F37E2"/>
</linearGradient>
</defs>
</svg>
