<svg width="57" height="56" viewBox="0 0 57 56" fill="none" xmlns="http://www.w3.org/2000/svg">
<g opacity="0.4">
<path d="M30.7055 46.4346C31.2221 46.7359 31.4804 46.8866 31.8449 46.9648C32.1278 47.0255 32.5405 47.0255 32.8234 46.9648C33.1879 46.8866 33.4462 46.7359 33.9628 46.4346C38.5082 43.7828 51.0008 35.4529 51.0008 23.9999V12.8409C51.0008 10.9754 51.0008 10.0426 50.6957 9.24084C50.4262 8.53252 49.9882 7.90051 49.4196 7.39943C48.776 6.83222 47.9026 6.5047 46.1559 5.84967L33.645 1.1581C33.1599 0.976192 32.9174 0.885238 32.6679 0.849181C32.4465 0.8172 32.2218 0.8172 32.0004 0.849181C31.7509 0.885238 31.5084 0.976192 31.0233 1.1581L18.5124 5.84967C16.7657 6.5047 15.8923 6.83222 15.2487 7.39943C14.6801 7.90051 14.2421 8.53252 13.9726 9.24084C13.6675 10.0426 13.6675 10.9754 13.6675 12.8409V23.9999C13.6675 35.4529 26.1601 43.7828 30.7055 46.4346Z" fill="url(#paint0_linear_2008_45927)" stroke="white" stroke-width="0.68" stroke-linecap="round" stroke-linejoin="round"/>
<path d="M22.7055 54.4346C23.2221 54.7359 23.4804 54.8866 23.8449 54.9648C24.1278 55.0255 24.5405 55.0255 24.8234 54.9648C25.1879 54.8866 25.4462 54.7359 25.9628 54.4346C30.5082 51.7828 43.0008 43.4529 43.0008 31.9999V20.8409C43.0008 18.9754 43.0008 18.0426 42.6957 17.2408C42.4262 16.5325 41.9882 15.9005 41.4196 15.3994C40.776 14.8322 39.9026 14.5047 38.1559 13.8497L25.645 9.1581C25.1599 8.97619 24.9174 8.88524 24.6679 8.84918C24.4465 8.8172 24.2218 8.8172 24.0004 8.84918C23.7509 8.88524 23.5084 8.97619 23.0233 9.1581L10.5124 13.8497C8.76568 14.5047 7.8923 14.8322 7.24868 15.3994C6.68011 15.9005 6.24212 16.5325 5.97259 17.2408C5.66748 18.0426 5.66748 18.9754 5.66748 20.8409V31.9999C5.66748 43.4529 18.1601 51.7828 22.7055 54.4346Z" fill="url(#paint1_linear_2008_45927)"/>
<path d="M22.7055 54.4346C23.2221 54.7359 23.4804 54.8866 23.8449 54.9648C24.1278 55.0255 24.5405 55.0255 24.8234 54.9648C25.1879 54.8866 25.4462 54.7359 25.9628 54.4346C30.5082 51.7828 43.0008 43.4529 43.0008 31.9999V20.8409C43.0008 18.9754 43.0008 18.0426 42.6957 17.2408C42.4262 16.5325 41.9882 15.9005 41.4196 15.3994C40.776 14.8322 39.9026 14.5047 38.1559 13.8497L25.645 9.1581C25.1599 8.97619 24.9174 8.88524 24.6679 8.84918C24.4465 8.8172 24.2218 8.8172 24.0004 8.84918C23.7509 8.88524 23.5084 8.97619 23.0233 9.1581L10.5124 13.8497C8.76568 14.5047 7.8923 14.8322 7.24868 15.3994C6.68011 15.9005 6.24212 16.5325 5.97259 17.2408C5.66748 18.0426 5.66748 18.9754 5.66748 20.8409V31.9999C5.66748 43.4529 18.1601 51.7828 22.7055 54.4346Z" stroke="white" stroke-width="0.68" stroke-linecap="round" stroke-linejoin="round"/>
<path d="M22.7055 54.4346C23.2221 54.7359 23.4804 54.8866 23.8449 54.9648C24.1278 55.0255 24.5405 55.0255 24.8234 54.9648C25.1879 54.8866 25.4462 54.7359 25.9628 54.4346C30.5082 51.7828 43.0008 43.4529 43.0008 31.9999V20.8409C43.0008 18.9754 43.0008 18.0426 42.6957 17.2408C42.4262 16.5325 41.9882 15.9005 41.4196 15.3994C40.776 14.8322 39.9026 14.5047 38.1559 13.8497L25.645 9.1581C25.1599 8.97619 24.9174 8.88524 24.6679 8.84918C24.4465 8.8172 24.2218 8.8172 24.0004 8.84918C23.7509 8.88524 23.5084 8.97619 23.0233 9.1581L10.5124 13.8497C8.76568 14.5047 7.8923 14.8322 7.24868 15.3994C6.68011 15.9005 6.24212 16.5325 5.97259 17.2408C5.66748 18.0426 5.66748 18.9754 5.66748 20.8409V31.9999C5.66748 43.4529 18.1601 51.7828 22.7055 54.4346Z" stroke="url(#paint2_linear_2008_45927)" stroke-width="0.68" stroke-linecap="round" stroke-linejoin="round"/>
</g>
<defs>
<linearGradient id="paint0_linear_2008_45927" x1="32.3341" y1="0.825195" x2="32.3341" y2="47.0103" gradientUnits="userSpaceOnUse">
<stop stop-color="#F3E9FB"/>
<stop offset="1" stop-color="#D9B2F3"/>
</linearGradient>
<linearGradient id="paint1_linear_2008_45927" x1="43.0008" y1="31.9177" x2="5.66748" y2="31.9177" gradientUnits="userSpaceOnUse">
<stop stop-color="#D189FF"/>
<stop offset="1" stop-color="#9F37E2"/>
</linearGradient>
<linearGradient id="paint2_linear_2008_45927" x1="43.0008" y1="31.9177" x2="5.66748" y2="31.9177" gradientUnits="userSpaceOnUse">
<stop stop-color="#D189FF"/>
<stop offset="1" stop-color="#9F37E2"/>
</linearGradient>
</defs>
</svg>
