<svg width="66" height="65" viewBox="0 0 66 65" fill="none" xmlns="http://www.w3.org/2000/svg">
<g opacity="0.4">
<path d="M37.3333 37.3333V49V37.3333Z" fill="url(#paint0_linear_2044_11405)"/>
<path d="M16.3333 7H58.3333V26.1333C58.3333 30.0537 58.3333 32.0139 57.5704 33.5113C56.8993 34.8284 55.8284 35.8993 54.5113 36.5704C53.0139 37.3333 51.0537 37.3333 47.1333 37.3333H27.5333C23.613 37.3333 21.6528 37.3333 20.1554 36.5704C18.8383 35.8993 17.7674 34.8284 17.0963 33.5113C16.3333 32.0139 16.3333 30.0537 16.3333 26.1333V7Z" fill="url(#paint1_linear_2044_11405)"/>
<path d="M28 25.6667V28V25.6667Z" fill="url(#paint2_linear_2044_11405)"/>
<path d="M37.3333 21V28V21Z" fill="url(#paint3_linear_2044_11405)"/>
<path d="M46.6667 16.3333V28V16.3333Z" fill="url(#paint4_linear_2044_11405)"/>
<path d="M37.3333 37.3333V49M51.3333 49L42.1134 41.3167C40.4129 39.8996 39.5627 39.1911 38.6135 38.9203C37.7768 38.6816 36.8899 38.6816 36.0531 38.9203C35.104 39.1911 34.2538 39.8996 32.5533 41.3167L23.3333 49M28 25.6667V28M37.3333 21V28M46.6667 16.3333V28M60.6667 7H14M16.3333 7H58.3333V26.1333C58.3333 30.0537 58.3333 32.0139 57.5704 33.5113C56.8993 34.8284 55.8284 35.8993 54.5113 36.5704C53.0139 37.3333 51.0537 37.3333 47.1333 37.3333H27.5333C23.613 37.3333 21.6528 37.3333 20.1554 36.5704C18.8383 35.8993 17.7674 34.8284 17.0963 33.5113C16.3333 32.0139 16.3333 30.0537 16.3333 26.1333V7Z" stroke="url(#paint5_linear_2044_11405)" stroke-linecap="round" stroke-linejoin="round"/>
<path d="M28.6663 46.3333V58V46.3333Z" fill="url(#paint6_linear_2044_11405)"/>
<path d="M7.66634 16H49.6663V35.1333C49.6663 39.0537 49.6663 41.0139 48.9034 42.5113C48.2323 43.8284 47.1614 44.8993 45.8443 45.5704C44.3469 46.3333 42.3867 46.3333 38.4663 46.3333H18.8663C14.946 46.3333 12.9858 46.3333 11.4884 45.5704C10.1713 44.8993 9.10041 43.8284 8.4293 42.5113C7.66634 41.0139 7.66634 39.0537 7.66634 35.1333V16Z" fill="url(#paint7_linear_2044_11405)"/>
<path d="M19.333 34.6667V37V34.6667Z" fill="url(#paint8_linear_2044_11405)"/>
<path d="M28.6663 30V37V30Z" fill="url(#paint9_linear_2044_11405)"/>
<path d="M37.9997 25.3333V37V25.3333Z" fill="url(#paint10_linear_2044_11405)"/>
<path d="M28.6663 46.3333V58M42.6663 58L33.4464 50.3167C31.7459 48.8996 30.8957 48.1911 29.9466 47.9203C29.1098 47.6816 28.2229 47.6816 27.3861 47.9203C26.437 48.1911 25.5868 48.8996 23.8863 50.3167L14.6663 58M19.333 34.6667V37M28.6663 30V37M37.9997 25.3333V37M51.9997 16H5.33301M7.66634 16H49.6663V35.1333C49.6663 39.0537 49.6663 41.0139 48.9034 42.5113C48.2323 43.8284 47.1614 44.8993 45.8443 45.5704C44.3469 46.3333 42.3867 46.3333 38.4663 46.3333H18.8663C14.946 46.3333 12.9858 46.3333 11.4884 45.5704C10.1713 44.8993 9.10041 43.8284 8.4293 42.5113C7.66634 41.0139 7.66634 39.0537 7.66634 35.1333V16Z" stroke="black" stroke-linecap="round" stroke-linejoin="round"/>
<path d="M28.6663 46.3333V58M42.6663 58L33.4464 50.3167C31.7459 48.8996 30.8957 48.1911 29.9466 47.9203C29.1098 47.6816 28.2229 47.6816 27.3861 47.9203C26.437 48.1911 25.5868 48.8996 23.8863 50.3167L14.6663 58M19.333 34.6667V37M28.6663 30V37M37.9997 25.3333V37M51.9997 16H5.33301M7.66634 16H49.6663V35.1333C49.6663 39.0537 49.6663 41.0139 48.9034 42.5113C48.2323 43.8284 47.1614 44.8993 45.8443 45.5704C44.3469 46.3333 42.3867 46.3333 38.4663 46.3333H18.8663C14.946 46.3333 12.9858 46.3333 11.4884 45.5704C10.1713 44.8993 9.10041 43.8284 8.4293 42.5113C7.66634 41.0139 7.66634 39.0537 7.66634 35.1333V16Z" stroke="url(#paint11_linear_2044_11405)" stroke-linecap="round" stroke-linejoin="round"/>
</g>
<defs>
<linearGradient id="paint0_linear_2044_11405" x1="60.6667" y1="28" x2="14" y2="28" gradientUnits="userSpaceOnUse">
<stop stop-color="#D189FF"/>
<stop offset="1" stop-color="#9F37E2"/>
</linearGradient>
<linearGradient id="paint1_linear_2044_11405" x1="60.6667" y1="28" x2="14" y2="28" gradientUnits="userSpaceOnUse">
<stop stop-color="#D189FF"/>
<stop offset="1" stop-color="#9F37E2"/>
</linearGradient>
<linearGradient id="paint2_linear_2044_11405" x1="60.6667" y1="28" x2="14" y2="28" gradientUnits="userSpaceOnUse">
<stop stop-color="#D189FF"/>
<stop offset="1" stop-color="#9F37E2"/>
</linearGradient>
<linearGradient id="paint3_linear_2044_11405" x1="60.6667" y1="28" x2="14" y2="28" gradientUnits="userSpaceOnUse">
<stop stop-color="#D189FF"/>
<stop offset="1" stop-color="#9F37E2"/>
</linearGradient>
<linearGradient id="paint4_linear_2044_11405" x1="60.6667" y1="28" x2="14" y2="28" gradientUnits="userSpaceOnUse">
<stop stop-color="#D189FF"/>
<stop offset="1" stop-color="#9F37E2"/>
</linearGradient>
<linearGradient id="paint5_linear_2044_11405" x1="60.6667" y1="28" x2="14" y2="28" gradientUnits="userSpaceOnUse">
<stop stop-color="#D189FF"/>
<stop offset="1" stop-color="#9F37E2"/>
</linearGradient>
<linearGradient id="paint6_linear_2044_11405" x1="28.6663" y1="16" x2="28.6663" y2="58" gradientUnits="userSpaceOnUse">
<stop stop-color="#F3E9FB"/>
<stop offset="1" stop-color="#D9B2F3"/>
</linearGradient>
<linearGradient id="paint7_linear_2044_11405" x1="28.6663" y1="16" x2="28.6663" y2="58" gradientUnits="userSpaceOnUse">
<stop stop-color="#F3E9FB"/>
<stop offset="1" stop-color="#D9B2F3"/>
</linearGradient>
<linearGradient id="paint8_linear_2044_11405" x1="28.6663" y1="16" x2="28.6663" y2="58" gradientUnits="userSpaceOnUse">
<stop stop-color="#F3E9FB"/>
<stop offset="1" stop-color="#D9B2F3"/>
</linearGradient>
<linearGradient id="paint9_linear_2044_11405" x1="28.6663" y1="16" x2="28.6663" y2="58" gradientUnits="userSpaceOnUse">
<stop stop-color="#F3E9FB"/>
<stop offset="1" stop-color="#D9B2F3"/>
</linearGradient>
<linearGradient id="paint10_linear_2044_11405" x1="28.6663" y1="16" x2="28.6663" y2="58" gradientUnits="userSpaceOnUse">
<stop stop-color="#F3E9FB"/>
<stop offset="1" stop-color="#D9B2F3"/>
</linearGradient>
<linearGradient id="paint11_linear_2044_11405" x1="51.9997" y1="37" x2="5.33301" y2="37" gradientUnits="userSpaceOnUse">
<stop stop-color="#D189FF"/>
<stop offset="1" stop-color="#9F37E2"/>
</linearGradient>
</defs>
</svg>
