<svg width="49" height="56" viewBox="0 0 49 56" fill="none" xmlns="http://www.w3.org/2000/svg">
<g opacity="0.4">
<g clip-path="url(#clip0_2008_37188)">
<path d="M3.58398 47C2.88392 47 2.53389 47 2.26649 46.8638C2.03129 46.7439 1.84007 46.5527 1.72023 46.3175C1.58398 46.0501 1.58398 45.7001 1.58398 45V19C1.58398 18.2999 1.58398 17.9499 1.72023 17.6825C1.84007 17.4473 2.03129 17.2561 2.26649 17.1362C2.53389 17 2.88392 17 3.58398 17L9.58399 17C10.2841 17 10.6341 17 10.9015 17.1362C11.1367 17.2561 11.3279 17.4473 11.4477 17.6825C11.584 17.9499 11.584 18.2999 11.584 19V25C11.584 25.7001 11.584 26.0501 11.7202 26.3175C11.8401 26.5527 12.0313 26.7439 12.2665 26.8638C12.5339 27 12.8839 27 13.584 27H19.584C20.284 27 20.6341 27 20.9015 27.1362C21.1367 27.2561 21.3279 27.4473 21.4477 27.6825C21.584 27.9499 21.584 28.2999 21.584 29V35C21.584 35.7001 21.584 36.0501 21.7202 36.3175C21.8401 36.5527 22.0313 36.7439 22.2665 36.8638C22.5339 37 22.8839 37 23.584 37H29.584C30.284 37 30.6341 37 30.9015 37.1362C31.1367 37.2561 31.3279 37.4473 31.4477 37.6825C31.584 37.9499 31.584 38.2999 31.584 39V45C31.584 45.7001 31.584 46.0501 31.4477 46.3175C31.3279 46.5527 31.1367 46.7439 30.9015 46.8638C30.6341 47 30.284 47 29.584 47L3.58398 47Z" fill="url(#paint0_linear_2008_37188)"/>
<path d="M29.9173 10.9714C29.9173 10.3314 29.9173 10.0113 29.7902 9.76687C29.6783 9.55183 29.4998 9.37699 29.2803 9.26742C29.0307 9.14286 28.704 9.14286 28.0507 9.14286H22.4507C21.7973 9.14286 21.4706 9.14286 21.221 9.26742C21.0015 9.37699 20.823 9.55183 20.7111 9.76687C20.584 10.0113 20.584 10.3314 20.584 10.9714V16.4571C20.584 17.0972 20.584 17.4172 20.7111 17.6617C20.823 17.8767 21.0015 18.0516 21.221 18.1612C21.4706 18.2857 21.7973 18.2857 22.4507 18.2857H28.0507C28.704 18.2857 29.0307 18.2857 29.2803 18.1612C29.4998 18.0516 29.6783 17.8767 29.7902 17.6617C29.9173 17.4172 29.9173 17.0972 29.9173 16.4571V10.9714Z" fill="url(#paint1_linear_2008_37188)"/>
<path d="M46.2507 24.6857C46.2507 24.0457 46.2507 23.7256 46.1235 23.4812C46.0116 23.2661 45.8332 23.0913 45.6136 22.9817C45.3641 22.8571 45.0374 22.8571 44.384 22.8571H38.784C38.1306 22.8571 37.8039 22.8571 37.5543 22.9817C37.3348 23.0913 37.1563 23.2661 37.0445 23.4812C36.9173 23.7256 36.9173 24.0457 36.9173 24.6857V30.1714C36.9173 30.8115 36.9173 31.1315 37.0445 31.376C37.1563 31.591 37.3348 31.7659 37.5543 31.8754C37.8039 32 38.1306 32 38.784 32H44.384C45.0374 32 45.3641 32 45.6136 31.8754C45.8332 31.7659 46.0116 31.591 46.1235 31.376C46.2507 31.1315 46.2507 30.8115 46.2507 30.1714V24.6857Z" fill="url(#paint2_linear_2008_37188)"/>
<path d="M48.584 1.82857C48.584 1.18851 48.584 0.868481 48.4568 0.624011C48.345 0.408968 48.1665 0.234134 47.947 0.124564C47.6974 0 47.3707 0 46.7173 0H41.1173C40.4639 0 40.1372 0 39.8877 0.124564C39.6681 0.234134 39.4897 0.408968 39.3778 0.624011C39.2507 0.868481 39.2507 1.18851 39.2507 1.82857V7.31429C39.2507 7.95435 39.2507 8.27438 39.3778 8.51885C39.4897 8.73389 39.6681 8.90872 39.8877 9.01829C40.1372 9.14286 40.4639 9.14286 41.1173 9.14286H46.7173C47.3707 9.14286 47.6974 9.14286 47.947 9.01829C48.1665 8.90872 48.345 8.73389 48.4568 8.51885C48.584 8.27438 48.584 7.95435 48.584 7.31429V1.82857Z" fill="url(#paint3_linear_2008_37188)"/>
</g>
</g>
<defs>
<linearGradient id="paint0_linear_2008_37188" x1="16.584" y1="17" x2="16.584" y2="47" gradientUnits="userSpaceOnUse">
<stop stop-color="#F3E9FB"/>
<stop offset="1" stop-color="#D9B2F3"/>
</linearGradient>
<linearGradient id="paint1_linear_2008_37188" x1="20.584" y1="16" x2="48.584" y2="16" gradientUnits="userSpaceOnUse">
<stop stop-color="#D189FF"/>
<stop offset="1" stop-color="#9F37E2"/>
</linearGradient>
<linearGradient id="paint2_linear_2008_37188" x1="20.584" y1="16" x2="48.584" y2="16" gradientUnits="userSpaceOnUse">
<stop stop-color="#D189FF"/>
<stop offset="1" stop-color="#9F37E2"/>
</linearGradient>
<linearGradient id="paint3_linear_2008_37188" x1="20.584" y1="16" x2="48.584" y2="16" gradientUnits="userSpaceOnUse">
<stop stop-color="#D189FF"/>
<stop offset="1" stop-color="#9F37E2"/>
</linearGradient>
<clipPath id="clip0_2008_37188">
<rect width="48" height="48" fill="white" transform="matrix(-1 0 0 1 48.584 0)"/>
</clipPath>
</defs>
</svg>
