<svg width="57" height="57" viewBox="0 0 57 57" fill="none" xmlns="http://www.w3.org/2000/svg">
<g opacity="0.4">
<path d="M12.667 15.6C12.667 12.2397 12.667 10.5595 13.321 9.27606C13.8962 8.14708 14.8141 7.2292 15.943 6.65396C17.2265 6 18.9067 6 22.267 6H43.067C46.4273 6 48.1075 6 49.3909 6.65396C50.5199 7.2292 51.4378 8.14708 52.013 9.27606C52.667 10.5595 52.667 12.2397 52.667 15.6V24.4C52.667 27.7603 52.667 29.4405 52.013 30.7239C51.4378 31.8529 50.5199 32.7708 49.3909 33.346C48.1075 34 46.4273 34 43.067 34H22.267C18.9067 34 17.2265 34 15.943 33.346C14.8141 32.7708 13.8962 31.8529 13.321 30.7239C12.667 29.4405 12.667 27.7603 12.667 24.4V15.6Z" fill="#D9D9D9"/>
<path d="M12.667 15.6C12.667 12.2397 12.667 10.5595 13.321 9.27606C13.8962 8.14708 14.8141 7.2292 15.943 6.65396C17.2265 6 18.9067 6 22.267 6H43.067C46.4273 6 48.1075 6 49.3909 6.65396C50.5199 7.2292 51.4378 8.14708 52.013 9.27606C52.667 10.5595 52.667 12.2397 52.667 15.6V24.4C52.667 27.7603 52.667 29.4405 52.013 30.7239C51.4378 31.8529 50.5199 32.7708 49.3909 33.346C48.1075 34 46.4273 34 43.067 34H22.267C18.9067 34 17.2265 34 15.943 33.346C14.8141 32.7708 13.8962 31.8529 13.321 30.7239C12.667 29.4405 12.667 27.7603 12.667 24.4V15.6Z" fill="url(#paint0_linear_2008_37180)"/>
<path d="M24.667 42H40.667M32.667 34V42M22.267 34H43.067C46.4273 34 48.1075 34 49.3909 33.346C50.5199 32.7708 51.4378 31.8529 52.013 30.7239C52.667 29.4405 52.667 27.7603 52.667 24.4V15.6C52.667 12.2397 52.667 10.5595 52.013 9.27606C51.4378 8.14708 50.5199 7.2292 49.3909 6.65396C48.1075 6 46.4273 6 43.067 6H22.267C18.9067 6 17.2265 6 15.943 6.65396C14.8141 7.2292 13.8962 8.14708 13.321 9.27606C12.667 10.5595 12.667 12.2397 12.667 15.6V24.4C12.667 27.7603 12.667 29.4405 13.321 30.7239C13.8962 31.8529 14.8141 32.7708 15.943 33.346C17.2265 34 18.9067 34 22.267 34Z" stroke="url(#paint1_linear_2008_37180)" stroke-width="2" stroke-linecap="round" stroke-linejoin="round"/>
<g clip-path="url(#clip0_2008_37180)">
<path d="M4.66699 29.5998C4.66699 26.2394 4.66699 24.5593 5.32095 23.2758C5.89619 22.1468 6.81408 21.229 7.94305 20.6537C9.22652 19.9998 10.9067 19.9998 14.267 19.9998H35.067C38.4273 19.9998 40.1075 19.9998 41.3909 20.6537C42.5199 21.229 43.4378 22.1468 44.013 23.2758C44.667 24.5593 44.667 26.2394 44.667 29.5998V38.3998C44.667 41.7601 44.667 43.4402 44.013 44.7237C43.4378 45.8527 42.5199 46.7706 41.3909 47.3458C40.1075 47.9998 38.4273 47.9998 35.067 47.9998H14.267C10.9067 47.9998 9.22652 47.9998 7.94305 47.3458C6.81408 46.7706 5.89619 45.8527 5.32095 44.7237C4.66699 43.4402 4.66699 41.7601 4.66699 38.3998V29.5998Z" fill="url(#paint2_linear_2008_37180)"/>
<path d="M16.667 55.9998H32.667M24.667 47.9998V55.9998M14.267 47.9998H35.067C38.4273 47.9998 40.1075 47.9998 41.3909 47.3458C42.5199 46.7706 43.4378 45.8527 44.013 44.7237C44.667 43.4402 44.667 41.7601 44.667 38.3998V29.5998C44.667 26.2394 44.667 24.5593 44.013 23.2758C43.4378 22.1468 42.5199 21.229 41.3909 20.6537C40.1075 19.9998 38.4273 19.9998 35.067 19.9998H14.267C10.9067 19.9998 9.22652 19.9998 7.94305 20.6537C6.81408 21.229 5.89619 22.1468 5.32095 23.2758C4.66699 24.5593 4.66699 26.2394 4.66699 29.5998V38.3998C4.66699 41.7601 4.66699 43.4402 5.32095 44.7237C5.89619 45.8527 6.81408 46.7706 7.94305 47.3458C9.22652 47.9998 10.9067 47.9998 14.267 47.9998Z" stroke="url(#paint3_linear_2008_37180)" stroke-width="0.68" stroke-linecap="round" stroke-linejoin="round"/>
</g>
</g>
<defs>
<linearGradient id="paint0_linear_2008_37180" x1="52.667" y1="24" x2="12.667" y2="24" gradientUnits="userSpaceOnUse">
<stop stop-color="#D189FF"/>
<stop offset="1" stop-color="#9F37E2"/>
</linearGradient>
<linearGradient id="paint1_linear_2008_37180" x1="52.667" y1="24" x2="12.667" y2="24" gradientUnits="userSpaceOnUse">
<stop stop-color="#D189FF"/>
<stop offset="1" stop-color="#9F37E2"/>
</linearGradient>
<linearGradient id="paint2_linear_2008_37180" x1="24.667" y1="19.9998" x2="24.667" y2="55.9998" gradientUnits="userSpaceOnUse">
<stop stop-color="#F3E9FB"/>
<stop offset="1" stop-color="#D9B2F3"/>
</linearGradient>
<linearGradient id="paint3_linear_2008_37180" x1="43.667" y1="20.751" x2="4.66699" y2="37.9998" gradientUnits="userSpaceOnUse">
<stop stop-color="white"/>
<stop offset="0.84654" stop-color="#CA7DFB"/>
<stop offset="1" stop-color="#9F37E2"/>
</linearGradient>
<clipPath id="clip0_2008_37180">
<rect width="48" height="44.1291" fill="white" transform="translate(0.666992 12.8708)"/>
</clipPath>
</defs>
</svg>
