<svg width="117" height="26" viewBox="0 0 117 26" fill="none" xmlns="http://www.w3.org/2000/svg">
<g clip-path="url(#clip0_2008_34485)">
<mask id="mask0_2008_34485" style="mask-type:luminance" maskUnits="userSpaceOnUse" x="0" y="0" width="117" height="26">
<path d="M116.532 0.563477H0.203125V25.501H116.532V0.563477Z" fill="white"/>
</mask>
<g mask="url(#mask0_2008_34485)">
<path d="M30.7211 1.44824H29.1836V7.43023H30.7211V1.44824Z" fill="#5EC5EE"/>
<path d="M30.7211 7.43018H29.1836V13.4121H30.7211V7.43018Z" fill="#2588C3"/>
<path d="M30.7211 13.4121H29.1836V19.3941H30.7211V13.4121Z" fill="#045D89"/>
<path d="M30.7211 19.394H29.1836V25.376H30.7211V19.394Z" fill="#E3EBF1"/>
<path d="M13.916 12.6552C13.9102 12.6494 13.772 12.5044 13.5331 12.5044C13.4064 12.5044 13.2768 12.545 13.1472 12.6204C13.1242 12.632 13.1098 12.6581 13.1155 12.6843C13.1155 12.6901 13.2106 13.3398 13.1386 13.6184C13.0839 13.8273 12.9082 14.0739 12.5886 14.0739C12.5195 14.0739 12.4504 14.0622 12.3756 14.0419H12.3727L12.6146 13.8766C12.6318 13.8649 12.6433 13.8447 12.6433 13.8215C12.6433 13.7982 12.6318 13.7808 12.6146 13.7663L12.1337 13.4327C12.2863 13.3167 12.3813 13.2354 12.3928 13.2238C12.4073 13.2123 12.4159 13.1948 12.4159 13.1774C12.4159 13.16 12.4101 13.1426 12.3957 13.1281L12.3093 13.0411C12.2978 13.0295 12.2806 13.0208 12.2633 13.0208C12.2489 13.0208 12.2345 13.0266 12.223 13.0353C12.2172 13.0382 12.0905 13.1368 11.8976 13.2702L11.7047 13.1368L12.4591 12.6146L12.5166 12.7655C12.5253 12.7887 12.5483 12.8061 12.5742 12.8061C12.5742 12.8061 12.5742 12.8061 12.5771 12.8061C12.6001 12.8061 12.6232 12.7916 12.6347 12.7713L12.9946 12.104C13.0062 12.0808 13.0033 12.0547 12.9917 12.0344C12.9802 12.017 12.9601 12.0054 12.9371 12.0054C12.9342 12.0054 12.9313 12.0054 12.9284 12.0054L12.1855 12.1185C12.1596 12.1214 12.1394 12.1388 12.1308 12.165C12.1251 12.1882 12.1308 12.2142 12.151 12.2317L12.2719 12.339L11.4138 12.9337L10.5587 12.339L10.6796 12.2317C10.6969 12.2142 10.7056 12.1882 10.6969 12.165C10.6911 12.1388 10.671 12.1214 10.6451 12.1185L9.90218 12.0054C9.89931 12.0054 9.89643 12.0054 9.89355 12.0054C9.87054 12.0054 9.8504 12.0141 9.83884 12.0344C9.82445 12.0547 9.82445 12.0808 9.83596 12.104L10.193 12.7713C10.2045 12.7916 10.2276 12.8061 10.2506 12.8061C10.2535 12.8061 10.2535 12.8061 10.2535 12.8061C10.2794 12.8061 10.2995 12.7887 10.3111 12.7655L10.3716 12.6146L11.1259 13.1368L10.933 13.2702C10.7401 13.1368 10.6134 13.0382 10.6105 13.0353C10.599 13.0266 10.5846 13.0208 10.5702 13.0208C10.5529 13.0208 10.5357 13.0266 10.5242 13.0411L10.4378 13.1281C10.4262 13.1397 10.4176 13.1571 10.4176 13.1774C10.4176 13.1948 10.4262 13.2123 10.4407 13.2238C10.4551 13.2354 10.55 13.3167 10.7027 13.4327L10.2218 13.7663C10.2045 13.7779 10.193 13.7982 10.193 13.8215C10.193 13.8447 10.2045 13.862 10.2218 13.8766L10.4637 14.0419C10.4637 14.0419 10.4637 14.0419 10.4608 14.0419C10.386 14.0622 10.3168 14.0739 10.2477 14.0739C9.92813 14.0739 9.7496 13.8273 9.69488 13.6184C9.6229 13.3398 9.71795 12.6901 9.71795 12.6843C9.72083 12.6581 9.70926 12.632 9.68625 12.6204C9.5538 12.545 9.42423 12.5044 9.30041 12.5044C9.05858 12.5044 8.92032 12.6465 8.91457 12.6552C8.90306 12.6639 8.89731 12.6814 8.89731 12.693C8.89443 12.7335 8.81957 13.6706 9.2515 14.1464C9.40984 14.3204 9.62002 14.4104 9.87054 14.4104C9.91375 14.4104 9.96266 14.4104 10.0087 14.4017C10.2535 14.3726 10.4925 14.3059 10.7257 14.2247L11.1259 14.4974L10.242 15.1008C10.2247 15.1153 10.2132 15.1328 10.2132 15.1559C10.2132 15.1762 10.2218 15.1966 10.242 15.2111L11.1288 15.829L10.3716 16.357L10.314 16.209C10.3053 16.1858 10.2823 16.1713 10.2564 16.1684C10.2564 16.1684 10.2564 16.1684 10.2535 16.1684C10.2304 16.1684 10.2074 16.1829 10.1959 16.2032L9.83884 16.8705C9.82733 16.8908 9.83021 16.9198 9.84171 16.9372C9.85328 16.9546 9.87342 16.9662 9.89643 16.9662C9.89931 16.9662 9.90218 16.9662 9.90506 16.9662L10.648 16.856C10.6739 16.8531 10.694 16.8327 10.6998 16.8096C10.7084 16.7834 10.6998 16.7573 10.6825 16.7399L10.5587 16.6297L11.4167 16.0321L12.2748 16.6297L12.151 16.7399C12.1308 16.7573 12.1251 16.7834 12.1308 16.8096C12.1366 16.8327 12.1596 16.8501 12.1855 16.856L12.9284 16.9662C12.9313 16.9662 12.9342 16.9662 12.9371 16.9662C12.9572 16.9662 12.9773 16.9575 12.9917 16.9372C13.0062 16.9169 13.0062 16.8908 12.9946 16.8705L12.6347 16.2032C12.6232 16.1829 12.603 16.1684 12.5771 16.1684H12.5742C12.5455 16.1684 12.5253 16.1858 12.5166 16.209L12.4591 16.357L11.7018 15.829L12.5886 15.2111C12.6059 15.1995 12.6174 15.1791 12.6174 15.1559C12.6174 15.1328 12.6059 15.1153 12.5886 15.1008L11.7047 14.4974L12.1049 14.2247C12.3352 14.3088 12.5742 14.3726 12.819 14.4017C12.868 14.4075 12.914 14.4104 12.9572 14.4104C13.2106 14.4104 13.4179 14.3204 13.5762 14.1464C14.0082 13.6706 13.9333 12.7335 13.9304 12.693C13.9304 12.6814 13.9247 12.6668 13.916 12.6552ZM11.411 13.3457L11.601 13.4763C11.5405 13.5139 11.4772 13.5546 11.411 13.5952C11.3447 13.5546 11.2814 13.5168 11.2209 13.4763L11.411 13.3457ZM10.72 13.8244L10.982 13.6416C11.0338 13.6735 11.0856 13.7083 11.1432 13.746C11.0396 13.8011 10.9359 13.8534 10.8323 13.9027L10.72 13.8244ZM12.0877 15.1559L11.411 15.6259L10.7372 15.1559L11.411 14.6947L12.0877 15.1559ZM11.411 14.2972L11.0856 14.0739C11.2008 14.0187 11.3073 13.9636 11.411 13.9056C11.5146 13.9636 11.6241 14.0187 11.7392 14.0739L11.411 14.2972ZM11.9926 13.9027C11.889 13.8562 11.7824 13.804 11.6787 13.746C11.7363 13.7112 11.7882 13.6764 11.84 13.6416L12.1049 13.8244L11.9926 13.9027Z" fill="#706F6F"/>
<path d="M14.1484 13.2064C14.1743 13.1542 14.1858 13.0555 14.1858 13.0555L14.1484 13.0439V13.2064Z" fill="#706F6F"/>
<path d="M22.653 10.8825C22.3766 10.7143 21.9187 10.6563 21.4523 10.6998C22.1808 10.4445 22.6789 9.89911 22.7048 9.4117C22.3247 9.30149 21.9303 9.35946 21.5876 9.43784C21.9418 9.17094 22.5234 8.68353 22.4514 7.96696C22.1088 7.88284 21.4811 8.12365 21.2191 8.2426C22.0598 7.76679 22.3622 6.64117 21.9159 6.00298C21.651 6.15961 20.4503 7.39548 20.2545 7.53763C20.8765 6.82106 21.1673 6.30755 21.3342 5.826C21.5329 5.30091 21.5473 4.38417 20.9024 4.07666C20.5971 4.77872 19.5318 6.58025 18.9387 7.32876C18.8725 7.27073 18.8206 7.19241 18.7371 7.17786C18.5961 7.63334 18.1756 8.23971 17.7927 8.52979C17.7725 8.49205 17.7351 8.38765 17.6689 8.27449C17.2629 8.8866 16.2091 9.72502 15.8693 10.2414C15.6044 10.6244 15.6044 10.9696 15.973 11.3264C16.1227 11.4772 16.4049 11.7412 16.1602 12.1126C15.8262 12.6028 15.1553 12.6609 14.7925 12.3708C14.7925 12.2838 14.7896 12.1996 14.7867 12.1213C15.2157 11.9531 15.3165 11.3641 14.9998 10.9986C14.9307 11.132 14.8156 11.2307 14.6774 11.28C14.6399 11.1262 14.6082 11.0537 14.6053 11.045L14.5881 11.0102H14.5507C14.5478 11.0102 14.4066 11.0015 14.1965 10.9783C14.4355 10.9 14.5881 10.6766 14.5535 10.3778C14.185 10.6969 13.8164 10.3923 13.7329 10.3081C13.5026 10.0355 13.4364 9.72792 13.5285 9.25796C13.6063 8.84892 14.0266 8.19907 14.303 7.9902C14.3434 8.02788 14.4066 8.10626 14.542 8.09461C14.6198 8.06852 14.7493 8.0018 14.8472 7.96406C15.1265 7.87994 15.3971 7.94377 15.5699 8.05693C15.8866 8.2513 15.8578 8.46597 15.8492 8.6226C16.33 8.34991 16.1631 7.89444 15.5325 7.7262C15.9644 7.7262 16.3185 8.12365 16.4107 8.17298C16.6497 8.34991 16.9923 8.30933 17.191 8.21356C17.5739 8.03078 17.6517 7.57531 17.548 7.4825C17.5106 7.64499 17.3868 7.79003 17.165 7.81612C16.8368 7.85385 16.5201 7.71171 16.2696 7.59855C16.0565 7.50858 15.7139 7.44186 15.4806 7.45641C15.9126 7.2156 16.5834 7.24169 16.8224 7.61305C16.9663 7.49699 17.0556 7.39258 17.0959 7.15178C17.2197 6.50193 16.7159 6.16831 16.1775 6.16831C16.1918 6.01167 16.0824 5.93335 15.9384 5.98553C15.9384 5.91883 15.9212 5.86661 15.8837 5.8405C15.8953 5.8405 15.9126 5.8347 15.9241 5.8347C16.4654 5.79698 16.9779 5.62873 17.2543 5.33572C17.738 4.81353 16.9663 4.15209 17.2428 3.6386C17.5077 3.75464 17.7034 3.9055 18.0691 3.95772C18.1065 4.03605 18.1411 4.1927 18.1526 4.27683C18.2707 4.85705 17.7034 4.95278 17.8503 5.5707C17.9137 5.85211 18.1239 5.94785 18.193 6.28147C18.193 6.28147 18.2189 6.51352 18.0173 6.71665C18.4838 6.72824 18.7285 6.3308 18.5846 5.96234C18.5212 5.81149 18.3599 5.66934 18.3599 5.49237C18.5989 5.81149 18.812 5.79989 19.1805 5.68094C19.3475 5.62873 19.3619 5.86371 19.2583 6.05231C19.5116 5.90142 19.575 5.65484 19.575 5.54459C19.575 5.2835 19.3734 5.16166 19.1805 5.21387C19.0711 5.22548 18.8523 5.37633 18.8379 5.16166C18.7919 4.79032 19.3734 4.80483 19.2554 4.2072C19.1921 3.9084 18.861 3.74304 18.3456 3.67922C18.2937 3.627 18.1641 3.50225 18.095 3.39781C17.8129 2.92494 17.5192 2.80019 17.3435 2.89593C17.1362 3.00036 17.0297 3.0903 16.8598 3.18313C16.7245 3.25566 16.5806 3.29338 16.4913 3.39781C16.2667 3.67922 16.4798 4.11437 16.5949 4.38127C16.6727 4.53793 16.8598 4.89476 16.7764 5.16166C16.6842 5.48077 16.1631 5.68095 15.8463 5.74767C15.8262 5.74767 15.8118 5.75347 15.7916 5.75347V5.62873C15.8837 5.46626 15.9615 5.27189 16.0249 5.09493C16.2379 4.52052 15.9212 4.28844 15.4519 4.1782C15.3914 4.14048 15.328 4.12598 15.2503 4.15209H15.2359L15.2244 4.24782L15.1611 4.22752L15.1755 4.11147H15.1466C15.2013 4.07376 15.2244 4.00703 15.2244 3.94321C15.2244 3.87358 15.1985 3.81847 15.1726 3.78075H15.2359L15.21 3.75464C15.1985 3.72853 15.1726 3.70242 15.1322 3.66181C15.1207 3.6502 15.1064 3.62409 15.1064 3.60959C15.1179 3.62119 15.1322 3.6357 15.1582 3.6473C15.1841 3.67341 15.2215 3.69952 15.2359 3.72563L15.2733 3.75174V3.22665L15.2359 3.25856C15.2244 3.27016 15.1841 3.29627 15.1582 3.32528C15.1322 3.35139 15.1207 3.35139 15.1064 3.363C15.1064 3.35139 15.1179 3.33689 15.1322 3.31078C15.1726 3.28467 15.1985 3.24696 15.21 3.22665L15.2359 3.18603H14.7061L14.732 3.22665C14.758 3.24405 14.7896 3.28467 14.8156 3.31078C14.8271 3.33689 14.8415 3.35139 14.853 3.363C14.8386 3.35139 14.8156 3.35139 14.8011 3.32528C14.7551 3.29917 14.732 3.27306 14.7061 3.25856L14.686 3.22665V3.76044L14.7119 3.73433C14.7378 3.70822 14.7637 3.68211 14.8069 3.656C14.8213 3.6444 14.8443 3.62989 14.8587 3.61829C14.8443 3.62989 14.8328 3.656 14.8213 3.67051C14.7954 3.71113 14.7608 3.73433 14.7378 3.76334L14.7119 3.78945H14.7954C14.7493 3.82717 14.7378 3.88229 14.7378 3.95191C14.7378 4.01574 14.7637 4.08246 14.8069 4.12017H14.7954L14.8069 4.23622L14.7378 4.25653L14.7234 4.16079H14.7119C14.6341 4.13468 14.5708 4.14919 14.519 4.1869C14.041 4.29714 13.7243 4.53213 13.9374 5.10363C14.0035 5.2806 14.0813 5.47497 14.1763 5.63743V5.72156C13.6984 5.56491 12.8375 5.03691 12.6071 4.7178C12.5812 4.68588 12.561 4.65977 12.5495 4.63947H12.5467L12.5553 4.29424C12.7223 4.01284 12.872 3.66761 12.9872 3.35139C13.2895 2.52459 12.8432 2.17936 12.1349 2.03722C12.063 1.985 11.9737 1.95889 11.8556 1.9995L11.8297 2.13005L11.68 2.11844L11.6915 1.95018C11.6714 1.95599 11.6454 1.95599 11.6195 1.95599C11.7203 1.90377 11.7923 1.77902 11.7923 1.65138C11.7923 1.55854 11.7462 1.4483 11.6685 1.39608H11.7923C11.7203 1.33225 11.6051 1.19591 11.5821 1.10307C11.6714 1.12918 11.8067 1.25103 11.87 1.31775V0.641805C11.8067 0.694024 11.6714 0.824572 11.5821 0.836176C11.6051 0.760749 11.7203 0.630201 11.7923 0.563477H11.1214C11.1732 0.630201 11.3028 0.760749 11.3143 0.836176C11.2366 0.824572 11.107 0.694024 11.035 0.641805V1.31775C11.107 1.25103 11.2337 1.12918 11.3143 1.10307C11.3028 1.193 11.1732 1.32936 11.1214 1.39608H11.2366C11.1588 1.4483 11.1214 1.55854 11.1214 1.65138C11.1214 1.77902 11.1848 1.90667 11.2884 1.95599C11.2625 1.95599 11.2366 1.95599 11.1963 1.94438L11.2107 2.11264L11.0609 2.12425L11.0466 1.9937C10.9314 1.95599 10.8421 1.9821 10.7643 2.03141C10.0618 2.17647 9.61552 2.51879 9.91787 3.34559C10.0215 3.66181 10.1713 4.00994 10.3497 4.28844V4.64527C10.3382 4.65687 10.3238 4.68298 10.2979 4.70909C10.0733 5.0282 9.20666 5.5562 8.7287 5.71286V5.62873C8.82375 5.46626 8.90436 5.27189 8.96771 5.09493C9.18077 4.52052 8.86403 4.28844 8.38607 4.1782C8.33135 4.14048 8.27088 4.12598 8.19315 4.15209H8.18164L8.16726 4.24782L8.10391 4.22752L8.11542 4.11147H8.10391C8.14131 4.07376 8.16726 4.00703 8.16726 3.94321C8.16726 3.87358 8.15575 3.81847 8.11542 3.78075H8.19315L8.16726 3.75464C8.14131 3.72853 8.11542 3.70242 8.08953 3.66181C8.07796 3.6502 8.05783 3.62409 8.04344 3.60959C8.05783 3.62119 8.08953 3.6357 8.10103 3.6473C8.13843 3.67341 8.16438 3.69952 8.19315 3.72563L8.2191 3.75174V3.22665L8.19315 3.25856C8.16726 3.27016 8.14131 3.29627 8.10103 3.32528C8.08953 3.35139 8.05783 3.35139 8.04344 3.363C8.05783 3.35139 8.07509 3.33689 8.08953 3.31078C8.11542 3.28467 8.14131 3.24696 8.16726 3.22665L8.19315 3.18603H7.66335L7.6893 3.22665C7.70081 3.24405 7.73533 3.28467 7.76128 3.31078C7.78717 3.33689 7.79868 3.35139 7.79868 3.363C7.79005 3.34849 7.77567 3.34849 7.75265 3.32238C7.72095 3.29627 7.68067 3.27016 7.66911 3.25566L7.62883 3.22375V3.75754L7.66911 3.73144C7.68067 3.70533 7.72095 3.67922 7.75265 3.65311C7.77854 3.6415 7.79005 3.627 7.80156 3.61539C7.80156 3.627 7.79005 3.65311 7.76416 3.66761C7.73821 3.70822 7.70369 3.73144 7.69218 3.76044L7.66623 3.78655H7.73533C7.70369 3.82427 7.67486 3.87939 7.67486 3.94902C7.67486 4.01284 7.70081 4.07956 7.76128 4.11727H7.73533L7.74977 4.23331L7.67779 4.25362L7.66623 4.15789H7.65185C7.57411 4.13178 7.51077 4.14628 7.45893 4.184C6.98097 4.29424 6.66423 4.52922 6.87735 5.10073C6.94357 5.2777 7.0213 5.47207 7.1163 5.63453V5.75927C7.09616 5.75927 7.0789 5.75347 7.06446 5.75347C6.74777 5.68675 6.21798 5.48658 6.12874 5.16746C6.04519 4.90056 6.23236 4.54373 6.31009 4.38707C6.43391 4.12017 6.64122 3.68502 6.4224 3.40361C6.32448 3.29917 6.1834 3.26146 6.04519 3.18894C5.87822 3.099 5.77454 3.00617 5.56148 2.90173C5.39161 2.806 5.10368 2.92784 4.80999 3.40361C4.74665 3.50805 4.61132 3.62989 4.55662 3.68502C4.04698 3.74884 3.71874 3.9113 3.64676 4.21301C3.52871 4.81063 4.11033 4.79902 4.07289 5.16746C4.0585 5.38214 3.83391 5.23128 3.73026 5.21968C3.52871 5.16746 3.33004 5.2893 3.33004 5.5504C3.33004 5.66064 3.40202 5.90723 3.64676 6.05811C3.5431 5.86951 3.55462 5.63453 3.73026 5.68675C4.09881 5.80569 4.30324 5.8173 4.5451 5.49818C4.5451 5.67224 4.38962 5.81729 4.32052 5.96814C4.17655 6.33949 4.41553 6.73404 4.88773 6.72245C4.67466 6.51938 4.71786 6.28726 4.71786 6.28726C4.78408 5.95364 4.99139 5.85791 5.06049 5.57651C5.20446 4.95858 4.63435 4.86284 4.75817 4.28264C4.76968 4.1985 4.79559 4.04185 4.83591 3.96352C5.20446 3.9113 5.40601 3.76334 5.66229 3.6444C5.92718 4.15789 5.16415 4.81933 5.65072 5.34152C5.93006 5.63453 6.44542 5.80279 6.98097 5.8405C6.99248 5.8405 7.00979 5.84631 7.02418 5.8492C6.98672 5.87531 6.96658 5.92464 6.96658 5.99138C6.8255 5.93915 6.71607 6.01747 6.73626 6.17411C6.18052 6.17411 5.69106 6.50773 5.812 7.15757C5.8494 7.39838 5.94157 7.50279 6.09128 7.61884C6.32448 7.24754 6.99535 7.2214 7.43303 7.46221C7.19403 7.44771 6.8514 7.51444 6.64122 7.60435C6.39358 7.71461 6.07977 7.85965 5.75153 7.82191C5.52406 7.79583 5.40888 7.65368 5.36282 7.4883C5.25916 7.58116 5.33691 8.03368 5.72276 8.21936C5.91562 8.31513 6.25825 8.35571 6.49726 8.17878C6.58938 8.12655 6.94357 7.732 7.37832 7.732C6.75065 7.90023 6.57499 8.35571 7.06733 8.6284C7.04719 8.47176 7.02418 8.2571 7.33799 8.06272C7.51364 7.95246 7.79005 7.88574 8.06358 7.96986C8.15863 8.00759 8.2882 8.07432 8.36593 8.1004C8.50126 8.11205 8.56461 8.03368 8.60488 7.996C8.88417 8.20487 9.29015 8.85471 9.37944 9.26375C9.47731 9.73372 9.40533 10.0384 9.17214 10.3139C9.0944 10.3981 8.72007 10.7027 8.35443 10.3836C8.31985 10.6823 8.47243 10.9029 8.71144 10.9841C8.49838 11.0073 8.35443 11.016 8.35155 11.016H8.31409L8.29971 11.0508C8.29683 11.0566 8.26513 11.132 8.22485 11.2829C8.0924 11.2307 7.97722 11.1349 7.90811 11.0015C7.59138 11.367 7.6893 11.9531 8.11542 12.1213C8.11254 12.2025 8.10967 12.2867 8.10967 12.3766C7.74402 12.6609 7.08177 12.6 6.75353 12.1126C6.50014 11.7412 6.79093 11.4743 6.93494 11.3264C7.30346 10.9696 7.30346 10.6244 7.03569 10.2414C6.69306 9.72792 5.64209 8.8866 5.23613 8.27449C5.16991 8.38475 5.13247 8.48915 5.11808 8.52979C4.73801 8.23971 4.31187 7.63334 4.17079 7.17786C4.09305 7.18951 4.03546 7.27073 3.96924 7.32876C3.38186 6.58025 2.31077 4.77872 2.00844 4.07666C1.36924 4.38417 1.38076 5.30091 1.57655 5.826C1.74931 6.30755 2.04011 6.82106 2.6534 7.53763C2.46049 7.39258 1.25982 6.15961 0.994932 6.00298C0.55152 6.64117 0.853846 7.76679 1.69172 8.2426C1.43546 8.12365 0.802017 7.88284 0.459382 7.96696C0.396038 8.68353 0.969017 9.17094 1.32317 9.43784C0.977653 9.35946 0.583194 9.30149 0.203125 9.4117C0.229039 9.89911 0.732915 10.4474 1.44122 10.6998C0.989172 10.6534 0.531365 10.7143 0.252073 10.8825C0.3039 11.3902 0.874001 11.8283 1.55639 11.9327C1.09858 11.9849 0.692605 12.188 0.479537 12.4665C0.730033 12.7972 1.09858 13.0525 1.66005 13.0409C1.53048 13.0874 1.38076 13.1773 1.25407 13.2991C1.23967 13.2875 1.21376 13.273 1.19072 13.273C1.16193 13.2846 1.15329 13.3252 1.16193 13.3514C1.16193 13.3514 1.16193 13.3514 1.16193 13.3717C1.10723 13.4094 1.07843 13.4558 1.07267 13.5022C1.02085 13.5776 0.96614 13.6646 0.937343 13.743C0.951739 13.7488 0.963258 13.7633 0.974777 13.7691C0.971894 13.8097 0.983413 13.859 1.01509 13.9083C0.989172 13.9345 0.977653 13.9722 0.963258 14.0128L0.635017 13.8794C0.617744 14.181 0.683969 14.4276 0.833691 14.5814C0.951739 14.7177 1.08707 14.6974 1.04676 14.7439L1.40379 14.9643C1.46713 15.1007 1.5967 15.1007 1.68596 15.063C1.68596 15.063 1.68596 15.0746 1.68596 15.0891C1.68596 15.2312 1.78386 15.3473 1.91055 15.3937C1.88463 15.5126 1.93646 15.588 2.0977 15.6432L3.43945 18.9214C3.38762 19.078 3.43945 19.2144 3.5575 19.2666C3.52871 19.3043 3.50568 19.3449 3.50568 19.4232C3.5575 19.3856 3.63524 19.3711 3.67268 19.4813C3.69858 19.5596 3.5575 19.812 3.77057 19.9832C3.74178 20.134 3.8224 20.2878 3.975 20.3545C3.975 20.4329 4.04698 20.6852 4.0585 20.7752C3.96348 20.9115 3.74178 21.1204 3.77057 21.3495C3.79648 21.512 3.85982 21.5643 3.9894 21.6048C3.93757 21.8979 4.09881 22.0284 4.34355 22.0429C4.34355 22.2576 4.54222 22.333 4.67179 22.3475C4.7956 22.4404 4.84742 22.4781 4.98851 22.5506C4.85894 22.7044 4.95108 22.9074 5.18718 22.9742C5.21309 23.0641 5.27932 23.1424 5.41177 23.1743C5.4895 23.3049 5.63058 23.3049 5.71407 23.2671C5.76591 23.2411 5.85808 23.0902 5.77742 22.9597C5.82926 22.8958 5.80337 22.7711 5.76591 22.6928C5.84364 22.5506 5.77742 22.3736 5.67092 22.3214C5.6853 22.2431 5.64497 22.1183 5.61908 22.0429C5.80624 21.924 6.03944 21.776 6.12293 21.7238C6.58074 21.3931 7.09903 21.0972 7.68643 21.0595C7.83614 21.045 8.11254 21.0334 8.26801 21.045C8.50701 21.0711 8.83526 21.1436 9.02818 20.9927C9.08859 20.955 9.12605 20.8883 9.11454 20.8244C9.08865 20.6736 8.92738 20.5431 8.87554 20.4096C8.86115 20.369 8.83814 20.3081 8.81219 20.253C8.97922 20.282 9.13468 20.2588 9.22973 20.2123C9.33335 20.1747 9.58387 19.9861 9.57236 19.7047C9.37081 19.8004 8.88704 19.9309 8.83526 19.4378C8.78342 19.0026 9.16351 18.6313 9.75947 18.7937C10.1655 18.8981 10.7586 19.7685 10.2173 20.1485C9.95239 20.3313 9.54641 20.5054 9.59825 20.9811C9.77104 20.7665 10.0042 20.662 10.3066 20.6881C9.86315 21.0188 9.52052 21.0595 9.05407 21.3119C8.64809 21.5526 8.34574 21.9501 8.02618 21.9617C7.78142 21.9733 7.64609 21.6803 7.8851 21.454C7.64609 21.4018 7.32935 21.5903 7.24011 21.8428C7.12493 22.188 7.21422 22.4346 7.42728 22.5738C7.13937 22.7305 6.92338 23.0351 7.02706 23.4702C7.12493 23.8271 7.47912 23.8271 7.34379 24.2826C7.54247 24.2303 7.67199 24.094 7.72958 23.8996C7.75553 23.7633 7.78142 23.6211 7.84764 23.5544C7.81887 23.8271 7.97434 24.2303 8.34574 24.4131C8.59625 24.5379 8.99072 24.5871 9.29308 24.271C9.41684 24.6278 9.83438 24.9353 10.2691 24.9207C10.4678 24.9207 10.6636 24.8337 10.8104 24.7467C10.9141 25.0107 11.179 25.2805 11.441 25.4082C11.7116 25.2805 11.9765 25.0107 12.086 24.7467C12.2299 24.8366 12.4286 24.9207 12.6215 24.9207C13.039 24.9324 13.4796 24.6278 13.5976 24.271C13.8999 24.5871 14.2944 24.5379 14.5449 24.4131C14.9134 24.2303 15.0689 23.8271 15.043 23.5544C15.1121 23.6211 15.138 23.7633 15.1668 23.8996C15.2187 24.094 15.3453 24.2303 15.5469 24.2826C15.4115 23.8271 15.7744 23.8271 15.8636 23.4702C15.9673 23.0351 15.7542 22.7276 15.4691 22.5738C15.6764 22.4375 15.7744 22.1909 15.6505 21.8428C15.5613 21.5903 15.2446 21.4018 15.0055 21.454C15.2446 21.6803 15.115 21.9733 14.8645 21.9617C14.5478 21.9501 14.2454 21.5497 13.8366 21.3119C13.373 21.0566 13.0304 21.0188 12.5841 20.6881C12.8864 20.662 13.1254 20.7665 13.2924 20.9811C13.3442 20.5054 12.9383 20.3313 12.6734 20.1485C12.1378 19.7685 12.7252 18.8981 13.1398 18.7937C13.7271 18.6313 14.1159 19.0026 14.0554 19.4378C13.992 19.9338 13.5198 19.8033 13.3068 19.7047C13.3068 19.9832 13.5573 20.1718 13.6609 20.2123C13.7819 20.2704 14.0065 20.3023 14.2051 20.2152C14.1993 20.2646 14.1907 20.3168 14.1907 20.3313C14.1504 20.7548 13.9258 20.7926 14.0035 20.9666C14.113 21.0972 14.8357 21.0711 15.0315 21.1117C15.3741 21.1581 15.6649 21.2857 15.9932 21.3525C16.3617 21.4308 16.7533 21.4308 17.0844 21.5672C17.2975 21.66 17.5365 21.8341 17.7438 21.9385C18.0605 21.9907 18.0087 22.1212 18.2102 22.1212C18.3916 22.1212 18.4607 21.9646 18.6939 21.9008C18.8552 21.863 19.0366 21.9269 19.1978 21.8746C19.3158 21.8485 19.3677 21.7267 19.4771 21.66C19.6067 21.5817 19.788 21.5817 19.909 21.4685C19.9723 21.4105 19.9867 21.3003 19.9752 21.2219L19.9781 21.2393C20.2257 21.0653 20.4129 20.81 20.5165 20.517C20.5799 20.5054 20.6317 20.4473 20.6317 20.3806C20.6317 20.369 20.6317 20.3545 20.6317 20.3545C20.6951 20.3023 20.7353 20.2239 20.7353 20.1456C20.7353 20.047 20.6979 19.9687 20.6317 19.9049C20.6317 19.9049 20.6317 19.8903 20.6317 19.8787C20.6317 19.8265 20.6058 19.7888 20.5799 19.754C20.4762 19.1883 20.0501 18.7328 19.5001 18.5907C19.5001 18.5762 19.5001 18.5762 19.5001 18.5645H19.4886C19.4886 18.5384 19.4771 18.5239 19.457 18.5239C19.3792 18.4456 19.2871 18.3238 19.2756 18.2455C19.3648 18.2715 19.5145 18.4137 19.5923 18.4717V17.7233C19.5145 17.7813 19.3677 17.9234 19.2756 17.9495C19.2871 17.8567 19.4282 17.6942 19.5001 17.6304H18.7458C18.8149 17.6942 18.9588 17.8567 18.9703 17.9495C18.8811 17.9234 18.7314 17.7813 18.6565 17.7233V18.4717C18.7343 18.4137 18.8811 18.2715 18.9703 18.2455C18.9588 18.3383 18.8149 18.5007 18.7458 18.5645L18.7717 18.5762C18.2102 18.7067 17.7582 19.1767 17.6545 19.754C17.6171 19.7859 17.5912 19.8265 17.5912 19.8787C17.5912 19.8903 17.5912 19.9049 17.5912 19.9049C17.525 19.9687 17.4875 20.047 17.4875 20.1456C17.4875 20.221 17.525 20.3023 17.5912 20.3545C17.5912 20.3545 17.5912 20.3661 17.5912 20.3806C17.5912 20.4647 17.643 20.5054 17.7063 20.517C17.7323 20.5895 17.7639 20.662 17.7985 20.7258C17.7985 20.72 17.7985 20.72 17.8071 20.7113C17.761 20.926 17.5019 21.0566 17.4444 21.0566C16.9837 21.1233 16.474 20.926 16.0104 20.7519C15.806 20.6736 15.5267 20.5837 15.3914 20.3806C15.3079 20.2327 15.2704 20.1398 15.3137 20.0093C15.3655 20.0731 15.449 20.1456 15.567 20.2094C15.5786 20.1456 15.5786 20.0731 15.6044 20.0209C15.7225 20.1978 15.9097 20.2878 16.1342 20.2762C15.9989 20.1601 15.9356 19.8526 15.9989 19.5857C16.1861 19.9049 16.8972 19.9687 17.0268 19.3972C16.7619 19.5219 16.5921 19.3856 16.5431 19.2405C16.4654 19.0113 16.7245 18.4572 16.4913 18.0307C16.3041 17.7117 16.091 17.5173 15.5958 17.4389C15.6333 17.378 15.6477 17.3258 15.6592 17.2358C15.2013 17.4041 14.8069 17.2736 14.6198 16.9051C14.7119 16.9429 14.8443 16.9574 14.9739 16.9574C14.5679 16.6237 14.5938 15.6809 14.8847 15.1935C14.9221 15.1674 14.9364 15.1413 14.9739 15.1297C15.0631 15.3124 15.328 15.3124 15.4634 15.4604C15.5152 15.4082 15.5411 15.3937 15.5929 15.3502C15.5929 15.3502 15.6044 16.1248 15.6563 16.4439C15.7081 16.8007 16.0508 16.763 16.2264 16.9197C16.4337 16.6905 16.808 16.7021 16.7504 16.3075C16.6986 15.913 16.6208 15.5533 16.6093 15.2864C16.7245 15.5272 16.952 16.4323 17.0413 16.6905C17.1881 17.0734 17.5566 16.9574 17.7639 17.1082C17.8992 16.8413 18.2419 16.763 18.1065 16.3597C18.0691 16.2553 17.5077 15.0659 17.4242 14.8367C17.6228 15.1297 18.167 16.177 18.334 16.47C18.5212 16.7746 18.8638 16.6266 19.1085 16.7021C19.1546 16.4816 19.4858 16.2263 19.2439 15.8433C18.9416 15.3357 18.2304 14.4508 18.193 14.3261C18.334 14.4624 19.4368 15.8433 19.5232 15.9188C19.7794 16.1451 20.1538 15.971 20.3754 15.971C20.3754 15.7186 20.5741 15.4314 20.2862 15.1384C20.0213 14.8831 19.4138 14.4479 19.2842 14.3C19.6902 14.5814 20.1681 15.0282 20.4532 15.1007C20.9571 15.2312 21.1384 15.0282 21.3256 14.9498C21.1701 14.4886 21.3774 14.2739 20.3121 13.8242C21.2335 14.1549 21.6423 13.9925 21.9706 13.7314C21.841 13.4006 21.5128 13.1221 21.245 13.0293C21.8093 13.0409 22.1836 12.7885 22.4284 12.4549C22.2211 12.1764 21.8093 11.9733 21.3371 11.9211C22.0339 11.8254 22.5896 11.3902 22.653 10.8825ZM1.27998 14.2913C1.26846 14.2913 1.26846 14.3029 1.25407 14.3174C1.17633 14.3058 1.17633 14.213 1.19072 14.1347C1.22815 14.1347 1.25407 14.123 1.27998 14.0969L1.2915 14.1114L1.25407 14.1376C1.26846 14.1868 1.26846 14.2391 1.27998 14.2913ZM1.53336 14.8367L1.40667 14.7613C1.4585 14.7003 1.50745 14.7003 1.55927 14.7352C1.55927 14.7729 1.55927 14.8106 1.53336 14.8367ZM1.91342 14.0244C1.89615 14.0244 1.87887 14.0244 1.8616 14.0244C1.85872 14.0215 1.85584 14.0157 1.85296 14.0128C1.876 14.007 1.90191 14.007 1.92207 14.0012C1.92207 14.007 1.91631 14.0157 1.91342 14.0244ZM9.23548 23.5282C8.91875 23.5282 8.69418 23.3281 8.8554 23.0467C8.93888 23.1743 9.10591 23.2324 9.24987 23.2469C9.23549 23.3803 9.23548 23.418 9.23548 23.5282ZM14.0525 23.0467C14.2138 23.3281 13.9892 23.5282 13.6725 23.5282C13.6725 23.418 13.6725 23.3803 13.6465 23.2469C13.7934 23.2353 13.9661 23.1801 14.0525 23.0467ZM9.22398 5.826C9.94664 5.66934 10.6837 5.26029 11.0149 4.91506C11.2884 4.93247 11.6425 4.93537 11.9103 4.91797C12.2357 5.26609 12.9613 5.66644 13.6869 5.82309C13.2665 5.82309 12.5323 5.78538 12.4401 5.68094C12.4661 5.94785 13.0275 6.24953 13.396 6.3308C13.0908 6.36848 12.8087 6.3308 12.5697 6.22054C12.6992 6.40912 12.849 6.55126 13.0937 6.63538C12.8375 6.9545 12.3077 7.16047 11.7837 7.11114C11.9132 7.26783 12.1522 7.36644 12.3595 7.33746C11.8873 8.09461 11.5389 8.87211 11.4554 9.77146H11.4525V9.77436C11.3748 8.87211 11.0264 8.09461 10.557 7.33746C10.7701 7.36354 11.0034 7.26783 11.1243 7.11114C10.5945 7.16337 10.0848 6.9545 9.81994 6.63538C10.0676 6.55126 10.2144 6.40912 10.344 6.22054C10.1108 6.3308 9.81994 6.36848 9.51764 6.3308C9.88617 6.24663 10.4534 5.94785 10.4793 5.68094C10.3786 5.78828 9.64434 5.826 9.22398 5.826ZM2.5987 13.83C2.53247 13.859 2.45185 13.8938 2.39139 13.9199C2.39139 13.9141 2.39139 13.9083 2.39139 13.9025C2.45473 13.8765 2.53535 13.8532 2.5987 13.83ZM7.24587 17.2387C7.26025 17.3287 7.27182 17.3809 7.30922 17.4418C6.81112 17.5202 6.60094 17.7146 6.41953 18.0336C6.16614 18.463 6.43103 19.0171 6.35906 19.2434C6.30722 19.3856 6.14312 19.5248 5.87822 19.4001C6.00779 19.9745 6.71607 19.9078 6.90324 19.5886C6.96658 19.8555 6.90324 20.1631 6.77366 20.2791C6.99535 20.2907 7.18252 20.2007 7.29771 20.0238C7.3236 20.076 7.3236 20.1485 7.33511 20.2123C7.45893 20.1485 7.53666 20.076 7.5885 20.0122C7.60869 20.076 7.63171 20.2268 7.60288 20.3487C7.50789 20.4125 7.40133 20.4734 7.23436 20.5605C6.96946 20.6911 6.48575 20.8796 6.20934 20.9173C5.98185 20.955 5.58738 20.8244 5.48663 20.5054C5.39449 20.2007 5.14399 20.1021 4.94532 20.2907C4.89349 20.253 4.75241 20.2239 4.69194 20.3197C4.69194 20.3197 4.6286 20.1747 4.55086 20.105C4.60269 19.9483 4.56238 19.7598 4.42129 19.6959C4.40977 19.3885 4.22262 19.3885 4.15639 19.284C4.11896 19.2202 4.11896 19.139 4.20822 19.1274C4.17079 19.0693 4.09017 19.0577 4.07865 19.0577C4.10457 18.9272 4.06426 18.7647 3.8915 18.7125L2.35972 15.5272C2.45761 15.4227 2.40578 15.2719 2.29637 15.2196C2.29637 15.2196 2.29637 15.208 2.29637 15.1935C2.30501 15.1674 2.30789 15.15 2.31077 15.1297C2.35108 15.1239 2.40291 15.1123 2.44609 15.1007C2.74842 15.0282 3.22062 14.5814 3.62948 14.3C3.48552 14.4508 2.89239 14.886 2.62749 15.1384C2.37987 15.385 2.48353 15.6316 2.52384 15.8549L2.58142 15.9797C2.80601 15.9942 3.14288 16.1306 3.39338 15.9217C3.47112 15.8433 4.57677 14.4624 4.72362 14.329C4.66603 14.4537 3.96924 15.3386 3.65252 15.8462C3.4193 16.2292 3.76193 16.4816 3.80224 16.705C4.05274 16.6266 4.39538 16.7775 4.57677 16.4729C4.75241 16.1799 5.28795 15.1326 5.48663 14.8396C5.40888 15.0688 4.84166 16.2582 4.80135 16.3626C4.66603 16.7659 5.00866 16.8442 5.14399 17.1111C5.3513 16.9603 5.72276 17.0792 5.86671 16.6934C5.95595 16.4352 6.1834 15.5301 6.30146 15.2893C6.28708 15.5562 6.20934 15.9159 6.1575 16.3104C6.10566 16.7079 6.47424 16.6934 6.66716 16.9226C6.85427 16.7659 7.19691 16.8036 7.24874 16.4468C7.30059 16.1277 7.31209 15.3531 7.31209 15.3531C7.36393 15.3995 7.38982 15.4111 7.44742 15.4633C7.57411 15.3124 7.84189 15.3124 7.93113 15.1326C7.97146 15.1442 7.98297 15.1703 8.0233 15.1964C8.31409 15.6838 8.33711 16.6266 7.93113 16.9603C8.04919 16.9603 8.19603 16.9458 8.28532 16.908C8.10679 17.2765 7.70656 17.407 7.24587 17.2387ZM10.1079 21.6948C9.86891 22.0255 9.68174 22.2663 9.52628 22.6783C9.24699 22.6521 9.30171 22.3069 9.39095 22.1328C9.57812 21.7876 10.3382 21.3379 10.7212 20.8883C10.5513 21.1755 10.3152 21.4366 10.1079 21.6948ZM10.9343 22.3069C10.7788 22.9161 10.6694 23.8155 10.7212 24.2187C10.1856 23.9373 10.4879 22.8523 10.6952 22.3852C10.9832 21.7354 11.1848 20.9405 11.251 20.4329C11.418 20.8186 11.0466 21.895 10.9343 22.3069ZM12.1868 24.2187C12.2386 23.8155 12.1349 22.9161 11.9737 22.3069C11.8614 21.895 11.4928 20.8186 11.657 20.4329C11.7203 20.9405 11.9219 21.7325 12.2127 22.3852C12.42 22.8523 12.7223 23.9373 12.1868 24.2187ZM13.517 22.1299C13.6091 22.3069 13.6609 22.6492 13.3816 22.6753C13.2262 22.2634 13.039 22.0255 12.8087 21.6919C12.5927 21.4366 12.3566 21.1726 12.1868 20.8854C12.5668 21.3379 13.3298 21.7847 13.517 22.1299ZM13.4507 17.4738C12.7511 18.8431 11.4698 19.957 11.4554 19.9425C11.441 19.9599 10.1597 18.8431 9.46005 17.4738C8.7604 16.1073 8.31122 13.9577 8.2882 12.9307C8.26225 11.9037 8.4638 11.4656 8.4638 11.4656C8.4638 11.4656 9.33911 11.4163 10.0388 11.1727C10.6319 10.9667 11.2769 10.4416 11.4583 10.2878C11.6397 10.4416 12.2846 10.9638 12.8807 11.1727C13.5774 11.4193 14.4527 11.4656 14.4527 11.4656C14.4527 11.4656 14.6514 11.9066 14.6255 12.9307C14.5967 13.9577 14.1476 16.1073 13.4507 17.4738Z" fill="#706F6F"/>
<path d="M37.418 14.2768C37.8585 14.1811 38.3394 14.1143 38.8605 14.0795C39.3817 14.0418 39.8914 14.0244 40.3981 14.0244C40.9336 14.0244 41.4779 14.0708 42.0278 14.1666C42.5807 14.2623 43.0816 14.4364 43.5337 14.6917C43.9858 14.947 44.3543 15.298 44.6451 15.7476C44.9331 16.1973 45.0799 16.7775 45.0799 17.4854C45.0799 18.1526 44.9474 18.7212 44.6855 19.1912C44.4235 19.6612 44.0721 20.047 43.6374 20.3429C43.2026 20.6388 42.7016 20.8564 42.1401 20.9927C41.5786 21.1291 40.997 21.1987 40.3981 21.1987C40.3347 21.1987 40.2369 21.1958 40.1073 21.19C39.9748 21.1842 39.8395 21.1784 39.6984 21.1755C39.5574 21.1697 39.4191 21.161 39.2896 21.1523C39.1571 21.1407 39.0621 21.132 38.9987 21.1204V25.2805H37.4237V14.2768H37.418ZM40.4442 15.4198C40.1591 15.4198 39.8856 15.4256 39.6178 15.4343C39.35 15.4459 39.1427 15.4721 38.9959 15.5126V19.7221C39.0477 19.7424 39.1341 19.7569 39.255 19.7627C39.3759 19.7685 39.5026 19.7743 39.6322 19.7859C39.7647 19.7975 39.8885 19.8004 40.0094 19.8004C40.1303 19.8004 40.2225 19.8004 40.2858 19.8004C40.663 19.8004 41.0373 19.7714 41.4059 19.7134C41.7744 19.6554 42.1055 19.5451 42.4079 19.3769C42.7073 19.2086 42.9492 18.9765 43.1335 18.6719C43.3178 18.3702 43.4099 17.9786 43.4099 17.497C43.4099 17.0792 43.3206 16.7369 43.1421 16.4642C42.9636 16.1944 42.7333 15.9798 42.4482 15.8231C42.166 15.6664 41.8464 15.5591 41.4951 15.501C41.141 15.4489 40.7897 15.4198 40.4442 15.4198Z" fill="#706F6F"/>
<path d="M45.4375 21.1205C45.4375 20.4329 45.5268 19.815 45.7053 19.2696C45.8838 18.7242 46.1458 18.26 46.4942 17.88C46.8398 17.5 47.263 17.207 47.764 17.0068C48.2621 16.8066 48.8323 16.7051 49.4744 16.7051C50.1453 16.7051 50.7355 16.8153 51.2394 17.0387C51.7433 17.2621 52.1637 17.5696 52.5006 17.967C52.8375 18.3645 53.0851 18.8286 53.2492 19.3653C53.4133 19.8991 53.4939 20.4852 53.4939 21.1205C53.4939 21.7964 53.4018 22.4057 53.2175 22.9452C53.0333 23.4848 52.7712 23.9461 52.4286 24.3262C52.0859 24.7062 51.6655 24.9992 51.1674 25.1994C50.6693 25.3995 50.1049 25.5011 49.4744 25.5011C48.7804 25.5011 48.1815 25.3908 47.6776 25.1675C47.1738 24.9441 46.7562 24.6395 46.4251 24.2478C46.094 23.8562 45.8464 23.392 45.6851 22.8582C45.5182 22.3244 45.4375 21.7442 45.4375 21.1205ZM47.0125 21.1205C47.0125 21.5122 47.0557 21.8951 47.145 22.2722C47.2343 22.6494 47.3753 22.983 47.574 23.2818C47.7727 23.5806 48.0261 23.8156 48.337 23.9954C48.648 24.1753 49.0309 24.2652 49.4888 24.2652C51.1069 24.2652 51.9161 23.2179 51.9161 21.1234C51.9161 20.7114 51.8729 20.314 51.7836 19.9311C51.6943 19.551 51.5561 19.2145 51.3632 18.9244C51.1703 18.6343 50.9198 18.3993 50.6088 18.2165C50.2978 18.0367 49.9235 17.9467 49.4888 17.9467C48.6797 17.9467 48.0663 18.2078 47.646 18.7329C47.2227 19.2522 47.0125 20.05 47.0125 21.1205Z" fill="#706F6F"/>
<path d="M61.433 24.7062C61.0646 24.9702 60.6352 25.1704 60.1401 25.3009C59.6449 25.4344 59.1265 25.5011 58.5794 25.5011C57.8856 25.5011 57.2953 25.3937 56.8056 25.182C56.3165 24.9702 55.9221 24.6743 55.6167 24.2943C55.3114 23.9142 55.0926 23.4529 54.9544 22.9134C54.8191 22.3738 54.75 21.7762 54.75 21.1205C54.75 19.7135 55.0898 18.6256 55.7666 17.8568C56.4432 17.0909 57.4192 16.7051 58.6889 16.7051C59.2449 16.7051 59.7285 16.7544 60.1401 16.8559C60.5489 16.9575 60.9174 17.0822 61.2427 17.2302L60.8687 18.4196C60.5866 18.2717 60.2812 18.1556 59.9531 18.0715C59.625 17.9873 59.2676 17.9438 58.882 17.9438C57.1802 17.9438 56.3309 19.0027 56.3309 21.1205C56.3309 21.5238 56.3768 21.9125 56.472 22.2867C56.5666 22.6639 56.7165 22.9975 56.9268 23.2876C57.137 23.5777 57.4103 23.8156 57.7473 23.9954C58.087 24.1753 58.5019 24.2652 58.9915 24.2652C59.4292 24.2652 59.8148 24.2043 60.1429 24.0824C60.4715 23.9607 60.7448 23.8156 60.9666 23.6473L61.433 24.7062Z" fill="#706F6F"/>
<path d="M68.7732 24.7062C68.4047 24.9702 67.9754 25.1704 67.4802 25.3009C66.985 25.4344 66.4666 25.5011 65.9195 25.5011C65.2257 25.5011 64.6354 25.3937 64.1457 25.182C63.6567 24.9702 63.2622 24.6743 62.9568 24.2943C62.6514 23.9142 62.4329 23.4529 62.2945 22.9134C62.159 22.3738 62.0898 21.7762 62.0898 21.1205C62.0898 19.7135 62.4301 18.6256 63.1067 17.8568C63.7834 17.0909 64.7593 16.7051 66.029 16.7051C66.585 16.7051 67.0686 16.7544 67.4802 16.8559C67.8891 16.9575 68.2575 17.0822 68.5828 17.2302L68.2088 18.4196C67.9267 18.2717 67.6213 18.1556 67.2932 18.0715C66.9646 17.9873 66.6077 17.9438 66.2221 17.9438C64.5203 17.9438 63.671 19.0027 63.671 21.1205C63.671 21.5238 63.717 21.9125 63.8121 22.2867C63.9067 22.6639 64.0567 22.9975 64.2669 23.2876C64.4744 23.5777 64.7504 23.8156 65.0901 23.9954C65.4304 24.1753 65.8448 24.2652 66.3344 24.2652C66.772 24.2652 67.1577 24.2043 67.4857 24.0824C67.8144 23.9607 68.0877 23.8156 68.3068 23.6473L68.7732 24.7062Z" fill="#706F6F"/>
<path d="M75.9579 20.5169L76.1792 18.8663H76.0066L75.2348 20.4212L71.3592 25.2805H70.2422V16.9429H71.6934V21.8631L71.5838 23.3252H71.7564L72.4823 21.9124L76.2799 16.9429H77.4146V25.2776H75.9634V20.5169H75.9579Z" fill="#706F6F"/>
<path d="M85.2743 20.5169L85.4961 18.8663H85.323L84.5517 20.4212L80.6762 25.2805H79.5586V16.9429H81.007V21.8631L80.8975 23.3252H81.0706L81.796 21.9124L85.5941 16.9429H86.7282V25.2776H85.277V20.5169H85.2743Z" fill="#706F6F"/>
<path d="M46.3169 4.87466L46.4867 3.23266H46.4032L45.7611 4.7325L42.6888 9.673H42.2656L39.0091 4.718L38.4015 3.23266H38.318L38.5541 4.85725V12.2202H37.2383V1.27734H38.2834L41.9806 6.87349L42.5363 8.09192H42.5708L43.0949 6.84155L46.622 1.27734H47.7191V12.2173H46.3169V4.87466Z" fill="#706F6F" stroke="#706F6F" stroke-width="0.377344" stroke-miterlimit="10"/>
<path d="M55.7196 7.59256L55.771 6.62358H55.7196L55.0284 7.6245L51.2306 12.2198H50.4531V4.4043H51.8035V9.17074L51.7517 10.0933H51.8179L52.4773 9.12431L56.275 4.4043H57.0667V12.2198H55.7168V7.59256H55.7196Z" fill="#706F6F" stroke="#706F6F" stroke-width="0.377344" stroke-miterlimit="10"/>
<path d="M64.8298 8.7646H61.0146V12.2198H59.6641V4.4043H61.0146V7.67088H64.8298V4.4043H66.1803V12.2198H64.8298V8.7646Z" fill="#706F6F" stroke="#706F6F" stroke-width="0.377344" stroke-miterlimit="10"/>
<path d="M76.3558 14.2041H75.443L75.1896 12.2198H68.7773V4.4043H70.1278V11.126H73.7904V4.4043H75.1409V11.126H76.3558V14.2041Z" fill="#706F6F" stroke="#706F6F" stroke-width="0.377344" stroke-miterlimit="10"/>
<path d="M83.2977 7.59256L83.3497 6.62358H83.2977L82.6067 7.6245L78.8086 12.2198H78.0312V4.4043H79.3817V9.17074L79.3297 10.0933H79.3989L80.0584 9.12431L83.8565 4.4043H84.6482V12.2198H83.2977V7.59256Z" fill="#706F6F" stroke="#706F6F" stroke-width="0.377344" stroke-miterlimit="10"/>
<path d="M91.0372 12.281C90.8441 12.3449 90.6454 12.3797 90.4385 12.3913C90.2311 12.4029 90.0407 12.4058 89.8742 12.4058C88.849 12.4058 88.0629 12.0722 87.5102 11.4049C86.9574 10.7377 86.6836 9.70784 86.6836 8.30953C86.6836 6.975 86.9862 5.97124 87.5965 5.29241C88.2039 4.61646 89.082 4.27704 90.2283 4.27704C90.542 4.27704 90.8125 4.29735 91.0372 4.34086V1.27734H92.3213V4.35536C92.5232 4.32346 92.7041 4.30315 92.8629 4.29154C93.0211 4.27994 93.1711 4.27704 93.3177 4.27704C94.4319 4.27704 95.2701 4.57585 95.8311 5.17636C96.3927 5.77688 96.6748 6.76903 96.6748 8.15284C96.6748 8.80849 96.6001 9.40031 96.4474 9.9254C96.2947 10.4505 96.0734 10.8973 95.7797 11.2628C95.4859 11.6283 95.129 11.9097 94.7086 12.107C94.2853 12.3043 93.7985 12.4029 93.2485 12.4029C93.1478 12.4029 92.9979 12.3942 92.802 12.3797C92.6062 12.3652 92.4452 12.3362 92.3213 12.2927V15.3417H91.0372V12.281ZM90.2106 11.3759C90.3461 11.3759 90.4817 11.3701 90.6167 11.3614C90.7522 11.3498 90.8988 11.3295 91.0543 11.2976V5.37364C90.9193 5.35333 90.7926 5.33592 90.6742 5.32722C90.5564 5.31561 90.4125 5.31272 90.2454 5.31272C89.5483 5.31272 89.0045 5.5535 88.6156 6.04086C88.2272 6.52538 88.0341 7.28253 88.0341 8.31533C88.0341 8.75336 88.0772 9.1595 88.1608 9.53375C88.2443 9.90801 88.3766 10.2358 88.558 10.5114C88.7367 10.787 88.9669 11.0017 89.2407 11.1525C89.514 11.3005 89.8394 11.3759 90.2106 11.3759ZM93.0615 5.30982C92.926 5.30982 92.8054 5.31272 92.6986 5.31852C92.5918 5.32432 92.4596 5.34753 92.3013 5.38814V11.3266C92.4137 11.3469 92.5403 11.3614 92.6814 11.3643C92.8225 11.3701 92.978 11.373 93.1451 11.373C93.8648 11.373 94.4087 11.0974 94.7744 10.5433C95.1401 9.99213 95.3243 9.19434 95.3243 8.15284C95.3243 7.26804 95.1578 6.57176 94.8264 6.06701C94.4955 5.56511 93.908 5.30982 93.0615 5.30982Z" fill="#706F6F" stroke="#706F6F" stroke-width="0.377344" stroke-miterlimit="10"/>
<path d="M98.7159 4.40439H99.6431L99.8965 5.34143H99.9629C100.222 4.9759 100.556 4.6974 100.968 4.50593C101.379 4.31446 101.848 4.21582 102.376 4.21582C103.502 4.21582 104.339 4.52333 104.889 5.13836C105.439 5.75338 105.716 6.76008 105.716 8.15548C105.716 8.81107 105.623 9.40289 105.436 9.92799C105.249 10.4531 104.99 10.8999 104.65 11.2654C104.313 11.6309 103.904 11.9123 103.426 12.1096C102.949 12.3069 102.416 12.4055 101.831 12.4055C101.414 12.4055 101.085 12.3823 100.844 12.3359C100.602 12.2895 100.34 12.2083 100.058 12.0922V15.3443H98.707V4.40439H98.7159ZM102.125 5.30952C101.552 5.30952 101.097 5.44877 100.766 5.72437C100.435 5.99997 100.202 6.4206 100.066 6.98344V10.8592C100.268 11.0043 100.498 11.1174 100.757 11.1957C101.016 11.2741 101.359 11.3118 101.788 11.3118C102.565 11.3118 103.182 11.0449 103.637 10.5082C104.092 9.97152 104.319 9.18243 104.319 8.14093C104.319 7.7145 104.279 7.32575 104.201 6.97764C104.123 6.62953 103.997 6.33069 103.821 6.08698C103.645 5.84332 103.421 5.65185 103.147 5.51549C102.871 5.37915 102.531 5.30952 102.125 5.30952Z" fill="#706F6F" stroke="#706F6F" stroke-width="0.377344" stroke-miterlimit="10"/>
<path d="M109.198 7.38949C109.469 7.34885 109.728 7.31987 109.975 7.30247C110.223 7.28793 110.459 7.27923 110.684 7.27923C111.257 7.27923 111.738 7.34016 112.126 7.45911C112.515 7.57807 112.826 7.7434 113.062 7.95227C113.298 8.16119 113.465 8.40774 113.56 8.69498C113.655 8.98217 113.704 9.2868 113.704 9.60877C113.704 10.5575 113.419 11.245 112.852 11.6715C112.285 12.0979 111.363 12.3126 110.093 12.3126C109.374 12.3126 108.625 12.2807 107.848 12.2198V4.4043H109.198V7.38949ZM109.198 11.126C109.613 11.1899 110.013 11.2189 110.395 11.2189C111.104 11.2189 111.599 11.0912 111.881 10.8359C112.164 10.5806 112.305 10.218 112.305 9.75097C112.305 9.33318 112.166 8.99086 111.89 8.71817C111.614 8.44838 111.133 8.31203 110.447 8.31203C110.254 8.31203 110.047 8.31783 109.823 8.32652C109.598 8.33812 109.391 8.36716 109.198 8.41939V11.126ZM115.037 4.4043H116.388V12.2198H115.037V4.4043Z" fill="#706F6F" stroke="#706F6F" stroke-width="0.377344" stroke-miterlimit="10"/>
</g>
</g>
<defs>
<clipPath id="clip0_2008_34485">
<rect width="117" height="26" fill="white"/>
</clipPath>
</defs>
</svg>
