<svg width="56" height="56" viewBox="0 0 56 56" fill="none" xmlns="http://www.w3.org/2000/svg">
<rect width="56" height="56" rx="12" fill="white"/>
<path d="M32.2429 21.7573C34.586 24.1005 34.586 27.8995 32.2429 30.2426M23.7576 30.2426C21.4144 27.8995 21.4144 24.1005 23.7576 21.7573M20.9289 33.0711C17.0237 29.1658 17.0237 22.8342 20.9289 18.929M35.0715 18.929C38.9768 22.8342 38.9768 29.1658 35.0715 33.0711M28.0002 28C29.1048 28 30.0002 27.1046 30.0002 26C30.0002 24.8954 29.1048 24 28.0002 24C26.8957 24 26.0002 24.8954 26.0002 26C26.0002 27.1046 26.8957 28 28.0002 28ZM28.0002 28V37" stroke="#946AD2" stroke-width="2" stroke-linecap="round" stroke-linejoin="round"/>
</svg>
