<svg width="57" height="57" viewBox="0 0 57 57" fill="none" xmlns="http://www.w3.org/2000/svg">
<g opacity="0.4">
<path d="M12.6667 15.6C12.6667 12.2397 12.6667 10.5595 13.3207 9.27606C13.8959 8.14708 14.8138 7.2292 15.9428 6.65396C17.2263 6 18.9064 6 22.2667 6H43.0667C46.4271 6 48.1072 6 49.3907 6.65396C50.5197 7.2292 51.4375 8.14708 52.0128 9.27606C52.6667 10.5595 52.6667 12.2397 52.6667 15.6V24.4C52.6667 27.7603 52.6667 29.4405 52.0128 30.7239C51.4375 31.8529 50.5197 32.7708 49.3907 33.346C48.1072 34 46.4271 34 43.0667 34H22.2667C18.9064 34 17.2263 34 15.9428 33.346C14.8138 32.7708 13.8959 31.8529 13.3207 30.7239C12.6667 29.4405 12.6667 27.7603 12.6667 24.4V15.6Z" fill="#D9D9D9"/>
<path d="M12.6667 15.6C12.6667 12.2397 12.6667 10.5595 13.3207 9.27606C13.8959 8.14708 14.8138 7.2292 15.9428 6.65396C17.2263 6 18.9064 6 22.2667 6H43.0667C46.4271 6 48.1072 6 49.3907 6.65396C50.5197 7.2292 51.4375 8.14708 52.0128 9.27606C52.6667 10.5595 52.6667 12.2397 52.6667 15.6V24.4C52.6667 27.7603 52.6667 29.4405 52.0128 30.7239C51.4375 31.8529 50.5197 32.7708 49.3907 33.346C48.1072 34 46.4271 34 43.0667 34H22.2667C18.9064 34 17.2263 34 15.9428 33.346C14.8138 32.7708 13.8959 31.8529 13.3207 30.7239C12.6667 29.4405 12.6667 27.7603 12.6667 24.4V15.6Z" fill="url(#paint0_linear_2008_45893)"/>
<path d="M24.6667 42H40.6667M32.6667 34V42M22.2667 34H43.0667C46.4271 34 48.1072 34 49.3907 33.346C50.5197 32.7708 51.4375 31.8529 52.0128 30.7239C52.6667 29.4405 52.6667 27.7603 52.6667 24.4V15.6C52.6667 12.2397 52.6667 10.5595 52.0128 9.27606C51.4375 8.14708 50.5197 7.2292 49.3907 6.65396C48.1072 6 46.4271 6 43.0667 6H22.2667C18.9064 6 17.2263 6 15.9428 6.65396C14.8138 7.2292 13.8959 8.14708 13.3207 9.27606C12.6667 10.5595 12.6667 12.2397 12.6667 15.6V24.4C12.6667 27.7603 12.6667 29.4405 13.3207 30.7239C13.8959 31.8529 14.8138 32.7708 15.9428 33.346C17.2263 34 18.9064 34 22.2667 34Z" stroke="url(#paint1_linear_2008_45893)" stroke-width="2" stroke-linecap="round" stroke-linejoin="round"/>
<path d="M4.66675 29.6C4.66675 26.2397 4.66675 24.5595 5.32071 23.2761C5.89595 22.1471 6.81383 21.2292 7.94281 20.654C9.22628 20 10.9064 20 14.2667 20H35.0667C38.4271 20 40.1072 20 41.3907 20.654C42.5197 21.2292 43.4375 22.1471 44.0128 23.2761C44.6667 24.5595 44.6667 26.2397 44.6667 29.6V38.4C44.6667 41.7603 44.6667 43.4405 44.0128 44.7239C43.4375 45.8529 42.5197 46.7708 41.3907 47.346C40.1072 48 38.4271 48 35.0667 48H14.2667C10.9064 48 9.22628 48 7.94281 47.346C6.81383 46.7708 5.89595 45.8529 5.32071 44.7239C4.66675 43.4405 4.66675 41.7603 4.66675 38.4V29.6Z" fill="url(#paint2_linear_2008_45893)"/>
<path d="M16.6667 56H32.6667M24.6667 48V56M14.2667 48H35.0667C38.4271 48 40.1072 48 41.3907 47.346C42.5197 46.7708 43.4375 45.8529 44.0128 44.7239C44.6667 43.4405 44.6667 41.7603 44.6667 38.4V29.6C44.6667 26.2397 44.6667 24.5595 44.0128 23.2761C43.4375 22.1471 42.5197 21.2292 41.3907 20.654C40.1072 20 38.4271 20 35.0667 20H14.2667C10.9064 20 9.22628 20 7.94281 20.654C6.81383 21.2292 5.89595 22.1471 5.32071 23.2761C4.66675 24.5595 4.66675 26.2397 4.66675 29.6V38.4C4.66675 41.7603 4.66675 43.4405 5.32071 44.7239C5.89595 45.8529 6.81383 46.7708 7.94281 47.346C9.22628 48 10.9064 48 14.2667 48Z" stroke="url(#paint3_linear_2008_45893)" stroke-width="0.68" stroke-linecap="round" stroke-linejoin="round"/>
</g>
<defs>
<linearGradient id="paint0_linear_2008_45893" x1="52.6667" y1="24" x2="12.6667" y2="24" gradientUnits="userSpaceOnUse">
<stop stop-color="#D189FF"/>
<stop offset="1" stop-color="#9F37E2"/>
</linearGradient>
<linearGradient id="paint1_linear_2008_45893" x1="52.6667" y1="24" x2="12.6667" y2="24" gradientUnits="userSpaceOnUse">
<stop stop-color="#D189FF"/>
<stop offset="1" stop-color="#9F37E2"/>
</linearGradient>
<linearGradient id="paint2_linear_2008_45893" x1="24.6667" y1="20" x2="24.6667" y2="56" gradientUnits="userSpaceOnUse">
<stop stop-color="#F3E9FB"/>
<stop offset="1" stop-color="#D9B2F3"/>
</linearGradient>
<linearGradient id="paint3_linear_2008_45893" x1="43.6667" y1="20.7512" x2="4.66675" y2="38" gradientUnits="userSpaceOnUse">
<stop stop-color="white"/>
<stop offset="0.84654" stop-color="#CA7DFB"/>
<stop offset="1" stop-color="#9F37E2"/>
</linearGradient>
</defs>
</svg>
