<svg width="68" height="57" viewBox="0 0 68 57" fill="none" xmlns="http://www.w3.org/2000/svg">
<g opacity="0.4">
<path d="M35.5146 0.388161C35.0817 0.175762 34.8653 0.0695629 34.6382 0.027765C34.4372 -0.00925499 34.2308 -0.00925499 34.0297 0.027765C33.8027 0.0695629 33.5862 0.175762 33.1533 0.388161L1.33398 16L33.1533 31.6118C33.5862 31.8242 33.8027 31.9304 34.0297 31.9722C34.2308 32.0093 34.4372 32.0093 34.6382 31.9722C34.8653 31.9304 35.0817 31.8242 35.5146 31.6118L67.334 16L35.5146 0.388161Z" fill="url(#paint0_linear_2008_37245)"/>
<path d="M35.5146 0.388161C35.0817 0.175762 34.8653 0.0695629 34.6382 0.027765C34.4372 -0.00925499 34.2308 -0.00925499 34.0297 0.027765C33.8027 0.0695629 33.5862 0.175762 33.1533 0.388161L1.33398 16L33.1533 31.6118C33.5862 31.8242 33.8027 31.9304 34.0297 31.9722C34.2308 32.0093 34.4372 32.0093 34.6382 31.9722C34.8653 31.9304 35.0817 31.8242 35.5146 31.6118L67.334 16L35.5146 0.388161Z" fill="url(#paint1_linear_2008_37245)"/>
<path d="M35.5146 12.3882C35.0817 12.1758 34.8653 12.0696 34.6382 12.0278C34.4372 11.9907 34.2308 11.9907 34.0297 12.0278C33.8027 12.0696 33.5862 12.1758 33.1533 12.3882L1.33398 28L33.1533 43.6118C33.5862 43.8242 33.8027 43.9304 34.0297 43.9722C34.2308 44.0093 34.4372 44.0093 34.6382 43.9722C34.8653 43.9304 35.0817 43.8242 35.5146 43.6118L67.334 28L35.5146 12.3882Z" fill="url(#paint2_linear_2008_37245)" stroke="white" stroke-width="0.86" stroke-linecap="round" stroke-linejoin="round"/>
<path d="M35.5146 24.3882C35.0817 24.1758 34.8653 24.0696 34.6382 24.0278C34.4372 23.9907 34.2308 23.9907 34.0297 24.0278C33.8027 24.0696 33.5862 24.1758 33.1533 24.3882L1.33398 40L33.1533 55.6118C33.5862 55.8242 33.8027 55.9304 34.0297 55.9722C34.2308 56.0093 34.4372 56.0093 34.6382 55.9722C34.8653 55.9304 35.0817 55.8242 35.5146 55.6118L67.334 40L35.5146 24.3882Z" fill="url(#paint3_linear_2008_37245)" stroke="white" stroke-width="0.86" stroke-linecap="round" stroke-linejoin="round"/>
</g>
<defs>
<linearGradient id="paint0_linear_2008_37245" x1="34.334" y1="0" x2="34.334" y2="32" gradientUnits="userSpaceOnUse">
<stop stop-color="#F3E9FB"/>
<stop offset="1" stop-color="#D9B2F3"/>
</linearGradient>
<linearGradient id="paint1_linear_2008_37245" x1="67.334" y1="16" x2="1.33398" y2="16" gradientUnits="userSpaceOnUse">
<stop stop-color="#D189FF"/>
<stop offset="1" stop-color="#9F37E2"/>
</linearGradient>
<linearGradient id="paint2_linear_2008_37245" x1="34.334" y1="12" x2="34.334" y2="44" gradientUnits="userSpaceOnUse">
<stop stop-color="#F3E9FB"/>
<stop offset="1" stop-color="#D9B2F3"/>
</linearGradient>
<linearGradient id="paint3_linear_2008_37245" x1="34.334" y1="24" x2="34.334" y2="56" gradientUnits="userSpaceOnUse">
<stop stop-color="#F3E9FB"/>
<stop offset="1" stop-color="#D9B2F3"/>
</linearGradient>
</defs>
</svg>
