<svg width="25" height="24" viewBox="0 0 25 24" fill="none" xmlns="http://www.w3.org/2000/svg">
<path d="M11.334 4.5H18.634C19.7541 4.5 20.3141 4.5 20.742 4.71799C21.1183 4.90973 21.4243 5.21569 21.616 5.59202C21.834 6.01984 21.834 6.57989 21.834 7.7V9C21.834 9.93188 21.834 10.3978 21.6817 10.7654C21.4788 11.2554 21.0894 11.6448 20.5993 11.8478C20.2318 12 19.7659 12 18.834 12M13.334 19.5H6.03398C4.91388 19.5 4.35383 19.5 3.926 19.282C3.54968 19.0903 3.24372 18.7843 3.05197 18.408C2.83398 17.9802 2.83398 17.4201 2.83398 16.3V15C2.83398 14.0681 2.83398 13.6022 2.98623 13.2346C3.18921 12.7446 3.57856 12.3552 4.06862 12.1522C4.43616 12 4.9021 12 5.83398 12M10.634 14.5H14.034C14.314 14.5 14.454 14.5 14.561 14.4455C14.6551 14.3976 14.7316 14.3211 14.7795 14.227C14.834 14.12 14.834 13.98 14.834 13.7V10.3C14.834 10.02 14.834 9.87996 14.7795 9.773C14.7316 9.67892 14.6551 9.60243 14.561 9.5545C14.454 9.5 14.314 9.5 14.034 9.5H10.634C10.354 9.5 10.2139 9.5 10.107 9.5545C10.0129 9.60243 9.93642 9.67892 9.88848 9.773C9.83398 9.87996 9.83398 10.02 9.83398 10.3V13.7C9.83398 13.98 9.83398 14.12 9.88848 14.227C9.93642 14.3211 10.0129 14.3976 10.107 14.4455C10.2139 14.5 10.354 14.5 10.634 14.5ZM18.134 22H21.534C21.814 22 21.954 22 22.061 21.9455C22.1551 21.8976 22.2316 21.8211 22.2795 21.727C22.334 21.62 22.334 21.48 22.334 21.2V17.8C22.334 17.52 22.334 17.38 22.2795 17.273C22.2316 17.1789 22.1551 17.1024 22.061 17.0545C21.954 17 21.814 17 21.534 17H18.134C17.854 17 17.7139 17 17.607 17.0545C17.5129 17.1024 17.4364 17.1789 17.3885 17.273C17.334 17.38 17.334 17.52 17.334 17.8V21.2C17.334 21.48 17.334 21.62 17.3885 21.727C17.4364 21.8211 17.5129 21.8976 17.607 21.9455C17.7139 22 17.854 22 18.134 22ZM3.13398 7H6.53398C6.81401 7 6.95402 7 7.06098 6.9455C7.15506 6.89757 7.23155 6.82108 7.27949 6.727C7.33398 6.62004 7.33398 6.48003 7.33398 6.2V2.8C7.33398 2.51997 7.33398 2.37996 7.27949 2.273C7.23155 2.17892 7.15506 2.10243 7.06098 2.0545C6.95402 2 6.81401 2 6.53398 2H3.13398C2.85396 2 2.71394 2 2.60699 2.0545C2.51291 2.10243 2.43642 2.17892 2.38848 2.273C2.33398 2.37996 2.33398 2.51997 2.33398 2.8V6.2C2.33398 6.48003 2.33398 6.62004 2.38848 6.727C2.43642 6.82108 2.51291 6.89757 2.60699 6.9455C2.71394 7 2.85396 7 3.13398 7Z" stroke="#946AD2" stroke-width="2" stroke-linecap="round" stroke-linejoin="round"/>
</svg>
