<svg width="56" height="56" viewBox="0 0 56 56" fill="none" xmlns="http://www.w3.org/2000/svg">
<rect width="56" height="56" rx="12" fill="white"/>
<path d="M18 33V32.8498C18 32.5333 18 32.3751 18.0242 32.2209C18.0457 32.084 18.0814 31.9497 18.1306 31.8202C18.1861 31.6743 18.2646 31.5369 18.4216 31.2622L22 25M18 33C18 35.2091 19.7909 37 22 37C24.2091 37 26 35.2091 26 33M18 33V32.8C18 32.52 18 32.38 18.0545 32.273C18.1024 32.1789 18.1789 32.1024 18.273 32.0545C18.38 32 18.52 32 18.8 32H25.2C25.48 32 25.62 32 25.727 32.0545C25.8211 32.1024 25.8976 32.1789 25.9455 32.273C26 32.38 26 32.52 26 32.8V33M22 25L25.5784 31.2622C25.7354 31.5369 25.8139 31.6743 25.8694 31.8202C25.9186 31.9497 25.9543 32.084 25.9758 32.2209C26 32.3751 26 32.5333 26 32.8498V33M22 25L34 23M30 31V30.8498C30 30.5333 30 30.3751 30.0242 30.2209C30.0457 30.084 30.0814 29.9497 30.1306 29.8202C30.1861 29.6743 30.2646 29.5369 30.4216 29.2622L34 23M30 31C30 33.2091 31.7909 35 34 35C36.2091 35 38 33.2091 38 31M30 31V30.8C30 30.52 30 30.38 30.0545 30.273C30.1024 30.1789 30.1789 30.1024 30.273 30.0545C30.38 30 30.52 30 30.8 30H37.2C37.48 30 37.62 30 37.727 30.0545C37.8211 30.1024 37.8976 30.1789 37.9455 30.273C38 30.38 38 30.52 38 30.8V31M34 23L37.5784 29.2622C37.7354 29.5369 37.8139 29.6743 37.8694 29.8202C37.9186 29.9497 37.9543 30.084 37.9758 30.2209C38 30.3751 38 30.5333 38 30.8498V31M28 19V24" stroke="#946AD2" stroke-width="2" stroke-linecap="round" stroke-linejoin="round"/>
</svg>
