<svg width="57" height="56" viewBox="0 0 57 56" fill="none" xmlns="http://www.w3.org/2000/svg">
<rect x="0.333496" width="56" height="56" rx="12" fill="white"/>
<path d="M34.3335 31L37.3335 34M37.3335 34L34.3335 37M37.3335 34H34.9024C33.9632 34 33.4936 34 33.0673 33.8705C32.6899 33.7559 32.3389 33.5681 32.0342 33.3176C31.69 33.0348 31.4295 32.644 30.9085 31.8626L30.6668 31.5M34.3335 19L37.3335 22M37.3335 22L34.3335 25M37.3335 22H34.9024C33.9632 22 33.4936 22 33.0673 22.1295C32.6899 22.2441 32.3389 22.4319 32.0342 22.6824C31.69 22.9652 31.4295 23.356 30.9085 24.1374L25.7585 31.8626C25.2375 32.644 24.977 33.0348 24.6328 33.3176C24.3281 33.5681 23.9771 33.7559 23.5997 33.8705C23.1734 34 22.7038 34 21.7646 34H19.3335M19.3335 22H21.7646C22.7038 22 23.1734 22 23.5997 22.1295C23.9771 22.2441 24.3281 22.4319 24.6328 22.6824C24.977 22.9652 25.2375 23.356 25.7585 24.1374L26.0002 24.5" stroke="#946AD2" stroke-width="2" stroke-linecap="round" stroke-linejoin="round"/>
</svg>
