<svg width="25" height="24" viewBox="0 0 25 24" fill="none" xmlns="http://www.w3.org/2000/svg">
<path d="M16.5756 7.75738C18.9188 10.1005 18.9188 13.8995 16.5756 16.2427M8.09037 16.2426C5.74722 13.8995 5.74722 10.1005 8.09037 7.75735M5.26194 19.0711C1.3567 15.1658 1.3567 8.8342 5.26194 4.92896M19.4041 4.929C23.3093 8.83424 23.3093 15.1659 19.4041 19.0711M14.333 12C14.333 13.1046 13.4376 14 12.333 14C11.2284 14 10.333 13.1046 10.333 12C10.333 10.8955 11.2284 10 12.333 10C13.4376 10 14.333 10.8955 14.333 12Z" stroke="#946AD2" stroke-width="2" stroke-linecap="round" stroke-linejoin="round"/>
</svg>
