<svg width="56" height="56" viewBox="0 0 56 56" fill="none" xmlns="http://www.w3.org/2000/svg">
<g opacity="0.4">
<path d="M15.25 9.14286C15.25 5.94256 15.25 4.34241 15.8728 3.12005C16.4207 2.04484 17.2948 1.17067 18.3701 0.62282C19.5924 0 21.1926 0 24.3929 0H46.1071C49.3074 0 50.9076 0 52.1299 0.62282C53.2052 1.17067 54.0793 2.04484 54.6272 3.12005C55.25 4.34241 55.25 5.94256 55.25 9.14286V30.8571C55.25 34.0574 55.25 35.6576 54.6272 36.8799C54.0793 37.9552 53.2052 38.8293 52.1299 39.3772C50.9076 40 49.3074 40 46.1071 40H24.3929C21.1926 40 19.5924 40 18.3701 39.3772C17.2948 38.8293 16.4207 37.9552 15.8728 36.8799C15.25 35.6576 15.25 34.0574 15.25 30.8571V9.14286Z" fill="url(#paint0_linear_2044_14038)"/>
<path d="M3.25 21.1429C3.25 17.9426 3.25 16.3424 3.87282 15.1201C4.42067 14.0448 5.29484 13.1707 6.37005 12.6228C7.59241 12 9.19256 12 12.3929 12H34.1071C37.3074 12 38.9076 12 40.1299 12.6228C41.2052 13.1707 42.0793 14.0448 42.6272 15.1201C43.25 16.3424 43.25 17.9426 43.25 21.1429V42.8571C43.25 46.0574 43.25 47.6576 42.6272 48.8799C42.0793 49.9552 41.2052 50.8293 40.1299 51.3772C38.9076 52 37.3074 52 34.1071 52H12.3929C9.19256 52 7.59241 52 6.37005 51.3772C5.29484 50.8293 4.42067 49.9552 3.87282 48.8799C3.25 47.6576 3.25 46.0574 3.25 42.8571V21.1429Z" fill="url(#paint1_linear_2044_14038)"/>
</g>
<defs>
<linearGradient id="paint0_linear_2044_14038" x1="35.25" y1="0" x2="35.25" y2="40" gradientUnits="userSpaceOnUse">
<stop stop-color="#F3E9FB"/>
<stop offset="1" stop-color="#D9B2F3"/>
</linearGradient>
<linearGradient id="paint1_linear_2044_14038" x1="43.25" y1="32" x2="3.25" y2="32" gradientUnits="userSpaceOnUse">
<stop stop-color="#D189FF"/>
<stop offset="1" stop-color="#9F37E2"/>
</linearGradient>
</defs>
</svg>
