<svg width="56" height="56" viewBox="0 0 56 56" fill="none" xmlns="http://www.w3.org/2000/svg">
<rect width="56" height="56" rx="12" fill="white"/>
<path d="M38 26.5L37.5256 22.7046C37.3395 21.216 37.2465 20.4717 36.8961 19.9108C36.5875 19.4166 36.1416 19.023 35.613 18.778C35.013 18.5 34.2629 18.5 32.7626 18.5H23.2374C21.7371 18.5 20.987 18.5 20.387 18.778C19.8584 19.023 19.4125 19.4166 19.1039 19.9108C18.7535 20.4717 18.6605 21.216 18.4744 22.7046L18 26.5M21.5 30.5H34.5M21.5 30.5C19.567 30.5 18 28.933 18 27C18 25.067 19.567 23.5 21.5 23.5H34.5C36.433 23.5 38 25.067 38 27C38 28.933 36.433 30.5 34.5 30.5M21.5 30.5C19.567 30.5 18 32.067 18 34C18 35.933 19.567 37.5 21.5 37.5H34.5C36.433 37.5 38 35.933 38 34C38 32.067 36.433 30.5 34.5 30.5M22 27H22.01M22 34H22.01M28 27H34M28 34H34" stroke="#946AD2" stroke-width="2" stroke-linecap="round" stroke-linejoin="round"/>
</svg>
