<svg width="57" height="56" viewBox="0 0 57 56" fill="none" xmlns="http://www.w3.org/2000/svg">
<g opacity="0.4">
<path d="M32.3339 36C23.8804 36 16.3627 40.0817 11.5766 46.4159C10.5465 47.7792 10.0314 48.4608 10.0483 49.3821C10.0613 50.0938 10.5082 50.9917 11.0682 51.4312C11.7931 52 12.7976 52 14.8065 52H49.8613C51.8703 52 52.8747 52 53.5996 51.4312C54.1596 50.9917 54.6066 50.0938 54.6196 49.3821C54.6364 48.4608 54.1214 47.7792 53.0913 46.4159C48.3051 40.0817 40.7874 36 32.3339 36Z" fill="url(#paint0_linear_2008_37215)"/>
<path d="M32.3339 36C23.8804 36 16.3627 40.0817 11.5766 46.4159C10.5465 47.7792 10.0314 48.4608 10.0483 49.3821C10.0613 50.0938 10.5082 50.9917 11.0682 51.4312C11.7931 52 12.7976 52 14.8065 52H49.8613C51.8703 52 52.8747 52 53.5996 51.4312C54.1596 50.9917 54.6066 50.0938 54.6196 49.3821C54.6364 48.4608 54.1214 47.7792 53.0913 46.4159C48.3051 40.0817 40.7874 36 32.3339 36Z" fill="url(#paint1_linear_2008_37215)"/>
<path d="M32.3339 28C38.9613 28 44.3339 22.6274 44.3339 16C44.3339 9.37258 38.9613 4 32.3339 4C25.7065 4 20.3339 9.37258 20.3339 16C20.3339 22.6274 25.7065 28 32.3339 28Z" fill="url(#paint2_linear_2008_37215)"/>
<path d="M32.3339 28C38.9613 28 44.3339 22.6274 44.3339 16C44.3339 9.37258 38.9613 4 32.3339 4C25.7065 4 20.3339 9.37258 20.3339 16C20.3339 22.6274 25.7065 28 32.3339 28Z" fill="url(#paint3_linear_2008_37215)"/>
</g>
<path d="M24.3339 36C15.8804 36 8.3627 40.0817 3.57656 46.4159C2.54646 47.7792 2.0314 48.4608 2.04825 49.3821C2.06127 50.0938 2.50821 50.9917 3.06822 51.4312C3.79308 52 4.79756 52 6.80653 52H41.8613C43.8703 52 44.8747 52 45.5996 51.4312C46.1596 50.9917 46.6066 50.0938 46.6196 49.3821C46.6364 48.4608 46.1214 47.7792 45.0913 46.4159C40.3051 40.0817 32.7874 36 24.3339 36Z" fill="url(#paint4_linear_2008_37215)"/>
<path d="M24.3339 36C15.8804 36 8.3627 40.0817 3.57656 46.4159C2.54646 47.7792 2.0314 48.4608 2.04825 49.3821C2.06127 50.0938 2.50821 50.9917 3.06822 51.4312C3.79308 52 4.79756 52 6.80653 52H41.8613C43.8703 52 44.8747 52 45.5996 51.4312C46.1596 50.9917 46.6066 50.0938 46.6196 49.3821C46.6364 48.4608 46.1214 47.7792 45.0913 46.4159C40.3051 40.0817 32.7874 36 24.3339 36Z" fill="url(#paint5_linear_2008_37215)"/>
<path d="M24.3339 28C30.9613 28 36.3339 22.6274 36.3339 16C36.3339 9.37258 30.9613 4 24.3339 4C17.7065 4 12.3339 9.37258 12.3339 16C12.3339 22.6274 17.7065 28 24.3339 28Z" fill="url(#paint6_linear_2008_37215)"/>
<path d="M24.3339 28C30.9613 28 36.3339 22.6274 36.3339 16C36.3339 9.37258 30.9613 4 24.3339 4C17.7065 4 12.3339 9.37258 12.3339 16C12.3339 22.6274 17.7065 28 24.3339 28Z" fill="url(#paint7_linear_2008_37215)"/>
<path d="M24.3339 36C15.8804 36 8.3627 40.0817 3.57656 46.4159C2.54646 47.7792 2.0314 48.4608 2.04825 49.3821C2.06127 50.0938 2.50821 50.9917 3.06822 51.4312C3.79308 52 4.79756 52 6.80653 52H41.8613C43.8703 52 44.8747 52 45.5996 51.4312C46.1596 50.9917 46.6066 50.0938 46.6196 49.3821C46.6364 48.4608 46.1214 47.7792 45.0913 46.4159C40.3051 40.0817 32.7874 36 24.3339 36Z" stroke="white" stroke-width="0.86" stroke-linecap="round" stroke-linejoin="round"/>
<path d="M24.3339 28C30.9613 28 36.3339 22.6274 36.3339 16C36.3339 9.37258 30.9613 4 24.3339 4C17.7065 4 12.3339 9.37258 12.3339 16C12.3339 22.6274 17.7065 28 24.3339 28Z" stroke="white" stroke-width="0.86" stroke-linecap="round" stroke-linejoin="round"/>
<defs>
<linearGradient id="paint0_linear_2008_37215" x1="32.3339" y1="4" x2="32.3339" y2="52" gradientUnits="userSpaceOnUse">
<stop stop-color="#F3E9FB"/>
<stop offset="1" stop-color="#D9B2F3"/>
</linearGradient>
<linearGradient id="paint1_linear_2008_37215" x1="54.62" y1="28" x2="10.0479" y2="28" gradientUnits="userSpaceOnUse">
<stop stop-color="#D189FF"/>
<stop offset="1" stop-color="#9F37E2"/>
</linearGradient>
<linearGradient id="paint2_linear_2008_37215" x1="32.3339" y1="4" x2="32.3339" y2="52" gradientUnits="userSpaceOnUse">
<stop stop-color="#F3E9FB"/>
<stop offset="1" stop-color="#D9B2F3"/>
</linearGradient>
<linearGradient id="paint3_linear_2008_37215" x1="54.62" y1="28" x2="10.0479" y2="28" gradientUnits="userSpaceOnUse">
<stop stop-color="#D189FF"/>
<stop offset="1" stop-color="#9F37E2"/>
</linearGradient>
<linearGradient id="paint4_linear_2008_37215" x1="24.3339" y1="4" x2="24.3339" y2="52" gradientUnits="userSpaceOnUse">
<stop stop-color="#F3E9FB"/>
<stop offset="1" stop-color="#D9B2F3"/>
</linearGradient>
<linearGradient id="paint5_linear_2008_37215" x1="24.3339" y1="4" x2="24.3339" y2="52" gradientUnits="userSpaceOnUse">
<stop stop-color="#F3E9FB"/>
<stop offset="1" stop-color="#D9B2F3"/>
</linearGradient>
<linearGradient id="paint6_linear_2008_37215" x1="24.3339" y1="4" x2="24.3339" y2="52" gradientUnits="userSpaceOnUse">
<stop stop-color="#F3E9FB"/>
<stop offset="1" stop-color="#D9B2F3"/>
</linearGradient>
<linearGradient id="paint7_linear_2008_37215" x1="24.3339" y1="4" x2="24.3339" y2="52" gradientUnits="userSpaceOnUse">
<stop stop-color="#F3E9FB"/>
<stop offset="1" stop-color="#D9B2F3"/>
</linearGradient>
</defs>
</svg>
