<svg width="25" height="24" viewBox="0 0 25 24" fill="none" xmlns="http://www.w3.org/2000/svg">
<path d="M8.66699 21H16.667M12.667 17V21M7.46699 17H17.867C19.5471 17 20.3872 17 21.029 16.673C21.5934 16.3854 22.0524 15.9265 22.34 15.362C22.667 14.7202 22.667 13.8802 22.667 12.2V7.8C22.667 6.11984 22.667 5.27976 22.34 4.63803C22.0524 4.07354 21.5934 3.6146 21.029 3.32698C20.3872 3 19.5471 3 17.867 3H7.46699C5.78683 3 4.94676 3 4.30502 3.32698C3.74053 3.6146 3.28159 4.07354 2.99397 4.63803C2.66699 5.27976 2.66699 6.11984 2.66699 7.8V12.2C2.66699 13.8802 2.66699 14.7202 2.99397 15.362C3.28159 15.9265 3.74053 16.3854 4.30502 16.673C4.94676 17 5.78683 17 7.46699 17Z" stroke="#946AD2" stroke-width="2" stroke-linecap="round" stroke-linejoin="round"/>
</svg>
