<svg width="45" height="44" viewBox="0 0 45 44" fill="none" xmlns="http://www.w3.org/2000/svg">
<g clip-path="url(#clip0_2008_46145)">
<path d="M20.9471 26.7106C20.9471 30.4118 19.0188 32.7412 15.9388 32.7412C12.8588 32.7412 10.9306 30.3988 10.9306 26.7106C10.9306 22.9965 12.8588 20.6671 15.9388 20.6671C19.0188 20.6671 20.9471 22.9965 20.9471 26.7106ZM25.2435 13.6529L23.8976 13.7435C23.1341 13.7953 22.7976 14.0671 22.7976 14.5588C22.7976 15.0765 23.2247 15.3612 23.82 15.3612C24.6353 15.3612 25.2435 14.8306 25.2435 14.1188V13.6529ZM44.5 22C44.5 34.2812 34.7812 44 22.5 44C10.2188 44 0.5 34.2812 0.5 22C0.5 9.71882 10.2188 0 22.5 0C34.7812 0 44.5 9.71882 44.5 22ZM27.5988 13.3812C27.5988 15.1671 28.5824 16.2541 30.1871 16.2541C31.5459 16.2541 32.4 15.4906 32.5424 14.4035H31.4812C31.3388 14.9988 30.8729 15.3224 30.1871 15.3224C29.2812 15.3224 28.7247 14.5847 28.7247 13.3812C28.7247 12.1906 29.2812 11.4788 30.1871 11.4788C30.9118 11.4788 31.3647 11.8929 31.4812 12.4235H32.5424C32.4 11.3624 31.5718 10.56 30.1871 10.56C28.5824 10.5471 27.5988 11.6341 27.5988 13.3812ZM12.8071 10.6635V16.1506H13.8941V12.7859C13.8941 12.0741 14.3988 11.5047 15.0588 11.5047C15.7059 11.5047 16.12 11.8929 16.12 12.5141V16.1506H17.1812V12.6824C17.1812 12.0224 17.6341 11.5047 18.3459 11.5047C19.0576 11.5047 19.4071 11.8671 19.4071 12.6306V16.1506H20.4941V12.3588C20.4941 11.22 19.8471 10.5471 18.7341 10.5471C17.9706 10.5471 17.3365 10.9353 17.0647 11.5306H16.9741C16.7282 10.9353 16.2106 10.5471 15.46 10.5471C14.7224 10.5471 14.1659 10.9094 13.9329 11.5306H13.8553V10.6506L12.8071 10.6635ZM22.8753 26.7106C22.8753 21.9353 20.2094 18.9329 15.9388 18.9329C11.6682 18.9329 9.00235 21.9353 9.00235 26.7106C9.00235 31.4859 11.6682 34.4753 15.9388 34.4753C20.2094 34.4753 22.8753 31.4729 22.8753 26.7106ZM23.5482 16.2412C24.2729 16.2412 24.8682 15.9306 25.2047 15.3741H25.2953V16.1506H26.3435V12.3976C26.3435 11.2459 25.5671 10.56 24.1824 10.56C22.9271 10.56 22.0471 11.1682 21.9306 12.0871H22.9788C23.0953 11.6859 23.5224 11.4659 24.1306 11.4659C24.8682 11.4659 25.2565 11.8024 25.2565 12.4106V12.8894L23.7682 12.98C22.4612 13.0576 21.7235 13.6271 21.7235 14.6235C21.7106 15.6071 22.4871 16.2412 23.5482 16.2412ZM35.4153 29.9459C35.4153 27.8106 34.1729 26.5682 31.0412 25.8824L29.3718 25.52C27.3141 25.0671 26.5118 24.2518 26.5118 23.0741C26.5118 21.5471 27.9612 20.6282 29.8376 20.6282C31.8047 20.6282 33.0988 21.6376 33.2671 23.2941H35.1435C35.0529 20.7447 32.8918 18.9459 29.8894 18.9459C26.7706 18.9459 24.5835 20.6929 24.5835 23.1647C24.5835 25.3 25.8906 26.6718 28.9059 27.3318L30.5753 27.6941C32.6588 28.1471 33.5 28.9882 33.5 30.2435C33.5 31.7188 32.0118 32.7929 29.98 32.7929C27.8188 32.7929 26.3176 31.8094 26.0976 30.1918H24.2212C24.4024 32.7929 26.5894 34.4753 29.8765 34.4753C33.2282 34.4753 35.4153 32.7282 35.4153 29.9459Z" fill="#1D1D1F"/>
</g>
<defs>
<clipPath id="clip0_2008_46145">
<rect width="44" height="44" fill="white" transform="translate(0.5)"/>
</clipPath>
</defs>
</svg>
