<svg width="48" height="56" viewBox="0 0 48 56" fill="none" xmlns="http://www.w3.org/2000/svg">
<g opacity="0.4">
<mask id="mask0_2044_18174" style="mask-type:luminance" maskUnits="userSpaceOnUse" x="11" y="0" width="37" height="47">
<path d="M47.3332 10.7262L36.9289 0H11.0352V8.39133H28.3796L38.7839 19.1175V46.6204H47.3332V10.7262Z" fill="white"/>
</mask>
<g mask="url(#mask0_2044_18174)">
<path d="M36.9289 0H14.0352C12.3783 0 11.0352 1.34315 11.0352 3V46.6204H44.3332C45.9901 46.6204 47.3332 45.2773 47.3332 43.6204V10.7262L36.9289 0Z" fill="url(#paint0_linear_2044_18174)"/>
</g>
<path d="M29.5276 8.91123C28.9626 8.32875 28.1858 8 27.3743 8H5.75C4.09315 8 2.75 9.34315 2.75 11V51.6204C2.75 53.2773 4.09315 54.6204 5.75 54.6204H36.0481C37.7049 54.6204 39.0481 53.2773 39.0481 51.6204V19.9421C39.0481 19.1623 38.7444 18.4131 38.2014 17.8533L29.5276 8.91123Z" fill="url(#paint1_linear_2044_18174)" stroke="url(#paint2_linear_2044_18174)" stroke-width="0.678797" stroke-miterlimit="10"/>
<path d="M28.3789 8.39136V19.1175H38.7832L28.3789 8.39136Z" fill="url(#paint3_linear_2044_18174)" stroke="url(#paint4_linear_2044_18174)" stroke-width="0.614428" stroke-linecap="round" stroke-linejoin="round"/>
<path opacity="0.75" d="M22.9836 23.1174H10.0936C9.74417 23.1174 9.46094 23.4007 9.46094 23.7501C9.46094 24.0994 9.74417 24.3827 10.0936 24.3827H22.9836C23.333 24.3827 23.6162 24.0994 23.6162 23.7501C23.6162 23.4007 23.333 23.1174 22.9836 23.1174Z" fill="#FEFDFF"/>
<path opacity="0.75" d="M30.6213 30.0408H10.3582C10.0088 30.0408 9.72559 30.324 9.72559 30.6734C9.72559 31.0228 10.0088 31.306 10.3582 31.306H30.6213C30.9707 31.306 31.254 31.0228 31.254 30.6734C31.254 30.324 30.9707 30.0408 30.6213 30.0408Z" fill="#FEFDFF"/>
<path opacity="0.75" d="M30.3567 37.7407H10.0936C9.74417 37.7407 9.46094 38.024 9.46094 38.3733C9.46094 38.7227 9.74417 39.006 10.0936 39.006H30.3567C30.7061 39.006 30.9893 38.7227 30.9893 38.3733C30.9893 38.024 30.7061 37.7407 30.3567 37.7407Z" fill="#FEFDFF"/>
<path opacity="0.75" d="M30.3567 45.0554H10.0936C9.74417 45.0554 9.46094 45.3387 9.46094 45.688C9.46094 46.0374 9.74417 46.3207 10.0936 46.3207H30.3567C30.7061 46.3207 30.9893 46.0374 30.9893 45.688C30.9893 45.3387 30.7061 45.0554 30.3567 45.0554Z" fill="#FEFDFF"/>
<path style="mix-blend-mode:color-dodge" d="M0.250005 8.5727C0.261709 9.11105 5.09521 9.46216 11.0464 9.36268C16.9976 9.2632 21.8194 8.7424 21.8135 8.20404C21.8018 7.66569 16.9683 7.31458 11.0171 7.41406C5.0601 7.51354 0.244154 8.03434 0.250005 8.5727Z" fill="url(#paint5_radial_2044_18174)"/>
<path style="mix-blend-mode:color-dodge" d="M18.4609 55.1931C18.4726 55.7314 23.3062 56.0825 29.2573 55.983C35.2085 55.8836 40.0303 55.3628 40.0245 54.8244C40.0127 54.286 35.1792 53.9349 29.2281 54.0344C23.271 54.1339 18.4551 54.6547 18.4609 55.1931Z" fill="url(#paint6_radial_2044_18174)"/>
</g>
<defs>
<linearGradient id="paint0_linear_2044_18174" x1="47.3332" y1="23.3102" x2="11.0352" y2="23.3102" gradientUnits="userSpaceOnUse">
<stop stop-color="#D189FF"/>
<stop offset="1" stop-color="#9F37E2"/>
</linearGradient>
<linearGradient id="paint1_linear_2044_18174" x1="20.8961" y1="9.45707" x2="20.8961" y2="67.3245" gradientUnits="userSpaceOnUse">
<stop stop-color="#AD55E6" stop-opacity="0.1"/>
<stop offset="0.93" stop-color="#AD55E6" stop-opacity="0.5"/>
</linearGradient>
<linearGradient id="paint2_linear_2044_18174" x1="33.1086" y1="10.1534" x2="6.03279" y2="57.0547" gradientUnits="userSpaceOnUse">
<stop stop-color="white" stop-opacity="0.45"/>
<stop offset="0.02" stop-color="white" stop-opacity="0.42"/>
<stop offset="0.09" stop-color="white" stop-opacity="0.31"/>
<stop offset="0.17" stop-color="white" stop-opacity="0.23"/>
<stop offset="0.26" stop-color="white" stop-opacity="0.16"/>
<stop offset="0.38" stop-color="white" stop-opacity="0.11"/>
<stop offset="0.54" stop-color="white" stop-opacity="0.09"/>
<stop offset="1" stop-color="white" stop-opacity="0.08"/>
</linearGradient>
<linearGradient id="paint3_linear_2044_18174" x1="28.3789" y1="13.7515" x2="38.7832" y2="13.7515" gradientUnits="userSpaceOnUse">
<stop stop-color="white" stop-opacity="0.35"/>
<stop offset="0.21" stop-color="white" stop-opacity="0.34"/>
<stop offset="0.4" stop-color="white" stop-opacity="0.29"/>
<stop offset="0.59" stop-color="white" stop-opacity="0.22"/>
<stop offset="0.77" stop-color="white" stop-opacity="0.12"/>
<stop offset="0.93" stop-color="white" stop-opacity="0"/>
</linearGradient>
<linearGradient id="paint4_linear_2044_18174" x1="28.0688" y1="13.7515" x2="39.0875" y2="13.7515" gradientUnits="userSpaceOnUse">
<stop stop-color="white" stop-opacity="0.45"/>
<stop offset="0.02" stop-color="white" stop-opacity="0.42"/>
<stop offset="0.09" stop-color="white" stop-opacity="0.31"/>
<stop offset="0.17" stop-color="white" stop-opacity="0.23"/>
<stop offset="0.26" stop-color="white" stop-opacity="0.16"/>
<stop offset="0.38" stop-color="white" stop-opacity="0.11"/>
<stop offset="0.54" stop-color="white" stop-opacity="0.09"/>
<stop offset="1" stop-color="white" stop-opacity="0.08"/>
</linearGradient>
<radialGradient id="paint5_radial_2044_18174" cx="0" cy="0" r="1" gradientUnits="userSpaceOnUse" gradientTransform="translate(11.0232 5.33713) rotate(179.03) scale(11.0534 0.973254)">
<stop stop-color="#B0B0AF"/>
<stop offset="0.14" stop-color="#989897" stop-opacity="0.82"/>
<stop offset="0.44" stop-color="#6A6A69" stop-opacity="0.47"/>
<stop offset="0.69" stop-color="#494948" stop-opacity="0.21"/>
<stop offset="0.89" stop-color="#343433" stop-opacity="0.06"/>
<stop offset="1" stop-color="#2D2D2C" stop-opacity="0"/>
</radialGradient>
<radialGradient id="paint6_radial_2044_18174" cx="0" cy="0" r="1" gradientUnits="userSpaceOnUse" gradientTransform="translate(29.2031 50.7451) rotate(179.03) scale(11.0534 0.973254)">
<stop stop-color="#B0B0AF"/>
<stop offset="0.14" stop-color="#989897" stop-opacity="0.82"/>
<stop offset="0.44" stop-color="#6A6A69" stop-opacity="0.47"/>
<stop offset="0.69" stop-color="#494948" stop-opacity="0.21"/>
<stop offset="0.89" stop-color="#343433" stop-opacity="0.06"/>
<stop offset="1" stop-color="#2D2D2C" stop-opacity="0"/>
</radialGradient>
</defs>
</svg>
