<svg width="66" height="65" viewBox="0 0 66 65" fill="none" xmlns="http://www.w3.org/2000/svg">
<g opacity="0.4">
<path d="M37.6673 37.3333V49V37.3333Z" fill="url(#paint0_linear_2008_37238)"/>
<path d="M16.6673 7H58.6673V26.1333C58.6673 30.0537 58.6673 32.0139 57.9044 33.5113C57.2332 34.8284 56.1624 35.8993 54.8452 36.5704C53.3479 37.3333 51.3877 37.3333 47.4673 37.3333H27.8673C23.9469 37.3333 21.9868 37.3333 20.4894 36.5704C19.1722 35.8993 18.1014 34.8284 17.4303 33.5113C16.6673 32.0139 16.6673 30.0537 16.6673 26.1333V7Z" fill="url(#paint1_linear_2008_37238)"/>
<path d="M28.334 25.6667V28V25.6667Z" fill="url(#paint2_linear_2008_37238)"/>
<path d="M37.6673 21V28V21Z" fill="url(#paint3_linear_2008_37238)"/>
<path d="M47.0006 16.3333V28V16.3333Z" fill="url(#paint4_linear_2008_37238)"/>
<path d="M37.6673 37.3333V49M51.6673 49L42.4474 41.3167C40.7469 39.8996 39.8966 39.1911 38.9475 38.9203C38.1107 38.6816 37.2239 38.6816 36.3871 38.9203C35.438 39.1911 34.5878 39.8996 32.8873 41.3167L23.6673 49M28.334 25.6667V28M37.6673 21V28M47.0006 16.3333V28M61.0006 7H14.334M16.6673 7H58.6673V26.1333C58.6673 30.0537 58.6673 32.0139 57.9044 33.5113C57.2332 34.8284 56.1624 35.8993 54.8452 36.5704C53.3479 37.3333 51.3877 37.3333 47.4673 37.3333H27.8673C23.9469 37.3333 21.9868 37.3333 20.4894 36.5704C19.1722 35.8993 18.1014 34.8284 17.4303 33.5113C16.6673 32.0139 16.6673 30.0537 16.6673 26.1333V7Z" stroke="url(#paint5_linear_2008_37238)" stroke-linecap="round" stroke-linejoin="round"/>
<path d="M29.0003 46.3333V58V46.3333Z" fill="url(#paint6_linear_2008_37238)"/>
<path d="M8.00033 16H50.0003V35.1333C50.0003 39.0537 50.0003 41.0139 49.2374 42.5113C48.5663 43.8284 47.4954 44.8993 46.1783 45.5704C44.6809 46.3333 42.7207 46.3333 38.8003 46.3333H19.2003C15.28 46.3333 13.3198 46.3333 11.8224 45.5704C10.5053 44.8993 9.43439 43.8284 8.76328 42.5113C8.00033 41.0139 8.00033 39.0537 8.00033 35.1333V16Z" fill="url(#paint7_linear_2008_37238)"/>
<path d="M19.667 34.6667V37V34.6667Z" fill="url(#paint8_linear_2008_37238)"/>
<path d="M29.0003 30V37V30Z" fill="url(#paint9_linear_2008_37238)"/>
<path d="M38.3337 25.3333V37V25.3333Z" fill="url(#paint10_linear_2008_37238)"/>
<path d="M29.0003 46.3333V58M43.0003 58L33.7804 50.3167C32.0799 48.8996 31.2296 48.1911 30.2805 47.9203C29.4438 47.6816 28.5569 47.6816 27.7201 47.9203C26.771 48.1911 25.9208 48.8996 24.2203 50.3167L15.0003 58M19.667 34.6667V37M29.0003 30V37M38.3337 25.3333V37M52.3337 16H5.66699M8.00033 16H50.0003V35.1333C50.0003 39.0537 50.0003 41.0139 49.2374 42.5113C48.5663 43.8284 47.4954 44.8993 46.1783 45.5704C44.6809 46.3333 42.7207 46.3333 38.8003 46.3333H19.2003C15.28 46.3333 13.3198 46.3333 11.8224 45.5704C10.5053 44.8993 9.43439 43.8284 8.76328 42.5113C8.00033 41.0139 8.00033 39.0537 8.00033 35.1333V16Z" stroke="black" stroke-linecap="round" stroke-linejoin="round"/>
<path d="M29.0003 46.3333V58M43.0003 58L33.7804 50.3167C32.0799 48.8996 31.2296 48.1911 30.2805 47.9203C29.4438 47.6816 28.5569 47.6816 27.7201 47.9203C26.771 48.1911 25.9208 48.8996 24.2203 50.3167L15.0003 58M19.667 34.6667V37M29.0003 30V37M38.3337 25.3333V37M52.3337 16H5.66699M8.00033 16H50.0003V35.1333C50.0003 39.0537 50.0003 41.0139 49.2374 42.5113C48.5663 43.8284 47.4954 44.8993 46.1783 45.5704C44.6809 46.3333 42.7207 46.3333 38.8003 46.3333H19.2003C15.28 46.3333 13.3198 46.3333 11.8224 45.5704C10.5053 44.8993 9.43439 43.8284 8.76328 42.5113C8.00033 41.0139 8.00033 39.0537 8.00033 35.1333V16Z" stroke="url(#paint11_linear_2008_37238)" stroke-linecap="round" stroke-linejoin="round"/>
</g>
<defs>
<linearGradient id="paint0_linear_2008_37238" x1="61.0006" y1="28" x2="14.334" y2="28" gradientUnits="userSpaceOnUse">
<stop stop-color="#D189FF"/>
<stop offset="1" stop-color="#9F37E2"/>
</linearGradient>
<linearGradient id="paint1_linear_2008_37238" x1="61.0006" y1="28" x2="14.334" y2="28" gradientUnits="userSpaceOnUse">
<stop stop-color="#D189FF"/>
<stop offset="1" stop-color="#9F37E2"/>
</linearGradient>
<linearGradient id="paint2_linear_2008_37238" x1="61.0006" y1="28" x2="14.334" y2="28" gradientUnits="userSpaceOnUse">
<stop stop-color="#D189FF"/>
<stop offset="1" stop-color="#9F37E2"/>
</linearGradient>
<linearGradient id="paint3_linear_2008_37238" x1="61.0006" y1="28" x2="14.334" y2="28" gradientUnits="userSpaceOnUse">
<stop stop-color="#D189FF"/>
<stop offset="1" stop-color="#9F37E2"/>
</linearGradient>
<linearGradient id="paint4_linear_2008_37238" x1="61.0006" y1="28" x2="14.334" y2="28" gradientUnits="userSpaceOnUse">
<stop stop-color="#D189FF"/>
<stop offset="1" stop-color="#9F37E2"/>
</linearGradient>
<linearGradient id="paint5_linear_2008_37238" x1="61.0006" y1="28" x2="14.334" y2="28" gradientUnits="userSpaceOnUse">
<stop stop-color="#D189FF"/>
<stop offset="1" stop-color="#9F37E2"/>
</linearGradient>
<linearGradient id="paint6_linear_2008_37238" x1="29.0003" y1="16" x2="29.0003" y2="58" gradientUnits="userSpaceOnUse">
<stop stop-color="#F3E9FB"/>
<stop offset="1" stop-color="#D9B2F3"/>
</linearGradient>
<linearGradient id="paint7_linear_2008_37238" x1="29.0003" y1="16" x2="29.0003" y2="58" gradientUnits="userSpaceOnUse">
<stop stop-color="#F3E9FB"/>
<stop offset="1" stop-color="#D9B2F3"/>
</linearGradient>
<linearGradient id="paint8_linear_2008_37238" x1="29.0003" y1="16" x2="29.0003" y2="58" gradientUnits="userSpaceOnUse">
<stop stop-color="#F3E9FB"/>
<stop offset="1" stop-color="#D9B2F3"/>
</linearGradient>
<linearGradient id="paint9_linear_2008_37238" x1="29.0003" y1="16" x2="29.0003" y2="58" gradientUnits="userSpaceOnUse">
<stop stop-color="#F3E9FB"/>
<stop offset="1" stop-color="#D9B2F3"/>
</linearGradient>
<linearGradient id="paint10_linear_2008_37238" x1="29.0003" y1="16" x2="29.0003" y2="58" gradientUnits="userSpaceOnUse">
<stop stop-color="#F3E9FB"/>
<stop offset="1" stop-color="#D9B2F3"/>
</linearGradient>
<linearGradient id="paint11_linear_2008_37238" x1="52.3337" y1="37" x2="5.66699" y2="37" gradientUnits="userSpaceOnUse">
<stop stop-color="#D189FF"/>
<stop offset="1" stop-color="#9F37E2"/>
</linearGradient>
</defs>
</svg>
