<svg width="65" height="46" viewBox="0 0 65 46" fill="none" xmlns="http://www.w3.org/2000/svg">
<g opacity="0.4">
<path d="M32.916 27V18C32.916 16.8954 32.0206 16 30.916 16H7.91602C6.81145 16 5.91602 15.1046 5.91602 14V5" stroke="black"/>
<path d="M32.916 27V18C32.916 16.8954 32.0206 16 30.916 16H7.91602C6.81145 16 5.91602 15.1046 5.91602 14V5" stroke="url(#paint0_linear_2059_11392)"/>
<path d="M32.916 28V18C32.916 16.8954 32.0206 16 30.916 16H25.916C24.8114 16 23.916 15.1046 23.916 14V5" stroke="black"/>
<path d="M32.916 28V18C32.916 16.8954 32.0206 16 30.916 16H25.916C24.8114 16 23.916 15.1046 23.916 14V5" stroke="url(#paint1_linear_2059_11392)"/>
<path d="M32.916 28V18C32.916 16.8954 33.8114 16 34.916 16H39.916C41.0206 16 41.916 15.1046 41.916 14V5" stroke="black"/>
<path d="M32.916 28V18C32.916 16.8954 33.8114 16 34.916 16H39.916C41.0206 16 41.916 15.1046 41.916 14V5" stroke="url(#paint2_linear_2059_11392)"/>
<path d="M32.916 28V18C32.916 16.8954 33.8114 16 34.916 16H57.916C59.0206 16 59.916 15.1046 59.916 14V5" stroke="black"/>
<path d="M32.916 28V18C32.916 16.8954 33.8114 16 34.916 16H57.916C59.0206 16 59.916 15.1046 59.916 14V5" stroke="url(#paint3_linear_2059_11392)"/>
<circle cx="23.916" cy="5" r="5" fill="#D9D9D9"/>
<circle cx="23.916" cy="5" r="5" fill="url(#paint4_linear_2059_11392)"/>
<circle cx="41.916" cy="5" r="5" fill="#D9D9D9"/>
<circle cx="41.916" cy="5" r="5" fill="url(#paint5_linear_2059_11392)"/>
<circle cx="59.916" cy="5" r="5" fill="#D9D9D9"/>
<circle cx="59.916" cy="5" r="5" fill="url(#paint6_linear_2059_11392)"/>
<circle cx="5.91602" cy="5" r="5" fill="#D9D9D9"/>
<circle cx="5.91602" cy="5" r="5" fill="url(#paint7_linear_2059_11392)"/>
<circle cx="32.916" cy="34" r="12" fill="#D9D9D9"/>
<circle cx="32.916" cy="34" r="12" fill="url(#paint8_linear_2059_11392)"/>
</g>
<defs>
<linearGradient id="paint0_linear_2059_11392" x1="19.416" y1="5" x2="19.416" y2="27" gradientUnits="userSpaceOnUse">
<stop stop-color="#F3E9FB"/>
<stop offset="1" stop-color="#D9B2F3"/>
</linearGradient>
<linearGradient id="paint1_linear_2059_11392" x1="28.416" y1="5" x2="28.416" y2="28" gradientUnits="userSpaceOnUse">
<stop stop-color="#F3E9FB"/>
<stop offset="1" stop-color="#D9B2F3"/>
</linearGradient>
<linearGradient id="paint2_linear_2059_11392" x1="37.416" y1="5" x2="37.416" y2="28" gradientUnits="userSpaceOnUse">
<stop stop-color="#F3E9FB"/>
<stop offset="1" stop-color="#D9B2F3"/>
</linearGradient>
<linearGradient id="paint3_linear_2059_11392" x1="46.416" y1="5" x2="46.416" y2="28" gradientUnits="userSpaceOnUse">
<stop stop-color="#F3E9FB"/>
<stop offset="1" stop-color="#D9B2F3"/>
</linearGradient>
<linearGradient id="paint4_linear_2059_11392" x1="23.916" y1="0" x2="23.916" y2="10" gradientUnits="userSpaceOnUse">
<stop stop-color="#F3E9FB"/>
<stop offset="1" stop-color="#D9B2F3"/>
</linearGradient>
<linearGradient id="paint5_linear_2059_11392" x1="41.916" y1="0" x2="41.916" y2="10" gradientUnits="userSpaceOnUse">
<stop stop-color="#F3E9FB"/>
<stop offset="1" stop-color="#D9B2F3"/>
</linearGradient>
<linearGradient id="paint6_linear_2059_11392" x1="59.916" y1="0" x2="59.916" y2="10" gradientUnits="userSpaceOnUse">
<stop stop-color="#F3E9FB"/>
<stop offset="1" stop-color="#D9B2F3"/>
</linearGradient>
<linearGradient id="paint7_linear_2059_11392" x1="5.91602" y1="0" x2="5.91602" y2="10" gradientUnits="userSpaceOnUse">
<stop stop-color="#F3E9FB"/>
<stop offset="1" stop-color="#D9B2F3"/>
</linearGradient>
<linearGradient id="paint8_linear_2059_11392" x1="44.916" y1="34" x2="20.916" y2="34" gradientUnits="userSpaceOnUse">
<stop stop-color="#D189FF"/>
<stop offset="1" stop-color="#9F37E2"/>
</linearGradient>
</defs>
</svg>
