<svg width="25" height="24" viewBox="0 0 25 24" fill="none" xmlns="http://www.w3.org/2000/svg">
<path d="M18.3335 15L21.3335 18M21.3335 18L18.3335 21M21.3335 18H18.9024C17.9632 18 17.4936 18 17.0673 17.8705C16.6899 17.7559 16.3389 17.5681 16.0342 17.3176C15.69 17.0348 15.4295 16.644 14.9085 15.8626L14.6668 15.5M18.3335 3L21.3335 6M21.3335 6L18.3335 9M21.3335 6H18.9024C17.9632 6 17.4936 6 17.0673 6.12945C16.6899 6.24406 16.3389 6.43194 16.0342 6.68236C15.69 6.96523 15.4295 7.35597 14.9085 8.13744L9.75846 15.8626C9.23747 16.644 8.97698 17.0348 8.63282 17.3176C8.32814 17.5681 7.97707 17.7559 7.5997 17.8705C7.17343 18 6.70383 18 5.76461 18H3.3335M3.3335 6H5.76461C6.70383 6 7.17343 6 7.5997 6.12945C7.97707 6.24406 8.32814 6.43194 8.63282 6.68236C8.97698 6.96523 9.23748 7.35597 9.75846 8.13744L10.0002 8.5" stroke="#946AD2" stroke-width="2" stroke-linecap="round" stroke-linejoin="round"/>
</svg>
