<svg width="25" height="24" viewBox="0 0 25 24" fill="none" xmlns="http://www.w3.org/2000/svg">
<path d="M21.6665 16V7.2C21.6665 6.0799 21.6665 5.51984 21.4485 5.09202C21.2568 4.71569 20.9508 4.40973 20.5745 4.21799C20.1467 4 19.5866 4 18.4665 4H6.8665C5.7464 4 5.18635 4 4.75852 4.21799C4.3822 4.40973 4.07624 4.71569 3.88449 5.09202C3.6665 5.51984 3.6665 6.0799 3.6665 7.2V16M5.33317 20H19.9998C20.6198 20 20.9298 20 21.1841 19.9319C21.8743 19.7469 22.4134 19.2078 22.5984 18.5176C22.6665 18.2633 22.6665 17.9533 22.6665 17.3333C22.6665 17.0233 22.6665 16.8683 22.6324 16.7412C22.54 16.3961 22.2704 16.1265 21.9253 16.0341C21.7982 16 21.6432 16 21.3332 16H3.99984C3.68985 16 3.53485 16 3.40768 16.0341C3.06259 16.1265 2.79305 16.3961 2.70058 16.7412C2.6665 16.8683 2.6665 17.0233 2.6665 17.3333C2.6665 17.9533 2.6665 18.2633 2.73465 18.5176C2.91959 19.2078 3.45868 19.7469 4.14887 19.9319C4.4032 20 4.71319 20 5.33317 20Z" stroke="#946AD2" stroke-width="2" stroke-linecap="round" stroke-linejoin="round"/>
</svg>
