<svg width="25" height="24" viewBox="0 0 25 24" fill="none" xmlns="http://www.w3.org/2000/svg">
<path d="M20.667 10V6.8C20.667 5.11984 20.667 4.27976 20.34 3.63803C20.0524 3.07354 19.5934 2.6146 19.029 2.32698C18.3872 2 17.5471 2 15.867 2H9.46699C7.78683 2 6.94676 2 6.30502 2.32698C5.74053 2.6146 5.28159 3.07354 4.99397 3.63803C4.66699 4.27976 4.66699 5.11984 4.66699 6.8V17.2C4.66699 18.8802 4.66699 19.7202 4.99397 20.362C5.28159 20.9265 5.74053 21.3854 6.30502 21.673C6.94676 22 7.78683 22 9.46699 22H13.167M18.667 21C18.667 21 21.667 19.5701 21.667 17.4252V14.9229L19.4794 14.1412C18.9538 13.9529 18.379 13.9529 17.8534 14.1412L15.667 14.9229V17.4252C15.667 19.5701 18.667 21 18.667 21Z" stroke="#946AD2" stroke-width="2" stroke-linecap="round" stroke-linejoin="round"/>
</svg>
