<svg width="66" height="56" viewBox="0 0 66 56" fill="none" xmlns="http://www.w3.org/2000/svg">
<g opacity="0.4">
<path d="M34.1806 0.388161C33.7477 0.175762 33.5313 0.0695629 33.3043 0.027765C33.1032 -0.00925499 32.8968 -0.00925499 32.6957 0.027765C32.4687 0.0695629 32.2523 0.175762 31.8194 0.388161L0 16L31.8194 31.6118C32.2523 31.8242 32.4687 31.9304 32.6957 31.9722C32.8968 32.0093 33.1032 32.0093 33.3043 31.9722C33.5313 31.9304 33.7477 31.8242 34.1806 31.6118L66 16L34.1806 0.388161Z" fill="url(#paint0_linear_2044_7696)"/>
<path d="M34.1806 0.388161C33.7477 0.175762 33.5313 0.0695629 33.3043 0.027765C33.1032 -0.00925499 32.8968 -0.00925499 32.6957 0.027765C32.4687 0.0695629 32.2523 0.175762 31.8194 0.388161L0 16L31.8194 31.6118C32.2523 31.8242 32.4687 31.9304 32.6957 31.9722C32.8968 32.0093 33.1032 32.0093 33.3043 31.9722C33.5313 31.9304 33.7477 31.8242 34.1806 31.6118L66 16L34.1806 0.388161Z" fill="url(#paint1_linear_2044_7696)"/>
<path d="M34.1806 12.3882C33.7477 12.1758 33.5313 12.0696 33.3043 12.0278C33.1032 11.9907 32.8968 11.9907 32.6957 12.0278C32.4687 12.0696 32.2523 12.1758 31.8194 12.3882L0 28L31.8194 43.6118C32.2523 43.8242 32.4687 43.9304 32.6957 43.9722C32.8968 44.0093 33.1032 44.0093 33.3043 43.9722C33.5313 43.9304 33.7477 43.8242 34.1806 43.6118L66 28L34.1806 12.3882Z" fill="url(#paint2_linear_2044_7696)"/>
<path d="M34.1806 24.3882C33.7477 24.1758 33.5313 24.0696 33.3043 24.0278C33.1032 23.9907 32.8968 23.9907 32.6957 24.0278C32.4687 24.0696 32.2523 24.1758 31.8194 24.3882L0 40L31.8194 55.6118C32.2523 55.8242 32.4687 55.9304 32.6957 55.9722C32.8968 56.0093 33.1032 56.0093 33.3043 55.9722C33.5313 55.9304 33.7477 55.8242 34.1806 55.6118L66 40L34.1806 24.3882Z" fill="url(#paint3_linear_2044_7696)"/>
</g>
<defs>
<linearGradient id="paint0_linear_2044_7696" x1="33" y1="0" x2="33" y2="32" gradientUnits="userSpaceOnUse">
<stop stop-color="#F3E9FB"/>
<stop offset="1" stop-color="#D9B2F3"/>
</linearGradient>
<linearGradient id="paint1_linear_2044_7696" x1="66" y1="16" x2="0" y2="16" gradientUnits="userSpaceOnUse">
<stop stop-color="#D189FF"/>
<stop offset="1" stop-color="#9F37E2"/>
</linearGradient>
<linearGradient id="paint2_linear_2044_7696" x1="33" y1="12" x2="33" y2="44" gradientUnits="userSpaceOnUse">
<stop stop-color="#F3E9FB"/>
<stop offset="1" stop-color="#D9B2F3"/>
</linearGradient>
<linearGradient id="paint3_linear_2044_7696" x1="33" y1="24" x2="33" y2="56" gradientUnits="userSpaceOnUse">
<stop stop-color="#F3E9FB"/>
<stop offset="1" stop-color="#D9B2F3"/>
</linearGradient>
</defs>
</svg>
