<svg width="55" height="56" viewBox="0 0 55 56" fill="none" xmlns="http://www.w3.org/2000/svg">
<g opacity="0.4">
<path d="M25.9135 6.70816C26.7893 5.19124 28.9788 5.19124 29.8546 6.70816L50.2395 42.0159C51.1153 43.5328 50.0206 45.4289 48.269 45.4289H7.49917C5.74758 45.4289 4.65283 43.5328 5.52863 42.0159L25.9135 6.70816Z" fill="url(#paint0_linear_2044_17610)" stroke="url(#paint1_linear_2044_17610)" stroke-width="0.68"/>
<rect x="22" width="11.7692" height="11.7692" rx="1" fill="#D9D9D9"/>
<rect x="22" width="11.7692" height="11.7692" rx="1" fill="url(#paint2_linear_2044_17610)"/>
<rect x="42.9229" y="39.2305" width="11.7692" height="11.7692" rx="1" fill="#D9D9D9"/>
<rect x="42.9229" y="39.2305" width="11.7692" height="11.7692" rx="1" fill="url(#paint3_linear_2044_17610)"/>
<rect x="0.75" y="39.2305" width="11.7692" height="11.7692" rx="1" fill="#D9D9D9"/>
<rect x="0.75" y="39.2305" width="11.7692" height="11.7692" rx="1" fill="url(#paint4_linear_2044_17610)"/>
</g>
<defs>
<linearGradient id="paint0_linear_2044_17610" x1="27.8841" y1="5.23047" x2="27.8841" y2="45.7689" gradientUnits="userSpaceOnUse">
<stop stop-color="#F3E9FB"/>
<stop offset="1" stop-color="#D9B2F3"/>
</linearGradient>
<linearGradient id="paint1_linear_2044_17610" x1="50.8883" y1="25.4997" x2="4.87988" y2="25.4997" gradientUnits="userSpaceOnUse">
<stop stop-color="#D189FF"/>
<stop offset="1" stop-color="#9F37E2"/>
</linearGradient>
<linearGradient id="paint2_linear_2044_17610" x1="33.7692" y1="5.88462" x2="22" y2="5.88462" gradientUnits="userSpaceOnUse">
<stop stop-color="#D189FF"/>
<stop offset="1" stop-color="#9F37E2"/>
</linearGradient>
<linearGradient id="paint3_linear_2044_17610" x1="54.6921" y1="45.1151" x2="42.9229" y2="45.1151" gradientUnits="userSpaceOnUse">
<stop stop-color="#D189FF"/>
<stop offset="1" stop-color="#9F37E2"/>
</linearGradient>
<linearGradient id="paint4_linear_2044_17610" x1="12.5192" y1="45.1151" x2="0.75" y2="45.1151" gradientUnits="userSpaceOnUse">
<stop stop-color="#D189FF"/>
<stop offset="1" stop-color="#9F37E2"/>
</linearGradient>
</defs>
</svg>
