<svg width="49" height="56" viewBox="0 0 49 56" fill="none" xmlns="http://www.w3.org/2000/svg">
<g opacity="0.4">
<g clip-path="url(#clip0_2008_37206)">
<path d="M3.91699 47C3.21692 47 2.86689 47 2.5995 46.8638C2.3643 46.7439 2.17308 46.5527 2.05323 46.3175C1.91699 46.0501 1.91699 45.7001 1.91699 45V19C1.91699 18.2999 1.91699 17.9499 2.05323 17.6825C2.17308 17.4473 2.3643 17.2561 2.5995 17.1362C2.86689 17 3.21692 17 3.91699 17L9.91699 17C10.6171 17 10.9671 17 11.2345 17.1362C11.4697 17.2561 11.6609 17.4473 11.7808 17.6825C11.917 17.9499 11.917 18.2999 11.917 19V25C11.917 25.7001 11.917 26.0501 12.0532 26.3175C12.1731 26.5527 12.3643 26.7439 12.5995 26.8638C12.8669 27 13.2169 27 13.917 27H19.917C20.6171 27 20.9671 27 21.2345 27.1362C21.4697 27.2561 21.6609 27.4473 21.7808 27.6825C21.917 27.9499 21.917 28.2999 21.917 29V35C21.917 35.7001 21.917 36.0501 22.0532 36.3175C22.1731 36.5527 22.3643 36.7439 22.5995 36.8638C22.8669 37 23.2169 37 23.917 37H29.917C30.6171 37 30.9671 37 31.2345 37.1362C31.4697 37.2561 31.6609 37.4473 31.7808 37.6825C31.917 37.9499 31.917 38.2999 31.917 39V45C31.917 45.7001 31.917 46.0501 31.7808 46.3175C31.6609 46.5527 31.4697 46.7439 31.2345 46.8638C30.9671 47 30.6171 47 29.917 47L3.91699 47Z" fill="url(#paint0_linear_2008_37206)"/>
<path d="M30.2503 10.9714C30.2503 10.3314 30.2503 10.0113 30.1232 9.76687C30.0113 9.55183 29.8328 9.37699 29.6133 9.26742C29.3638 9.14286 29.0371 9.14286 28.3837 9.14286H22.7837C22.1303 9.14286 21.8036 9.14286 21.554 9.26742C21.3345 9.37699 21.156 9.55183 21.0442 9.76687C20.917 10.0113 20.917 10.3314 20.917 10.9714V16.4571C20.917 17.0972 20.917 17.4172 21.0442 17.6617C21.156 17.8767 21.3345 18.0516 21.554 18.1612C21.8036 18.2857 22.1303 18.2857 22.7837 18.2857H28.3837C29.0371 18.2857 29.3638 18.2857 29.6133 18.1612C29.8328 18.0516 30.0113 17.8767 30.1232 17.6617C30.2503 17.4172 30.2503 17.0972 30.2503 16.4571V10.9714Z" fill="url(#paint1_linear_2008_37206)"/>
<path d="M46.5837 24.6857C46.5837 24.0457 46.5837 23.7256 46.4565 23.4812C46.3446 23.2661 46.1662 23.0913 45.9466 22.9817C45.6971 22.8571 45.3704 22.8571 44.717 22.8571H39.117C38.4636 22.8571 38.1369 22.8571 37.8873 22.9817C37.6678 23.0913 37.4893 23.2661 37.3775 23.4812C37.2503 23.7256 37.2503 24.0457 37.2503 24.6857V30.1714C37.2503 30.8115 37.2503 31.1315 37.3775 31.376C37.4893 31.591 37.6678 31.7659 37.8873 31.8754C38.1369 32 38.4636 32 39.117 32H44.717C45.3704 32 45.6971 32 45.9466 31.8754C46.1662 31.7659 46.3446 31.591 46.4565 31.376C46.5837 31.1315 46.5837 30.8115 46.5837 30.1714V24.6857Z" fill="url(#paint2_linear_2008_37206)"/>
<path d="M48.917 1.82857C48.917 1.18851 48.917 0.868481 48.7898 0.624011C48.678 0.408968 48.4995 0.234134 48.28 0.124564C48.0304 0 47.7037 0 47.0503 0H41.4503C40.7969 0 40.4702 0 40.2207 0.124564C40.0011 0.234134 39.8227 0.408968 39.7108 0.624011C39.5837 0.868481 39.5837 1.18851 39.5837 1.82857V7.31429C39.5837 7.95435 39.5837 8.27438 39.7108 8.51885C39.8227 8.73389 40.0011 8.90872 40.2207 9.01829C40.4702 9.14286 40.7969 9.14286 41.4503 9.14286H47.0503C47.7037 9.14286 48.0304 9.14286 48.28 9.01829C48.4995 8.90872 48.678 8.73389 48.7898 8.51885C48.917 8.27438 48.917 7.95435 48.917 7.31429V1.82857Z" fill="url(#paint3_linear_2008_37206)"/>
</g>
</g>
<defs>
<linearGradient id="paint0_linear_2008_37206" x1="16.917" y1="17" x2="16.917" y2="47" gradientUnits="userSpaceOnUse">
<stop stop-color="#F3E9FB"/>
<stop offset="1" stop-color="#D9B2F3"/>
</linearGradient>
<linearGradient id="paint1_linear_2008_37206" x1="20.917" y1="16" x2="48.917" y2="16" gradientUnits="userSpaceOnUse">
<stop stop-color="#D189FF"/>
<stop offset="1" stop-color="#9F37E2"/>
</linearGradient>
<linearGradient id="paint2_linear_2008_37206" x1="20.917" y1="16" x2="48.917" y2="16" gradientUnits="userSpaceOnUse">
<stop stop-color="#D189FF"/>
<stop offset="1" stop-color="#9F37E2"/>
</linearGradient>
<linearGradient id="paint3_linear_2008_37206" x1="20.917" y1="16" x2="48.917" y2="16" gradientUnits="userSpaceOnUse">
<stop stop-color="#D189FF"/>
<stop offset="1" stop-color="#9F37E2"/>
</linearGradient>
<clipPath id="clip0_2008_37206">
<rect width="48" height="48" fill="white" transform="matrix(-1 0 0 1 48.917 0)"/>
</clipPath>
</defs>
</svg>
