<svg width="61" height="56" viewBox="0 0 61 56" fill="none" xmlns="http://www.w3.org/2000/svg">
<g opacity="0.4">
<path d="M43.666 34.9999C44.3585 34.9999 44.7048 34.9999 44.9854 35.1537C45.2169 35.2805 45.4324 35.5187 45.5355 35.7617C45.6605 36.0563 45.629 36.3698 45.5661 36.9967C45.24 40.2468 44.1214 43.3785 42.2954 46.1113C40.0978 49.4003 36.9742 51.9638 33.3197 53.4775C29.6652 54.9913 25.6438 55.3873 21.7642 54.6156C17.8846 53.8439 14.3209 51.9391 11.5239 49.1421C8.72684 46.345 6.82202 42.7814 6.05032 38.9017C5.27861 35.0221 5.67468 31.0008 7.18843 27.3463C8.70219 23.6917 11.2656 20.5682 14.5546 18.3705C17.2874 16.5445 20.4192 15.4259 23.6693 15.0998C24.2962 15.0369 24.6096 15.0055 24.9042 15.1305C25.1472 15.2336 25.3854 15.4491 25.5123 15.6806C25.666 15.9612 25.666 16.3074 25.666 16.9999V32.9999C25.666 33.7 25.666 34.05 25.8023 34.3174C25.9221 34.5526 26.1133 34.7439 26.3485 34.8637C26.6159 34.9999 26.966 34.9999 27.666 34.9999H43.666Z" fill="url(#paint0_linear_2044_10685)"/>
<path d="M35.666 6.99994C35.666 6.30743 35.666 5.96117 35.8198 5.68054C35.9466 5.44904 36.1848 5.23356 36.4278 5.13046C36.7224 5.00547 37.0358 5.03692 37.6628 5.0998C42.2338 5.55829 46.531 7.58069 49.8082 10.8578C53.0853 14.1349 55.1077 18.4322 55.5662 23.0032C55.629 23.6301 55.6605 23.9436 55.5355 24.2382C55.4324 24.4812 55.2169 24.7193 54.9854 24.8462C54.7048 24.9999 54.3585 24.9999 53.666 24.9999L37.666 24.9999C36.966 24.9999 36.6159 24.9999 36.3485 24.8637C36.1133 24.7439 35.9221 24.5526 35.8023 24.3174C35.666 24.05 35.666 23.7 35.666 22.9999V6.99994Z" fill="url(#paint1_linear_2044_10685)"/>
</g>
<defs>
<linearGradient id="paint0_linear_2044_10685" x1="30.6437" y1="5.04468" x2="30.6437" y2="54.9999" gradientUnits="userSpaceOnUse">
<stop stop-color="#F3E9FB"/>
<stop offset="1" stop-color="#D9B2F3"/>
</linearGradient>
<linearGradient id="paint1_linear_2044_10685" x1="55.6213" y1="30.0223" x2="5.66602" y2="30.0223" gradientUnits="userSpaceOnUse">
<stop stop-color="#D189FF"/>
<stop offset="1" stop-color="#9F37E2"/>
</linearGradient>
</defs>
</svg>
