<svg width="33" height="32" viewBox="0 0 33 32" fill="none" xmlns="http://www.w3.org/2000/svg">
<path d="M33 0.316831L32.239 6.16062C30.348 6.01981 28.9182 6.39531 27.9497 7.28713C26.9811 8.17895 26.3585 9.39934 26.0818 10.9483C25.805 12.4972 25.7359 14.2105 25.8742 16.088H33V32H19.4403V13.9758C19.4403 9.04731 20.6164 5.3392 22.9686 2.85149C25.3669 0.316834 28.7107 -0.528053 33 0.316831ZM13.5597 0.316831L12.7987 6.16062C10.9078 6.01981 9.47799 6.39531 8.50943 7.28713C7.54088 8.17895 6.91824 9.39934 6.64151 10.9483C6.36478 12.4972 6.2956 14.2105 6.43396 16.088H13.5597V32H0V13.9758C0 9.04731 1.1761 5.3392 3.5283 2.85149C5.92662 0.316834 9.27044 -0.528053 13.5597 0.316831Z" fill="#DCCFF0"/>
</svg>
